<svg viewBox="0 0 20 20" fill="none" xmlns="http://www.w3.org/2000/svg">
<path fill-rule="evenodd" clip-rule="evenodd" d="M10.4835 2.18513C11.4854 1.21741 12.8273 0.681944 14.2203 0.694048C15.6132 0.706153 16.9456 1.26486 17.9306 2.24984C18.9156 3.23482 19.4743 4.56726 19.4864 5.96019C19.4985 7.35311 18.963 8.69506 17.9953 9.69701L17.9824 9.71017L15.4325 12.26C14.894 12.7987 14.2458 13.2155 13.5321 13.4817C12.8183 13.7479 12.0557 13.8576 11.2958 13.8031C10.536 13.7487 9.79675 13.5315 9.12823 13.1663C8.45971 12.801 7.87756 12.2963 7.42127 11.6863C7.06979 11.2164 7.16578 10.5505 7.63567 10.1991C8.10556 9.84758 8.77141 9.94357 9.1229 10.4135C9.39667 10.7795 9.74596 11.0823 10.1471 11.3015C10.5482 11.5206 10.9917 11.6509 11.4476 11.6836C11.9035 11.7162 12.3611 11.6504 12.7894 11.4907C13.2176 11.3309 13.6065 11.081 13.9296 10.7577L16.4728 8.21456C17.0497 7.61406 17.3687 6.81154 17.3615 5.97865C17.3542 5.1429 17.019 4.34343 16.428 3.75244C15.837 3.16146 15.0376 2.82623 14.2018 2.81897C13.3684 2.81173 12.5655 3.13116 11.9649 3.70866L10.5087 5.15636C10.0926 5.57008 9.41982 5.56812 9.00609 5.15198C8.59237 4.73584 8.59434 4.06311 9.01048 3.64938L10.4725 2.19588L10.4835 2.18513Z" fill="currentColor"/>
<path fill-rule="evenodd" clip-rule="evenodd" d="M6.41205 6.91803C7.1258 6.65178 7.88845 6.54215 8.64829 6.59657C9.40813 6.65098 10.1474 6.86818 10.8159 7.23342C11.4844 7.59866 12.0666 8.10341 12.5229 8.71342C12.8743 9.18331 12.7784 9.84916 12.3085 10.2006C11.8386 10.5521 11.1727 10.4561 10.8212 9.98625C10.5475 9.62024 10.1982 9.3174 9.79706 9.09825C9.39595 8.87911 8.9524 8.74879 8.49649 8.71614C8.04059 8.68349 7.583 8.74926 7.15475 8.90901C6.7265 9.06876 6.33762 9.31874 6.01448 9.642L3.47134 12.1851C2.89447 12.7856 2.5754 13.5882 2.58264 14.4211C2.5899 15.2568 2.92513 16.0563 3.51612 16.6473C4.10711 17.2383 4.90657 17.5735 5.74232 17.5807C6.57521 17.588 7.37772 17.2689 7.97822 16.6921L9.42474 15.2455C9.83968 14.8306 10.5124 14.8306 10.9273 15.2455C11.3423 15.6605 11.3423 16.3332 10.9273 16.7481L9.47385 18.2016L9.46068 18.2146C8.45873 19.1823 7.11678 19.7178 5.72386 19.7057C4.33094 19.6936 2.9985 19.1348 2.01352 18.1499C1.02853 17.1649 0.469824 15.8324 0.45772 14.4395C0.445616 13.0466 0.981086 11.7047 1.9488 10.7027L1.96174 10.6895L4.51161 8.13967C5.05015 7.60097 5.69837 7.18425 6.41205 6.91803Z" fill="currentColor"/>
</svg>
