<svg class="h-full" viewBox="0 0 350 533" fill="currentColor" xmlns="http://www.w3.org/2000/svg">
<path d="M13.1972 505.341C15.833 512.437 22.321 517.388 29.8566 518.047C37.3922 518.723 44.6574 515.006 48.5266 508.484C59.9482 489.155 77.6889 467.427 103.117 457.306C80.2402 406.737 66.639 361.709 58.5965 325.079C28.319 347.263 -24.8017 403.307 13.1972 505.341Z" />
<path d="M291.811 325.348C283.734 361.911 270.167 406.888 247.273 457.373C272.515 467.578 290.138 489.222 301.526 508.432C305.378 514.988 312.643 518.654 320.179 517.996C327.714 517.303 334.186 512.352 336.821 505.256C374.634 403.762 322.088 347.803 291.811 325.348Z" />
<path fill-rule="evenodd" clip-rule="evenodd" d="M282.856 225.882C283.988 113.457 222.622 38.27 191.246 7.23218C186.515 2.55201 180.078 -0.0499608 173.387 0.000726918C166.73 0.0683106 160.36 2.78855 155.697 7.5701C125.301 38.7768 66.4189 113.862 67.5341 225.865C67.5341 225.865 61.9246 329.336 132.279 471.43H174.468H175.921H218.11C288.448 329.336 282.856 225.882 282.856 225.882ZM175.052 202.973C198.248 202.973 217.052 184.169 217.052 160.973C217.052 137.777 198.248 118.973 175.052 118.973C151.856 118.973 133.052 137.777 133.052 160.973C133.052 184.169 151.856 202.973 175.052 202.973Z" />
<path d="M237.254 495.575H114.691V532.712H237.254V495.575Z" />
</svg>
