<svg viewBox="0 0 22 23" fill="none" xmlns="http://www.w3.org/2000/svg">
<title>Search</title>
<path d="M21.463 19.3107L17.2051 15.0528C18.5016 13.1121 19.0298 10.7585 18.6871 8.44989C18.3444 6.14128 17.1552 4.04268 15.3508 2.5623C13.5465 1.08193 11.256 0.325627 8.92489 0.440513C6.5938 0.555399 4.38879 1.53326 2.73875 3.18388C1.08871 4.8345 0.111632 7.03986 -0.00242969 9.37099C-0.116492 11.7021 0.640618 13.9923 2.12163 15.7962C3.60264 17.6 5.70166 18.7884 8.0104 19.1304C10.3191 19.4723 12.6725 18.9432 14.6128 17.646L18.8707 21.903C19.2174 22.2412 19.6825 22.4305 20.1669 22.4305C20.6512 22.4305 21.1163 22.2412 21.463 21.903C21.8067 21.5592 21.9998 21.093 21.9998 20.6069C21.9998 20.1207 21.8067 19.6545 21.463 19.3107ZM9.39602 3.1902C10.7104 3.1902 11.9953 3.57997 13.0882 4.31023C14.1811 5.04048 15.033 6.07842 15.536 7.29279C16.039 8.50715 16.1706 9.84341 15.9142 11.1326C15.6577 12.4217 15.0248 13.6059 14.0953 14.5353C13.1659 15.4648 11.9817 16.0977 10.6926 16.3542C9.40339 16.6106 8.06714 16.479 6.85277 15.976C5.6384 15.473 4.60046 14.6212 3.87021 13.5283C3.13996 12.4354 2.75019 11.1505 2.75019 9.83604C2.75213 8.07405 3.45293 6.38478 4.69885 5.13887C5.94476 3.89295 7.63403 3.19214 9.39602 3.1902Z" fill="currentColor"/>
</svg>
