<svg viewBox="0 0 21 17" fill="none" xmlns="http://www.w3.org/2000/svg">
<title>Twitter</title>
<path d="M20.5266 2.25547C19.7886 2.57727 18.9958 2.79471 18.1624 2.89299C19.0223 2.38662 19.6657 1.58966 19.9724 0.650806C19.1645 1.12306 18.2802 1.45548 17.3581 1.63361C16.738 0.982058 15.9167 0.5502 15.0216 0.405083C14.1266 0.259965 13.2079 0.409708 12.4082 0.831061C11.6085 1.25241 10.9725 1.92181 10.599 2.73531C10.2254 3.54881 10.1353 4.4609 10.3425 5.32999C8.70545 5.2491 7.10395 4.83037 5.64196 4.10097C4.17998 3.37157 2.89018 2.3478 1.85627 1.09611C1.50275 1.69623 1.29948 2.39202 1.29948 3.13303C1.29908 3.80012 1.46602 4.45698 1.78546 5.04535C2.10491 5.63372 2.56699 6.1354 3.13071 6.50587C2.47694 6.4854 1.8376 6.31156 1.26589 5.99882V6.051C1.26583 6.98661 1.5947 7.89343 2.1967 8.61759C2.7987 9.34175 3.63675 9.83864 4.56866 10.024C3.96218 10.1855 3.32633 10.2093 2.70914 10.0935C2.97207 10.8986 3.48423 11.6026 4.17392 12.1069C4.86361 12.6113 5.69631 12.8908 6.55544 12.9063C5.09702 14.0329 3.29588 14.6441 1.44177 14.6414C1.11333 14.6415 0.785174 14.6226 0.458984 14.5849C2.34102 15.7757 4.53184 16.4077 6.76932 16.4052C14.3435 16.4052 18.4841 10.2318 18.4841 4.87773C18.4841 4.70378 18.4797 4.52809 18.4717 4.35414C19.2771 3.78097 19.9723 3.07119 20.5248 2.25808L20.5266 2.25547Z" fill="currentColor"/>
</svg>
