<svg viewBox="0 0 25 17" fill="none" xmlns="http://www.w3.org/2000/svg">
<title>YouTube</title>
<path d="M24.1859 2.99711C24.0488 2.52364 23.7801 2.09186 23.4065 1.74499C23.0329 1.39811 22.5677 1.14831 22.0573 1.02059C20.1787 0.552002 12.648 0.552002 12.648 0.552002C12.648 0.552002 5.11725 0.552002 3.2386 1.01809C2.72801 1.14541 2.26252 1.39507 1.8889 1.74201C1.51527 2.08894 1.24664 2.52094 1.11001 2.99462C0.607422 4.73935 0.607422 8.37835 0.607422 8.37835C0.607422 8.37835 0.607422 12.0174 1.11001 13.7596C1.38683 14.7217 2.20387 15.4794 3.2386 15.7361C5.11725 16.2047 12.648 16.2047 12.648 16.2047C12.648 16.2047 20.1787 16.2047 22.0573 15.7361C23.0947 15.4794 23.9091 14.7217 24.1859 13.7596C24.6885 12.0174 24.6885 8.37835 24.6885 8.37835C24.6885 8.37835 24.6885 4.73935 24.1859 2.99711ZM10.256 11.7183V5.03845L16.4913 8.35343L10.256 11.7183Z" fill="currentColor"/>
</svg>
