<svg viewBox="0 0 22 22" fill="none" xmlns="http://www.w3.org/2000/svg">
<title>Instagram</title>
<path fill-rule="evenodd" clip-rule="evenodd" d="M6.32959 1.01706C7.44116 0.965885 7.79558 0.954514 10.6271 0.954514C13.4586 0.954514 13.8131 0.966833 14.9237 1.01706C16.0343 1.06728 16.7924 1.24449 17.4558 1.5013C18.1504 1.76379 18.7806 2.17412 19.3018 2.7048C19.8324 3.22505 20.2418 3.85428 20.5034 4.54984C20.7611 5.21319 20.9374 5.97129 20.9886 7.08003C21.0397 8.1935 21.0511 8.54791 21.0511 11.3785C21.0511 14.21 21.0388 14.5645 20.9886 15.676C20.9383 16.7848 20.7611 17.5429 20.5034 18.2062C20.2418 18.9019 19.8318 19.5321 19.3018 20.0532C18.7806 20.5838 18.1504 20.9932 17.4558 21.2548C16.7924 21.5125 16.0343 21.6888 14.9256 21.7399C13.8131 21.7911 13.4586 21.8025 10.6271 21.8025C7.79558 21.8025 7.44116 21.7902 6.32959 21.7399C5.22085 21.6897 4.46275 21.5125 3.7994 21.2548C3.10376 20.9932 2.47349 20.5831 1.95246 20.0532C1.42214 19.5326 1.01176 18.9026 0.749911 18.2072C0.493101 17.5438 0.316841 16.7857 0.265669 15.677C0.214497 14.5635 0.203125 14.2091 0.203125 11.3785C0.203125 8.54697 0.215444 8.19255 0.265669 7.08192C0.315894 5.97129 0.493101 5.21319 0.749911 4.54984C1.01214 3.85435 1.42284 3.2244 1.95341 2.70385C2.4737 2.17365 3.10334 1.76327 3.79845 1.5013C4.4618 1.24449 5.21991 1.06823 6.32864 1.01706H6.32959ZM14.8394 2.89338C13.7401 2.84315 13.4103 2.83273 10.6271 2.83273C7.84391 2.83273 7.51413 2.84315 6.41487 2.89338C5.39806 2.93981 4.84654 3.10944 4.47886 3.25253C3.99272 3.44206 3.64494 3.66665 3.2801 4.03149C2.93425 4.36794 2.6681 4.77754 2.50114 5.23024C2.35805 5.59793 2.18842 6.14945 2.14199 7.16626C2.09176 8.26552 2.08134 8.5953 2.08134 11.3785C2.08134 14.1617 2.09176 14.4915 2.14199 15.5907C2.18842 16.6076 2.35805 17.1591 2.50114 17.5268C2.66792 17.9788 2.93421 18.3891 3.2801 18.7255C3.61651 19.0714 4.02683 19.3377 4.47886 19.5045C4.84654 19.6476 5.39806 19.8172 6.41487 19.8636C7.51413 19.9139 7.84296 19.9243 10.6271 19.9243C13.4113 19.9243 13.7401 19.9139 14.8394 19.8636C15.8562 19.8172 16.4077 19.6476 16.7754 19.5045C17.2615 19.3149 17.6093 19.0904 17.9741 18.7255C18.32 18.3891 18.5863 17.9788 18.7531 17.5268C18.8962 17.1591 19.0658 16.6076 19.1122 15.5907C19.1625 14.4915 19.1729 14.1617 19.1729 11.3785C19.1729 8.5953 19.1625 8.26552 19.1122 7.16626C19.0658 6.14945 18.8962 5.59793 18.7531 5.23024C18.5636 4.74411 18.339 4.39633 17.9741 4.03149C17.6376 3.68567 17.2281 3.41951 16.7754 3.25253C16.4077 3.10944 15.8562 2.93981 14.8394 2.89338ZM9.29569 14.5919C10.0393 14.9015 10.8672 14.9432 11.6382 14.7101C12.4091 14.477 13.0752 13.9835 13.5227 13.3138C13.9702 12.6441 14.1713 11.8399 14.0917 11.0384C14.0121 10.2369 13.6567 9.48794 13.0862 8.91939C12.7226 8.55595 12.2828 8.27766 11.7987 8.10456C11.3146 7.93146 10.7981 7.86785 10.2864 7.91832C9.77477 7.96879 9.28067 8.13207 8.83969 8.39642C8.39871 8.66076 8.02182 9.0196 7.73616 9.44708C7.45051 9.87457 7.26319 10.3601 7.18769 10.8686C7.11219 11.3772 7.15038 11.8962 7.29953 12.3882C7.44868 12.8803 7.70506 13.3331 8.05023 13.7142C8.39539 14.0952 8.82075 14.395 9.29569 14.5919ZM6.83847 7.58986C7.336 7.09232 7.92666 6.69766 8.57671 6.4284C9.22677 6.15913 9.9235 6.02055 10.6271 6.02055C11.3307 6.02055 12.0275 6.15913 12.6775 6.4284C13.3276 6.69766 13.9182 7.09232 14.4158 7.58986C14.9133 8.08739 15.308 8.67804 15.5772 9.3281C15.8465 9.97816 15.9851 10.6749 15.9851 11.3785C15.9851 12.0821 15.8465 12.7788 15.5772 13.4289C15.308 14.079 14.9133 14.6696 14.4158 15.1671C13.4109 16.172 12.0481 16.7365 10.6271 16.7365C9.2061 16.7365 7.84328 16.172 6.83847 15.1671C5.83366 14.1623 5.26916 12.7995 5.26916 11.3785C5.26916 9.95748 5.83366 8.59467 6.83847 7.58986ZM17.1734 6.81848C17.2967 6.70218 17.3954 6.56232 17.4636 6.40718C17.5319 6.25205 17.5684 6.08479 17.5708 5.91532C17.5733 5.74584 17.5417 5.5776 17.478 5.42054C17.4143 5.26348 17.3197 5.1208 17.1999 5.00095C17.08 4.8811 16.9373 4.78652 16.7803 4.7228C16.6232 4.65908 16.455 4.62753 16.2855 4.63C16.116 4.63247 15.9488 4.66892 15.7936 4.73719C15.6385 4.80546 15.4987 4.90416 15.3823 5.02745C15.1562 5.26723 15.0323 5.58572 15.0371 5.91532C15.0419 6.24491 15.175 6.55966 15.4081 6.79275C15.6412 7.02583 15.9559 7.1589 16.2855 7.1637C16.6151 7.16851 16.9336 7.04467 17.1734 6.81848Z" fill="currentColor"/>
</svg>
