<svg viewBox="0 0 19 19" fill="none" xmlns="http://www.w3.org/2000/svg">
<title>LinkedIn</title>
<path fill-rule="evenodd" clip-rule="evenodd" d="M7.1786 6.67478H10.4911V8.32478C10.9682 7.3758 12.1919 6.52316 14.0301 6.52316C17.554 6.52316 18.3906 8.41218 18.3906 11.8781V18.297H14.823V12.6674C14.823 10.6936 14.3458 9.58056 13.1311 9.58056C11.4463 9.58056 10.7462 10.7802 10.7462 12.6665V18.297H7.1786V6.67478ZM1.06111 18.1454H4.62868V6.52316H1.06111V18.1454ZM5.13973 2.73351C5.13987 3.03254 5.08056 3.32861 4.96527 3.60452C4.84998 3.88043 4.68099 4.13067 4.46814 4.3407C4.03682 4.76936 3.453 5.00931 2.8449 5.00783C2.23787 5.00742 1.65539 4.76809 1.22344 4.34159C1.01136 4.13085 0.842943 3.88032 0.727852 3.60438C0.61276 3.32843 0.553251 3.03249 0.552734 2.73351C0.552734 2.1297 0.793545 1.55175 1.22433 1.12543C1.6559 0.698351 2.23862 0.458916 2.84579 0.459183C3.45406 0.459183 4.03736 0.699102 4.46814 1.12543C4.89803 1.55175 5.13973 2.1297 5.13973 2.73351Z" fill="currentColor"/>
</svg>
