<?xml version="1.0" standalone="no"?>
<!DOCTYPE svg PUBLIC "-//W3C//DTD SVG 1.1//EN" "http://www.w3.org/Graphics/SVG/1.1/DTD/svg11.dtd" >
<svg xmlns="http://www.w3.org/2000/svg" xmlns:xlink="http://www.w3.org/1999/xlink" version="1.1">
<metadata>
Created by FontForge 20170731 at Thu Jul 30 23:51:47 2020
 By Aleksey,,,
Copyright (c) 2016 by Mattox Shuler. All rights reserved.
</metadata>
<defs>
<font id="Native-Italic" horiz-adv-x="1187" >
  <font-face 
    font-family="Native"
    font-weight="400"
    font-style="italic"
    font-stretch="normal"
    units-per-em="2048"
    panose-1="0 0 5 0 0 0 0 0 0 0"
    ascent="1536"
    descent="-512"
    x-height="1024"
    cap-height="1311"
    bbox="-989 -649 1505.88 1966"
    underline-thickness="102"
    underline-position="-307"
    slope="-10"
    unicode-range="U+0020-25CA"
  />
<missing-glyph 
d="M170 -266l317 1802h574l-318 -1802h-573zM569 1229h299l11 59h-119l12 68h119l10 59h-297l-10 -59h117l-13 -68h-118zM528 995h299l11 62h-119l16 98q6 29 -22 29h-123q-29 0 -35 -29zM598 1057l12 65h60l-13 -65h-59zM487 762h152q27 0 33 29l16 96h60l-9 -53h60l14 84
q6 28 -25 28h-270l-10 -59h119l-11 -66h-118zM469 657h299l23 127h-60l-12 -65h-240zM455 416h241q30 0 33 28l27 146q3 28 -25 28h-123q-30 0 -33 -28l-12 -72h62l6 41h59l-14 -84h-180l24 143h-59l-31 -174q-3 -28 25 -28zM399 102h242q30 0 33 29l26 148q6 28 -24 28
h-242q-27 0 -33 -28l-26 -148q-3 -29 24 -29zM440 162l15 86h180l-14 -86h-181zM328 -141h299l10 59h-184l200 92l9 51h-300l-10 -59h166l-180 -84z" />
    <glyph glyph-name=".notdef" 
d="M170 -266l317 1802h574l-318 -1802h-573zM569 1229h299l11 59h-119l12 68h119l10 59h-297l-10 -59h117l-13 -68h-118zM528 995h299l11 62h-119l16 98q6 29 -22 29h-123q-29 0 -35 -29zM598 1057l12 65h60l-13 -65h-59zM487 762h152q27 0 33 29l16 96h60l-9 -53h60l14 84
q6 28 -25 28h-270l-10 -59h119l-11 -66h-118zM469 657h299l23 127h-60l-12 -65h-240zM455 416h241q30 0 33 28l27 146q3 28 -25 28h-123q-30 0 -33 -28l-12 -72h62l6 41h59l-14 -84h-180l24 143h-59l-31 -174q-3 -28 25 -28zM399 102h242q30 0 33 29l26 148q6 28 -24 28
h-242q-27 0 -33 -28l-26 -148q-3 -29 24 -29zM440 162l15 86h180l-14 -86h-181zM328 -141h299l10 59h-184l200 92l9 51h-300l-10 -59h166l-180 -84z" />
    <glyph glyph-name=".null" horiz-adv-x="0" 
 />
    <glyph glyph-name="nonmarkingreturn" horiz-adv-x="682" 
 />
    <glyph glyph-name="space" unicode=" " 
 />
    <glyph glyph-name="exclam" unicode="!" 
d="M498 389l145 989h209l-203 -989h-151zM510 -20q-59 0 -93 42.5t-24 102.5q9 51 51 86t93 35q60 0 94.5 -43t23.5 -103q-9 -51 -50.5 -85.5t-94.5 -34.5z" />
    <glyph glyph-name="quotedbl" unicode="&#x22;" 
d="M381 860l65 553h213l-131 -553h-147zM782 860l66 553h213l-131 -553h-148z" />
    <glyph glyph-name="numbersign" unicode="#" 
d="M1186 852h-213l-103 -354h205l-22 -131h-219l-105 -367h-143l104 367h-307l-104 -367h-144l105 367h-203l22 131h217l103 354h-209l25 131h221l94 328h143l-94 -328h307l95 328h143l-94 -328h200zM727 498l102 354h-307l-102 -354h307z" />
    <glyph glyph-name="dollar" unicode="$" 
d="M743 1090q-132 0 -212.5 -45t-94.5 -123q-9 -60 39.5 -104.5t177.5 -84.5q377 -105 332 -350q-22 -123 -127 -202.5t-274 -98.5l-33 -184h-123l31 180q-96 3 -185 24t-147 54l29 161q59 -45 149 -70.5t191 -25.5q139 0 228 52t103 135q11 66 -46.5 110.5t-176.5 81.5
q-369 101 -325 350q19 110 119 185.5t264 93.5l34 184h123l-33 -180q186 -7 273 -47l-27 -158q-46 27 -127 44.5t-162 17.5z" />
    <glyph glyph-name="percent" unicode="%" 
d="M330 700q-118 0 -171.5 87t-27.5 239q26 143 99.5 222t181.5 79q119 0 172.5 -87t25.5 -239q-25 -143 -97.5 -222t-182.5 -79zM-31 0l1145 1311h156l-1145 -1311h-156zM338 827q52 0 89 51.5t52 139.5t-4 135t-67 47q-53 0 -91 -51t-53 -139q-15 -89 4.5 -136t69.5 -47z
M829 -16q-118 0 -172 87t-26 238q26 143 99 222t181 79q119 0 172 -86.5t27 -238.5q-25 -143 -98 -222t-183 -79zM838 111q52 0 89 51t52 139t-4.5 135t-67.5 47q-53 0 -90.5 -51t-52.5 -139t4.5 -135t69.5 -47z" />
    <glyph glyph-name="ampersand" unicode="&#x26;" 
d="M1114 692q-105 -297 -217 -452l197 -240h-205l-96 121q-157 -141 -385 -141q-208 0 -324 117.5t-82 312.5q24 135 109 233t202 131q-41 104 -24 201q29 170 143 263t291 93q163 0 297 -67l-29 -160q-134 76 -274 76q-106 0 -177.5 -61t-90.5 -169q-11 -56 19.5 -135.5
t94.5 -163.5l232 -284q83 131 155 338zM416 131q162 0 280 115l-295 372q-28 36 -39 56q-67 -34 -120 -109t-70 -170q-23 -124 42.5 -194t201.5 -70z" />
    <glyph glyph-name="quotesingle" unicode="'" 
d="M582 860l65 553h213l-131 -553h-147z" />
    <glyph glyph-name="parenleft" unicode="(" 
d="M750 -373l-211 8q-153 158 -213 401t-11 519q48 273 194.5 512.5t362.5 390.5l207 -8q-235 -155 -395 -398.5t-209 -521.5q-48 -270 24 -509.5t251 -393.5z" />
    <glyph glyph-name="parenright" unicode=")" 
d="M348 -373l-227 8q234 156 394.5 399.5t209.5 520.5q48 271 -23.5 510t-250.5 393l190 -8q162 -153 227.5 -397t16.5 -523q-47 -269 -189 -508t-348 -395z" />
    <glyph glyph-name="asterisk" unicode="*" 
d="M412 584l-103 82l281 286l-338 95l63 131l324 -131l45 366h139l-86 -366l365 131l22 -131l-374 -95l182 -286l-123 -82l-143 311z" />
    <glyph glyph-name="plus" unicode="+" 
d="M1130 768l-24 -143h-412l-73 -420h-160l74 420h-412l24 143h412l74 420h160l-74 -420h411z" />
    <glyph glyph-name="comma" unicode="," 
d="M154 -365l22 132q143 3 234.5 76t124.5 175q-53 -28 -95 -16t-65 57.5t-13 100.5q11 60 61.5 103.5t113.5 43.5q78 0 124.5 -63.5t26.5 -177.5q-10 -56 -36 -113t-71.5 -114.5t-105 -101.5t-143 -72.5t-178.5 -29.5z" />
    <glyph glyph-name="hyphen" unicode="-" 
d="M205 625l24 143h820l-25 -143h-819z" />
    <glyph glyph-name="period" unicode="." 
d="M510 -20q-71 0 -113 52t-30 124q12 63 64.5 107t115.5 44q72 0 114.5 -52t28.5 -124q-10 -63 -62.5 -107t-117.5 -44z" />
    <glyph glyph-name="slash" unicode="/" 
d="M14 -205l1028 1618h164l-1028 -1618h-164z" />
    <glyph glyph-name="zero" unicode="0" 
d="M729 1331q247 0 352 -181t47 -507q-55 -317 -218 -490t-400 -173q-246 0 -352 181t-49 507q57 317 220 490t400 173zM723 1176q-162 0 -280 -140.5t-162 -392.5q-17 -97 -17 -158l699 486q-45 205 -240 205zM516 135q162 0 279 140.5t161 392.5q16 94 19 157l-701 -485
q48 -205 242 -205z" />
    <glyph glyph-name="one" unicode="1" 
d="M94 0l27 147h352l170 951q-130 -106 -354 -158l28 160q172 43 396 219l133 -4l-205 -1168h311l-26 -147h-832z" />
    <glyph glyph-name="two" unicode="2" 
d="M78 0l18 129q50 42 144.5 115t170.5 131t167 137.5t155 147t113 145t61 145.5q19 106 -42.5 166t-188.5 60q-179 0 -406 -148l35 193q73 47 173 78.5t210 31.5q207 0 314.5 -110t76.5 -287q-11 -66 -43.5 -132.5t-84.5 -130t-106 -119t-127 -115.5t-129 -103t-131 -99.5
t-114 -87.5l625 5l-27 -152h-864z" />
    <glyph glyph-name="three" unicode="3" 
d="M481 -20q-121 0 -226.5 33.5t-168.5 72.5l31 170q188 -123 366 -123q145 0 244.5 67t120.5 185q20 113 -56.5 174.5t-240.5 61.5h-160l27 151h149q157 0 245 54t103 151q17 95 -41.5 148t-177.5 53q-93 0 -186.5 -30t-220.5 -99l30 170q62 42 167 77t221 35
q194 0 302 -102t81 -252q-17 -96 -92 -169t-193 -112q115 -41 173.5 -134.5t37.5 -215.5q-29 -164 -180 -265t-355 -101z" />
    <glyph glyph-name="four" unicode="4" 
d="M625 0l53 301h-641l18 121l779 889h190l-152 -862h224l-27 -148h-223l-53 -301h-168zM250 449h455l116 653z" />
    <glyph glyph-name="five" unicode="5" 
d="M477 -20q-119 0 -228 23.5t-157 51.5l29 166q57 -34 165 -62t197 -28q141 0 240.5 70t120.5 194q22 122 -36 193t-175 71q-128 0 -240 -71l-164 65l115 658h772l-26 -148h-601l-79 -432q37 33 107.5 54.5t144.5 21.5q190 0 290 -118.5t66 -309.5q-33 -187 -179.5 -293
t-361.5 -106z" />
    <glyph glyph-name="six" unicode="6" 
d="M690 827q185 0 291.5 -116.5t73.5 -302.5q-35 -192 -181 -310t-339 -118q-214 0 -331 129.5t-81 332.5q39 228 293 488l387 381h217l-438 -434l-174 -148q124 98 282 98zM879 408q23 126 -47 199t-201 73q-128 0 -222.5 -72t-115.5 -196q-23 -127 48 -204t200 -77
q127 0 221 75t117 202z" />
    <glyph glyph-name="seven" unicode="7" 
d="M213 0l750 1159h-693l27 152h885l-21 -121l-758 -1190h-190z" />
    <glyph glyph-name="eight" unicode="8" 
d="M522 -20q-232 0 -353.5 107t-90.5 284q21 123 108.5 210t227.5 132q-100 31 -147 107t-29 184q28 152 156 239.5t325 87.5q208 0 318 -96.5t81 -255.5q-35 -205 -274 -274q119 -43 177.5 -136t35.5 -223q-30 -169 -171 -267.5t-364 -98.5zM627 760q138 15 222 71.5
t101 149.5q15 90 -52 146.5t-187 56.5q-126 0 -209.5 -57t-100.5 -154q-15 -87 44.5 -142.5t181.5 -70.5zM528 127q151 0 248 68.5t117 187.5q19 106 -49.5 171.5t-216.5 80.5q-163 -15 -262 -83.5t-119 -182.5q-19 -110 58.5 -176t223.5 -66z" />
    <glyph glyph-name="nine" unicode="9" 
d="M705 1331q140 0 242.5 -58.5t147.5 -164.5t21 -240q-43 -232 -295 -487l-385 -381h-217l436 434l172 146q-119 -97 -278 -97q-185 0 -291.5 117t-73.5 303q33 192 180 310t341 118zM946 899q23 127 -48.5 204t-201.5 77q-126 0 -220.5 -75t-117.5 -202q-21 -126 49 -199
t199 -73t224 71.5t116 196.5z" />
    <glyph glyph-name="colon" unicode=":" 
d="M641 721q-71 0 -113 52t-30 124q12 63 64.5 107.5t115.5 44.5q72 0 114.5 -52.5t28.5 -124.5q-10 -63 -62.5 -107t-117.5 -44zM510 -20q-71 0 -113 52t-30 124q12 63 64.5 107t115.5 44q72 0 114.5 -52t28.5 -124q-10 -63 -62.5 -107t-117.5 -44z" />
    <glyph glyph-name="semicolon" unicode=";" 
d="M649 717q-71 0 -113 52t-30 124q12 63 64.5 107t115.5 44q72 0 114 -52t29 -124q-10 -63 -62.5 -107t-117.5 -44zM154 -365l22 132q143 3 234.5 76t124.5 175q-53 -28 -95 -16t-65 57.5t-13 100.5q11 60 61.5 103.5t113.5 43.5q78 0 124.5 -63.5t26.5 -177.5
q-10 -56 -36 -113t-71.5 -114.5t-105 -101.5t-143 -72.5t-178.5 -29.5z" />
    <glyph glyph-name="less" unicode="&#x3c;" 
d="M897 -12l-668 534l15 103l856 534l-33 -186l-657 -412l518 -399z" />
    <glyph glyph-name="equal" unicode="=" 
d="M158 829l24 144h983l-24 -144h-983zM86 420l25 143h983l-25 -143h-983z" />
    <glyph glyph-name="greater" unicode="&#x3e;" 
d="M111 -12l32 186l658 412l-518 399l30 174l668 -534l-14 -103z" />
    <glyph glyph-name="question" unicode="?" 
d="M449 389l47 367q366 0 413 266q20 112 -38.5 166.5t-178.5 54.5q-97 0 -193 -27t-218 -92l30 176q177 99 387 99q196 0 305 -111.5t80 -281.5q-18 -100 -84 -182.5t-156 -129t-186 -51.5l-57 -254h-151zM461 -20q-59 0 -93 42.5t-24 102.5q9 51 50.5 86t92.5 35
q60 0 95 -43t24 -103q-9 -51 -50.5 -85.5t-94.5 -34.5z" />
    <glyph glyph-name="at" unicode="@" 
d="M813 1434q207 0 306.5 -129t62.5 -340l-17 -91l-125 -710h-108l-2 125q-52 -83 -128.5 -118.5t-154.5 -35.5q-139 0 -209 107.5t-43 261.5q21 116 90 204t157.5 129t188 36.5t177.5 -62.5l10 63l12 70q28 159 -31.5 254.5t-187.5 95.5q-209 0 -361.5 -210t-216.5 -572
q-85 -477 94.5 -645.5t583.5 6.5l-26 -164q-228 -81 -402 -66t-277.5 122t-138.5 301t15 471q74 419 266 658t465 239zM698 264q106 0 174.5 84.5t90.5 206.5l26 156q-55 37 -124 42t-133 -20t-115 -90t-68 -158q-16 -95 21 -158t128 -63z" />
    <glyph glyph-name="A" unicode="A" 
d="M883 0l-52 307h-538l-160 -307h-184l702 1311h164l240 -1311h-172zM371 455h436l-107 635z" />
    <glyph glyph-name="B" unicode="B" 
d="M66 0l231 1311h510q168 0 258 -100t61 -265q-21 -116 -97.5 -185.5t-205.5 -78.5q127 -7 192.5 -105t39.5 -241q-59 -336 -529 -336h-460zM371 750h305q42 0 74.5 4.5t66.5 17.5t58.5 35t44 59t28.5 88q20 114 -31 159.5t-159 45.5h-316zM264 152h256q64 0 110 4.5
t92.5 18t77.5 37.5t54 65t33 98q23 128 -47.5 175.5t-229.5 47.5h-268z" />
    <glyph glyph-name="C" unicode="C" 
d="M592 -20q-266 0 -385 190.5t-62 517.5q56 313 229 478t433 165q94 0 187.5 -22t162.5 -60l-33 -184q-130 111 -315 111q-189 0 -318.5 -132t-173.5 -380q-42 -246 34.5 -387.5t258.5 -141.5q87 0 188 32.5t183 86.5l-35 -197q-171 -77 -354 -77z" />
    <glyph glyph-name="D" unicode="D" 
d="M53 0l232 1311h358q280 0 408 -177.5t73 -490.5q-54 -305 -237.5 -474t-462.5 -169h-371zM252 152h186q198 0 335.5 137t178.5 379q41 234 -44 362.5t-281 128.5h-197z" />
    <glyph glyph-name="E" unicode="E" 
d="M1184 1159h-692l-74 -414h577l-26 -151h-578l-78 -442h701l-27 -152h-872l231 1311h864z" />
    <glyph glyph-name="F" unicode="F" 
d="M1204 1159h-700l-76 -430h586l-27 -151h-586l-102 -578h-172l231 1311h873z" />
    <glyph glyph-name="G" unicode="G" 
d="M571 -20q-268 0 -387.5 188t-62.5 516q56 315 236.5 481t453.5 166q102 0 196.5 -23t161.5 -63l-30 -178q-137 109 -324 109q-199 0 -339 -134t-183 -383q-43 -246 34 -385t261 -139q123 0 233 45l74 410h-266l26 151h439l-113 -647q-71 -55 -179.5 -84.5t-230.5 -29.5z
" />
    <glyph glyph-name="H" unicode="H" 
d="M53 0l232 1311h172l-101 -566h557l101 566h172l-232 -1311h-172l105 594h-557l-105 -594h-172z" />
    <glyph glyph-name="I" unicode="I" 
d="M115 0l26 152h303l179 1007h-304l27 152h778l-26 -152h-303l-179 -1007h304l-27 -152h-778z" />
    <glyph glyph-name="J" unicode="J" 
d="M406 -20q-97 0 -179.5 26.5t-124.5 69.5l29 166q40 -51 116 -79t159 -28q159 0 262 109t137 307l108 608h-438l27 152h610l-137 -781q-47 -265 -195 -407.5t-374 -142.5z" />
    <glyph glyph-name="K" unicode="K" 
d="M1245 1311l-526 -531l336 -780h-187l-274 655l-256 -258l-70 -397h-174l232 1311h172l-123 -690l661 690h209z" />
    <glyph glyph-name="L" unicode="L" 
d="M135 0l232 1311h172l-205 -1159h667l-26 -152h-840z" />
    <glyph glyph-name="M" unicode="M" 
d="M-8 0l231 1311h142l225 -774l504 774h153l-231 -1311h-168l170 950l-459 -708h-24l-209 708l-170 -950h-164z" />
    <glyph glyph-name="N" unicode="N" 
d="M53 0l232 1311h164l397 -1004l180 1004h160l-232 -1311h-143l-412 1044l-186 -1044h-160z" />
    <glyph glyph-name="O" unicode="O" 
d="M510 -20q-247 0 -352.5 180t-48.5 508q57 318 219.5 490.5t400.5 172.5q247 0 352 -180t47 -508q-55 -318 -217.5 -490.5t-400.5 -172.5zM516 135q162 0 279 140t161 393q44 245 -16.5 376.5t-216.5 131.5q-162 0 -279.5 -140t-162.5 -393q-43 -245 18 -376.5t217 -131.5
z" />
    <glyph glyph-name="P" unicode="P" 
d="M74 0l231 1311h465q89 0 162 -28.5t124.5 -82.5t72 -139t1.5 -191q-24 -135 -97 -226.5t-174 -132t-226 -40.5h-303l-84 -471h-172zM356 623h260q126 0 221.5 65.5t120.5 202.5q22 130 -46.5 199t-190.5 69h-270z" />
    <glyph glyph-name="Q" unicode="Q" 
d="M1128 643q-52 -302 -201.5 -473t-369.5 -188q6 -90 62.5 -137.5t156.5 -47.5q114 0 215 53l-26 -151q-91 -49 -215 -49q-165 0 -252.5 89.5t-79.5 248.5q-198 32 -279 208.5t-30 471.5q57 318 219.5 490.5t400.5 172.5q247 0 352 -180t47 -508zM516 135q162 0 279 140
t161 393q44 245 -16.5 376.5t-216.5 131.5q-162 0 -279.5 -140t-162.5 -393q-43 -245 18 -376.5t217 -131.5z" />
    <glyph glyph-name="R" unicode="R" 
d="M786 1311q187 0 291 -107.5t68 -314.5q-29 -169 -130.5 -262.5t-250.5 -118.5l242 -508h-189l-227 500h-252l-88 -500h-172l231 1311h477zM973 905q23 129 -44.5 191.5t-191.5 62.5h-282l-90 -508h272q60 0 112 12.5t99 40.5t79.5 79.5t45.5 121.5z" />
    <glyph glyph-name="S" unicode="S" 
d="M469 -20q-122 0 -232.5 26t-181.5 70l31 170q147 -111 391 -111q152 0 250 59t115 158q29 168 -254 244q-402 101 -352 395q28 156 166 248t352 92q191 0 344 -65l-31 -172q-127 82 -315 82q-144 0 -234.5 -54t-107.5 -149q-14 -77 48 -134.5t199 -90.5
q193 -44 289.5 -149.5t69.5 -264.5q-29 -163 -175.5 -258.5t-371.5 -95.5z" />
    <glyph glyph-name="T" unicode="T" 
d="M418 0l205 1159h-406l27 152h983l-27 -152h-405l-205 -1159h-172z" />
    <glyph glyph-name="U" unicode="U" 
d="M510 -20q-227 0 -331 127t-64 354l149 850h172l-151 -854q-28 -157 32 -239.5t199 -82.5q145 0 243 88t126 246l149 842h172l-151 -862q-39 -226 -182 -347.5t-363 -121.5z" />
    <glyph glyph-name="V" unicode="V" 
d="M424 0l-240 1311h174l183 -1090l567 1090h182l-702 -1311h-164z" />
    <glyph glyph-name="W" unicode="W" 
d="M127 0l14 1311h172l-51 -1004l408 885h82l100 -885l309 1004h168l-448 -1311h-125l-94 877l-406 -877h-129z" />
    <glyph glyph-name="X" unicode="X" 
d="M-43 0l573 668l-337 643h180l268 -512l453 512h188l-571 -643l336 -668h-185l-262 537l-455 -537h-188z" />
    <glyph glyph-name="Y" unicode="Y" 
d="M1294 1311l-614 -803l-90 -508h-172l90 512l-328 799h172l260 -660l498 660h184z" />
    <glyph glyph-name="Z" unicode="Z" 
d="M12 0l6 49l926 1110h-674l27 152h930l-6 -41l-928 -1118h721l-27 -152h-975z" />
    <glyph glyph-name="bracketleft" unicode="[" 
d="M172 -369l322 1823h634l-22 -135h-471l-275 -1552h449l-25 -136h-612z" />
    <glyph glyph-name="backslash" unicode="\" 
d="M764 -205l-459 1618h152l458 -1618h-151z" />
    <glyph glyph-name="bracketright" unicode="]" 
d="M92 -369l25 136h448l275 1552h-471l22 135h635l-321 -1823h-613z" />
    <glyph glyph-name="asciicircum" unicode="^" 
d="M170 631l492 680h143l250 -680h-168l-174 528l-367 -528h-176z" />
    <glyph glyph-name="underscore" unicode="_" 
d="M-59 -289l24 144h1024l-24 -144h-1024z" />
    <glyph glyph-name="grave" unicode="`" 
d="M688 1163l-209 291h197l162 -291h-150z" />
    <glyph glyph-name="a" unicode="a" 
d="M455 -20q-127 0 -214 70.5t-119.5 194.5t-6.5 279q41 237 180 378.5t319 141.5q170 0 265 -139l39 119h151l-141 -807q-11 -65 20.5 -93.5t95.5 -0.5l-10 -113q-32 -23 -77.5 -29t-89.5 6t-77 49.5t-38 94.5q-51 -71 -129.5 -111t-167.5 -40zM479 133q77 0 155 41.5
t140 128.5l82 465q-84 123 -225 123q-131 0 -222.5 -105t-125.5 -286q-30 -160 20.5 -263.5t175.5 -103.5z" />
    <glyph glyph-name="b" unicode="b" 
d="M535 -20q-133 0 -250.5 67t-159.5 189l207 1177h168l-97 -526q114 157 330 157q189 0 279.5 -144.5t48.5 -387.5q-42 -242 -187.5 -387t-338.5 -145zM528 133q138 0 235 110t130 294q30 166 -17 260t-171 94q-85 0 -175 -42t-151 -128l-82 -467q38 -64 101 -92.5
t130 -28.5z" />
    <glyph glyph-name="c" unicode="c" 
d="M604 -20q-239 0 -351.5 153.5t-66.5 413.5q43 245 197 371t389 126q163 0 287 -63l-29 -166q-44 35 -113 56.5t-145 21.5q-166 0 -275.5 -93.5t-142.5 -277.5q-31 -180 37.5 -285.5t222.5 -105.5q81 0 164 25.5t144 62.5l-31 -180q-137 -59 -287 -59z" />
    <glyph glyph-name="d" unicode="d" 
d="M455 -20q-189 0 -279.5 144.5t-48.5 387.5q42 241 186 386.5t330 145.5q177 0 272 -139l93 508h168l-250 -1413h-144l11 137q-58 -81 -147 -119t-191 -38zM485 133q84 0 174.5 42t151.5 128l82 465q-44 64 -106.5 93.5t-129.5 29.5q-136 0 -232.5 -110t-129.5 -294
q-30 -167 17.5 -260.5t172.5 -93.5z" />
    <glyph glyph-name="e" unicode="e" 
d="M694 1044q105 0 185.5 -30t125.5 -81t63.5 -115t6.5 -134q-22 -137 -137.5 -216t-300.5 -79q-175 0 -334 70q-15 -163 61 -249.5t242 -86.5q185 0 342 98l-30 -174q-130 -67 -316 -67q-258 0 -382 148.5t-77 412.5q42 243 187 373t364 130zM907 702q13 83 -45.5 141
t-171.5 58q-130 0 -225.5 -83t-138.5 -234q164 -54 282 -54q121 0 203 42.5t96 129.5z" />
    <glyph glyph-name="f" unicode="f" 
d="M954 1282q-114 0 -179 -61.5t-85 -169.5l-4 -27h465l-27 -147h-465l-153 -877h-168l156 877h-312l27 147h311l6 39q30 177 140 274t295 97q132 0 251 -41l-26 -154q-65 27 -115.5 35t-116.5 8z" />
    <glyph glyph-name="g" unicode="g" 
d="M408 -389q-161 0 -326 70l29 161q172 -71 307 -71q161 0 251.5 100t125.5 295q-58 -81 -148 -119.5t-192 -38.5q-190 0 -280 138t-48 380q42 241 189.5 379.5t349.5 138.5q128 0 234 -58.5t167 -174.5l-129 -731q-22 -127 -73 -220t-123 -146.5t-154.5 -78t-179.5 -24.5z
M485 162q85 0 176 42t152 128l78 436q-30 63 -97 93t-137 30q-138 0 -234 -103.5t-128 -285.5q-30 -165 17 -252.5t173 -87.5z" />
    <glyph glyph-name="h" unicode="h" 
d="M90 0l250 1413h168l-96 -534q69 82 159 123.5t187 41.5q159 0 232.5 -105t41.5 -284l-114 -655h-168l112 637q23 128 -7.5 193t-131.5 65q-86 0 -176 -45t-162 -129l-127 -721h-168z" />
    <glyph glyph-name="i" unicode="i" 
d="M709 1178q-60 0 -95 42.5t-24 102.5q9 51 50.5 86t92.5 35q60 0 95 -43t24 -103q-9 -51 -50.5 -85.5t-92.5 -34.5zM758 -20q-150 0 -230 91.5t-49 262.5l96 543h-372l26 147h549l-127 -723q-13 -78 21.5 -124t105.5 -46q87 0 219 78l-30 -170q-78 -59 -209 -59z" />
    <glyph glyph-name="j" unicode="j" 
d="M897 1178q-60 0 -95 42.5t-24 102.5q9 51 51 86t93 35q60 0 94.5 -43t23.5 -103q-9 -51 -50.5 -85.5t-92.5 -34.5zM279 -389q-167 0 -283 57l27 154q120 -60 262 -60q133 0 222.5 81.5t115.5 228.5l141 805h-514l26 147h682l-170 -965q-38 -216 -171.5 -332t-337.5 -116z
" />
    <glyph glyph-name="k" unicode="k" 
d="M1145 1024l-455 -418l311 -606h-184l-250 492l-219 -201l-53 -291h-168l250 1413h168l-162 -917l555 528h207z" />
    <glyph glyph-name="l" unicode="l" 
d="M709 -20q-149 0 -225 91t-46 263l164 932h-332l27 147h510l-197 -1112q-13 -77 24.5 -123.5t108.5 -46.5q97 0 234 74l-31 -166q-85 -59 -237 -59z" />
    <glyph glyph-name="m" unicode="m" 
d="M8 0l180 1024h136l-9 -137q102 157 230 157q69 0 114 -41t56 -110q114 151 248 151q97 0 144 -81t23 -218l-131 -745h-155l129 727q28 164 -66 164q-47 0 -98 -36.5t-94 -100.5l-133 -754h-156l129 727q28 164 -63 164q-48 0 -99.5 -37t-95.5 -100l-133 -754h-156z" />
    <glyph glyph-name="n" unicode="n" 
d="M90 0l180 1024h148l-12 -147q72 83 163 125t189 42q159 0 232.5 -105t41.5 -284l-114 -655h-168l112 637q23 128 -7 193t-130 65q-87 0 -177.5 -45t-162.5 -129l-127 -721h-168z" />
    <glyph glyph-name="o" unicode="o" 
d="M510 -20q-225 0 -326 142.5t-55 401.5q44 249 188.5 384.5t360.5 135.5q225 0 326 -142.5t55 -401.5q-44 -249 -188.5 -384.5t-360.5 -135.5zM514 131q145 0 245 103t132 290q32 178 -24.5 273.5t-192.5 95.5q-145 0 -244 -103t-133 -290q-31 -178 25.5 -273.5
t191.5 -95.5z" />
    <glyph glyph-name="p" unicode="p" 
d="M16 -369l246 1393h144l-11 -137q58 81 147 119t191 38q189 0 279.5 -144.5t48.5 -387.5q-42 -241 -186 -386.5t-330 -145.5q-180 0 -271 139l-90 -488h-168zM532 133q135 0 231.5 110t129.5 294q30 166 -17 260t-171 94q-86 0 -176.5 -42t-151.5 -128l-82 -465
q84 -123 237 -123z" />
    <glyph glyph-name="q" unicode="q" 
d="M692 -369l92 506q-114 -157 -329 -157q-189 0 -279.5 144.5t-48.5 387.5q43 244 187.5 388t344.5 144q130 0 239.5 -58.5t168.5 -174.5l-207 -1180h-168zM485 133q84 0 173.5 42t150.5 128l82 465q-30 63 -97 93t-137 30q-136 0 -232.5 -110t-129.5 -294
q-30 -167 17.5 -260.5t172.5 -93.5z" />
    <glyph glyph-name="r" unicode="r" 
d="M106 0l27 147h201l102 586q11 63 -1 104t-41 56t-69 11t-85 -27l26 147q56 22 115 22.5t110.5 -20.5t82 -76t26.5 -137q43 83 110 136.5t135.5 74t145.5 20.5q114 0 205 -40l-29 -160q-101 47 -188 47q-108 0 -202 -60.5t-189 -201.5l-86 -482h327l-26 -147h-697z" />
    <glyph glyph-name="s" unicode="s" 
d="M485 -20q-106 0 -202 20.5t-158 56.5l29 158q61 -44 149 -68t184 -24q131 0 212.5 45.5t95.5 122.5q11 62 -43 100t-172 66q-176 38 -257.5 113.5t-60.5 197.5q23 129 146.5 202.5t322.5 73.5q182 0 289 -47l-27 -151q-101 55 -268 55q-131 0 -210.5 -40t-92.5 -113
q-8 -52 35 -85t164 -65q182 -45 267.5 -124t63.5 -204q-23 -135 -147 -212.5t-320 -77.5z" />
    <glyph glyph-name="t" unicode="t" 
d="M707 -20q-223 0 -302 106t-40 330l79 461h-286l26 147h295l88 287h123l-51 -287h467l-27 -147h-467l-82 -474q-27 -154 9.5 -213t173.5 -59q70 0 123.5 10.5t117.5 40.5l-28 -164q-61 -24 -107.5 -31t-111.5 -7z" />
    <glyph glyph-name="u" unicode="u" 
d="M1098 1024l-180 -1024h-148l12 147q-72 -83 -163 -125t-189 -42q-159 0 -232.5 105t-41.5 284l114 655h168l-112 -637q-23 -128 7 -193t130 -65q87 0 177.5 45t162.5 129l127 721h168z" />
    <glyph glyph-name="v" unicode="v" 
d="M434 0l-248 1024h174l175 -831l469 831h182l-608 -1024h-144z" />
    <glyph glyph-name="w" unicode="w" 
d="M141 0l-45 1024h162l6 -803l369 803h106l82 -803l293 803h162l-406 -1024h-145l-84 756l-350 -756h-150z" />
    <glyph glyph-name="x" unicode="x" 
d="M2 0l485 512l-301 512h189l233 -397l377 397h201l-486 -512l301 -512h-188l-233 397l-377 -397h-201z" />
    <glyph glyph-name="y" unicode="y" 
d="M72 -389q-82 0 -127 20l26 146q45 -15 88 -15q102 0 173.5 48t140.5 157l51 68l-238 989h174l175 -836l469 836h182l-639 -1083q-33 -55 -61.5 -96t-73.5 -87.5t-91.5 -76.5t-111 -50t-137.5 -20z" />
    <glyph glyph-name="z" unicode="z" 
d="M66 0l6 49l764 828h-572l27 147h835l-4 -41l-768 -836h611l-27 -147h-872z" />
    <glyph glyph-name="braceleft" unicode="{" 
d="M657 -369q-177 0 -261.5 105t-53.5 278l45 258q22 124 -18.5 182t-157.5 58h-68l25 135h55q229 0 277 254l30 182q31 173 146.5 272t292.5 99h159l-22 -135h-129q-111 0 -188 -69t-97 -187l-33 -180q-25 -136 -88.5 -211t-187.5 -92q112 -17 152 -99t16 -213l-45 -258
q-22 -118 26.5 -180.5t159.5 -62.5h123l-24 -136h-134z" />
    <glyph glyph-name="bar" unicode="|" 
d="M352 -410l322 1823h160l-322 -1823h-160z" />
    <glyph glyph-name="braceright" unicode="}" 
d="M86 -369l25 136h110q110 0 187.5 69t99.5 187l45 258q25 134 88 209t188 94q-113 13 -152 94.5t-15 216.5l32 180q20 118 -28.5 181t-159.5 63h-137l22 135h152q177 0 260.5 -104.5t52.5 -278.5l-31 -182q-24 -125 17.5 -183.5t158.5 -58.5h68l-25 -135h-55
q-231 0 -276 -252l-45 -258q-31 -173 -145.5 -272t-291.5 -99h-145z" />
    <glyph glyph-name="asciitilde" unicode="~" 
d="M809 510q-54 0 -97 17t-68.5 42.5t-50.5 55t-44 55t-48.5 42.5t-64.5 17q-120 0 -203 -202h-147q68 176 155 260t205 84q54 0 96.5 -17t67.5 -42.5t49.5 -55.5t43.5 -55.5t48 -42.5t64 -17q120 0 203 203h149q-68 -175 -155.5 -259.5t-202.5 -84.5z" />
    <glyph glyph-name="uni00A0" unicode="&#xa0;" 
 />
    <glyph glyph-name="exclamdown" unicode="&#xa1;" 
d="M651 778q-58 0 -93 43t-26 103q9 51 51 85.5t95 34.5q59 0 93 -42.5t24 -102.5q-7 -51 -49 -86t-95 -35zM334 -369l203 990h151l-145 -990h-209z" />
    <glyph glyph-name="cent" unicode="&#xa2;" 
d="M1061 932q-77 54 -221 63l-119 -678q149 18 246 76l-31 -180q-106 -43 -244 -51l-39 -223h-123l39 225q-187 19 -269 151.5t-44 352.5q40 217 167 343t320 138l39 223h123l-39 -225q128 -10 224 -53zM426 643q-25 -143 19.5 -229t150.5 -99l119 676q-111 -22 -187 -112.5
t-102 -235.5z" />
    <glyph glyph-name="sterling" unicode="&#xa3;" 
d="M850 1176q-127 0 -220 -70t-116 -195q-4 -23 -4.5 -48t0.5 -41.5t7.5 -47.5t8.5 -40.5t11 -45.5h491l-18 -102h-453q11 -68 0 -125q-18 -97 -86 -183t-145 -128l680 2l-27 -152h-918l11 86q55 35 103.5 75.5t95.5 91t80 111.5t44 123q8 48 2 99h-254l19 102h215
q-11 46 -15.5 65.5t-11 60.5t-5.5 77.5t7 75.5q20 112 92 195.5t178.5 126t233.5 42.5q96 0 188 -25t154 -61l-31 -176q-56 45 -145 76t-172 31z" />
    <glyph glyph-name="currency" unicode="&#xa4;" 
d="M1268 1202l-31 -184l-199 -146q19 -105 -4 -229q-21 -124 -71 -219l143 -137l-29 -185l-207 199q-129 -129 -325 -129q-206 0 -293 135l-281 -205l29 185l201 145q-20 97 2 236q21 118 69 213l-141 137l31 184l203 -194q131 131 329 131q206 0 295 -140zM549 319
q123 0 208 93t113 256q28 154 -19 238.5t-161 84.5q-123 0 -208.5 -92.5t-114.5 -255.5q-26 -154 21 -239t161 -85z" />
    <glyph glyph-name="yen" unicode="&#xa5;" 
d="M1294 1311l-510 -666h289l-18 -102h-348l-27 -35l-16 -88h368l-18 -103h-367l-57 -317h-172l57 317h-371l19 103h369l16 92l-12 31h-351l19 102h291l-275 666h172l260 -660l498 660h184z" />
    <glyph glyph-name="brokenbar" unicode="&#xa6;" 
d="M543 676l131 737h160l-132 -737h-159zM352 -410l133 754h160l-133 -754h-160z" />
    <glyph glyph-name="section" unicode="&#xa7;" 
d="M999 582l-411 184q-288 123 -248 354q23 134 143.5 206.5t319.5 72.5q176 0 291 -43l-27 -152q-114 51 -272 51q-268 0 -295 -149q-12 -67 32 -117.5t140 -91.5l356 -152zM463 -127q-216 0 -363 70l27 153q145 -80 330 -80q135 0 216.5 39.5t94.5 118.5q22 128 -178 215
l-375 160l29 162l430 -191q295 -133 252 -366q-25 -136 -146 -208.5t-317 -72.5z" />
    <glyph glyph-name="dieresis" unicode="&#xa8;" 
d="M502 1190q-52 0 -83 38.5t-22 92.5q7 44 44 75t81 31q53 0 84.5 -38.5t22.5 -92.5q-7 -44 -44.5 -75t-82.5 -31zM948 1190q-54 0 -84.5 38.5t-21.5 92.5q8 44 44.5 75t82.5 31q52 0 82.5 -38.5t21.5 -92.5q-7 -44 -44 -75t-81 -31z" />
    <glyph glyph-name="copyright" unicode="&#xa9;" 
d="M510 -20q-264 0 -381.5 183t-60.5 505q56 314 229.5 488.5t429.5 174.5q265 0 382 -182.5t60 -505.5q-56 -314 -228.5 -488.5t-430.5 -174.5zM512 102q201 0 342.5 150.5t187.5 415.5q46 256 -37 398t-278 142q-201 0 -343 -150t-189 -415q-44 -257 39 -399t278 -142z
M604 315q-151 0 -221.5 98t-42.5 263q28 154 123 236.5t242 82.5q100 0 182 -37l-23 -124q-64 43 -159 43q-85 0 -144.5 -59t-79.5 -167q-17 -99 19 -158t112 -59q101 0 193 62l-25 -142q-76 -39 -176 -39z" />
    <glyph glyph-name="ordfeminine" unicode="&#xaa;" 
d="M897 799q-9 -50 18 -65.5t68 14.5l-20 -117q-16 -15 -48 -19t-65 4t-60 35t-32 68q-80 -109 -221 -109q-119 0 -178 69t-40 177q15 84 73 137.5t130.5 67t148.5 -3t126 -62.5l10 62q25 145 -145 145q-119 0 -234 -59l25 137q112 51 223 51q132 0 210.5 -71.5t57.5 -192.5
zM559 725q87 0 147 47.5t72 122.5l2 12q-31 35 -82.5 50t-102 8.5t-91.5 -41t-51 -90.5q-8 -49 16.5 -79t89.5 -30zM242 365l24 131h674l-25 -131h-673z" />
    <glyph glyph-name="guillemotleft" unicode="&#xab;" 
d="M397 131l-270 412v20l416 412h192l-432 -426l279 -418h-185zM807 131l-270 412v20l415 412h193l-432 -426l278 -418h-184z" />
    <glyph glyph-name="logicalnot" unicode="&#xac;" 
d="M1122 768l-24 -143l-64 -357h-147l63 357h-835l24 143h983z" />
    <glyph glyph-name="registered" unicode="&#xae;" 
d="M739 1391q229 0 336.5 -129.5t67.5 -358.5q-38 -220 -182 -341.5t-365 -121.5q-230 0 -339 129.5t-69 358.5q38 220 183 341.5t368 121.5zM1032 928q29 167 -50.5 259.5t-248.5 92.5q-176 0 -289.5 -99t-144.5 -278q-31 -168 47 -260t248 -92q175 0 290.5 99.5
t147.5 277.5zM733 1161q76 0 115 -45.5t26 -122.5q-9 -54 -40.5 -88.5t-81.5 -46.5l67 -188h-102l-58 180h-75l-31 -180h-94l86 491h188zM782 1006q5 32 -10.5 52.5t-50.5 20.5h-96l-27 -147h86q84 0 98 74z" />
    <glyph glyph-name="macron" unicode="&#xaf;" 
d="M393 1231l25 139h655l-24 -139h-656z" />
    <glyph glyph-name="degree" unicode="&#xb0;" 
d="M633 674q-161 0 -250 102t-61 262q28 151 144 245.5t271 94.5q161 0 250 -102t60 -262q-26 -151 -142.5 -245.5t-271.5 -94.5zM645 805q96 0 167.5 61.5t90.5 161.5q17 100 -33.5 159.5t-144.5 59.5q-96 0 -168.5 -61.5t-91.5 -161.5q-17 -99 34.5 -159t145.5 -60z" />
    <glyph glyph-name="plusminus" unicode="&#xb1;" 
d="M1116 682h-411l-68 -381h412l-25 -143h-983l25 143h411l68 381h-412l25 143h411l74 412h160l-74 -412h412z" />
    <glyph glyph-name="uni00B2" unicode="&#xb2;" 
d="M348 627l12 92q39 32 106.5 81.5t119 88t105.5 85.5t87.5 96.5t42.5 98.5q10 61 -23 91t-91 30q-50 0 -117 -22t-133 -64l28 158q40 26 106.5 44.5t129.5 18.5q121 0 192.5 -72t49.5 -198q-8 -49 -30 -93.5t-47 -76.5t-65.5 -67.5t-70 -56.5t-77 -54t-71.5 -51l309 4
l-22 -133h-541z" />
    <glyph glyph-name="uni00B3" unicode="&#xb3;" 
d="M608 614q-139 0 -256 60l25 143q110 -69 239 -69q74 0 120 28.5t55 81.5q11 55 -29.5 89t-122.5 34h-88l22 131h78q69 0 120.5 22.5t59.5 71.5q6 38 -23 62t-87 24q-54 0 -124.5 -19t-129.5 -48l25 145q120 55 231 55q134 0 202 -56.5t50 -160.5q-26 -149 -199 -159
q88 -7 127.5 -67.5t24.5 -150.5q-19 -103 -101.5 -160t-218.5 -57z" />
    <glyph glyph-name="acute" unicode="&#xb4;" 
d="M571 1163l265 291h213l-312 -291h-166z" />
    <glyph glyph-name="uni00B5" unicode="&#xb5;" 
d="M0 -369l246 1393h168l-113 -637q-23 -129 10.5 -191.5t137.5 -62.5q183 0 327 170l129 721h168l-141 -807q-9 -49 10 -76t54.5 -25.5t76.5 29.5l-22 -131q-19 -26 -68.5 -35t-101 1.5t-88.5 54t-31 112.5q-50 -75 -141.5 -121t-184.5 -46q-66 0 -120.5 22.5t-75.5 63.5
l-76 -435h-164z" />
    <glyph glyph-name="paragraph" unicode="&#xb6;" 
d="M721 1311h469l-268 -1516h-156l244 1381h-144l-241 -1379h-156l88 510h-2q-235 0 -346 136.5t-68 377.5q40 232 192.5 361t387.5 129zM297 797q-31 -169 45.5 -262t243.5 -93h4l129 734q-165 -2 -278 -102.5t-144 -276.5z" />
    <glyph glyph-name="periodcentered" unicode="&#xb7;" 
d="M604 506q-70 0 -112.5 52t-30.5 124q12 63 64.5 107.5t115.5 44.5q72 0 114.5 -52.5t28.5 -124.5q-10 -63 -62.5 -107t-117.5 -44z" />
    <glyph glyph-name="cedilla" unicode="&#xb8;" 
d="M408 -393q-74 0 -134 22l21 117q45 -10 70 -10q49 0 84 21.5t47.5 54.5t9.5 68.5t-28 68.5t-66 51h141q62 -44 79 -113t-6 -130t-82 -105.5t-136 -44.5z" />
    <glyph glyph-name="uni00B9" unicode="&#xb9;" 
d="M360 627l23 131h201l90 485q-79 -59 -205 -94l23 137q97 26 235 131l117 -4l-115 -655h174l-22 -131h-521z" />
    <glyph glyph-name="ordmasculine" unicode="&#xba;" 
d="M623 610q-157 0 -228.5 99t-40.5 274q29 166 127 257t246 91q157 0 229 -99t41 -274q-31 -166 -128.5 -257t-245.5 -91zM623 735q92 0 154.5 66t84.5 182q19 106 -16.5 164.5t-118.5 58.5q-92 0 -155 -66t-83 -182q-20 -106 15.5 -164.5t118.5 -58.5zM260 365l25 131h614
l-25 -131h-614z" />
    <glyph glyph-name="guillemotright" unicode="&#xbb;" 
d="M57 131l435 426l-281 418h184l271 -412v-20l-416 -412h-193zM467 131l434 426l-280 418h184l270 -412v-20l-416 -412h-192z" />
    <glyph glyph-name="onequarter" unicode="&#xbc;" 
d="M416 942l22 131h201l90 486q-81 -61 -205 -95l23 138q97 26 235 131l117 -4l-115 -656h174l-22 -131h-520zM119 586l22 123h975l-22 -123h-975zM465 -434l29 170h-371l14 90l449 526h155l-86 -489h131l-22 -127h-127l-29 -170h-143zM309 -137h211l55 315z" />
    <glyph glyph-name="onehalf" unicode="&#xbd;" 
d="M416 942l22 131h201l90 486q-81 -61 -205 -95l23 138q97 26 235 131l117 -4l-115 -656h174l-22 -131h-520zM119 586l22 123h975l-22 -123h-975zM162 -434l12 92q39 32 106.5 81.5t119 88.5t105.5 86t87.5 96.5t42.5 98.5q10 61 -23 90.5t-92 29.5q-50 0 -117 -22
t-133 -64l29 158q41 26 107 45t129 19q121 0 192 -72.5t49 -198.5q-8 -49 -30 -93.5t-47 -76.5t-65 -67.5t-69.5 -56.5t-77 -54t-71.5 -51l309 4l-23 -133h-540z" />
    <glyph glyph-name="threequarters" unicode="&#xbe;" 
d="M664 930q-141 0 -256 59l24 144q112 -70 240 -70q74 0 119.5 28.5t54.5 82.5q11 55 -29.5 88.5t-122.5 33.5h-88l23 131h78q69 0 120.5 23t59.5 72q6 38 -23.5 62t-87.5 24q-53 0 -123.5 -19.5t-130.5 -48.5l25 146q120 55 231 55q134 0 202 -56.5t50 -160.5
q-26 -150 -199 -160q88 -7 127.5 -67t24.5 -150q-19 -104 -101.5 -160.5t-217.5 -56.5zM119 586l22 123h975l-22 -123h-975zM465 -434l29 170h-371l14 90l449 526h155l-86 -489h131l-22 -127h-127l-29 -170h-143zM309 -137h211l55 315z" />
    <glyph glyph-name="questiondown" unicode="&#xbf;" 
d="M700 778q-58 0 -92.5 43t-25.5 103q9 51 50.5 85.5t94.5 34.5q59 0 93 -42.5t24 -102.5q-7 -51 -49 -86t-95 -35zM487 -389q-196 0 -305 111.5t-80 281.5q18 100 84 182.5t156 129t186 51.5l58 254h151l-49 -367q-365 0 -412 -266q-20 -112 39 -166.5t179 -54.5
q98 0 194 27t217 91l-31 -176q-175 -98 -387 -98z" />
    <glyph glyph-name="Agrave" unicode="&#xc0;" 
d="M889 1450h-150l-209 291h197zM883 0l-52 307h-538l-160 -307h-184l702 1311h164l240 -1311h-172zM371 455h436l-107 635z" />
    <glyph glyph-name="Aacute" unicode="&#xc1;" 
d="M1100 1741l-312 -291h-165l264 291h213zM651 1311h164l240 -1311h-172l-52 307h-538l-160 -307h-184zM371 455h436l-107 635z" />
    <glyph glyph-name="Acircumflex" unicode="&#xc2;" 
d="M801 1630l-215 -180h-197l348 291h144l245 -291h-180zM651 1311h164l240 -1311h-172l-52 307h-538l-160 -307h-184zM371 455h436l-107 635z" />
    <glyph glyph-name="Atilde" unicode="&#xc3;" 
d="M1073 1741h127q-48 -155 -120 -229t-160 -74q-46 0 -82.5 19.5t-59 47.5t-42.5 56t-43.5 47.5t-51.5 19.5q-42 0 -76.5 -42t-66.5 -136h-127q48 154 121 228.5t161 74.5q46 0 82.5 -19.5t59 -47.5t42.5 -56t43.5 -47.5t51.5 -19.5q81 0 141 178zM651 1311h164l240 -1311
h-172l-52 307h-538l-160 -307h-184zM371 455h436l-107 635z" />
    <glyph glyph-name="Adieresis" unicode="&#xc4;" 
d="M553 1477q-52 0 -82.5 38.5t-21.5 92.5q7 44 43.5 75t80.5 31q53 0 84.5 -38.5t22.5 -92.5q-7 -44 -44.5 -75t-82.5 -31zM1020 1714q52 0 82.5 -38.5t21.5 -92.5q-7 -44 -44 -75t-81 -31q-54 0 -84.5 38.5t-21.5 92.5q8 44 44.5 75t82.5 31zM651 1311h164l240 -1311h-172
l-52 307h-538l-160 -307h-184zM371 455h436l-107 635z" />
    <glyph glyph-name="Aring" unicode="&#xc5;" 
d="M883 0l-52 307h-538l-160 -307h-184l661 1235q-91 61 -67 188q15 89 81.5 143t155.5 54q98 0 152 -61.5t37 -159.5q-24 -125 -138 -176l224 -1223h-172zM655 1415q-9 -49 15.5 -76.5t70.5 -27.5q43 0 75.5 25t39.5 71q9 49 -16.5 76.5t-71.5 27.5q-43 0 -74.5 -25
t-38.5 -71zM371 455h436l-107 635z" />
    <glyph glyph-name="AE" unicode="&#xc6;" 
d="M1253 1163h-413l-74 -420h340l-27 -147h-340l-77 -449h421l-26 -147h-590l59 342h-282l-162 -342h-170l637 1311h731zM553 485l119 678h-39l-322 -678h242z" />
    <glyph glyph-name="Ccedilla" unicode="&#xc7;" 
d="M809 1176q-189 0 -318.5 -132t-173.5 -380q-42 -246 34.5 -387.5t258.5 -141.5q87 0 188 32.5t183 86.5l-35 -197q-141 -65 -309 -75q50 -47 60 -113.5t-15 -123.5t-82.5 -97.5t-130.5 -40.5t-133 22l20 117q45 -10 70 -10q77 0 115.5 47.5t25.5 107.5t-69 95
q-218 34 -311.5 220t-41.5 482q56 313 229 478t433 165q94 0 187.5 -22t162.5 -60l-33 -184q-130 111 -315 111z" />
    <glyph glyph-name="Egrave" unicode="&#xc8;" 
d="M934 1450h-150l-209 291h197zM1184 1159h-692l-74 -414h577l-26 -151h-578l-78 -442h701l-27 -152h-872l231 1311h864z" />
    <glyph glyph-name="Eacute" unicode="&#xc9;" 
d="M1145 1741l-311 -291h-166l264 291h213zM1184 1159h-692l-74 -414h577l-26 -151h-578l-78 -442h701l-27 -152h-872l231 1311h864z" />
    <glyph glyph-name="Ecircumflex" unicode="&#xca;" 
d="M846 1630l-215 -180h-197l348 291h144l245 -291h-180zM1184 1159h-692l-74 -414h577l-26 -151h-578l-78 -442h701l-27 -152h-872l231 1311h864z" />
    <glyph glyph-name="Edieresis" unicode="&#xcb;" 
d="M598 1477q-52 0 -82.5 38.5t-21.5 92.5q7 44 43.5 75t80.5 31q53 0 84.5 -38.5t22.5 -92.5q-7 -44 -44.5 -75t-82.5 -31zM1044 1477q-54 0 -84.5 38.5t-21.5 92.5q8 44 44.5 75t82.5 31q52 0 82.5 -38.5t21.5 -92.5q-7 -44 -44 -75t-81 -31zM1184 1159h-692l-74 -414h577
l-26 -151h-578l-78 -442h701l-27 -152h-872l231 1311h864z" />
    <glyph glyph-name="Igrave" unicode="&#xcc;" 
d="M739 1450l-209 291h197l162 -291h-150zM115 0l26 152h303l179 1007h-304l27 152h778l-26 -152h-303l-179 -1007h304l-27 -152h-778z" />
    <glyph glyph-name="Iacute" unicode="&#xcd;" 
d="M623 1450l264 291h213l-312 -291h-165zM115 0l26 152h303l179 1007h-304l27 152h778l-26 -152h-303l-179 -1007h304l-27 -152h-778z" />
    <glyph glyph-name="Icircumflex" unicode="&#xce;" 
d="M389 1450l348 291h144l245 -291h-180l-145 180l-215 -180h-197zM115 0l26 152h303l179 1007h-304l27 152h778l-26 -152h-303l-179 -1007h304l-27 -152h-778z" />
    <glyph glyph-name="Idieresis" unicode="&#xcf;" 
d="M553 1477q-52 0 -82.5 38.5t-21.5 92.5q7 44 43.5 75t80.5 31q53 0 84.5 -38.5t22.5 -92.5q-7 -44 -44.5 -75t-82.5 -31zM999 1477q-54 0 -84.5 38.5t-21.5 92.5q8 44 44.5 75t82.5 31q52 0 82.5 -38.5t21.5 -92.5q-7 -44 -44 -75t-81 -31zM115 0l26 152h303l179 1007
h-304l27 152h778l-26 -152h-303l-179 -1007h304l-27 -152h-778z" />
    <glyph glyph-name="Eth" unicode="&#xd0;" 
d="M655 1311q280 0 408.5 -177.5t73.5 -490.5q-54 -305 -238 -474t-463 -169h-370l106 600h-135l24 139h136l100 572h358zM965 668q41 233 -44.5 362t-281.5 129h-197l-73 -420h268l-25 -139h-268l-80 -448h187q198 0 335.5 137t178.5 379z" />
    <glyph glyph-name="Ntilde" unicode="&#xd1;" 
d="M920 1438q-46 0 -82.5 19.5t-59 47.5t-42.5 56t-43.5 47.5t-51.5 19.5q-42 0 -76.5 -42t-66.5 -136h-127q48 154 121 228.5t161 74.5q46 0 82.5 -19.5t59 -47.5t42.5 -56t43.5 -47.5t51.5 -19.5q81 0 141 178h127q-48 -155 -120 -229t-160 -74zM53 0l232 1311h164
l397 -1004l180 1004h160l-232 -1311h-143l-412 1044l-186 -1044h-160z" />
    <glyph glyph-name="Ograve" unicode="&#xd2;" 
d="M739 1450l-209 291h197l162 -291h-150zM510 -20q-247 0 -352.5 180t-48.5 508q57 318 219.5 490.5t400.5 172.5q247 0 352 -180t47 -508q-55 -318 -217.5 -490.5t-400.5 -172.5zM516 135q162 0 279 140t161 393q44 245 -16.5 376.5t-216.5 131.5q-162 0 -279.5 -140
t-162.5 -393q-43 -245 18 -376.5t217 -131.5z" />
    <glyph glyph-name="Oacute" unicode="&#xd3;" 
d="M623 1450l264 291h213l-312 -291h-165zM510 -20q-247 0 -352.5 180t-48.5 508q57 318 219.5 490.5t400.5 172.5q247 0 352 -180t47 -508q-55 -318 -217.5 -490.5t-400.5 -172.5zM516 135q162 0 279 140t161 393q44 245 -16.5 376.5t-216.5 131.5q-162 0 -279.5 -140
t-162.5 -393q-43 -245 18 -376.5t217 -131.5z" />
    <glyph glyph-name="Ocircumflex" unicode="&#xd4;" 
d="M389 1450l348 291h144l245 -291h-180l-145 180l-215 -180h-197zM510 -20q-247 0 -352.5 180t-48.5 508q57 318 219.5 490.5t400.5 172.5q247 0 352 -180t47 -508q-55 -318 -217.5 -490.5t-400.5 -172.5zM516 135q162 0 279 140t161 393q44 245 -16.5 376.5t-216.5 131.5
q-162 0 -279.5 -140t-162.5 -393q-43 -245 18 -376.5t217 -131.5z" />
    <glyph glyph-name="Otilde" unicode="&#xd5;" 
d="M920 1438q-46 0 -82.5 19.5t-59 47.5t-42.5 56t-43.5 47.5t-51.5 19.5q-42 0 -76.5 -42t-66.5 -136h-127q48 154 121 228.5t161 74.5q46 0 82.5 -19.5t59 -47.5t42.5 -56t43.5 -47.5t51.5 -19.5q81 0 141 178h127q-48 -155 -120 -229t-160 -74zM510 -20
q-247 0 -352.5 180t-48.5 508q57 318 219.5 490.5t400.5 172.5q247 0 352 -180t47 -508q-55 -318 -217.5 -490.5t-400.5 -172.5zM516 135q162 0 279 140t161 393q44 245 -16.5 376.5t-216.5 131.5q-162 0 -279.5 -140t-162.5 -393q-43 -245 18 -376.5t217 -131.5z" />
    <glyph glyph-name="Odieresis" unicode="&#xd6;" 
d="M553 1477q-52 0 -82.5 38.5t-21.5 92.5q7 44 43.5 75t80.5 31q53 0 84.5 -38.5t22.5 -92.5q-7 -44 -44.5 -75t-82.5 -31zM999 1477q-54 0 -84.5 38.5t-21.5 92.5q8 44 44.5 75t82.5 31q52 0 82.5 -38.5t21.5 -92.5q-7 -44 -44 -75t-81 -31zM510 -20q-247 0 -352.5 180
t-48.5 508q57 318 219.5 490.5t400.5 172.5q247 0 352 -180t47 -508q-55 -318 -217.5 -490.5t-400.5 -172.5zM516 135q162 0 279 140t161 393q44 245 -16.5 376.5t-216.5 131.5q-162 0 -279.5 -140t-162.5 -393q-43 -245 18 -376.5t217 -131.5z" />
    <glyph glyph-name="multiply" unicode="&#xd7;" 
d="M1114 1020l-381 -326l266 -321l-120 -107l-269 324l-379 -324l-92 107l381 325l-266 322l121 106l268 -323l379 323z" />
    <glyph glyph-name="Oslash" unicode="&#xd8;" 
d="M1233 1454l-176 -264q136 -180 71 -547q-55 -318 -217.5 -490.5t-400.5 -172.5q-133 0 -225 53l-119 -176h-160l176 264q-137 182 -73 547q57 318 219.5 490.5t400.5 172.5q133 0 225 -53l119 176h160zM281 643q-40 -230 10 -358l571 854q-55 37 -139 37
q-162 0 -279.5 -140t-162.5 -393zM956 668q43 226 -8 358l-571 -854q55 -37 139 -37q162 0 279 140t161 393z" />
    <glyph glyph-name="Ugrave" unicode="&#xd9;" 
d="M739 1450l-209 291h197l162 -291h-150zM510 -20q-227 0 -331 127t-64 354l149 850h172l-151 -854q-28 -157 32 -239.5t199 -82.5q145 0 243 88t126 246l149 842h172l-151 -862q-39 -226 -182 -347.5t-363 -121.5z" />
    <glyph glyph-name="Uacute" unicode="&#xda;" 
d="M623 1450l264 291h213l-312 -291h-165zM510 -20q-227 0 -331 127t-64 354l149 850h172l-151 -854q-28 -157 32 -239.5t199 -82.5q145 0 243 88t126 246l149 842h172l-151 -862q-39 -226 -182 -347.5t-363 -121.5z" />
    <glyph glyph-name="Ucircumflex" unicode="&#xdb;" 
d="M389 1450l348 291h144l245 -291h-180l-145 180l-215 -180h-197zM510 -20q-227 0 -331 127t-64 354l149 850h172l-151 -854q-28 -157 32 -239.5t199 -82.5q145 0 243 88t126 246l149 842h172l-151 -862q-39 -226 -182 -347.5t-363 -121.5z" />
    <glyph glyph-name="Udieresis" unicode="&#xdc;" 
d="M553 1477q-52 0 -82.5 38.5t-21.5 92.5q7 44 43.5 75t80.5 31q53 0 84.5 -38.5t22.5 -92.5q-7 -44 -44.5 -75t-82.5 -31zM999 1477q-54 0 -84.5 38.5t-21.5 92.5q8 44 44.5 75t82.5 31q52 0 82.5 -38.5t21.5 -92.5q-7 -44 -44 -75t-81 -31zM510 -20q-227 0 -331 127
t-64 354l149 850h172l-151 -854q-28 -157 32 -239.5t199 -82.5q145 0 243 88t126 246l149 842h172l-151 -862q-39 -226 -182 -347.5t-363 -121.5z" />
    <glyph glyph-name="Yacute" unicode="&#xdd;" 
d="M1096 1741l-312 -291h-166l265 291h213zM1294 1311l-614 -803l-90 -508h-172l90 512l-328 799h172l260 -660l498 660h184z" />
    <glyph glyph-name="Thorn" unicode="&#xde;" 
d="M74 0l231 1311h172l-39 -221h293q89 0 162 -28.5t124.5 -82.5t72.5 -139t2 -191q-35 -201 -168 -300t-330 -99h-303l-45 -250h-172zM317 401h261q126 0 221.5 66t120.5 203q22 130 -47 199t-191 69h-270z" />
    <glyph glyph-name="germandbls" unicode="&#xdf;" 
d="M561 -20q-80 0 -151 16l24 143q60 -16 133 -16q122 0 201 48.5t94 133.5q7 38 -4 71t-33.5 57.5t-51 48t-57 47.5t-51 49t-34 59t-4.5 72q7 37 32.5 74t58 70t65.5 68.5t60 82.5t36 98q15 85 -27 132.5t-129 47.5q-115 0 -192.5 -88.5t-106.5 -249.5l-166 -944h-168
l170 965q40 226 163 347.5t310 121.5q171 0 255.5 -90.5t58.5 -243.5q-11 -60 -39.5 -114t-62.5 -91.5t-67 -70t-57.5 -64.5t-29.5 -60q-4 -24 9.5 -46.5t37.5 -40t53.5 -40t57.5 -47t49.5 -60t29.5 -79.5t-2 -106q-25 -142 -148 -221.5t-317 -79.5z" />
    <glyph glyph-name="agrave" unicode="&#xe0;" 
d="M705 1163l-209 291h196l162 -291h-149zM455 -20q-127 0 -214 70.5t-119.5 194.5t-6.5 279q41 237 180 378.5t319 141.5q170 0 265 -139l39 119h151l-141 -807q-11 -65 20.5 -93.5t95.5 -0.5l-10 -113q-32 -23 -77.5 -29t-89.5 6t-77 49.5t-38 94.5q-51 -71 -129.5 -111
t-167.5 -40zM479 133q77 0 155 41.5t140 128.5l82 465q-84 123 -225 123q-131 0 -222.5 -105t-125.5 -286q-30 -160 20.5 -263.5t175.5 -103.5z" />
    <glyph glyph-name="aacute" unicode="&#xe1;" 
d="M588 1163l264 291h213l-311 -291h-166zM455 -20q-127 0 -214 70.5t-119.5 194.5t-6.5 279q41 237 180 378.5t319 141.5q170 0 265 -139l39 119h151l-141 -807q-11 -65 20.5 -93.5t95.5 -0.5l-10 -113q-32 -23 -77.5 -29t-89.5 6t-77 49.5t-38 94.5q-51 -71 -129.5 -111
t-167.5 -40zM479 133q77 0 155 41.5t140 128.5l82 465q-84 123 -225 123q-131 0 -222.5 -105t-125.5 -286q-30 -160 20.5 -263.5t175.5 -103.5z" />
    <glyph glyph-name="acircumflex" unicode="&#xe2;" 
d="M354 1163l348 291h144l246 -291h-181l-145 180l-215 -180h-197zM455 -20q-127 0 -214 70.5t-119.5 194.5t-6.5 279q41 237 180 378.5t319 141.5q170 0 265 -139l39 119h151l-141 -807q-11 -65 20.5 -93.5t95.5 -0.5l-10 -113q-32 -23 -77.5 -29t-89.5 6t-77 49.5
t-38 94.5q-51 -71 -129.5 -111t-167.5 -40zM479 133q77 0 155 41.5t140 128.5l82 465q-84 123 -225 123q-131 0 -222.5 -105t-125.5 -286q-30 -160 20.5 -263.5t175.5 -103.5z" />
    <glyph glyph-name="atilde" unicode="&#xe3;" 
d="M885 1151q-46 0 -82.5 19.5t-59 47.5t-42.5 56t-43.5 47.5t-51.5 19.5q-42 0 -76.5 -42t-66.5 -136h-127q48 154 121 228.5t161 74.5q46 0 82.5 -19.5t59 -47.5t42.5 -56t43.5 -47.5t51.5 -19.5q81 0 141 178h127q-48 -155 -120 -229t-160 -74zM455 -20q-127 0 -214 70.5
t-119.5 194.5t-6.5 279q41 237 180 378.5t319 141.5q170 0 265 -139l39 119h151l-141 -807q-11 -65 20.5 -93.5t95.5 -0.5l-10 -113q-32 -23 -77.5 -29t-89.5 6t-77 49.5t-38 94.5q-51 -71 -129.5 -111t-167.5 -40zM479 133q77 0 155 41.5t140 128.5l82 465
q-84 123 -225 123q-131 0 -222.5 -105t-125.5 -286q-30 -160 20.5 -263.5t175.5 -103.5z" />
    <glyph glyph-name="adieresis" unicode="&#xe4;" 
d="M518 1190q-52 0 -82.5 38.5t-21.5 92.5q7 44 44 75t81 31q53 0 84 -38.5t22 -92.5q-7 -44 -44.5 -75t-82.5 -31zM965 1190q-54 0 -85 38.5t-22 92.5q8 44 44.5 75t82.5 31q52 0 83 -38.5t22 -92.5q-7 -44 -44 -75t-81 -31zM455 -20q-127 0 -214 70.5t-119.5 194.5
t-6.5 279q41 237 180 378.5t319 141.5q170 0 265 -139l39 119h151l-141 -807q-11 -65 20.5 -93.5t95.5 -0.5l-10 -113q-32 -23 -77.5 -29t-89.5 6t-77 49.5t-38 94.5q-51 -71 -129.5 -111t-167.5 -40zM479 133q77 0 155 41.5t140 128.5l82 465q-84 123 -225 123
q-131 0 -222.5 -105t-125.5 -286q-30 -160 20.5 -263.5t175.5 -103.5z" />
    <glyph glyph-name="aring" unicode="&#xe5;" 
d="M725 1100q-98 0 -151 61.5t-35 159.5q15 89 81.5 143t155.5 54q98 0 152 -61.5t37 -160.5q-17 -89 -84 -142.5t-156 -53.5zM737 1208q43 0 75.5 25.5t39.5 71.5q9 49 -16.5 76.5t-71.5 27.5q-43 0 -74.5 -25t-38.5 -71q-9 -49 15.5 -77t70.5 -28zM455 -20
q-127 0 -214 70.5t-119.5 194.5t-6.5 279q41 237 180 378.5t319 141.5q170 0 265 -139l39 119h151l-141 -807q-11 -65 20.5 -93.5t95.5 -0.5l-10 -113q-32 -23 -77.5 -29t-89.5 6t-77 49.5t-38 94.5q-51 -71 -129.5 -111t-167.5 -40zM479 133q77 0 155 41.5t140 128.5
l82 465q-84 123 -225 123q-131 0 -222.5 -105t-125.5 -286q-30 -160 20.5 -263.5t175.5 -103.5z" />
    <glyph glyph-name="ae" unicode="&#xe6;" 
d="M922 1044q63 0 114 -22t80.5 -58t49.5 -83t21.5 -97t-5.5 -100q-13 -70 -47.5 -123t-81.5 -82.5t-97 -44t-102 -14.5q-92 0 -186 43q-26 -177 17.5 -258.5t152.5 -81.5q80 0 209 70l-29 -166q-112 -47 -207 -47q-117 0 -193 54t-96 138q-41 -97 -115.5 -144.5
t-170.5 -47.5q-141 0 -203.5 100.5t-36.5 243.5q14 80 56 149t99 111.5t120.5 61.5t127.5 3t113 -67l12 51q25 134 -15.5 197t-129.5 63q-105 0 -225 -70l28 164q106 57 217 57q95 0 166 -40t88 -113q86 153 269 153zM1022 700q8 44 -0.5 88.5t-38.5 78.5t-78 34
q-147 0 -217 -315q79 -23 131 -23q26 0 51.5 4t60.5 16.5t59.5 42.5t31.5 74zM483 391l17 76q-36 45 -90.5 53t-106 -16t-93 -79t-54.5 -126q-13 -76 11.5 -127t92.5 -51q85 0 143 76t80 194z" />
    <glyph glyph-name="ccedilla" unicode="&#xe7;" 
d="M772 893q-166 0 -275.5 -93.5t-142.5 -277.5q-31 -180 37.5 -285.5t222.5 -105.5q81 0 164 25.5t144 62.5l-31 -180q-98 -45 -234 -57q50 -47 60 -113t-15 -123.5t-82.5 -98t-130.5 -40.5t-133 22l21 117q45 -10 69 -10q57 0 94 28.5t45.5 68t-7.5 82.5t-56 71
q-198 26 -287.5 175.5t-48.5 385.5q43 245 197 371t389 126q163 0 287 -63l-29 -166q-44 35 -113 56.5t-145 21.5z" />
    <glyph glyph-name="egrave" unicode="&#xe8;" 
d="M838 1163h-150l-209 291h197zM694 1044q105 0 185.5 -30t125.5 -81t63.5 -115t6.5 -134q-22 -137 -137.5 -216t-300.5 -79q-175 0 -334 70q-15 -163 61 -249.5t242 -86.5q185 0 342 98l-30 -174q-130 -67 -316 -67q-258 0 -382 148.5t-77 412.5q42 243 187 373t364 130z
M907 702q13 83 -45.5 141t-171.5 58q-130 0 -225.5 -83t-138.5 -234q164 -54 282 -54q121 0 203 42.5t96 129.5z" />
    <glyph glyph-name="eacute" unicode="&#xe9;" 
d="M1049 1454l-312 -291h-166l265 291h213zM694 1044q105 0 185.5 -30t125.5 -81t63.5 -115t6.5 -134q-22 -137 -137.5 -216t-300.5 -79q-175 0 -334 70q-15 -163 61 -249.5t242 -86.5q185 0 342 98l-30 -174q-130 -67 -316 -67q-258 0 -382 148.5t-77 412.5q42 243 187 373
t364 130zM907 702q13 83 -45.5 141t-171.5 58q-130 0 -225.5 -83t-138.5 -234q164 -54 282 -54q121 0 203 42.5t96 129.5z" />
    <glyph glyph-name="ecircumflex" unicode="&#xea;" 
d="M750 1343l-215 -180h-197l348 291h143l246 -291h-180zM694 1044q105 0 185.5 -30t125.5 -81t63.5 -115t6.5 -134q-22 -137 -137.5 -216t-300.5 -79q-175 0 -334 70q-15 -163 61 -249.5t242 -86.5q185 0 342 98l-30 -174q-130 -67 -316 -67q-258 0 -382 148.5t-77 412.5
q42 243 187 373t364 130zM907 702q13 83 -45.5 141t-171.5 58q-130 0 -225.5 -83t-138.5 -234q164 -54 282 -54q121 0 203 42.5t96 129.5z" />
    <glyph glyph-name="edieresis" unicode="&#xeb;" 
d="M502 1190q-52 0 -83 38.5t-22 92.5q7 44 44 75t81 31q53 0 84.5 -38.5t22.5 -92.5q-7 -44 -44.5 -75t-82.5 -31zM948 1190q-54 0 -84.5 38.5t-21.5 92.5q8 44 44.5 75t82.5 31q52 0 82.5 -38.5t21.5 -92.5q-7 -44 -44 -75t-81 -31zM694 1044q105 0 185.5 -30t125.5 -81
t63.5 -115t6.5 -134q-22 -137 -137.5 -216t-300.5 -79q-175 0 -334 70q-15 -163 61 -249.5t242 -86.5q185 0 342 98l-30 -174q-130 -67 -316 -67q-258 0 -382 148.5t-77 412.5q42 243 187 373t364 130zM907 702q13 83 -45.5 141t-171.5 58q-130 0 -225.5 -83t-138.5 -234
q164 -54 282 -54q121 0 203 42.5t96 129.5z" />
    <glyph glyph-name="igrave" unicode="&#xec;" 
d="M668 1163l-209 291h196l162 -291h-149zM758 -20q-150 0 -230 91.5t-49 262.5l96 543h-372l26 147h549l-127 -723q-13 -78 21.5 -124t105.5 -46q87 0 219 78l-30 -170q-78 -59 -209 -59z" />
    <glyph glyph-name="iacute" unicode="&#xed;" 
d="M551 1163l264 291h213l-311 -291h-166zM758 -20q-150 0 -230 91.5t-49 262.5l96 543h-372l26 147h549l-127 -723q-13 -78 21.5 -124t105.5 -46q87 0 219 78l-30 -170q-78 -59 -209 -59z" />
    <glyph glyph-name="icircumflex" unicode="&#xee;" 
d="M317 1163l349 291h143l246 -291h-181l-145 180l-215 -180h-197zM758 -20q-150 0 -230 91.5t-49 262.5l96 543h-372l26 147h549l-127 -723q-13 -78 21.5 -124t105.5 -46q87 0 219 78l-30 -170q-78 -59 -209 -59z" />
    <glyph glyph-name="idieresis" unicode="&#xef;" 
d="M481 1190q-52 0 -82.5 38.5t-21.5 92.5q7 44 44 75t81 31q53 0 84 -38.5t22 -92.5q-7 -44 -44.5 -75t-82.5 -31zM928 1190q-54 0 -85 38.5t-22 92.5q8 44 44.5 75t82.5 31q52 0 83 -38.5t22 -92.5q-7 -44 -44 -75t-81 -31zM758 -20q-150 0 -230 91.5t-49 262.5l96 543
h-372l26 147h549l-127 -723q-13 -78 21.5 -124t105.5 -46q87 0 219 78l-30 -170q-78 -59 -209 -59z" />
    <glyph glyph-name="eth" unicode="&#xf0;" 
d="M1130 1348l-24 -136l-193 -30l68 -101q73 -105 98 -243.5t-2 -294.5q-46 -270 -191 -416.5t-374 -146.5q-227 0 -332.5 150t-58.5 415q40 238 173.5 368.5t317.5 130.5q93 0 170.5 -33t116.5 -81l-100 151l-56 74l-325 -53l22 135l215 35l-106 141h205l77 -113zM901 528
q31 178 -32 273.5t-210 95.5q-144 0 -240 -96.5t-128 -280.5q-32 -183 29.5 -286t203.5 -103q146 0 244.5 103.5t132.5 293.5z" />
    <glyph glyph-name="ntilde" unicode="&#xf1;" 
d="M868 1151q-46 0 -82 19.5t-58.5 47.5t-42.5 56t-43.5 47.5t-51.5 19.5q-84 0 -144 -178h-127q48 154 121 228.5t162 74.5q46 0 82.5 -19.5t59 -47.5t42.5 -56t43.5 -47.5t51.5 -19.5q81 0 141 178h127q-48 -154 -120.5 -228.5t-160.5 -74.5zM90 0l180 1024h148l-12 -147
q72 83 163 125t189 42q159 0 232.5 -105t41.5 -284l-114 -655h-168l112 637q23 128 -7 193t-130 65q-87 0 -177.5 -45t-162.5 -129l-127 -721h-168z" />
    <glyph glyph-name="ograve" unicode="&#xf2;" 
d="M688 1163l-209 291h197l162 -291h-150zM510 -20q-225 0 -326 142.5t-55 401.5q44 249 188.5 384.5t360.5 135.5q225 0 326 -142.5t55 -401.5q-44 -249 -188.5 -384.5t-360.5 -135.5zM514 131q145 0 245 103t132 290q32 178 -24.5 273.5t-192.5 95.5q-145 0 -244 -103
t-133 -290q-31 -178 25.5 -273.5t191.5 -95.5z" />
    <glyph glyph-name="oacute" unicode="&#xf3;" 
d="M571 1163l265 291h213l-312 -291h-166zM510 -20q-225 0 -326 142.5t-55 401.5q44 249 188.5 384.5t360.5 135.5q225 0 326 -142.5t55 -401.5q-44 -249 -188.5 -384.5t-360.5 -135.5zM514 131q145 0 245 103t132 290q32 178 -24.5 273.5t-192.5 95.5q-145 0 -244 -103
t-133 -290q-31 -178 25.5 -273.5t191.5 -95.5z" />
    <glyph glyph-name="ocircumflex" unicode="&#xf4;" 
d="M338 1163l348 291h143l246 -291h-180l-145 180l-215 -180h-197zM510 -20q-225 0 -326 142.5t-55 401.5q44 249 188.5 384.5t360.5 135.5q225 0 326 -142.5t55 -401.5q-44 -249 -188.5 -384.5t-360.5 -135.5zM514 131q145 0 245 103t132 290q32 178 -24.5 273.5
t-192.5 95.5q-145 0 -244 -103t-133 -290q-31 -178 25.5 -273.5t191.5 -95.5z" />
    <glyph glyph-name="otilde" unicode="&#xf5;" 
d="M868 1151q-46 0 -82 19.5t-58.5 47.5t-42.5 56t-43.5 47.5t-51.5 19.5q-84 0 -144 -178h-127q48 154 121 228.5t162 74.5q46 0 82.5 -19.5t59 -47.5t42.5 -56t43.5 -47.5t51.5 -19.5q81 0 141 178h127q-48 -154 -120.5 -228.5t-160.5 -74.5zM510 -20q-225 0 -326 142.5
t-55 401.5q44 249 188.5 384.5t360.5 135.5q225 0 326 -142.5t55 -401.5q-44 -249 -188.5 -384.5t-360.5 -135.5zM514 131q145 0 245 103t132 290q32 178 -24.5 273.5t-192.5 95.5q-145 0 -244 -103t-133 -290q-31 -178 25.5 -273.5t191.5 -95.5z" />
    <glyph glyph-name="odieresis" unicode="&#xf6;" 
d="M502 1190q-52 0 -83 38.5t-22 92.5q7 44 44 75t81 31q53 0 84.5 -38.5t22.5 -92.5q-7 -44 -44.5 -75t-82.5 -31zM948 1190q-54 0 -84.5 38.5t-21.5 92.5q8 44 44.5 75t82.5 31q52 0 82.5 -38.5t21.5 -92.5q-7 -44 -44 -75t-81 -31zM510 -20q-225 0 -326 142.5t-55 401.5
q44 249 188.5 384.5t360.5 135.5q225 0 326 -142.5t55 -401.5q-44 -249 -188.5 -384.5t-360.5 -135.5zM514 131q145 0 245 103t132 290q32 178 -24.5 273.5t-192.5 95.5q-145 0 -244 -103t-133 -290q-31 -178 25.5 -273.5t191.5 -95.5z" />
    <glyph glyph-name="divide" unicode="&#xf7;" 
d="M682 952q-58 0 -93 43t-26 103q9 51 51 86t95 35q58 0 92.5 -43t23.5 -103q-7 -51 -48.5 -86t-94.5 -35zM123 625l24 143h983l-24 -143h-983zM545 174q-58 0 -93 42.5t-26 102.5q9 51 51 86t94 35q59 0 93 -42.5t24 -102.5q-7 -51 -48.5 -86t-94.5 -35z" />
    <glyph glyph-name="oslash" unicode="&#xf8;" 
d="M1141 1167l-166 -231q136 -142 84 -436q-44 -249 -188.5 -384.5t-360.5 -135.5q-117 0 -193 36l-114 -159h-156l166 231q-136 142 -84 436q44 249 188.5 384.5t360.5 135.5q115 0 194 -36l115 159h154zM297 500q-30 -172 20 -267l459 641q-46 19 -102 19
q-145 0 -244 -103t-133 -290zM891 524q30 170 -21 267l-458 -641q46 -19 102 -19q145 0 245 103t132 290z" />
    <glyph glyph-name="ugrave" unicode="&#xf9;" 
d="M688 1163l-209 291h197l162 -291h-150zM1098 1024l-180 -1024h-148l12 147q-72 -83 -163 -125t-189 -42q-159 0 -232.5 105t-41.5 284l114 655h168l-112 -637q-23 -128 7 -193t130 -65q87 0 177.5 45t162.5 129l127 721h168z" />
    <glyph glyph-name="uacute" unicode="&#xfa;" 
d="M571 1163l265 291h213l-312 -291h-166zM1098 1024l-180 -1024h-148l12 147q-72 -83 -163 -125t-189 -42q-159 0 -232.5 105t-41.5 284l114 655h168l-112 -637q-23 -128 7 -193t130 -65q87 0 177.5 45t162.5 129l127 721h168z" />
    <glyph glyph-name="ucircumflex" unicode="&#xfb;" 
d="M338 1163l348 291h143l246 -291h-180l-145 180l-215 -180h-197zM1098 1024l-180 -1024h-148l12 147q-72 -83 -163 -125t-189 -42q-159 0 -232.5 105t-41.5 284l114 655h168l-112 -637q-23 -128 7 -193t130 -65q87 0 177.5 45t162.5 129l127 721h168z" />
    <glyph glyph-name="udieresis" unicode="&#xfc;" 
d="M502 1190q-52 0 -83 38.5t-22 92.5q7 44 44 75t81 31q53 0 84.5 -38.5t22.5 -92.5q-7 -44 -44.5 -75t-82.5 -31zM948 1190q-54 0 -84.5 38.5t-21.5 92.5q8 44 44.5 75t82.5 31q52 0 82.5 -38.5t21.5 -92.5q-7 -44 -44 -75t-81 -31zM1098 1024l-180 -1024h-148l12 147
q-72 -83 -163 -125t-189 -42q-159 0 -232.5 105t-41.5 284l114 655h168l-112 -637q-23 -128 7 -193t130 -65q87 0 177.5 45t162.5 129l127 721h168z" />
    <glyph glyph-name="yacute" unicode="&#xfd;" 
d="M571 1163l265 291h213l-312 -291h-166zM72 -389q-82 0 -127 20l26 146q45 -15 88 -15q102 0 173.5 48t140.5 157l51 68l-238 989h174l175 -836l469 836h182l-639 -1083q-33 -55 -61.5 -96t-73.5 -87.5t-91.5 -76.5t-111 -50t-137.5 -20z" />
    <glyph glyph-name="thorn" unicode="&#xfe;" 
d="M16 -369l316 1782h168l-94 -514q59 73 145 109t182 36q189 0 279.5 -144.5t48.5 -387.5q-42 -241 -186 -386.5t-330 -145.5q-180 0 -271 139l-90 -488h-168zM532 133q135 0 231.5 110t129.5 294q30 166 -17 260t-171 94q-86 0 -176.5 -42t-151.5 -128l-82 -465
q84 -123 237 -123z" />
    <glyph glyph-name="ydieresis" unicode="&#xff;" 
d="M502 1190q-52 0 -83 38.5t-22 92.5q7 44 44 75t81 31q53 0 84.5 -38.5t22.5 -92.5q-7 -44 -44.5 -75t-82.5 -31zM948 1190q-54 0 -84.5 38.5t-21.5 92.5q8 44 44.5 75t82.5 31q52 0 82.5 -38.5t21.5 -92.5q-7 -44 -44 -75t-81 -31zM72 -389q-82 0 -127 20l26 146
q45 -15 88 -15q102 0 173.5 48t140.5 157l51 68l-238 989h174l175 -836l469 836h182l-639 -1083q-33 -55 -61.5 -96t-73.5 -87.5t-91.5 -76.5t-111 -50t-137.5 -20z" />
    <glyph glyph-name="Amacron" unicode="&#x100;" 
d="M469 1657h655l-24 -139h-656zM651 1311h164l240 -1311h-172l-52 307h-538l-160 -307h-184zM371 455h436l-107 635z" />
    <glyph glyph-name="amacron" unicode="&#x101;" 
d="M410 1231l24 139h656l-25 -139h-655zM455 -20q-127 0 -214 70.5t-119.5 194.5t-6.5 279q41 237 180 378.5t319 141.5q170 0 265 -139l39 119h151l-141 -807q-11 -65 20.5 -93.5t95.5 -0.5l-10 -113q-32 -23 -77.5 -29t-89.5 6t-77 49.5t-38 94.5q-51 -71 -129.5 -111
t-167.5 -40zM479 133q77 0 155 41.5t140 128.5l82 465q-84 123 -225 123q-131 0 -222.5 -105t-125.5 -286q-30 -160 20.5 -263.5t175.5 -103.5z" />
    <glyph glyph-name="Abreve" unicode="&#x102;" 
d="M768 1438q-143 0 -209.5 80.5t-40.5 222.5h137q-15 -82 15 -129t100 -47q77 0 130.5 47t68.5 129h137q-26 -144 -114 -223.5t-224 -79.5zM651 1311h164l240 -1311h-172l-52 307h-538l-160 -307h-184zM371 455h436l-107 635z" />
    <glyph glyph-name="abreve" unicode="&#x103;" 
d="M733 1151q-143 0 -209.5 80.5t-40.5 222.5h138q-15 -83 14.5 -129.5t99.5 -46.5q77 0 130.5 47t68.5 129h137q-26 -144 -114 -223.5t-224 -79.5zM455 -20q-127 0 -214 70.5t-119.5 194.5t-6.5 279q41 237 180 378.5t319 141.5q170 0 265 -139l39 119h151l-141 -807
q-11 -65 20.5 -93.5t95.5 -0.5l-10 -113q-32 -23 -77.5 -29t-89.5 6t-77 49.5t-38 94.5q-51 -71 -129.5 -111t-167.5 -40zM479 133q77 0 155 41.5t140 128.5l82 465q-84 123 -225 123q-131 0 -222.5 -105t-125.5 -286q-30 -160 20.5 -263.5t175.5 -103.5z" />
    <glyph glyph-name="Aogonek" unicode="&#x104;" 
d="M1030 0q-86 -33 -133 -110q-42 -71 -17 -117q20 -37 81 -37q29 0 94 10l-21 -121q-58 -18 -121 -18q-64 0 -109 28.5t-60.5 74.5t-9 98t45.5 104.5t103 87.5l-52 307h-538l-160 -307h-184l702 1311h164l240 -1311h-25zM371 455h436l-107 635z" />
    <glyph glyph-name="aogonek" unicode="&#x105;" 
d="M928 217q-11 -65 20.5 -93.5t95.5 -0.5l-10 -113q-37 -27 -90 -30q-77 -47 -107 -120q-29 -71 11 -105q24 -19 67 -19q30 0 95 10l-21 -121q-58 -18 -121 -18q-64 0 -109 28.5t-60.5 74.5t-9 98t45.5 104.5t103 87.5q-78 40 -86 131q-51 -71 -129.5 -111t-167.5 -40
q-127 0 -214 70.5t-119.5 194.5t-6.5 279q41 237 180 378.5t319 141.5q170 0 265 -139l39 119h151zM774 303l82 465q-84 123 -225 123q-131 0 -222.5 -105t-125.5 -286q-30 -160 20.5 -263.5t175.5 -103.5q77 0 155 41.5t140 128.5z" />
    <glyph glyph-name="Cacute" unicode="&#x106;" 
d="M692 1450l264 291h213l-311 -291h-166zM592 -20q-266 0 -385 190.5t-62 517.5q56 313 229 478t433 165q94 0 187.5 -22t162.5 -60l-33 -184q-130 111 -315 111q-189 0 -318.5 -132t-173.5 -380q-42 -246 34.5 -387.5t258.5 -141.5q87 0 188 32.5t183 86.5l-35 -197
q-171 -77 -354 -77z" />
    <glyph glyph-name="cacute" unicode="&#x107;" 
d="M641 1163l264 291h213l-311 -291h-166zM604 -20q-239 0 -351.5 153.5t-66.5 413.5q43 245 197 371t389 126q163 0 287 -63l-29 -166q-44 35 -113 56.5t-145 21.5q-166 0 -275.5 -93.5t-142.5 -277.5q-31 -180 37.5 -285.5t222.5 -105.5q81 0 164 25.5t144 62.5l-31 -180
q-137 -59 -287 -59z" />
    <glyph glyph-name="Ccircumflex" unicode="&#x108;" 
d="M459 1450l348 291h143l246 -291h-180l-146 180l-215 -180h-196zM592 -20q-266 0 -385 190.5t-62 517.5q56 313 229 478t433 165q94 0 187.5 -22t162.5 -60l-33 -184q-130 111 -315 111q-189 0 -318.5 -132t-173.5 -380q-42 -246 34.5 -387.5t258.5 -141.5q87 0 188 32.5
t183 86.5l-35 -197q-171 -77 -354 -77z" />
    <glyph glyph-name="ccircumflex" unicode="&#x109;" 
d="M408 1163l348 291h143l246 -291h-180l-146 180l-215 -180h-196zM604 -20q-239 0 -351.5 153.5t-66.5 413.5q43 245 197 371t389 126q163 0 287 -63l-29 -166q-44 35 -113 56.5t-145 21.5q-166 0 -275.5 -93.5t-142.5 -277.5q-31 -180 37.5 -285.5t222.5 -105.5
q81 0 164 25.5t144 62.5l-31 -180q-137 -59 -287 -59z" />
    <glyph glyph-name="Cdotaccent" unicode="&#x10a;" 
d="M844 1468q-58 0 -91 40.5t-22 99.5q8 50 47 83t90 33q57 0 90.5 -41t24.5 -100q-9 -49 -49 -82t-90 -33zM592 -20q-266 0 -385 190.5t-62 517.5q56 313 229 478t433 165q94 0 187.5 -22t162.5 -60l-33 -184q-130 111 -315 111q-189 0 -318.5 -132t-173.5 -380
q-42 -246 34.5 -387.5t258.5 -141.5q87 0 188 32.5t183 86.5l-35 -197q-171 -77 -354 -77z" />
    <glyph glyph-name="cdotaccent" unicode="&#x10b;" 
d="M793 1182q-58 0 -91 40t-22 99q8 50 47 83.5t90 33.5q57 0 90.5 -41.5t24.5 -100.5q-9 -49 -49 -81.5t-90 -32.5zM604 -20q-239 0 -351.5 153.5t-66.5 413.5q43 245 197 371t389 126q163 0 287 -63l-29 -166q-44 35 -113 56.5t-145 21.5q-166 0 -275.5 -93.5
t-142.5 -277.5q-31 -180 37.5 -285.5t222.5 -105.5q81 0 164 25.5t144 62.5l-31 -180q-137 -59 -287 -59z" />
    <glyph glyph-name="Ccaron" unicode="&#x10c;" 
d="M760 1450l-246 291h180l148 -180l213 180h196l-348 -291h-143zM592 -20q-266 0 -385 190.5t-62 517.5q56 313 229 478t433 165q94 0 187.5 -22t162.5 -60l-33 -184q-130 111 -315 111q-189 0 -318.5 -132t-173.5 -380q-42 -246 34.5 -387.5t258.5 -141.5q87 0 188 32.5
t183 86.5l-35 -197q-171 -77 -354 -77z" />
    <glyph glyph-name="ccaron" unicode="&#x10d;" 
d="M709 1163l-246 291h180l148 -180l213 180h196l-348 -291h-143zM604 -20q-239 0 -351.5 153.5t-66.5 413.5q43 245 197 371t389 126q163 0 287 -63l-29 -166q-44 35 -113 56.5t-145 21.5q-166 0 -275.5 -93.5t-142.5 -277.5q-31 -180 37.5 -285.5t222.5 -105.5
q81 0 164 25.5t144 62.5l-31 -180q-137 -59 -287 -59z" />
    <glyph glyph-name="Dcaron" unicode="&#x10e;" 
d="M670 1450l-246 291h180l148 -180l213 180h196l-348 -291h-143zM53 0l232 1311h358q280 0 408 -177.5t73 -490.5q-54 -305 -237.5 -474t-462.5 -169h-371zM252 152h186q198 0 335.5 137t178.5 379q41 234 -44 362.5t-281 128.5h-197z" />
    <glyph glyph-name="dcaron" unicode="&#x10f;" 
d="M1130 932l19 100q50 3 92 20.5t70 45.5t46 56.5t29 59.5q-40 -22 -71.5 -12t-49 44.5t-10.5 76.5q8 44 46 77.5t83 33.5q60 0 96.5 -51t20.5 -138q-8 -48 -34.5 -98t-70.5 -97t-113.5 -79.5t-152.5 -38.5zM373 -20q-189 0 -279.5 144.5t-48.5 387.5q42 241 186 386.5
t330 145.5q178 0 273 -139l92 508h168l-250 -1413h-144l11 137q-58 -81 -147 -119t-191 -38zM403 133q84 0 174.5 42t151.5 128l82 465q-44 64 -106.5 93.5t-129.5 29.5q-136 0 -232.5 -110t-129.5 -294q-30 -167 17.5 -260.5t172.5 -93.5z" />
    <glyph glyph-name="Dcroat" unicode="&#x110;" 
d="M655 1311q280 0 408.5 -177.5t73.5 -490.5q-54 -305 -238 -474t-463 -169h-370l106 600h-135l24 139h136l100 572h358zM965 668q41 233 -44.5 362t-281.5 129h-197l-73 -420h268l-25 -139h-268l-80 -448h187q198 0 335.5 137t178.5 379z" />
    <glyph glyph-name="dcroat" unicode="&#x111;" 
d="M1286 1280l-24 -139h-136l-200 -1141h-144l11 137q-58 -81 -147 -119t-191 -38q-189 0 -279.5 144.5t-48.5 387.5q42 241 186 386.5t330 145.5q177 0 272 -139l43 236h-331l24 139h332l25 133h168l-23 -133h133zM811 303l82 465q-44 64 -106.5 93.5t-129.5 29.5
q-136 0 -232.5 -110t-129.5 -294q-30 -167 17.5 -260.5t172.5 -93.5q84 0 174.5 42t151.5 128z" />
    <glyph glyph-name="Emacron" unicode="&#x112;" 
d="M1169 1657l-24 -139h-656l25 139h655zM1184 1159h-692l-74 -414h577l-26 -151h-578l-78 -442h701l-27 -152h-872l231 1311h864z" />
    <glyph glyph-name="emacron" unicode="&#x113;" 
d="M1073 1370l-24 -139h-656l25 139h655zM694 1044q105 0 185.5 -30t125.5 -81t63.5 -115t6.5 -134q-22 -137 -137.5 -216t-300.5 -79q-175 0 -334 70q-15 -163 61 -249.5t242 -86.5q185 0 342 98l-30 -174q-130 -67 -316 -67q-258 0 -382 148.5t-77 412.5q42 243 187 373
t364 130zM907 702q13 83 -45.5 141t-171.5 58q-130 0 -225.5 -83t-138.5 -234q164 -54 282 -54q121 0 203 42.5t96 129.5z" />
    <glyph glyph-name="Ebreve" unicode="&#x114;" 
d="M813 1438q-143 0 -209.5 80.5t-40.5 222.5h137q-15 -82 15 -129t100 -47q77 0 130.5 47t68.5 129h137q-26 -144 -114 -223.5t-224 -79.5zM1184 1159h-692l-74 -414h577l-26 -151h-578l-78 -442h701l-27 -152h-872l231 1311h864z" />
    <glyph glyph-name="ebreve" unicode="&#x115;" 
d="M717 1151q-143 0 -209.5 80.5t-40.5 222.5h137q-15 -82 15 -129t100 -47q77 0 130.5 47t68.5 129h137q-26 -144 -114 -223.5t-224 -79.5zM694 1044q105 0 185.5 -30t125.5 -81t63.5 -115t6.5 -134q-22 -137 -137.5 -216t-300.5 -79q-175 0 -334 70q-15 -163 61 -249.5
t242 -86.5q185 0 342 98l-30 -174q-130 -67 -316 -67q-258 0 -382 148.5t-77 412.5q42 243 187 373t364 130zM907 702q13 83 -45.5 141t-171.5 58q-130 0 -225.5 -83t-138.5 -234q164 -54 282 -54q121 0 203 42.5t96 129.5z" />
    <glyph glyph-name="Edotaccent" unicode="&#x116;" 
d="M819 1468q-58 0 -90.5 40.5t-21.5 99.5q8 50 47 83t90 33q57 0 90 -41t24 -100q-9 -49 -49 -82t-90 -33zM1184 1159h-692l-74 -414h577l-26 -151h-578l-78 -442h701l-27 -152h-872l231 1311h864z" />
    <glyph glyph-name="edotaccent" unicode="&#x117;" 
d="M723 1182q-58 0 -91 40t-22 99q8 50 47.5 83.5t90.5 33.5q57 0 90 -41.5t24 -100.5q-9 -49 -49 -81.5t-90 -32.5zM694 1044q105 0 185.5 -30t125.5 -81t63.5 -115t6.5 -134q-22 -137 -137.5 -216t-300.5 -79q-175 0 -334 70q-15 -163 61 -249.5t242 -86.5q185 0 342 98
l-30 -174q-130 -67 -316 -67q-258 0 -382 148.5t-77 412.5q42 243 187 373t364 130zM907 702q13 83 -45.5 141t-171.5 58q-130 0 -225.5 -83t-138.5 -234q164 -54 282 -54q121 0 203 42.5t96 129.5z" />
    <glyph glyph-name="Eogonek" unicode="&#x118;" 
d="M1184 1159h-692l-74 -414h577l-26 -151h-578l-78 -442h701l-27 -152q-86 -33 -133 -110q-42 -71 -17 -117q20 -37 81 -37q29 0 94 10l-21 -121q-59 -18 -121 -18q-64 0 -109 28.5t-60.5 74.5t-9 98t45.5 104.5t103 87.5h-725l231 1311h864z" />
    <glyph glyph-name="eogonek" unicode="&#x119;" 
d="M694 1044q105 0 185.5 -30t125.5 -81t63.5 -115t6.5 -134q-22 -137 -137.5 -216t-300.5 -79q-175 0 -334 70q-15 -163 61 -249.5t242 -86.5q185 0 342 98l-30 -174q-59 -31 -132 -47h25q-86 -33 -133 -110q-43 -71 -18 -117q20 -37 81 -37q30 0 95 10l-21 -121
q-59 -18 -121 -18q-75 0 -123 40.5t-57 97.5t21 122.5t96 112.5h-29q-258 0 -382 148.5t-77 412.5q42 243 187 373t364 130zM907 702q13 83 -45.5 141t-171.5 58q-130 0 -225.5 -83t-138.5 -234q164 -54 282 -54q121 0 203 42.5t96 129.5z" />
    <glyph glyph-name="Ecaron" unicode="&#x11a;" 
d="M879 1450h-144l-246 291h181l147 -180l213 180h197zM115 0l231 1311h864l-26 -152h-692l-74 -414h577l-26 -151h-578l-78 -442h701l-27 -152h-872z" />
    <glyph glyph-name="ecaron" unicode="&#x11b;" 
d="M782 1163h-143l-246 291h180l148 -180l213 180h196zM694 1044q105 0 185.5 -30t125.5 -81t63.5 -115t6.5 -134q-22 -137 -137.5 -216t-300.5 -79q-175 0 -334 70q-15 -163 61 -249.5t242 -86.5q185 0 342 98l-30 -174q-130 -67 -316 -67q-258 0 -382 148.5t-77 412.5
q42 243 187 373t364 130zM907 702q13 83 -45.5 141t-171.5 58q-130 0 -225.5 -83t-138.5 -234q164 -54 282 -54q121 0 203 42.5t96 129.5z" />
    <glyph glyph-name="Gcircumflex" unicode="&#x11c;" 
d="M459 1450l348 291h143l246 -291h-180l-146 180l-215 -180h-196zM571 -20q-268 0 -387.5 188t-62.5 516q56 315 236.5 481t453.5 166q102 0 196.5 -23t161.5 -63l-30 -178q-137 109 -324 109q-199 0 -339 -134t-183 -383q-43 -246 34 -385t261 -139q123 0 233 45l74 410
h-266l26 151h439l-113 -647q-71 -55 -179.5 -84.5t-230.5 -29.5z" />
    <glyph glyph-name="gcircumflex" unicode="&#x11d;" 
d="M338 1163l348 291h143l246 -291h-180l-145 180l-215 -180h-197zM408 -389q-161 0 -326 70l29 161q172 -71 307 -71q161 0 251.5 100t125.5 295q-58 -81 -148 -119.5t-192 -38.5q-190 0 -280 138t-48 380q42 241 189.5 379.5t349.5 138.5q128 0 234 -58.5t167 -174.5
l-129 -731q-22 -127 -73 -220t-123 -146.5t-154.5 -78t-179.5 -24.5zM485 162q85 0 176 42t152 128l78 436q-30 63 -97 93t-137 30q-138 0 -234 -103.5t-128 -285.5q-30 -165 17 -252.5t173 -87.5z" />
    <glyph glyph-name="Gbreve" unicode="&#x11e;" 
d="M838 1438q-143 0 -209.5 80.5t-40.5 222.5h137q-15 -82 15 -129t100 -47q77 0 130 47t68 129h138q-26 -144 -114 -223.5t-224 -79.5zM571 -20q-268 0 -387.5 188t-62.5 516q56 315 236.5 481t453.5 166q102 0 196.5 -23t161.5 -63l-30 -178q-137 109 -324 109
q-199 0 -339 -134t-183 -383q-43 -246 34 -385t261 -139q123 0 233 45l74 410h-266l26 151h439l-113 -647q-71 -55 -179.5 -84.5t-230.5 -29.5z" />
    <glyph glyph-name="gbreve" unicode="&#x11f;" 
d="M717 1151q-143 0 -209.5 80.5t-40.5 222.5h137q-15 -82 15 -129t100 -47q77 0 130.5 47t68.5 129h137q-26 -144 -114 -223.5t-224 -79.5zM408 -389q-161 0 -326 70l29 161q172 -71 307 -71q161 0 251.5 100t125.5 295q-58 -81 -148 -119.5t-192 -38.5q-190 0 -280 138
t-48 380q42 241 189.5 379.5t349.5 138.5q128 0 234 -58.5t167 -174.5l-129 -731q-22 -127 -73 -220t-123 -146.5t-154.5 -78t-179.5 -24.5zM485 162q85 0 176 42t152 128l78 436q-30 63 -97 93t-137 30q-138 0 -234 -103.5t-128 -285.5q-30 -165 17 -252.5t173 -87.5z" />
    <glyph glyph-name="Gdotaccent" unicode="&#x120;" 
d="M844 1468q-58 0 -91 40.5t-22 99.5q8 50 47 83t90 33q57 0 90.5 -41t24.5 -100q-9 -49 -49 -82t-90 -33zM571 -20q-268 0 -387.5 188t-62.5 516q56 315 236.5 481t453.5 166q102 0 196.5 -23t161.5 -63l-30 -178q-137 109 -324 109q-199 0 -339 -134t-183 -383
q-43 -246 34 -385t261 -139q123 0 233 45l74 410h-266l26 151h439l-113 -647q-71 -55 -179.5 -84.5t-230.5 -29.5z" />
    <glyph glyph-name="gdotaccent" unicode="&#x121;" 
d="M723 1182q-58 0 -91 40t-22 99q8 50 47.5 83.5t90.5 33.5q57 0 90 -41.5t24 -100.5q-9 -49 -49 -81.5t-90 -32.5zM408 -389q-161 0 -326 70l29 161q172 -71 307 -71q161 0 251.5 100t125.5 295q-58 -81 -148 -119.5t-192 -38.5q-190 0 -280 138t-48 380
q42 241 189.5 379.5t349.5 138.5q128 0 234 -58.5t167 -174.5l-129 -731q-22 -127 -73 -220t-123 -146.5t-154.5 -78t-179.5 -24.5zM485 162q85 0 176 42t152 128l78 436q-30 63 -97 93t-137 30q-138 0 -234 -103.5t-128 -285.5q-30 -165 17 -252.5t173 -87.5z" />
    <glyph glyph-name="Gcommaaccent" unicode="&#x122;" 
d="M571 -20q-268 0 -387.5 188t-62.5 516q56 315 236.5 481t453.5 166q102 0 196.5 -23t161.5 -63l-30 -178q-137 109 -324 109q-199 0 -339 -134t-183 -383q-43 -246 34 -385t261 -139q123 0 233 45l74 410h-266l26 151h439l-113 -647q-71 -55 -179.5 -84.5t-230.5 -29.5z
M260 -649l19 100q50 3 92 20.5t70 45.5t46 56.5t29 59.5q-40 -22 -71.5 -12t-49 44.5t-10.5 76.5q8 44 46 77.5t83 33.5q60 0 96.5 -51t20.5 -138q-8 -48 -34.5 -98t-70.5 -97t-113.5 -79.5t-152.5 -38.5z" />
    <glyph glyph-name="gcommaaccent" unicode="&#x123;" 
d="M989 1653l-18 -101q-50 -3 -92 -20.5t-70 -45.5t-46.5 -56.5t-29.5 -59.5q40 22 71.5 12.5t49 -44t10.5 -76.5q-8 -44 -46 -77.5t-83 -33.5q-60 0 -96.5 50.5t-20.5 137.5q8 48 34.5 98.5t70.5 97.5t113.5 79.5t152.5 38.5zM408 -389q-161 0 -326 70l29 161
q172 -71 307 -71q161 0 251.5 100t125.5 295q-58 -81 -148 -119.5t-192 -38.5q-190 0 -280 138t-48 380q42 241 189.5 379.5t349.5 138.5q128 0 234 -58.5t167 -174.5l-129 -731q-22 -127 -73 -220t-123 -146.5t-154.5 -78t-179.5 -24.5zM485 162q85 0 176 42t152 128
l78 436q-30 63 -97 93t-137 30q-138 0 -234 -103.5t-128 -285.5q-30 -165 17 -252.5t173 -87.5z" />
    <glyph glyph-name="Hcircumflex" unicode="&#x124;" 
d="M389 1450l348 291h144l245 -291h-180l-145 180l-215 -180h-197zM53 0l232 1311h172l-101 -566h557l101 566h172l-232 -1311h-172l105 594h-557l-105 -594h-172z" />
    <glyph glyph-name="hcircumflex" unicode="&#x125;" 
d="M78 1552l348 291h143l246 -291h-180l-146 181l-215 -181h-196zM90 0l250 1413h168l-96 -534q69 82 159 123.5t187 41.5q159 0 232.5 -105t41.5 -284l-114 -655h-168l112 637q23 128 -7.5 193t-131.5 65q-86 0 -176 -45t-162 -129l-127 -721h-168z" />
    <glyph glyph-name="Hbar" unicode="&#x126;" 
d="M1247 1085l-24 -139h-133l-168 -946h-172l100 573h-492l-100 -573h-172l168 946h-137l24 139h138l38 226h172l-40 -226h491l41 226h172l-39 -226h133zM877 725l38 221h-491l-39 -221h492z" />
    <glyph glyph-name="hbar" unicode="&#x127;" 
d="M758 1044q159 0 232.5 -105t41.5 -284l-114 -655h-168l112 637q23 128 -7.5 193t-131.5 65q-86 0 -176 -45t-162 -129l-127 -721h-168l201 1141h-144l25 139h145l23 133h168l-25 -133h324l-25 -139h-323l-47 -262q69 82 159 123.5t187 41.5z" />
    <glyph glyph-name="Itilde" unicode="&#x128;" 
d="M920 1438q-46 0 -82.5 19.5t-59 47.5t-42.5 56t-43.5 47.5t-51.5 19.5q-42 0 -76.5 -42t-66.5 -136h-127q48 154 121 228.5t161 74.5q46 0 82.5 -19.5t59 -47.5t42.5 -56t43.5 -47.5t51.5 -19.5q81 0 141 178h127q-48 -155 -120 -229t-160 -74zM115 0l26 152h303
l179 1007h-304l27 152h778l-26 -152h-303l-179 -1007h304l-27 -152h-778z" />
    <glyph glyph-name="itilde" unicode="&#x129;" 
d="M848 1151q-46 0 -82.5 19.5t-59 47.5t-42.5 56t-43.5 47.5t-51.5 19.5q-42 0 -76.5 -42t-66.5 -136h-127q48 154 121 228.5t162 74.5q46 0 82 -19.5t58.5 -47.5t42.5 -56t43.5 -47.5t51.5 -19.5q81 0 141 178h127q-48 -155 -120 -229t-160 -74zM758 -20q-150 0 -230 91.5
t-49 262.5l96 543h-372l26 147h549l-127 -723q-13 -78 21.5 -124t105.5 -46q87 0 219 78l-30 -170q-78 -59 -209 -59z" />
    <glyph glyph-name="Imacron" unicode="&#x12a;" 
d="M444 1518l25 139h655l-24 -139h-656zM115 0l26 152h303l179 1007h-304l27 152h778l-26 -152h-303l-179 -1007h304l-27 -152h-778z" />
    <glyph glyph-name="imacron" unicode="&#x12b;" 
d="M373 1231l24 139h656l-25 -139h-655zM758 -20q-150 0 -230 91.5t-49 262.5l96 543h-372l26 147h549l-127 -723q-13 -78 21.5 -124t105.5 -46q87 0 219 78l-30 -170q-78 -59 -209 -59z" />
    <glyph glyph-name="Ibreve" unicode="&#x12c;" 
d="M768 1438q-143 0 -209.5 80.5t-40.5 222.5h137q-15 -82 15 -129t100 -47q77 0 130.5 47t68.5 129h137q-26 -144 -114 -223.5t-224 -79.5zM115 0l26 152h303l179 1007h-304l27 152h778l-26 -152h-303l-179 -1007h304l-27 -152h-778z" />
    <glyph glyph-name="ibreve" unicode="&#x12d;" 
d="M696 1151q-143 0 -209.5 80.5t-40.5 222.5h138q-15 -83 14.5 -129.5t99.5 -46.5q77 0 130.5 47t68.5 129h137q-26 -144 -114 -223.5t-224 -79.5zM758 -20q-150 0 -230 91.5t-49 262.5l96 543h-372l26 147h549l-127 -723q-13 -78 21.5 -124t105.5 -46q87 0 219 78
l-30 -170q-78 -59 -209 -59z" />
    <glyph glyph-name="Iogonek" unicode="&#x12e;" 
d="M1098 1159h-303l-179 -1007h304l-27 -152h-295q-86 -33 -133 -110q-43 -71 -18 -117q20 -37 81 -37q30 0 95 10l-21 -121q-58 -18 -121 -18q-64 0 -109 28.5t-60.5 74.5t-9 98t45.5 104.5t103 87.5h-336l26 152h303l179 1007h-304l27 152h778z" />
    <glyph glyph-name="iogonek" unicode="&#x12f;" 
d="M709 1178q-60 0 -95 42.5t-24 102.5q9 51 50.5 86t92.5 35q60 0 95 -43t24 -103q-9 -51 -50.5 -85.5t-92.5 -34.5zM739 -20q-76 -45 -106 -118q-30 -70 10 -105q23 -21 68 -21q29 0 94 10l-21 -121q-58 -18 -120 -18q-53 0 -94 20.5t-62 54t-25 76t10.5 85.5t50.5 85
t89 72q-93 34 -135.5 119t-18.5 215l96 543h-372l26 147h549l-127 -723q-13 -78 21.5 -124t105.5 -46q87 0 219 78l-30 -170q-78 -59 -209 -59h-19z" />
    <glyph glyph-name="Idotaccent" unicode="&#x130;" 
d="M774 1468q-58 0 -90.5 40.5t-21.5 99.5q8 50 47 83t90 33q57 0 90 -41t24 -100q-9 -49 -49 -82t-90 -33zM115 0l26 152h303l179 1007h-304l27 152h778l-26 -152h-303l-179 -1007h304l-27 -152h-778z" />
    <glyph glyph-name="dotlessi" unicode="&#x131;" 
d="M758 -20q-150 0 -230 91.5t-49 262.5l96 543h-372l26 147h549l-127 -723q-13 -78 21.5 -124t105.5 -46q87 0 219 78l-30 -170q-78 -59 -209 -59z" />
    <glyph glyph-name="IJ" unicode="&#x132;" 
d="M53 0l232 1311h172l-232 -1311h-172zM571 -20q-118 0 -196 38l26 158q62 -41 172 -41q129 0 209.5 90t110.5 260l145 826h172l-149 -846q-41 -236 -168.5 -360.5t-321.5 -124.5z" />
    <glyph glyph-name="ij" unicode="&#x133;" 
d="M446 1178q-60 0 -94.5 42.5t-23.5 102.5q9 51 50.5 86t92.5 35q60 0 95 -43t24 -103q-9 -51 -51 -85.5t-93 -34.5zM999 1178q-60 0 -94.5 42.5t-23.5 102.5q9 51 50.5 86t92.5 35q60 0 95 -43t24 -103q-9 -51 -51 -85.5t-93 -34.5zM356 -389q-150 0 -274 61l29 152
q118 -62 247 -62q141 0 233 81t118 229l168 952h167l-170 -965q-38 -217 -173 -332.5t-345 -115.5zM143 0l181 1024h168l-181 -1024h-168z" />
    <glyph glyph-name="Jcircumflex" unicode="&#x134;" 
d="M461 1450l348 291h143l246 -291h-180l-146 180l-215 -180h-196zM406 -20q-97 0 -179.5 26.5t-124.5 69.5l29 166q40 -51 116 -79t159 -28q159 0 262 109t137 307l108 608h-438l27 152h610l-137 -781q-47 -265 -195 -407.5t-374 -142.5z" />
    <glyph glyph-name="jcircumflex" unicode="&#x135;" 
d="M307 1163l348 291h144l245 -291h-180l-145 180l-215 -180h-197zM279 -397q-163 0 -279 57l18 156q118 -62 267 -62q132 0 222 85t116 233l141 805h-514l26 147h682l-170 -965q-38 -218 -172 -337t-337 -119z" />
    <glyph glyph-name="Kcommaaccent" unicode="&#x136;" 
d="M1245 1311l-526 -531l336 -780h-187l-274 655l-256 -258l-70 -397h-174l232 1311h172l-123 -690l661 690h209zM479 -147q60 0 96.5 -51t20.5 -138q-8 -48 -34.5 -98t-70.5 -97t-113.5 -79.5t-152.5 -38.5l19 100q50 3 92 20.5t70 45.5t46 56.5t29 59.5q-40 -22 -71.5 -12
t-49 44.5t-10.5 76.5q8 44 46 77.5t83 33.5z" />
    <glyph glyph-name="kcommaaccent" unicode="&#x137;" 
d="M1145 1024l-455 -418l311 -606h-184l-250 492l-219 -201l-53 -291h-168l250 1413h168l-162 -917l555 528h207zM489 -147q60 0 96.5 -51t20.5 -138q-8 -48 -34.5 -98t-70 -97t-113 -79.5t-152.5 -38.5l18 100q50 3 92 20.5t70 45.5t46.5 56.5t29.5 59.5q-40 -22 -72 -12
t-49.5 44.5t-10.5 76.5q8 44 46 77.5t83 33.5z" />
    <glyph glyph-name="Lacute" unicode="&#x139;" 
d="M340 1450l264 291h213l-311 -291h-166zM135 0l232 1311h172l-205 -1159h667l-26 -152h-840z" />
    <glyph glyph-name="lacute" unicode="&#x13a;" 
d="M584 1552l264 291h213l-311 -291h-166zM709 -20q-149 0 -225 91t-46 263l164 932h-332l27 147h510l-197 -1112q-13 -77 24.5 -123.5t108.5 -46.5q97 0 234 74l-31 -166q-85 -59 -237 -59z" />
    <glyph glyph-name="Lcommaaccent" unicode="&#x13b;" 
d="M135 0l232 1311h172l-205 -1159h667l-26 -152h-840zM250 -649l18 100q50 3 92 20.5t70 45.5t46.5 56.5t29.5 59.5q-40 -22 -71.5 -12t-49 44.5t-10.5 76.5q8 44 46 77.5t83 33.5q60 0 96.5 -51t20.5 -138q-8 -48 -34.5 -98t-70.5 -97t-113.5 -79.5t-152.5 -38.5z" />
    <glyph glyph-name="lcommaaccent" unicode="&#x13c;" 
d="M709 -20q-149 0 -225 91t-46 263l164 932h-332l27 147h510l-197 -1112q-13 -77 24.5 -123.5t108.5 -46.5q97 0 234 74l-31 -166q-85 -59 -237 -59zM342 -649l18 100q50 3 92 20.5t70 45.5t46.5 56.5t29.5 59.5q-40 -22 -71.5 -12t-49 44.5t-10.5 76.5q8 44 46 77.5
t83 33.5q60 0 96.5 -51t20.5 -138q-8 -48 -34.5 -98t-70.5 -97t-113.5 -79.5t-152.5 -38.5z" />
    <glyph glyph-name="Lcaron" unicode="&#x13d;" 
d="M690 928l19 100q50 3 92 20.5t70 45.5t46 56.5t29 59.5q-40 -22 -71.5 -12t-49 44.5t-10.5 76.5q8 44 46 77.5t83 33.5q60 0 96.5 -51t20.5 -138q-8 -48 -34.5 -98t-70.5 -97t-113.5 -79.5t-152.5 -38.5zM135 0l232 1311h172l-205 -1159h667l-26 -152h-840z" />
    <glyph glyph-name="lcaron" unicode="&#x13e;" 
d="M897 932l18 100q50 3 92 20.5t70 45.5t46.5 56.5t29.5 59.5q-40 -22 -71.5 -12t-49 44.5t-10.5 76.5q8 44 46 77.5t83 33.5q60 0 96.5 -51t20.5 -138q-8 -48 -34.5 -98t-70.5 -97t-113.5 -79.5t-152.5 -38.5zM709 -20q-149 0 -225 91t-46 263l164 932h-332l27 147h510
l-197 -1112q-13 -77 24.5 -123.5t108.5 -46.5q97 0 234 74l-31 -166q-85 -59 -237 -59z" />
    <glyph glyph-name="Ldot" unicode="&#x13f;" 
d="M135 0l232 1311h172l-205 -1159h667l-26 -152h-840zM954 563q-58 0 -90.5 40t-21.5 99q8 50 47 83.5t90 33.5q57 0 90.5 -41t24.5 -100q-9 -49 -49.5 -82t-90.5 -33z" />
    <glyph glyph-name="ldot" unicode="&#x140;" 
d="M709 -20q-149 0 -225 91t-46 263l164 932h-332l27 147h510l-197 -1112q-13 -77 24.5 -123.5t108.5 -46.5q97 0 234 74l-31 -166q-85 -59 -237 -59zM1032 563q-58 0 -90.5 40t-21.5 99q8 50 47 83.5t90 33.5q57 0 90 -41t24 -100q-9 -49 -49 -82t-90 -33z" />
    <glyph glyph-name="Lslash" unicode="&#x141;" 
d="M354 152h647l-26 -152h-819l104 590l-207 -60l25 148l209 59l100 574h172l-92 -520l467 133l-25 -148l-469 -135z" />
    <glyph glyph-name="lslash" unicode="&#x142;" 
d="M684 717l-74 -416q-13 -77 24.5 -123.5t108.5 -46.5q97 0 234 74l-31 -166q-85 -59 -237 -59q-149 0 -225 91t-46 263l60 332l-351 -95l27 148l348 94l80 453h-332l27 147h510l-96 -549l401 109l-27 -148z" />
    <glyph glyph-name="Nacute" unicode="&#x143;" 
d="M623 1450l264 291h213l-312 -291h-165zM53 0l232 1311h164l397 -1004l180 1004h160l-232 -1311h-143l-412 1044l-186 -1044h-160z" />
    <glyph glyph-name="nacute" unicode="&#x144;" 
d="M571 1163l265 291h213l-312 -291h-166zM90 0l180 1024h148l-12 -147q72 83 163 125t189 42q159 0 232.5 -105t41.5 -284l-114 -655h-168l112 637q23 128 -7 193t-130 65q-87 0 -177.5 -45t-162.5 -129l-127 -721h-168z" />
    <glyph glyph-name="Ncommaaccent" unicode="&#x145;" 
d="M53 0l232 1311h164l397 -1004l180 1004h160l-232 -1311h-143l-412 1044l-186 -1044h-160zM199 -649l18 100q50 3 92 20.5t70 45.5t46.5 56.5t29.5 59.5q-40 -22 -71.5 -12t-49 44.5t-10.5 76.5q8 44 46 77.5t83 33.5q60 0 96 -51t20 -138q-8 -48 -34.5 -98t-70 -97
t-113 -79.5t-152.5 -38.5z" />
    <glyph glyph-name="ncommaaccent" unicode="&#x146;" 
d="M90 0l180 1024h148l-12 -147q72 83 163 125t189 42q159 0 232.5 -105t41.5 -284l-114 -655h-168l112 637q23 128 -7 193t-130 65q-87 0 -177.5 -45t-162.5 -129l-127 -721h-168zM199 -649l18 100q50 3 92 20.5t70 45.5t46.5 56.5t29.5 59.5q-40 -22 -71.5 -12t-49 44.5
t-10.5 76.5q8 44 46 77.5t83 33.5q60 0 96 -51t20 -138q-8 -48 -34.5 -98t-70 -97t-113 -79.5t-152.5 -38.5z" />
    <glyph glyph-name="Ncaron" unicode="&#x147;" 
d="M690 1450l-246 291h181l147 -180l213 180h197l-348 -291h-144zM53 0l232 1311h164l397 -1004l180 1004h160l-232 -1311h-143l-412 1044l-186 -1044h-160z" />
    <glyph glyph-name="ncaron" unicode="&#x148;" 
d="M639 1163l-246 291h180l148 -180l213 180h196l-348 -291h-143zM90 0l180 1024h148l-12 -147q72 83 163 125t189 42q159 0 232.5 -105t41.5 -284l-114 -655h-168l112 637q23 128 -7 193t-130 65q-87 0 -177.5 -45t-162.5 -129l-127 -721h-168z" />
    <glyph glyph-name="napostrophe" unicode="&#x149;" 
d="M109 1024l18 100q50 3 92 21t70 45.5t46.5 56.5t29.5 60q-57 -36 -100 3.5t-32 104.5q8 44 46 77.5t83 33.5q60 0 96.5 -51t20.5 -138q-8 -48 -34.5 -98t-70 -97t-113 -79.5t-152.5 -38.5zM111 0l180 1024h147l-12 -147q72 83 163 125t189 42q159 0 233 -105t42 -284
l-115 -655h-168l113 637q23 128 -7.5 193t-130.5 65q-87 0 -177 -45t-162 -129l-127 -721h-168z" />
    <glyph glyph-name="Eng" unicode="&#x14a;" 
d="M487 -389q-119 0 -202 39l26 151q78 -43 170 -43q120 0 204 71t116 200l-402 1015l-186 -1044h-160l232 1311h166l395 -1004l180 1004h160l-225 -1272q-36 -207 -161 -317.5t-313 -110.5z" />
    <glyph glyph-name="eng" unicode="&#x14b;" 
d="M518 -389q-100 0 -188 31l26 151q73 -31 146 -31q102 0 166 66.5t86 189.5l108 619q23 128 -7 193t-130 65q-87 0 -177.5 -45t-162.5 -129l-127 -721h-168l180 1024h148l-12 -147q72 83 163 125t189 42q159 0 233 -105t43 -284l-116 -657q-34 -188 -137.5 -287.5
t-262.5 -99.5z" />
    <glyph glyph-name="Omacron" unicode="&#x14c;" 
d="M444 1518l25 139h655l-24 -139h-656zM510 -20q-247 0 -352.5 180t-48.5 508q57 318 219.5 490.5t400.5 172.5q247 0 352 -180t47 -508q-55 -318 -217.5 -490.5t-400.5 -172.5zM516 135q162 0 279 140t161 393q44 245 -16.5 376.5t-216.5 131.5q-162 0 -279.5 -140
t-162.5 -393q-43 -245 18 -376.5t217 -131.5z" />
    <glyph glyph-name="omacron" unicode="&#x14d;" 
d="M393 1231l25 139h655l-24 -139h-656zM510 -20q-225 0 -326 142.5t-55 401.5q44 249 188.5 384.5t360.5 135.5q225 0 326 -142.5t55 -401.5q-44 -249 -188.5 -384.5t-360.5 -135.5zM514 131q145 0 245 103t132 290q32 178 -24.5 273.5t-192.5 95.5q-145 0 -244 -103
t-133 -290q-31 -178 25.5 -273.5t191.5 -95.5z" />
    <glyph glyph-name="Obreve" unicode="&#x14e;" 
d="M768 1438q-143 0 -209.5 80.5t-40.5 222.5h137q-15 -82 15 -129t100 -47q77 0 130.5 47t68.5 129h137q-26 -144 -114 -223.5t-224 -79.5zM510 -20q-247 0 -352.5 180t-48.5 508q57 318 219.5 490.5t400.5 172.5q247 0 352 -180t47 -508q-55 -318 -217.5 -490.5
t-400.5 -172.5zM516 135q162 0 279 140t161 393q44 245 -16.5 376.5t-216.5 131.5q-162 0 -279.5 -140t-162.5 -393q-43 -245 18 -376.5t217 -131.5z" />
    <glyph glyph-name="obreve" unicode="&#x14f;" 
d="M717 1151q-143 0 -209.5 80.5t-40.5 222.5h137q-15 -82 15 -129t100 -47q77 0 130.5 47t68.5 129h137q-26 -144 -114 -223.5t-224 -79.5zM510 -20q-225 0 -326 142.5t-55 401.5q44 249 188.5 384.5t360.5 135.5q225 0 326 -142.5t55 -401.5q-44 -249 -188.5 -384.5
t-360.5 -135.5zM514 131q145 0 245 103t132 290q32 178 -24.5 273.5t-192.5 95.5q-145 0 -244 -103t-133 -290q-31 -178 25.5 -273.5t191.5 -95.5z" />
    <glyph glyph-name="Ohungarumlaut" unicode="&#x150;" 
d="M451 1450l284 291h189l-285 -291h-188zM795 1450l284 291h189l-285 -291h-188zM510 -20q-247 0 -352.5 180t-48.5 508q57 318 219.5 490.5t400.5 172.5q247 0 352 -180t47 -508q-55 -318 -217.5 -490.5t-400.5 -172.5zM516 135q162 0 279 140t161 393q44 245 -16.5 376.5
t-216.5 131.5q-162 0 -279.5 -140t-162.5 -393q-43 -245 18 -376.5t217 -131.5z" />
    <glyph glyph-name="ohungarumlaut" unicode="&#x151;" 
d="M399 1163l285 291h188l-284 -291h-189zM743 1163l285 291h189l-285 -291h-189zM510 -20q-225 0 -326 142.5t-55 401.5q44 249 188.5 384.5t360.5 135.5q225 0 326 -142.5t55 -401.5q-44 -249 -188.5 -384.5t-360.5 -135.5zM514 131q145 0 245 103t132 290
q32 178 -24.5 273.5t-192.5 95.5q-145 0 -244 -103t-133 -290q-31 -178 25.5 -273.5t191.5 -95.5z" />
    <glyph glyph-name="OE" unicode="&#x152;" 
d="M526 0q-261 0 -379 177.5t-63 490.5q54 305 227 474t434 169h523l-27 -152h-385l-74 -414h312l-27 -151h-311l-78 -442h393l-27 -152h-518zM500 152l188 1007q-159 0 -274 -137t-158 -379q-40 -234 23 -362.5t221 -128.5z" />
    <glyph glyph-name="oe" unicode="&#x153;" 
d="M936 1044q60 0 109 -22t79.5 -58.5t50.5 -84t22 -98t-5 -101.5q-25 -132 -114.5 -195t-207.5 -63q-94 0 -190 41q-24 -172 26 -256t152 -84q79 0 209 70l-29 -166q-118 -47 -207 -47q-106 0 -173 45.5t-97 146.5q-62 -107 -132 -149.5t-157 -42.5q-165 0 -232.5 143
t-21.5 401q44 249 155 384.5t267 135.5q90 0 147 -42t81 -136q58 100 123 139t145 39zM1038 696q5 46 0 91.5t-33 79.5t-73 34q-153 0 -227 -315q79 -23 149 -23q162 0 184 133zM526 524q32 178 8.5 273.5t-98.5 95.5q-85 0 -150.5 -103t-99.5 -290q-31 -178 -8 -273.5
t98 -95.5q85 0 151.5 103.5t98.5 289.5z" />
    <glyph glyph-name="Racute" unicode="&#x154;" 
d="M1100 1741l-312 -291h-165l264 291h213zM786 1311q187 0 291 -107.5t68 -314.5q-29 -169 -130.5 -262.5t-250.5 -118.5l242 -508h-189l-227 500h-252l-88 -500h-172l231 1311h477zM973 905q23 129 -44.5 191.5t-191.5 62.5h-282l-90 -508h272q60 0 112 12.5t99 40.5
t79.5 79.5t45.5 121.5z" />
    <glyph glyph-name="racute" unicode="&#x155;" 
d="M602 1163l264 291h213l-311 -291h-166zM106 0l27 147h201l102 586q11 63 -1 104t-41 56t-69 11t-85 -27l26 147q56 22 115 22.5t110.5 -20.5t82 -76t26.5 -137q43 83 110 136.5t135.5 74t145.5 20.5q114 0 205 -40l-29 -160q-101 47 -188 47q-108 0 -202 -60.5
t-189 -201.5l-86 -482h327l-26 -147h-697z" />
    <glyph glyph-name="Rcommaaccent" unicode="&#x156;" 
d="M786 1311q187 0 291 -107.5t68 -314.5q-29 -169 -130.5 -262.5t-250.5 -118.5l242 -508h-189l-227 500h-252l-88 -500h-172l231 1311h477zM973 905q23 129 -44.5 191.5t-191.5 62.5h-282l-90 -508h272q60 0 112 12.5t99 40.5t79.5 79.5t45.5 121.5zM459 -147q60 0 96 -51
t20 -138q-8 -48 -34.5 -98t-70 -97t-113 -79.5t-152.5 -38.5l18 100q50 3 92 20.5t70 45.5t46.5 56.5t29.5 59.5q-40 -22 -71.5 -12t-49 44.5t-10.5 76.5q8 44 46 77.5t83 33.5z" />
    <glyph glyph-name="rcommaaccent" unicode="&#x157;" 
d="M106 0l27 147h201l102 586q11 63 -1 104t-41 56t-69 11t-85 -27l26 147q56 22 115 22.5t110.5 -20.5t82 -76t26.5 -137q43 83 110 136.5t135.5 74t145.5 20.5q114 0 205 -40l-29 -160q-101 47 -188 47q-108 0 -202 -60.5t-189 -201.5l-86 -482h327l-26 -147h-697z
M150 -649l18 100q50 3 92 20.5t70 45.5t46.5 56.5t29.5 59.5q-40 -22 -72 -12t-49.5 44.5t-10.5 76.5q8 44 46 77.5t83 33.5q60 0 96.5 -51t20.5 -138q-8 -48 -34.5 -98t-70 -97t-113 -79.5t-152.5 -38.5z" />
    <glyph glyph-name="Rcaron" unicode="&#x158;" 
d="M834 1450h-144l-246 291h181l147 -180l213 180h197zM786 1311q187 0 291 -107.5t68 -314.5q-29 -169 -130.5 -262.5t-250.5 -118.5l242 -508h-189l-227 500h-252l-88 -500h-172l231 1311h477zM973 905q23 129 -44.5 191.5t-191.5 62.5h-282l-90 -508h272q60 0 112 12.5
t99 40.5t79.5 79.5t45.5 121.5z" />
    <glyph glyph-name="rcaron" unicode="&#x159;" 
d="M670 1163l-246 291h180l148 -180l213 180h196l-348 -291h-143zM106 0l27 147h201l102 586q11 63 -1 104t-41 56t-69 11t-85 -27l26 147q56 22 115 22.5t110.5 -20.5t82 -76t26.5 -137q43 83 110 136.5t135.5 74t145.5 20.5q114 0 205 -40l-29 -160q-101 47 -188 47
q-108 0 -202 -60.5t-189 -201.5l-86 -482h327l-26 -147h-697z" />
    <glyph glyph-name="Sacute" unicode="&#x15a;" 
d="M635 1450l264 291h213l-311 -291h-166zM469 -20q-122 0 -232.5 26t-181.5 70l31 170q147 -111 391 -111q152 0 250 59t115 158q29 168 -254 244q-402 101 -352 395q28 156 166 248t352 92q191 0 344 -65l-31 -172q-127 82 -315 82q-144 0 -234.5 -54t-107.5 -149
q-14 -77 48 -134.5t199 -90.5q193 -44 289.5 -149.5t69.5 -264.5q-29 -163 -175.5 -258.5t-371.5 -95.5z" />
    <glyph glyph-name="sacute" unicode="&#x15b;" 
d="M588 1163l264 291h213l-311 -291h-166zM485 -20q-106 0 -202 20.5t-158 56.5l29 158q61 -44 149 -68t184 -24q131 0 212.5 45.5t95.5 122.5q11 62 -43 100t-172 66q-176 38 -257.5 113.5t-60.5 197.5q23 129 146.5 202.5t322.5 73.5q182 0 289 -47l-27 -151
q-101 55 -268 55q-131 0 -210.5 -40t-92.5 -113q-8 -52 35 -85t164 -65q182 -45 267.5 -124t63.5 -204q-23 -135 -147 -212.5t-320 -77.5z" />
    <glyph glyph-name="Scircumflex" unicode="&#x15c;" 
d="M401 1450l349 291h143l246 -291h-181l-145 180l-215 -180h-197zM469 -20q-122 0 -232.5 26t-181.5 70l31 170q147 -111 391 -111q152 0 250 59t115 158q29 168 -254 244q-402 101 -352 395q28 156 166 248t352 92q191 0 344 -65l-31 -172q-127 82 -315 82
q-144 0 -234.5 -54t-107.5 -149q-14 -77 48 -134.5t199 -90.5q193 -44 289.5 -149.5t69.5 -264.5q-29 -163 -175.5 -258.5t-371.5 -95.5z" />
    <glyph glyph-name="scircumflex" unicode="&#x15d;" 
d="M354 1163l348 291h144l246 -291h-181l-145 180l-215 -180h-197zM485 -20q-106 0 -202 20.5t-158 56.5l29 158q61 -44 149 -68t184 -24q131 0 212.5 45.5t95.5 122.5q11 62 -43 100t-172 66q-176 38 -257.5 113.5t-60.5 197.5q23 129 146.5 202.5t322.5 73.5
q182 0 289 -47l-27 -151q-101 55 -268 55q-131 0 -210.5 -40t-92.5 -113q-8 -52 35 -85t164 -65q182 -45 267.5 -124t63.5 -204q-23 -135 -147 -212.5t-320 -77.5z" />
    <glyph glyph-name="Scedilla" unicode="&#x15e;" 
d="M752 1176q-144 0 -234.5 -54t-107.5 -149q-14 -77 48 -134.5t199 -90.5q193 -44 289.5 -149.5t69.5 -264.5q-26 -145 -146 -237.5t-309 -112.5q52 -47 62.5 -113t-14 -124t-82.5 -99t-132 -41q-73 0 -133 22l21 117q45 -10 69 -10q74 0 112.5 45t29 103.5t-59.5 95.5
q-114 5 -213.5 30t-165.5 66l31 170q147 -111 391 -111q152 0 250 59t115 158q29 168 -254 244q-402 101 -352 395q28 156 166 248t352 92q191 0 344 -65l-31 -172q-127 82 -315 82z" />
    <glyph glyph-name="scedilla" unicode="&#x15f;" 
d="M725 901q-131 0 -210.5 -40t-92.5 -113q-8 -52 35 -85t164 -65q182 -45 267.5 -124t63.5 -204q-20 -121 -122 -196t-265 -90q51 -47 61.5 -113t-14.5 -124t-82.5 -99t-130.5 -41t-133 22l21 117q45 -10 69 -10q56 0 93 27.5t46 66t-6 81t-53 71.5q-190 6 -311 75l29 158
q61 -44 149 -68t184 -24q131 0 212.5 45.5t95.5 122.5q11 62 -43 100t-172 66q-176 38 -257.5 113.5t-60.5 197.5q23 129 146.5 202.5t322.5 73.5q182 0 289 -47l-27 -151q-101 55 -268 55z" />
    <glyph glyph-name="Scaron" unicode="&#x160;" 
d="M702 1450l-245 291h180l147 -180l213 180h197l-348 -291h-144zM469 -20q-122 0 -232.5 26t-181.5 70l31 170q147 -111 391 -111q152 0 250 59t115 158q29 168 -254 244q-402 101 -352 395q28 156 166 248t352 92q191 0 344 -65l-31 -172q-127 82 -315 82
q-144 0 -234.5 -54t-107.5 -149q-14 -77 48 -134.5t199 -90.5q193 -44 289.5 -149.5t69.5 -264.5q-29 -163 -175.5 -258.5t-371.5 -95.5z" />
    <glyph glyph-name="scaron" unicode="&#x161;" 
d="M655 1163l-245 291h180l147 -180l213 180h197l-348 -291h-144zM485 -20q-106 0 -202 20.5t-158 56.5l29 158q61 -44 149 -68t184 -24q131 0 212.5 45.5t95.5 122.5q11 62 -43 100t-172 66q-176 38 -257.5 113.5t-60.5 197.5q23 129 146.5 202.5t322.5 73.5q182 0 289 -47
l-27 -151q-101 55 -268 55q-131 0 -210.5 -40t-92.5 -113q-8 -52 35 -85t164 -65q182 -45 267.5 -124t63.5 -204q-23 -135 -147 -212.5t-320 -77.5z" />
    <glyph glyph-name="Tcaron" unicode="&#x164;" 
d="M690 1450l-246 291h181l147 -180l213 180h197l-348 -291h-144zM418 0l205 1159h-406l27 152h983l-27 -152h-405l-205 -1159h-172z" />
    <glyph glyph-name="tcaron" unicode="&#x165;" 
d="M801 1069q73 48 84 143q-51 -31 -99.5 4t-48.5 95q0 48 35.5 85.5t85.5 37.5q55 0 97 -47t42 -130q0 -103 -59 -188h-137zM707 -20q-223 0 -302 106t-40 330l79 461h-286l26 147h295l88 287h123l-51 -287h467l-27 -147h-467l-82 -474q-27 -154 9.5 -213t173.5 -59
q70 0 123.5 10.5t117.5 40.5l-28 -164q-61 -24 -107.5 -31t-111.5 -7z" />
    <glyph glyph-name="Tbar" unicode="&#x166;" 
d="M1200 1159h-405l-68 -381h303l-24 -139h-304l-112 -639h-172l112 639h-303l25 139h303l68 381h-406l27 152h983z" />
    <glyph glyph-name="tbar" unicode="&#x167;" 
d="M1079 877h-467l-41 -242h396l-25 -139h-395l-17 -93q-27 -154 9.5 -213t173.5 -59q70 0 123.5 10.5t117.5 40.5l-28 -164q-61 -24 -107.5 -31t-111.5 -7q-223 0 -302 106t-40 330l14 80h-215l24 139h215l41 242h-286l26 147h295l88 287h123l-51 -287h467z" />
    <glyph glyph-name="Utilde" unicode="&#x168;" 
d="M920 1438q-46 0 -82.5 19.5t-59 47.5t-42.5 56t-43.5 47.5t-51.5 19.5q-42 0 -76.5 -42t-66.5 -136h-127q48 154 121 228.5t161 74.5q46 0 82.5 -19.5t59 -47.5t42.5 -56t43.5 -47.5t51.5 -19.5q81 0 141 178h127q-48 -155 -120 -229t-160 -74zM510 -20q-227 0 -331 127
t-64 354l149 850h172l-151 -854q-28 -157 32 -239.5t199 -82.5q145 0 243 88t126 246l149 842h172l-151 -862q-39 -226 -182 -347.5t-363 -121.5z" />
    <glyph glyph-name="utilde" unicode="&#x169;" 
d="M868 1151q-46 0 -82 19.5t-58.5 47.5t-42.5 56t-43.5 47.5t-51.5 19.5q-84 0 -144 -178h-127q48 154 121 228.5t162 74.5q46 0 82.5 -19.5t59 -47.5t42.5 -56t43.5 -47.5t51.5 -19.5q81 0 141 178h127q-48 -154 -120.5 -228.5t-160.5 -74.5zM1098 1024l-180 -1024h-148
l12 147q-72 -83 -163 -125t-189 -42q-159 0 -232.5 105t-41.5 284l114 655h168l-112 -637q-23 -128 7 -193t130 -65q87 0 177.5 45t162.5 129l127 721h168z" />
    <glyph glyph-name="Umacron" unicode="&#x16a;" 
d="M444 1518l25 139h655l-24 -139h-656zM510 -20q-227 0 -331 127t-64 354l149 850h172l-151 -854q-28 -157 32 -239.5t199 -82.5q145 0 243 88t126 246l149 842h172l-151 -862q-39 -226 -182 -347.5t-363 -121.5z" />
    <glyph glyph-name="umacron" unicode="&#x16b;" 
d="M393 1231l25 139h655l-24 -139h-656zM1098 1024l-180 -1024h-148l12 147q-72 -83 -163 -125t-189 -42q-159 0 -232.5 105t-41.5 284l114 655h168l-112 -637q-23 -128 7 -193t130 -65q87 0 177.5 45t162.5 129l127 721h168z" />
    <glyph glyph-name="Ubreve" unicode="&#x16c;" 
d="M768 1438q-143 0 -209.5 80.5t-40.5 222.5h137q-15 -82 15 -129t100 -47q77 0 130.5 47t68.5 129h137q-26 -144 -114 -223.5t-224 -79.5zM510 -20q-227 0 -331 127t-64 354l149 850h172l-151 -854q-28 -157 32 -239.5t199 -82.5q145 0 243 88t126 246l149 842h172
l-151 -862q-39 -226 -182 -347.5t-363 -121.5z" />
    <glyph glyph-name="ubreve" unicode="&#x16d;" 
d="M717 1151q-143 0 -209.5 80.5t-40.5 222.5h137q-15 -82 15 -129t100 -47q77 0 130.5 47t68.5 129h137q-26 -144 -114 -223.5t-224 -79.5zM1098 1024l-180 -1024h-148l12 147q-72 -83 -163 -125t-189 -42q-159 0 -232.5 105t-41.5 284l114 655h168l-112 -637
q-23 -128 7 -193t130 -65q87 0 177.5 45t162.5 129l127 721h168z" />
    <glyph glyph-name="Uring" unicode="&#x16e;" 
d="M760 1386q-98 0 -151.5 62t-35.5 160q15 89 81.5 142.5t156.5 53.5q98 0 151.5 -61t36.5 -160q-17 -90 -83.5 -143.5t-155.5 -53.5zM772 1495q43 0 75.5 25t39.5 71q9 49 -16.5 77t-71.5 28q-43 0 -74.5 -25.5t-38.5 -71.5q-9 -49 15.5 -76.5t70.5 -27.5zM510 -20
q-227 0 -331 127t-64 354l149 850h172l-151 -854q-28 -157 32 -239.5t199 -82.5q145 0 243 88t126 246l149 842h172l-151 -862q-39 -226 -182 -347.5t-363 -121.5z" />
    <glyph glyph-name="uring" unicode="&#x16f;" 
d="M709 1100q-98 0 -151.5 61.5t-35.5 159.5q15 89 82 143t156 54q98 0 151.5 -61.5t36.5 -160.5q-17 -89 -83.5 -142.5t-155.5 -53.5zM721 1208q43 0 75.5 25.5t39.5 71.5q9 49 -16.5 76.5t-71.5 27.5q-43 0 -74.5 -25t-38.5 -71q-9 -49 15.5 -77t70.5 -28zM1098 1024
l-180 -1024h-148l12 147q-72 -83 -163 -125t-189 -42q-159 0 -232.5 105t-41.5 284l114 655h168l-112 -637q-23 -128 7 -193t130 -65q87 0 177.5 45t162.5 129l127 721h168z" />
    <glyph glyph-name="Uhungarumlaut" unicode="&#x170;" 
d="M451 1450l284 291h189l-285 -291h-188zM795 1450l284 291h189l-285 -291h-188zM510 -20q-227 0 -331 127t-64 354l149 850h172l-151 -854q-28 -157 32 -239.5t199 -82.5q145 0 243 88t126 246l149 842h172l-151 -862q-39 -226 -182 -347.5t-363 -121.5z" />
    <glyph glyph-name="uhungarumlaut" unicode="&#x171;" 
d="M399 1163l285 291h188l-284 -291h-189zM743 1163l285 291h189l-285 -291h-189zM1098 1024l-180 -1024h-148l12 147q-72 -83 -163 -125t-189 -42q-159 0 -232.5 105t-41.5 284l114 655h168l-112 -637q-23 -128 7 -193t130 -65q87 0 177.5 45t162.5 129l127 721h168z" />
    <glyph glyph-name="Uogonek" unicode="&#x172;" 
d="M1034 1311h172l-151 -862q-32 -180 -129.5 -294.5t-249.5 -154.5q-86 -33 -133 -110q-43 -71 -18 -117q20 -37 81 -37q29 0 94 10l-20 -121q-58 -18 -121 -18q-75 0 -123 40.5t-57 97.5t21 122.5t96 112.5q-220 5 -320.5 131t-60.5 350l149 850h172l-151 -854
q-28 -157 32 -239.5t199 -82.5q145 0 243 88t126 246z" />
    <glyph glyph-name="uogonek" unicode="&#x173;" 
d="M918 0q-86 -33 -133 -110q-43 -71 -18 -117q20 -37 81 -37q29 0 94 10l-20 -121q-58 -18 -121 -18q-53 0 -94 20.5t-62 54t-25 76t10.5 85.5t50.5 85t89 72l12 147q-72 -83 -163 -125t-189 -42q-159 0 -232.5 105t-41.5 284l114 655h168l-112 -637q-23 -128 7 -193
t130 -65q87 0 177.5 45t162.5 129l127 721h168z" />
    <glyph glyph-name="Wcircumflex" unicode="&#x174;" 
d="M389 1450l348 291h144l245 -291h-180l-145 180l-215 -180h-197zM127 0l14 1311h172l-51 -1004l408 885h82l100 -885l309 1004h168l-448 -1311h-125l-94 877l-406 -877h-129z" />
    <glyph glyph-name="wcircumflex" unicode="&#x175;" 
d="M338 1163l348 291h143l246 -291h-180l-145 180l-215 -180h-197zM141 0l-45 1024h162l6 -803l369 803h106l82 -803l293 803h162l-406 -1024h-145l-84 756l-350 -756h-150z" />
    <glyph glyph-name="Ycircumflex" unicode="&#x176;" 
d="M797 1630l-215 -180h-197l348 291h144l245 -291h-180zM1294 1311l-614 -803l-90 -508h-172l90 512l-328 799h172l260 -660l498 660h184z" />
    <glyph glyph-name="ycircumflex" unicode="&#x177;" 
d="M338 1163l348 291h143l246 -291h-180l-145 180l-215 -180h-197zM72 -389q-82 0 -127 20l26 146q45 -15 88 -15q102 0 173.5 48t140.5 157l51 68l-238 989h174l175 -836l469 836h182l-639 -1083q-33 -55 -61.5 -96t-73.5 -87.5t-91.5 -76.5t-111 -50t-137.5 -20z" />
    <glyph glyph-name="Ydieresis" unicode="&#x178;" 
d="M549 1477q-52 0 -83 38.5t-22 92.5q7 44 44 75t81 31q53 0 84.5 -38.5t22.5 -92.5q-7 -44 -44.5 -75t-82.5 -31zM995 1477q-54 0 -84.5 38.5t-21.5 92.5q8 44 44.5 75t82.5 31q52 0 82.5 -38.5t21.5 -92.5q-7 -44 -44 -75t-81 -31zM1294 1311l-614 -803l-90 -508h-172
l90 512l-328 799h172l260 -660l498 660h184z" />
    <glyph glyph-name="Zacute" unicode="&#x179;" 
d="M637 1450l264 291h213l-311 -291h-166zM12 0l6 49l926 1110h-674l27 152h930l-6 -41l-928 -1118h721l-27 -152h-975z" />
    <glyph glyph-name="zacute" unicode="&#x17a;" 
d="M592 1163l264 291h213l-311 -291h-166zM66 0l6 49l764 828h-572l27 147h835l-4 -41l-768 -836h611l-27 -147h-872z" />
    <glyph glyph-name="Zdotaccent" unicode="&#x17b;" 
d="M788 1468q-58 0 -90.5 40.5t-21.5 99.5q8 50 47 83t90 33q57 0 90.5 -41t24.5 -100q-9 -49 -49.5 -82t-90.5 -33zM12 0l6 49l926 1110h-674l27 152h930l-6 -41l-928 -1118h721l-27 -152h-975z" />
    <glyph glyph-name="zdotaccent" unicode="&#x17c;" 
d="M743 1182q-58 0 -90.5 40t-21.5 99q8 50 47 83.5t90 33.5q57 0 90.5 -41.5t24.5 -100.5q-9 -49 -49.5 -81.5t-90.5 -32.5zM66 0l6 49l764 828h-572l27 147h835l-4 -41l-768 -836h611l-27 -147h-872z" />
    <glyph glyph-name="Zcaron" unicode="&#x17d;" 
d="M705 1450l-246 291h180l147 -180l213 180h197l-348 -291h-143zM12 0l6 49l926 1110h-674l27 152h930l-6 -41l-928 -1118h721l-27 -152h-975z" />
    <glyph glyph-name="zcaron" unicode="&#x17e;" 
d="M659 1163l-245 291h180l147 -180l213 180h197l-348 -291h-144zM66 0l6 49l764 828h-572l27 147h835l-4 -41l-768 -836h611l-27 -147h-872z" />
    <glyph glyph-name="longs" unicode="&#x17f;" 
d="M215 0l172 981q38 219 177.5 336t367.5 117q159 0 280 -50l-26 -149q-50 21 -123.5 34t-136.5 13q-156 0 -251 -81.5t-122 -231.5l-170 -969h-168z" />
    <glyph glyph-name="florin" unicode="&#x192;" 
d="M1085 1434q138 0 226 -62l-27 -155q-80 65 -197 65q-99 0 -160 -45t-89 -141l-109 -371h346l-18 -111h-361l-127 -432q-43 -148 -150 -226.5t-265 -78.5q-138 0 -226 62l27 155q80 -65 199 -65q99 0 160 45t89 141l117 399h-344l19 111h358l119 403q43 149 149.5 227.5
t263.5 78.5z" />
    <glyph glyph-name="Aringacute" unicode="&#x1fa;" 
d="M1110 1966l-311 -291h-166l264 291h213zM969 1399q-24 -125 -138 -176l224 -1223h-172l-52 307h-538l-160 -307h-184l661 1235q-91 61 -67 188q15 89 81.5 143t155.5 54q98 0 152 -61.5t37 -159.5zM655 1415q-9 -49 15.5 -76.5t70.5 -27.5q43 0 75.5 25t39.5 71
q9 49 -16.5 76.5t-71.5 27.5q-43 0 -74.5 -25t-38.5 -71zM371 455h436l-107 635z" />
    <glyph glyph-name="aringacute" unicode="&#x1fb;" 
d="M602 1573l264 291h213l-311 -291h-166zM725 1100q-98 0 -151 61.5t-35 159.5q15 89 81.5 143t155.5 54q98 0 152 -61.5t37 -160.5q-17 -89 -84 -142.5t-156 -53.5zM737 1208q43 0 75.5 25.5t39.5 71.5q9 49 -16.5 76.5t-71.5 27.5q-43 0 -74.5 -25t-38.5 -71
q-9 -49 15.5 -77t70.5 -28zM455 -20q-127 0 -214 70.5t-119.5 194.5t-6.5 279q41 237 180 378.5t319 141.5q170 0 265 -139l39 119h151l-141 -807q-11 -65 20.5 -93.5t95.5 -0.5l-10 -113q-32 -23 -77.5 -29t-89.5 6t-77 49.5t-38 94.5q-51 -71 -129.5 -111t-167.5 -40z
M479 133q77 0 155 41.5t140 128.5l82 465q-84 123 -225 123q-131 0 -222.5 -105t-125.5 -286q-30 -160 20.5 -263.5t175.5 -103.5z" />
    <glyph glyph-name="AEacute" unicode="&#x1fc;" 
d="M1182 1741l-312 -291h-165l264 291h213zM1253 1163h-413l-74 -420h340l-27 -147h-340l-77 -449h421l-26 -147h-590l59 342h-282l-162 -342h-170l637 1311h731zM553 485l119 678h-39l-322 -678h242z" />
    <glyph glyph-name="aeacute" unicode="&#x1fd;" 
d="M1044 1454l-311 -291h-166l264 291h213zM922 1044q63 0 114 -22t80.5 -58t49.5 -83t21.5 -97t-5.5 -100q-13 -70 -47.5 -123t-81.5 -82.5t-97 -44t-102 -14.5q-92 0 -186 43q-26 -177 17.5 -258.5t152.5 -81.5q80 0 209 70l-29 -166q-112 -47 -207 -47q-117 0 -193 54
t-96 138q-41 -97 -115.5 -144.5t-170.5 -47.5q-141 0 -203.5 100.5t-36.5 243.5q14 80 56 149t99 111.5t120.5 61.5t127.5 3t113 -67l12 51q25 134 -15.5 197t-129.5 63q-105 0 -225 -70l28 164q106 57 217 57q95 0 166 -40t88 -113q86 153 269 153zM1022 700
q8 44 -0.5 88.5t-38.5 78.5t-78 34q-147 0 -217 -315q79 -23 131 -23q26 0 51.5 4t60.5 16.5t59.5 42.5t31.5 74zM483 391l17 76q-36 45 -90.5 53t-106 -16t-93 -79t-54.5 -126q-13 -76 11.5 -127t92.5 -51q85 0 143 76t80 194z" />
    <glyph glyph-name="Oslashacute" unicode="&#x1fe;" 
d="M1100 1741l-312 -291h-165l264 291h213zM1233 1454l-176 -264q136 -180 71 -547q-55 -318 -217.5 -490.5t-400.5 -172.5q-133 0 -225 53l-119 -176h-160l176 264q-137 182 -73 547q57 318 219.5 490.5t400.5 172.5q133 0 225 -53l119 176h160zM281 643q-40 -230 10 -358
l571 854q-55 37 -139 37q-162 0 -279.5 -140t-162.5 -393zM956 668q43 226 -8 358l-571 -854q55 -37 139 -37q162 0 279 140t161 393z" />
    <glyph glyph-name="oslashacute" unicode="&#x1ff;" 
d="M1049 1454l-312 -291h-166l265 291h213zM1141 1167l-166 -231q136 -142 84 -436q-44 -249 -188.5 -384.5t-360.5 -135.5q-117 0 -193 36l-114 -159h-156l166 231q-136 142 -84 436q44 249 188.5 384.5t360.5 135.5q115 0 194 -36l115 159h154zM297 500q-30 -172 20 -267
l459 641q-46 19 -102 19q-145 0 -244 -103t-133 -290zM891 524q30 170 -21 267l-458 -641q46 -19 102 -19q145 0 245 103t132 290z" />
    <glyph glyph-name="Scommaaccent" unicode="&#x218;" 
d="M469 -20q-122 0 -232.5 26t-181.5 70l31 170q147 -111 391 -111q152 0 250 59t115 158q29 168 -254 244q-402 101 -352 395q28 156 166 248t352 92q191 0 344 -65l-31 -172q-127 82 -315 82q-144 0 -234.5 -54t-107.5 -149q-14 -77 48 -134.5t199 -90.5
q193 -44 289.5 -149.5t69.5 -264.5q-29 -163 -175.5 -258.5t-371.5 -95.5zM186 -649l19 100q50 3 92 20.5t70 45.5t46 56.5t29 59.5q-40 -22 -71.5 -12t-49 44.5t-10.5 76.5q8 44 46 77.5t83 33.5q60 0 96.5 -51t20.5 -138q-8 -48 -34.5 -98t-70.5 -97t-113.5 -79.5
t-152.5 -38.5z" />
    <glyph glyph-name="scommaaccent" unicode="&#x219;" 
d="M485 -20q-106 0 -202 20.5t-158 56.5l29 158q61 -44 149 -68t184 -24q131 0 212.5 45.5t95.5 122.5q11 62 -43 100t-172 66q-176 38 -257.5 113.5t-60.5 197.5q23 129 146.5 202.5t322.5 73.5q182 0 289 -47l-27 -151q-101 55 -268 55q-131 0 -210.5 -40t-92.5 -113
q-8 -52 35 -85t164 -65q182 -45 267.5 -124t63.5 -204q-23 -135 -147 -212.5t-320 -77.5zM190 -649l19 100q50 3 92 20.5t70 45.5t46 56.5t29 59.5q-40 -22 -71.5 -12t-49 44.5t-10.5 76.5q8 44 46 77.5t83 33.5q60 0 96.5 -51t20.5 -138q-8 -48 -34.5 -98t-70.5 -97
t-113.5 -79.5t-152.5 -38.5z" />
    <glyph glyph-name="uni021A" unicode="&#x21a;" 
d="M418 0l205 1159h-406l27 152h983l-27 -152h-405l-205 -1159h-172zM199 -649l18 100q50 3 92 20.5t70 45.5t46.5 56.5t29.5 59.5q-40 -22 -71.5 -12t-49 44.5t-10.5 76.5q8 44 46 77.5t83 33.5q60 0 96 -51t20 -138q-8 -48 -34.5 -98t-70 -97t-113 -79.5t-152.5 -38.5z
" />
    <glyph glyph-name="uni021B" unicode="&#x21b;" 
d="M707 -20q-223 0 -302 106t-40 330l79 461h-286l26 147h295l88 287h123l-51 -287h467l-27 -147h-467l-82 -474q-27 -154 9.5 -213t173.5 -59q70 0 123.5 10.5t117.5 40.5l-28 -164q-61 -24 -107.5 -31t-111.5 -7zM311 -649l19 100q50 3 92 20.5t70 45.5t46 56.5t29 59.5
q-40 -22 -71.5 -12t-49 44.5t-10.5 76.5q8 44 46 77.5t83 33.5q60 0 96.5 -51t20.5 -138q-8 -48 -34.5 -98t-70.5 -97t-113.5 -79.5t-152.5 -38.5z" />
    <glyph glyph-name="uni0259" unicode="&#x259;" 
d="M586 1044q257 0 381 -148t77 -413q-42 -243 -186.5 -373t-363.5 -130q-105 0 -185.5 30t-125.5 81t-63.5 115t-6.5 134q22 137 137.5 216t300.5 79q175 0 334 -70q15 163 -61 249.5t-242 86.5q-185 0 -342 -98l30 174q130 67 316 67zM498 123q130 0 225.5 83t138.5 234
q-164 54 -282 54q-121 0 -203 -42.5t-96 -129.5q-13 -83 45.5 -141t171.5 -58z" />
    <glyph glyph-name="circumflex" unicode="&#x2c6;" 
d="M338 1163l348 291h143l246 -291h-180l-145 180l-215 -180h-197z" />
    <glyph glyph-name="caron" unicode="&#x2c7;" 
d="M639 1163l-246 291h180l148 -180l213 180h196l-348 -291h-143z" />
    <glyph glyph-name="breve" unicode="&#x2d8;" 
d="M717 1151q-143 0 -209.5 80.5t-40.5 222.5h137q-15 -82 15 -129t100 -47q77 0 130.5 47t68.5 129h137q-26 -144 -114 -223.5t-224 -79.5z" />
    <glyph glyph-name="dotaccent" unicode="&#x2d9;" 
d="M723 1182q-58 0 -91 40t-22 99q8 50 47.5 83.5t90.5 33.5q57 0 90 -41.5t24 -100.5q-9 -49 -49 -81.5t-90 -32.5z" />
    <glyph glyph-name="ring" unicode="&#x2da;" 
d="M709 1100q-98 0 -151.5 61.5t-35.5 159.5q15 89 82 143t156 54q98 0 151.5 -61.5t36.5 -160.5q-17 -89 -83.5 -142.5t-155.5 -53.5zM721 1208q43 0 75.5 25.5t39.5 71.5q9 49 -16.5 76.5t-71.5 27.5q-43 0 -74.5 -25t-38.5 -71q-9 -49 15.5 -77t70.5 -28z" />
    <glyph glyph-name="ogonek" unicode="&#x2db;" 
d="M481 -393q-64 0 -109 28.5t-60.5 74.5t-9 98t45.5 104.5t103 87.5h147q-86 -33 -133 -110q-43 -71 -18 -117q20 -37 81 -37q30 0 95 10l-21 -121q-58 -18 -121 -18z" />
    <glyph glyph-name="tilde" unicode="&#x2dc;" 
d="M868 1151q-46 0 -82 19.5t-58.5 47.5t-42.5 56t-43.5 47.5t-51.5 19.5q-84 0 -144 -178h-127q48 154 121 228.5t162 74.5q46 0 82.5 -19.5t59 -47.5t42.5 -56t43.5 -47.5t51.5 -19.5q81 0 141 178h127q-48 -154 -120.5 -228.5t-160.5 -74.5z" />
    <glyph glyph-name="hungarumlaut" unicode="&#x2dd;" 
d="M399 1163l285 291h188l-284 -291h-189zM743 1163l285 291h189l-285 -291h-189z" />
    <glyph glyph-name="uni0326" unicode="&#x326;" horiz-adv-x="0" 
d="M-989 -649l18 100q50 3 92 20.5t70 45.5t46.5 56.5t29.5 59.5q-40 -22 -71.5 -12t-49 44.5t-10.5 76.5q8 44 46 77.5t83 33.5q60 0 96.5 -51t20.5 -138q-8 -48 -34.5 -98t-70.5 -97t-113.5 -79.5t-152.5 -38.5z" />
    <glyph glyph-name="uni0394" unicode="&#x394;" 
d="M735 1333l352 -1333h-1171zM186 147h695l-201 818z" />
    <glyph glyph-name="uni03A9" unicode="&#x3a9;" 
d="M-12 0l24 143l226 4q-85 77 -121 216.5t-4 324.5q54 304 216.5 473.5t399.5 169.5q246 0 353 -176.5t51 -490.5q-31 -178 -113 -313.5t-191 -211.5l215 4l-24 -143h-426l12 90q143 83 230.5 235.5t121.5 350.5q43 245 -18 372.5t-217 127.5q-163 0 -279.5 -136.5
t-160.5 -388.5q-72 -416 141 -569l-10 -82h-426z" />
    <glyph glyph-name="uni03BC" unicode="&#x3bc;" 
d="M0 -369l246 1393h168l-113 -637q-23 -129 10.5 -191.5t137.5 -62.5q183 0 327 170l129 721h168l-141 -807q-9 -49 10 -76t54.5 -25.5t76.5 29.5l-22 -131q-19 -26 -68.5 -35t-101 1.5t-88.5 54t-31 112.5q-50 -75 -141.5 -121t-184.5 -46q-66 0 -120.5 22.5t-75.5 63.5
l-76 -435h-164z" />
    <glyph glyph-name="pi" unicode="&#x3c0;" 
d="M995 877l-102 -592q-30 -160 76 -160q64 0 123 35l-27 -152q-50 -28 -133 -28q-116 0 -175 77.5t-36 210.5l106 609h-352l-153 -877h-168l153 877h-223l27 147h1134l-26 -147h-224z" />
    <glyph glyph-name="Wgrave" unicode="&#x1e80;" 
d="M739 1450l-209 291h197l162 -291h-150zM127 0l14 1311h172l-51 -1004l408 885h82l100 -885l309 1004h168l-448 -1311h-125l-94 877l-406 -877h-129z" />
    <glyph glyph-name="wgrave" unicode="&#x1e81;" 
d="M688 1163l-209 291h197l162 -291h-150zM141 0l-45 1024h162l6 -803l369 803h106l82 -803l293 803h162l-406 -1024h-145l-84 756l-350 -756h-150z" />
    <glyph glyph-name="Wacute" unicode="&#x1e82;" 
d="M623 1450l264 291h213l-312 -291h-165zM127 0l14 1311h172l-51 -1004l408 885h82l100 -885l309 1004h168l-448 -1311h-125l-94 877l-406 -877h-129z" />
    <glyph glyph-name="wacute" unicode="&#x1e83;" 
d="M571 1163l265 291h213l-312 -291h-166zM141 0l-45 1024h162l6 -803l369 803h106l82 -803l293 803h162l-406 -1024h-145l-84 756l-350 -756h-150z" />
    <glyph glyph-name="Wdieresis" unicode="&#x1e84;" 
d="M553 1477q-52 0 -82.5 38.5t-21.5 92.5q7 44 43.5 75t80.5 31q53 0 84.5 -38.5t22.5 -92.5q-7 -44 -44.5 -75t-82.5 -31zM999 1477q-54 0 -84.5 38.5t-21.5 92.5q8 44 44.5 75t82.5 31q52 0 82.5 -38.5t21.5 -92.5q-7 -44 -44 -75t-81 -31zM127 0l14 1311h172l-51 -1004
l408 885h82l100 -885l309 1004h168l-448 -1311h-125l-94 877l-406 -877h-129z" />
    <glyph glyph-name="wdieresis" unicode="&#x1e85;" 
d="M502 1190q-52 0 -83 38.5t-22 92.5q7 44 44 75t81 31q53 0 84.5 -38.5t22.5 -92.5q-7 -44 -44.5 -75t-82.5 -31zM948 1190q-54 0 -84.5 38.5t-21.5 92.5q8 44 44.5 75t82.5 31q52 0 82.5 -38.5t21.5 -92.5q-7 -44 -44 -75t-81 -31zM141 0l-45 1024h162l6 -803l369 803
h106l82 -803l293 803h162l-406 -1024h-145l-84 756l-350 -756h-150z" />
    <glyph glyph-name="Ygrave" unicode="&#x1ef2;" 
d="M885 1450h-150l-209 291h197zM1294 1311l-614 -803l-90 -508h-172l90 512l-328 799h172l260 -660l498 660h184z" />
    <glyph glyph-name="ygrave" unicode="&#x1ef3;" 
d="M688 1163l-209 291h197l162 -291h-150zM72 -389q-82 0 -127 20l26 146q45 -15 88 -15q102 0 173.5 48t140.5 157l51 68l-238 989h174l175 -836l469 836h182l-639 -1083q-33 -55 -61.5 -96t-73.5 -87.5t-91.5 -76.5t-111 -50t-137.5 -20z" />
    <glyph glyph-name="endash" unicode="&#x2013;" 
d="M123 625l24 143h983l-24 -143h-983z" />
    <glyph glyph-name="emdash" unicode="&#x2014;" 
d="M41 625l25 143h1146l-24 -143h-1147z" />
    <glyph glyph-name="quoteleft" unicode="&#x2018;" 
d="M1038 1434l-22 -131q-143 -3 -234.5 -76.5t-124.5 -175.5q53 28 94.5 16t64.5 -57.5t13 -100.5q-11 -61 -61.5 -104t-112.5 -43q-78 0 -124.5 64t-26.5 178q13 71 52 142.5t102.5 137t162.5 107.5t217 43z" />
    <glyph glyph-name="quoteright" unicode="&#x2019;" 
d="M356 762l23 131q143 3 233.5 76.5t124.5 175.5q-53 -28 -94.5 -16t-64.5 57t-13 100q11 61 61.5 104.5t112.5 43.5q79 0 125.5 -64t26.5 -178q-13 -71 -52 -142.5t-103 -137t-163 -107.5t-217 -43z" />
    <glyph glyph-name="quotesinglbase" unicode="&#x201a;" 
d="M154 -365l22 132q143 3 234.5 76t124.5 175q-53 -28 -95 -16t-65 57.5t-13 100.5q11 60 61.5 103.5t113.5 43.5q78 0 124.5 -63.5t26.5 -177.5q-10 -56 -36 -113t-71.5 -114.5t-105 -101.5t-143 -72.5t-178.5 -29.5z" />
    <glyph glyph-name="quotedblleft" unicode="&#x201c;" 
d="M688 1434l-20 -121q-66 -2 -120.5 -23.5t-90.5 -55.5t-59 -69t-36 -73q48 25 86 14t60 -52.5t14 -90.5q-11 -55 -58.5 -96.5t-103.5 -41.5q-71 0 -114 61t-25 165q11 60 43 120.5t86.5 119t142.5 98t195 45.5zM1210 1434l-20 -121q-66 -2 -120.5 -23.5t-90.5 -55.5
t-58.5 -69t-35.5 -73q67 41 119 -5t40 -124q-11 -55 -58 -96.5t-103 -41.5q-71 0 -114.5 61t-25.5 165q11 60 43 120.5t86.5 119t142.5 98t195 45.5z" />
    <glyph glyph-name="quotedblright" unicode="&#x201d;" 
d="M195 825l20 121q66 2 120.5 23.5t90.5 55.5t58.5 69t35.5 73q-48 -25 -86 -14t-60 52.5t-14 90.5q11 55 58.5 96.5t103.5 41.5q71 0 114.5 -61t25.5 -165q-11 -60 -43 -120.5t-86.5 -119t-142.5 -98t-195 -45.5zM717 825l20 121q66 2 120.5 23.5t90.5 55.5t58.5 69
t35.5 73q-67 -41 -119 5t-40 124q11 55 58 96.5t103 41.5q71 0 114.5 -61t25.5 -165q-11 -60 -43 -120.5t-86.5 -119t-142.5 -98t-195 -45.5z" />
    <glyph glyph-name="quotedblbase" unicode="&#x201e;" 
d="M-29 -328l21 121q66 2 120.5 23.5t90.5 55.5t58.5 69t35.5 73q-48 -25 -86 -14t-60 52.5t-14 90.5q11 55 58.5 96.5t103.5 41.5q71 0 114 -61t25 -165q-11 -60 -43 -120.5t-86.5 -119t-142.5 -98t-195 -45.5zM494 -328l20 121q66 2 120.5 23.5t90.5 55.5t58.5 69t35.5 73
q-48 -25 -86 -14t-60 52.5t-14 90.5q11 55 58.5 96.5t103.5 41.5q71 0 114.5 -61t25.5 -165q-11 -60 -43 -120.5t-86.5 -119t-142.5 -98t-195 -45.5z" />
    <glyph glyph-name="dagger" unicode="&#x2020;" 
d="M1104 1081l-25 -143h-329l-119 -666h-160l119 666h-330l25 143h329l54 297h159l-53 -297h330z" />
    <glyph glyph-name="daggerdbl" unicode="&#x2021;" 
d="M1079 938h-329l-88 -498h329l-24 -143h-330l-53 -297h-160l53 297h-330l25 143h330l88 498h-330l25 143h329l54 297h159l-53 -297h330z" />
    <glyph glyph-name="bullet" unicode="&#x2022;" 
d="M557 240q-126 0 -200 90.5t-52 216.5q20 117 118.5 199.5t215.5 82.5q126 0 200 -90.5t52 -216.5q-20 -117 -118.5 -199.5t-215.5 -82.5z" />
    <glyph glyph-name="ellipsis" unicode="&#x2026;" 
d="M154 -20q-53 0 -84.5 38.5t-22.5 92.5q9 44 46 75t83 31q53 0 84 -38.5t21 -92.5q-8 -44 -44.5 -75t-82.5 -31zM510 -20q-53 0 -84.5 38.5t-22.5 92.5q9 44 46 75t83 31q53 0 84 -38.5t21 -92.5q-8 -44 -44.5 -75t-82.5 -31zM866 -20q-53 0 -84 38.5t-22 92.5q9 44 46 75
t83 31q53 0 83.5 -38.5t20.5 -92.5q-8 -44 -44.5 -75t-82.5 -31z" />
    <glyph glyph-name="perthousand" unicode="&#x2030;" 
d="M358 786q-108 0 -159.5 76t-28.5 207q22 123 87 190.5t163 67.5q108 0 157.5 -76t26.5 -207q-22 -124 -85 -191t-161 -67zM365 899q44 0 73.5 43t42.5 117q13 76 -7 117t-64 41t-74.5 -43.5t-42.5 -118.5q-13 -74 7.5 -115t64.5 -41zM39 502l20 119l1174 383l-21 -119z
M291 -16q-108 0 -160 75.5t-29 206.5q22 123 87 190.5t163 67.5q108 0 158 -75.5t27 -206.5q-22 -124 -85 -191t-161 -67zM797 -16q-108 0 -160 75.5t-29 206.5q22 123 87 190.5t163 67.5q108 0 157.5 -75.5t26.5 -206.5q-22 -124 -85 -191t-160 -67zM297 96q44 0 74.5 43.5
t42.5 116.5q13 76 -7.5 117t-64.5 41t-74.5 -43.5t-42.5 -118.5q-13 -74 7.5 -115t64.5 -41zM803 96q44 0 74.5 43.5t42.5 116.5q13 76 -7.5 117t-64.5 41t-74.5 -43.5t-42.5 -118.5q-13 -74 7.5 -115t64.5 -41z" />
    <glyph glyph-name="guilsinglleft" unicode="&#x2039;" 
d="M586 131l-271 412v20l416 412h193l-432 -426l278 -418h-184z" />
    <glyph glyph-name="guilsinglright" unicode="&#x203a;" 
d="M279 131l434 426l-281 418h184l271 -412v-20l-416 -412h-192z" />
    <glyph glyph-name="uni203D" unicode="&#x203d;" 
d="M449 389l110 744h193l-80 -365q205 63 237 254q20 112 -38.5 166.5t-178.5 54.5q-98 0 -195 -29.5t-218 -99.5l32 186q177 99 387 99q196 0 305 -111.5t80 -281.5q-27 -150 -152 -252t-276 -111l-55 -254h-151zM459 -35q-58 0 -93 43t-26 103q9 51 50.5 85.5t94.5 34.5
q59 0 93 -42.5t24 -102.5q-7 -51 -48.5 -86t-94.5 -35z" />
    <glyph glyph-name="fraction" unicode="&#x2044;" 
d="M-98 -266l1261 1782h162l-1259 -1782h-164z" />
    <glyph glyph-name="uni2070" unicode="&#x2070;" 
d="M623 614q-154 0 -221.5 110.5t-32.5 307.5q32 188 130.5 290.5t243.5 102.5q155 0 222 -109.5t32 -307.5q-32 -189 -130 -291.5t-244 -102.5zM625 745q87 0 149.5 75.5t87.5 211.5q22 127 -9.5 194.5t-111.5 67.5q-87 0 -149.5 -75t-87.5 -211q-22 -127 9.5 -195
t111.5 -68z" />
    <glyph glyph-name="uni2074" unicode="&#x2074;" 
d="M651 627l29 170h-371l15 90l448 526h156l-86 -489h131l-23 -127h-127l-28 -170h-144zM496 924h211l55 315z" />
    <glyph glyph-name="uni2075" unicode="&#x2075;" 
d="M598 614q-133 0 -244 54l25 135q46 -30 95 -44t126 -14q165 0 193 148q16 111 -95 111q-20 0 -56 -11.5t-73 -36.5l-133 62l68 395h485l-22 -131h-346l-39 -197q24 19 38.5 27.5t45.5 16.5t73 8q105 0 160.5 -73t32.5 -196q-23 -130 -105.5 -192t-228.5 -62z" />
    <glyph glyph-name="uni2076" unicode="&#x2076;" 
d="M748 1143q107 0 165 -85t39 -196q-20 -109 -108.5 -178.5t-206.5 -69.5q-141 0 -212.5 81t-49.5 206q22 126 174 285l227 227h172l-248 -252l-73 -49q50 31 121 31zM809 874q11 61 -23 98.5t-104 37.5q-67 0 -111 -34.5t-55 -92.5q-11 -62 24 -98.5t105 -36.5
q67 0 111 34.5t53 91.5z" />
    <glyph glyph-name="uni2077" unicode="&#x2077;" 
d="M401 627l443 653h-389l22 133h553l-14 -94l-451 -692h-164z" />
    <glyph glyph-name="uni2078" unicode="&#x2078;" 
d="M627 614q-144 0 -220 69t-57 175q12 73 66.5 126t142.5 71q-65 12 -97 60.5t-20 113.5q15 86 97.5 141t199.5 55q127 0 198 -62.5t54 -158.5q-11 -59 -55 -100t-117 -53q76 -19 113 -78t22 -139q-15 -97 -104 -158.5t-223 -61.5zM692 1106q68 4 108 31t48 69
q7 45 -23.5 68.5t-91.5 23.5q-133 0 -149 -96q-7 -43 20.5 -67t87.5 -29zM635 741q79 0 126 32.5t56 88.5q10 56 -25 87t-108 36q-82 -5 -131.5 -37.5t-58.5 -87.5q-10 -55 29.5 -87t111.5 -32z" />
    <glyph glyph-name="uni2079" unicode="&#x2079;" 
d="M418 627l248 252l79 51q-58 -33 -124 -33q-109 0 -167.5 85t-39.5 196q20 109 108.5 178t206.5 69q141 0 212.5 -80.5t49.5 -205.5q-22 -126 -174 -285l-227 -227h-172zM684 1030q67 0 111 35t55 94q11 60 -24 96.5t-105 36.5q-67 0 -111 -34.5t-53 -92.5q-11 -61 23 -98
t104 -37z" />
    <glyph glyph-name="colonmonetary" unicode="&#x20a1;" 
d="M1266 1413l-584 -1202q162 25 291 104l-31 -176q-158 -79 -336 -82l-78 -159h-127l82 168q-84 13 -139 40l-102 -208h-127l133 272q-174 160 -115 498q50 277 218.5 430.5t424.5 154.5l78 160h125l-82 -170q59 -7 143 -37l101 207h125zM414 250q64 -38 139 -43l420 864
q-67 27 -144 33zM293 643q-34 -188 37 -305l370 762q-155 -23 -264 -144.5t-143 -312.5z" />
    <glyph glyph-name="uni20A6" unicode="&#x20a6;" 
d="M94 0l82 467h-143l18 102h144l36 213h-143l18 103h144l76 426h145l145 -426h314l76 426h139l-76 -426h143l-18 -103h-143l-37 -213h143l-18 -102h-144l-82 -467h-125l-159 467h-314l-82 -467h-139zM389 885h96l-61 180zM334 569h260l-74 213h-149zM725 569h149l37 213
h-260zM823 287l33 180h-96z" />
    <glyph glyph-name="Euro" unicode="&#x20ac;" 
d="M903 1176q-150 0 -264 -84.5t-178 -247.5h551l-19 -103h-565q-12 -50 -16 -77q-1 -8 -5 -31.5t-6 -34.5h463l-16 -102h-451q2 -171 80.5 -266t227.5 -95q87 0 187.5 32.5t182.5 86.5l-35 -197q-171 -77 -354 -77q-224 0 -344.5 136t-120.5 380h-137l16 102h127
q2 35 13 90q2 8 5 26t5 27h-123l18 103h134q76 238 237 362.5t385 124.5q94 0 187.5 -22t162.5 -60l-32 -184q-62 54 -145 82.5t-171 28.5z" />
    <glyph glyph-name="uni20B1" unicode="&#x20b1;" 
d="M1104 958q0 -23 -8 -77l-6 -33h141l-19 -103h-157q-59 -120 -176 -182.5t-285 -62.5h-223l-88 -500h-156l131 745h-152l19 103h151l21 110h-152l17 103h151l45 250h367q150 0 246.5 -66t122.5 -184h174l-17 -103h-147zM700 1176h-211l-20 -121h467q-56 121 -236 121z
M453 965l-23 -123h502q11 34 16 61q6 34 6 62h-501zM594 631q194 0 289 121h-469l-21 -121h201z" />
    <glyph glyph-name="uni20B9" unicode="&#x20b9;" 
d="M1210 1311l-18 -103l-330 -2q128 -73 131 -245h156l-19 -103h-147q-31 -154 -130.5 -240.5t-246.5 -109.5l242 -508h-189l-227 500h-262l27 151h282q116 0 203 48.5t121 158.5h-570l19 103h569q0 101 -66.5 149.5t-174.5 48.5h-293l26 152h897z" />
    <glyph glyph-name="uni20BD" unicode="&#x20bd;" 
d="M807 1311q202 0 305 -109t72 -291q-31 -170 -160 -260t-338 -90h-272l-25 -139h553l-16 -103h-555l-56 -319h-155l57 319h-184l16 103h184l27 143h-184l16 103h187l112 643h416zM1034 924q20 120 -44.5 186t-207.5 66h-260l-88 -504h248q148 0 238.5 63t113.5 189z" />
    <glyph glyph-name="uni2113" unicode="&#x2113;" 
d="M842 1434q171 0 260.5 -101.5t60.5 -269.5q-35 -198 -209.5 -360t-466.5 -271l-12 -74q-22 -120 16 -171.5t146 -51.5q73 0 153 26.5t144 71.5l-31 -180q-110 -73 -278 -73q-183 0 -266 100t-52 280l2 13q-143 -42 -276 -66l26 152q165 33 277 69l96 537q29 169 134 269
t276 100zM997 1079q18 99 -24.5 149t-136.5 50q-108 0 -164 -61.5t-76 -174.5l-80 -452q425 174 481 489z" />
    <glyph glyph-name="uni2116" unicode="&#x2116;" 
d="M-41 0l231 1311h142l172 -910l162 910h139l-232 -1311h-120l-183 971l-172 -971h-139zM977 578q-115 0 -164.5 86.5t-21.5 238.5q25 143 97 222t179 79q114 0 163 -86.5t23 -238.5q-26 -143 -98.5 -222t-177.5 -79zM977 696q54 0 95 55t58 152q15 88 -1 135t-62 47
q-55 0 -96 -54.5t-58 -151.5q-31 -183 64 -183zM727 385l21 115h409l-20 -115h-410z" />
    <glyph glyph-name="uni2117" unicode="&#x2117;" 
d="M510 -20q-264 0 -381.5 183t-60.5 505q56 314 229.5 488.5t429.5 174.5q265 0 382 -182.5t60 -505.5q-56 -314 -228.5 -488.5t-430.5 -174.5zM512 102q201 0 342.5 150.5t187.5 415.5q46 256 -37 398t-278 142q-201 0 -343 -150t-189 -415q-44 -257 39 -399t278 -142z
M340 324l117 663h245q119 0 176 -65t37 -177q-19 -104 -91.5 -160.5t-190.5 -56.5h-117l-35 -204h-141zM537 643h90q59 0 99.5 34.5t49.5 92.5q19 102 -98 102h-100z" />
    <glyph glyph-name="uni2120" unicode="&#x2120;" 
d="M330 717q-124 0 -201 45l18 110q60 -50 181 -53q145 -4 159 78q6 31 -25 53.5t-81 30.5q-89 14 -143.5 59.5t-40.5 126.5q13 75 81 115.5t177 40.5q105 0 172 -27l-19 -106q-23 15 -66.5 24t-84.5 9q-137 0 -148 -66q-6 -34 17.5 -49.5t72.5 -22.5q103 -15 158 -63.5
t39 -136.5q-16 -86 -90.5 -127t-175.5 -41zM631 729l102 582h121l70 -303l182 303h125l-103 -582h-112l67 379l-184 -293h-10l-80 293l-68 -379h-110z" />
    <glyph glyph-name="trademark" unicode="&#x2122;" 
d="M285 729l84 479h-172l18 103h455l-19 -103h-172l-84 -479h-110zM631 729l102 582h121l70 -303l182 303h125l-103 -582h-112l67 379l-184 -293h-10l-80 293l-68 -379h-110z" />
    <glyph glyph-name="estimated" unicode="&#x212e;" 
d="M678 1044q266 0 383 -148t74 -413h-848l-56 -331q100 -86 293 -86q145 0 285 48t231 130l-20 -119q-89 -69 -220.5 -107t-269.5 -38q-277 0 -401 142.5t-80 401.5q44 248 209.5 384t419.5 136zM348 856l-47 -289h598l51 310q-93 81 -266 81q-201 0 -336 -102z" />
    <glyph glyph-name="uni2150" unicode="&#x2150;" 
d="M416 942l22 131h201l90 486q-81 -61 -205 -95l23 138q97 26 235 131l117 -4l-115 -656h174l-22 -131h-520zM119 586l22 123h975l-22 -123h-975zM215 -434l442 653h-389l23 133h553l-15 -94l-450 -692h-164z" />
    <glyph glyph-name="uni2151" unicode="&#x2151;" 
d="M416 942l22 131h201l90 486q-81 -61 -205 -95l23 138q97 26 235 131l117 -4l-115 -656h174l-22 -131h-520zM119 586l22 123h975l-22 -123h-975zM231 -434l248 252l80 51q-58 -33 -125 -33q-109 0 -167.5 85t-39.5 196q20 109 109 178.5t207 69.5q141 0 212.5 -81
t49.5 -206q-22 -126 -174 -285l-228 -227h-172zM498 -31q67 0 111 35t55 94q11 60 -24 96.5t-105 36.5q-67 0 -111 -34.5t-53 -92.5q-11 -61 23 -98t104 -37z" />
    <glyph glyph-name="uni2153" unicode="&#x2153;" 
d="M416 942l22 131h201l90 486q-81 -61 -205 -95l23 138q97 26 235 131l117 -4l-115 -656h174l-22 -131h-520zM119 586l22 123h975l-22 -123h-975zM422 -446q-141 0 -256 59l24 143q110 -69 240 -69q74 0 119.5 28.5t54.5 81.5q11 55 -29 89t-122 34h-88l22 131h78
q69 0 120.5 22.5t59.5 71.5q6 38 -23 62t-87 24q-54 0 -124.5 -19t-129.5 -48l24 145q122 56 232 56q134 0 201.5 -57t49.5 -161q-26 -149 -198 -159q88 -7 127 -67t24 -150q-19 -104 -101.5 -160.5t-217.5 -56.5z" />
    <glyph glyph-name="uni2154" unicode="&#x2154;" 
d="M403 942l13 92q39 32 106.5 81.5t119 88.5t105.5 86t87.5 96.5t42.5 98.5q10 61 -23 91t-92 30q-50 0 -117 -22t-133 -64l29 157q41 26 106.5 45t128.5 19q121 0 192.5 -72.5t49.5 -198.5q-8 -49 -30 -93.5t-47 -76.5t-65.5 -67.5t-70 -56.5t-77 -54t-71.5 -51l310 4
l-23 -133h-541zM119 586l22 123h975l-22 -123h-975zM422 -446q-141 0 -256 59l24 143q110 -69 240 -69q74 0 119.5 28.5t54.5 81.5q11 55 -29 89t-122 34h-88l22 131h78q69 0 120.5 22.5t59.5 71.5q6 38 -23 62t-87 24q-54 0 -124.5 -19t-129.5 -48l24 145q122 56 232 56
q134 0 201.5 -57t49.5 -161q-26 -149 -198 -159q88 -7 127 -67t24 -150q-19 -104 -101.5 -160.5t-217.5 -56.5z" />
    <glyph glyph-name="uni2155" unicode="&#x2155;" 
d="M416 942l22 131h201l90 486q-81 -61 -205 -95l23 138q97 26 235 131l117 -4l-115 -656h174l-22 -131h-520zM119 586l22 123h975l-22 -123h-975zM412 -446q-135 0 -244 53l25 135q46 -30 94.5 -43.5t126.5 -13.5q164 0 192 147q16 111 -94 111q-59 0 -129 -47l-133 61
l67 395h486l-23 -131h-346l-39 -196q23 18 38.5 27t46 16.5t73.5 7.5q105 0 160 -73t32 -196q-23 -130 -105 -191.5t-228 -61.5z" />
    <glyph glyph-name="uni2156" unicode="&#x2156;" 
d="M403 942l13 92q39 32 106.5 81.5t119 88.5t105.5 86t87.5 96.5t42.5 98.5q10 61 -23 91t-92 30q-50 0 -117 -22t-133 -64l29 157q41 26 106.5 45t128.5 19q121 0 192.5 -72.5t49.5 -198.5q-8 -49 -30 -93.5t-47 -76.5t-65.5 -67.5t-70 -56.5t-77 -54t-71.5 -51l310 4
l-23 -133h-541zM119 586l22 123h975l-22 -123h-975zM412 -446q-135 0 -244 53l25 135q46 -30 94.5 -43.5t126.5 -13.5q164 0 192 147q16 111 -94 111q-59 0 -129 -47l-133 61l67 395h486l-23 -131h-346l-39 -196q23 18 38.5 27t46 16.5t73.5 7.5q105 0 160 -73t32 -196
q-23 -130 -105 -191.5t-228 -61.5z" />
    <glyph glyph-name="uni2157" unicode="&#x2157;" 
d="M664 930q-141 0 -256 59l24 144q112 -70 240 -70q74 0 119.5 28.5t54.5 82.5q11 55 -29.5 88.5t-122.5 33.5h-88l23 131h78q69 0 120.5 23t59.5 72q6 38 -23.5 62t-87.5 24q-53 0 -123.5 -19.5t-130.5 -48.5l25 146q120 55 231 55q134 0 202 -56.5t50 -160.5
q-26 -150 -199 -160q88 -7 127.5 -67t24.5 -150q-19 -104 -101.5 -160.5t-217.5 -56.5zM119 586l22 123h975l-22 -123h-975zM412 -446q-135 0 -244 53l25 135q46 -30 94.5 -43.5t126.5 -13.5q164 0 192 147q16 111 -94 111q-59 0 -129 -47l-133 61l67 395h486l-23 -131h-346
l-39 -196q23 18 38.5 27t46 16.5t73.5 7.5q105 0 160 -73t32 -196q-23 -130 -105 -191.5t-228 -61.5z" />
    <glyph glyph-name="uni2158" unicode="&#x2158;" 
d="M707 942l28 170h-370l14 90l448 527h156l-86 -490h131l-22 -127h-127l-29 -170h-143zM551 1239h211l55 315zM119 586l22 123h975l-22 -123h-975zM412 -446q-135 0 -244 53l25 135q46 -30 94.5 -43.5t126.5 -13.5q164 0 192 147q16 111 -94 111q-59 0 -129 -47l-133 61
l67 395h486l-23 -131h-346l-39 -196q23 18 38.5 27t46 16.5t73.5 7.5q105 0 160 -73t32 -196q-23 -130 -105 -191.5t-228 -61.5z" />
    <glyph glyph-name="uni2159" unicode="&#x2159;" 
d="M958 1073l-22 -131h-520l22 131h201l90 486q-81 -61 -205 -95l23 138q97 26 235 131l117 -4l-115 -656h174zM141 709h975l-22 -123h-975zM561 82q107 0 165.5 -85t39.5 -196q-20 -109 -108.5 -178t-206.5 -69q-141 0 -213 80.5t-50 205.5q22 126 174 285l228 227h172
l-248 -252l-74 -49q50 31 121 31zM623 -186q11 61 -23 98t-104 37q-67 0 -111 -34.5t-55 -92.5q-11 -62 24 -98.5t105 -36.5q67 0 111 34.5t53 92.5z" />
    <glyph glyph-name="uni215A" unicode="&#x215a;" 
d="M987 1184q-23 -130 -105.5 -192t-228.5 -62q-134 0 -243 53l24 135q46 -30 94.5 -43.5t126.5 -13.5q165 0 193 147q16 111 -94 111q-59 0 -129 -47l-133 61l67 396h485l-22 -132h-346l-39 -196q23 18 38.5 27t46 16.5t73.5 7.5q105 0 160 -72.5t32 -195.5zM141 709h975
l-22 -123h-975zM561 82q107 0 165.5 -85t39.5 -196q-20 -109 -108.5 -178t-206.5 -69q-141 0 -213 80.5t-50 205.5q22 126 174 285l228 227h172l-248 -252l-74 -49q50 31 121 31zM623 -186q11 61 -23 98t-104 37q-67 0 -111 -34.5t-55 -92.5q-11 -62 24 -98.5t105 -36.5
q67 0 111 34.5t53 92.5z" />
    <glyph glyph-name="oneeighth" unicode="&#x215b;" 
d="M416 942l22 131h201l90 486q-81 -61 -205 -95l23 138q97 26 235 131l117 -4l-115 -656h174l-22 -131h-520zM119 586l22 123h975l-22 -123h-975zM440 -446q-144 0 -219.5 68.5t-56.5 174.5q12 73 66.5 126t142.5 71q-65 12 -97 60.5t-20 113.5q15 87 97.5 142t199.5 55
q127 0 198 -63t54 -159q-11 -59 -55 -100t-117 -53q76 -19 113 -78t22 -139q-15 -97 -104.5 -158t-223.5 -61zM506 45q68 4 108 31t48 69q7 45 -23.5 69t-91.5 24q-134 0 -150 -97q-7 -43 21 -67t88 -29zM449 -319q80 0 126.5 32t55.5 88q10 56 -25 87t-108 36
q-82 -5 -132 -37.5t-59 -87.5q-10 -54 30 -86t112 -32z" />
    <glyph glyph-name="threeeighths" unicode="&#x215c;" 
d="M664 930q-141 0 -256 59l24 144q112 -70 240 -70q74 0 119.5 28.5t54.5 82.5q11 55 -29.5 88.5t-122.5 33.5h-88l23 131h78q69 0 120.5 23t59.5 72q6 38 -23.5 62t-87.5 24q-53 0 -123.5 -19.5t-130.5 -48.5l25 146q120 55 231 55q134 0 202 -56.5t50 -160.5
q-26 -150 -199 -160q88 -7 127.5 -67t24.5 -150q-19 -104 -101.5 -160.5t-217.5 -56.5zM119 586l22 123h975l-22 -123h-975zM440 -446q-144 0 -219.5 68.5t-56.5 174.5q12 73 66.5 126t142.5 71q-65 12 -97 60.5t-20 113.5q15 87 97.5 142t199.5 55q127 0 198 -63t54 -159
q-11 -59 -55 -100t-117 -53q76 -19 113 -78t22 -139q-15 -97 -104.5 -158t-223.5 -61zM506 45q68 4 108 31t48 69q7 45 -23.5 69t-91.5 24q-134 0 -150 -97q-7 -43 21 -67t88 -29zM449 -319q80 0 126.5 32t55.5 88q10 56 -25 87t-108 36q-82 -5 -132 -37.5t-59 -87.5
q-10 -54 30 -86t112 -32z" />
    <glyph glyph-name="fiveeighths" unicode="&#x215d;" 
d="M653 930q-134 0 -243 53l24 135q46 -30 94.5 -43.5t126.5 -13.5q165 0 193 147q16 111 -94 111q-59 0 -129 -47l-133 61l67 396h485l-22 -132h-346l-39 -196q23 18 38.5 27t46 16.5t73.5 7.5q105 0 160 -72.5t32 -195.5q-23 -130 -105.5 -192t-228.5 -62zM119 586l22 123
h975l-22 -123h-975zM440 -446q-144 0 -219.5 68.5t-56.5 174.5q12 73 66.5 126t142.5 71q-65 12 -97 60.5t-20 113.5q15 87 97.5 142t199.5 55q127 0 198 -63t54 -159q-11 -59 -55 -100t-117 -53q76 -19 113 -78t22 -139q-15 -97 -104.5 -158t-223.5 -61zM506 45
q68 4 108 31t48 69q7 45 -23.5 69t-91.5 24q-134 0 -150 -97q-7 -43 21 -67t88 -29zM449 -319q80 0 126.5 32t55.5 88q10 56 -25 87t-108 36q-82 -5 -132 -37.5t-59 -87.5q-10 -54 30 -86t112 -32z" />
    <glyph glyph-name="seveneighths" unicode="&#x215e;" 
d="M457 942l442 653h-389l22 134h553l-14 -95l-450 -692h-164zM119 586l22 123h975l-22 -123h-975zM440 -446q-144 0 -219.5 68.5t-56.5 174.5q12 73 66.5 126t142.5 71q-65 12 -97 60.5t-20 113.5q15 87 97.5 142t199.5 55q127 0 198 -63t54 -159q-11 -59 -55 -100
t-117 -53q76 -19 113 -78t22 -139q-15 -97 -104.5 -158t-223.5 -61zM506 45q68 4 108 31t48 69q7 45 -23.5 69t-91.5 24q-134 0 -150 -97q-7 -43 21 -67t88 -29zM449 -319q80 0 126.5 32t55.5 88q10 56 -25 87t-108 36q-82 -5 -132 -37.5t-59 -87.5q-10 -54 30 -86t112 -32z
" />
    <glyph glyph-name="uni2189" unicode="&#x2189;" 
d="M678 930q-154 0 -221.5 110.5t-32.5 307.5q32 188 130.5 290.5t244.5 102.5q155 0 222 -110t32 -308q-32 -188 -130 -290.5t-245 -102.5zM680 1061q87 0 150 75.5t88 211.5q22 127 -9.5 194.5t-111.5 67.5q-87 0 -150 -75.5t-88 -211.5q-22 -127 9.5 -194.5t111.5 -67.5z
M119 586l22 123h975l-22 -123h-975zM422 -446q-141 0 -256 59l24 143q110 -69 240 -69q74 0 119.5 28.5t54.5 81.5q11 55 -29 89t-122 34h-88l22 131h78q69 0 120.5 22.5t59.5 71.5q6 38 -23 62t-87 24q-54 0 -124.5 -19t-129.5 -48l24 145q122 56 232 56q134 0 201.5 -57
t49.5 -161q-26 -149 -198 -159q88 -7 127 -67t24 -150q-19 -104 -101.5 -160.5t-217.5 -56.5z" />
    <glyph glyph-name="arrowleft" unicode="&#x2190;" 
d="M514 133l-444 537l626 536l84 -98l-430 -371h838l-27 -143h-837l303 -363z" />
    <glyph glyph-name="arrowup" unicode="&#x2191;" 
d="M432 0l191 1071l-424 -358l-84 98l622 532l443 -532l-113 -98l-293 358l-190 -1071h-152z" />
    <glyph glyph-name="arrowright" unicode="&#x2192;" 
d="M547 133l-84 98l430 371h-838l27 143h842l-308 363l113 98l447 -536z" />
    <glyph glyph-name="arrowdown" unicode="&#x2193;" 
d="M502 -33l-443 533l113 98l293 -358l190 1071h152l-191 -1071l424 358l84 -98z" />
    <glyph glyph-name="arrowboth" unicode="&#x2194;" 
d="M377 256l-344 414l481 413l82 -94l-287 -248h668l-217 248l106 94l346 -413l-483 -414l-82 94l289 248h-666l213 -248z" />
    <glyph glyph-name="arrowupdn" unicode="&#x2195;" 
d="M502 -29l-377 455l106 94l238 -287l154 844l-336 -286l-82 94l530 454l379 -454l-106 -94l-238 286l-154 -844l336 287l82 -94z" />
    <glyph glyph-name="uni2196" unicode="&#x2196;" 
d="M987 272l-661 805l-90 -508h-140l131 742h742l-25 -131h-510l666 -809z" />
    <glyph glyph-name="uni2197" unicode="&#x2197;" 
d="M125 270l-88 103l942 807h-502l25 131h741l-131 -742h-139l90 504z" />
    <glyph glyph-name="uni2198" unicode="&#x2198;" 
d="M270 0l25 131h510l-666 809l113 98l661 -805l91 508h139l-131 -741h-742z" />
    <glyph glyph-name="uni2199" unicode="&#x2199;" 
d="M-4 0l131 741h139l-90 -503l938 802l88 -102l-942 -799h502l-25 -139h-741z" />
    <glyph glyph-name="partialdiff" unicode="&#x2202;" 
d="M492 -20q-209 0 -316 139t-70 354q33 183 168.5 309.5t317.5 126.5q89 0 162 -29.5t116 -86.5l-108 165l-283 455h199l246 -409q83 -136 114.5 -262t5.5 -271q-38 -218 -185.5 -354.5t-366.5 -136.5zM498 131q137 0 241 99t129 241q23 127 -42 209t-187 82
q-135 0 -236.5 -92.5t-126.5 -231.5q-23 -134 38.5 -220.5t183.5 -86.5z" />
    <glyph glyph-name="emptyset" unicode="&#x2205;" 
d="M1006 1051q76 -67 106.5 -172t7.5 -236q-38 -221 -199.5 -354t-377.5 -133q-113 0 -205 39l-152 -195h-155l202 260q-77 67 -108 172t-8 236q39 221 201 354t378 133q113 0 205 -39l152 195h155zM289 643q-27 -162 49 -250l459 590q-50 16 -107 16q-149 0 -260 -95.5
t-141 -260.5zM948 668q29 158 -47 250l-459 -590q53 -17 107 -17q149 0 259.5 96t139.5 261z" />
    <glyph glyph-name="product" unicode="&#x220f;" 
d="M117 -225l262 1489h-213l27 149h1122l-27 -149h-213l-262 -1489h-172l262 1489h-352l-262 -1489h-172z" />
    <glyph glyph-name="summation" unicode="&#x2211;" 
d="M-51 -225l6 45l752 796l-469 752l6 45h1011l-26 -151h-731l391 -627l-6 -49l-625 -660h752l-27 -151h-1034z" />
    <glyph glyph-name="minus" unicode="&#x2212;" 
d="M123 625l24 143h983l-24 -143h-983z" />
    <glyph glyph-name="radical" unicode="&#x221a;" 
d="M287 -225l-232 999h174l158 -774l770 1413h182l-911 -1638h-141z" />
    <glyph glyph-name="infinity" unicode="&#x221e;" 
d="M301 330q-133 0 -194 101t-31 278q29 167 118.5 260.5t215.5 93.5q106 0 166.5 -66.5t68.5 -179.5q50 120 128 183t179 63q133 0 194.5 -101t31.5 -278q-29 -167 -118.5 -260.5t-213.5 -93.5q-108 0 -170 66t-68 179q-104 -245 -307 -245zM322 471q74 0 139.5 63
t113.5 175q-9 103 -47.5 158t-103.5 55q-75 0 -131 -64t-76 -174q-19 -100 9.5 -156.5t95.5 -56.5zM829 471q75 0 131 64t76 174q19 100 -9 156.5t-95 56.5q-74 0 -140 -63t-114 -175q9 -103 47.5 -158t103.5 -55z" />
    <glyph glyph-name="integral" unicode="&#x222b;" 
d="M137 -389q-88 0 -155 24l22 140q61 -15 111 -15q85 0 147 51.5t88 143.5l326 1167q41 150 139 231t240 81q85 0 155 -25l-22 -139q-52 14 -107 14q-90 0 -151 -51t-86 -143l-326 -1168q-43 -150 -141 -230.5t-240 -80.5z" />
    <glyph glyph-name="approxequal" unicode="&#x2248;" 
d="M846 715q-54 0 -97 17t-68.5 42.5t-50.5 55t-44 55t-48.5 42.5t-64.5 17q-119 0 -203 -203h-147q68 176 155 260t205 84q63 0 110.5 -23.5t75.5 -57.5t52.5 -67.5t57 -57t73.5 -23.5q120 0 203 203h149q-68 -175 -155.5 -259.5t-202.5 -84.5zM772 305q-54 0 -97 17
t-68.5 42.5t-50.5 55.5t-44 55.5t-48.5 42.5t-64.5 17q-118 0 -202 -203h-148q68 176 155.5 260t205.5 84q54 0 96.5 -17t67 -42.5t49 -55.5t43.5 -55.5t48 -42.5t64 -17q120 0 203 203h149q-68 -175 -155.5 -259.5t-202.5 -84.5z" />
    <glyph glyph-name="notequal" unicode="&#x2260;" 
d="M1141 829h-361l-157 -266h471l-25 -143h-532l-158 -266h-150l158 266h-301l25 143h362l158 266h-473l24 144h535l157 266h150l-158 -266h299z" />
    <glyph glyph-name="lessequal" unicode="&#x2264;" 
d="M952 356l-692 396l14 94l832 395l-29 -170l-631 -278l533 -279zM145 102l25 140h762l-25 -140h-762z" />
    <glyph glyph-name="greaterequal" unicode="&#x2265;" 
d="M190 356l29 170l633 279l-535 278l27 158l692 -395l-14 -94zM145 102l25 140h762l-25 -140h-762z" />
    <glyph glyph-name="lozenge" unicode="&#x25ca;" 
d="M827 1309l340 -641l-569 -668h-188l2 2l-338 666l567 643h188zM524 135l459 537l-268 508l-457 -516z" />
    <glyph glyph-name="i.loclTRK" 
d="M702 1182q-58 0 -90.5 40t-21.5 99q8 50 47 83.5t90 33.5q57 0 90.5 -41.5t24.5 -100.5q-9 -49 -49.5 -81.5t-90.5 -32.5zM758 -20q-150 0 -230 91.5t-49 262.5l96 543h-372l26 147h549l-127 -723q-13 -78 21.5 -124t105.5 -46q87 0 219 78l-30 -170q-78 -59 -209 -59z
" />
    <glyph glyph-name="zero.subs" 
d="M473 -242q-154 0 -221.5 110.5t-32.5 307.5q32 188 130.5 290.5t244.5 102.5q155 0 222 -109.5t32 -307.5q-32 -189 -130 -291.5t-245 -102.5zM475 -111q87 0 150 75.5t88 211.5q22 127 -9.5 194.5t-111.5 67.5q-87 0 -150 -75t-88 -211q-22 -127 9.5 -195t111.5 -68z
" />
    <glyph glyph-name="one.subs" 
d="M211 -229l22 131h201l90 485q-79 -59 -205 -94l23 137q98 26 236 131l116 -4l-114 -655h174l-23 -131h-520z" />
    <glyph glyph-name="two.subs" 
d="M199 -229l12 92q39 32 106.5 81.5t119 88t105.5 85.5t87.5 96.5t42.5 98.5q10 61 -23 91t-92 30q-50 0 -117 -22t-133 -64l29 158q40 26 106 44.5t129 18.5q121 0 192.5 -72t49.5 -198q-8 -49 -30 -93.5t-47 -76.5t-65 -67.5t-69.5 -56.5t-77 -54t-71.5 -51l309 4
l-23 -133h-540z" />
    <glyph glyph-name="three.subs" 
d="M459 -242q-139 0 -256 60l24 143q112 -70 240 -70q74 0 119.5 28.5t54.5 82.5q11 55 -29.5 89t-122.5 34h-88l23 131h78q69 0 120.5 22.5t59.5 71.5q6 38 -23.5 62t-87.5 24q-54 0 -124.5 -19t-129.5 -48l25 145q120 55 231 55q134 0 202 -56.5t50 -160.5
q-26 -149 -198 -159q88 -7 127 -67t24 -151q-19 -104 -101.5 -160.5t-217.5 -56.5z" />
    <glyph glyph-name="four.subs" 
d="M502 -229l28 170h-370l14 90l449 526h155l-86 -489h131l-22 -127h-127l-29 -170h-143zM346 68h211l55 315z" />
    <glyph glyph-name="five.subs" 
d="M449 -242q-133 0 -244 54l24 135q46 -30 95.5 -44t126.5 -14q164 0 192 148q8 54 -13.5 82t-80.5 28t-129 -47l-133 62l67 395h486l-23 -131h-346l-39 -197q23 18 38 27t46.5 17t73.5 8q105 0 160 -73t32 -196q-23 -130 -105 -192t-228 -62z" />
    <glyph glyph-name="six.subs" 
d="M598 287q107 0 165.5 -85t39.5 -196q-20 -109 -109 -178.5t-207 -69.5q-141 0 -212.5 81t-49.5 206q22 126 174 285l228 227h172l-248 -252l-74 -49q50 31 121 31zM659 18q11 61 -23 98.5t-104 37.5q-67 0 -110.5 -34.5t-54.5 -92.5q-11 -62 24 -99t105 -37
q67 0 110.5 34.5t52.5 92.5z" />
    <glyph glyph-name="seven.subs" 
d="M252 -229l442 653h-389l23 133h553l-15 -94l-450 -692h-164z" />
    <glyph glyph-name="eight.subs" 
d="M477 -242q-144 0 -219.5 69t-56.5 175q12 73 66.5 126t142.5 71q-65 12 -97 60.5t-20 113.5q15 86 97.5 141t199.5 55q127 0 198 -62.5t54 -158.5q-11 -59 -55 -100t-117 -53q76 -19 113 -78.5t22 -139.5q-15 -97 -104.5 -158t-223.5 -61zM543 250q68 4 107.5 31t47.5 69
q7 45 -23 68.5t-91 23.5q-134 0 -150 -96q-7 -43 21 -67t88 -29zM485 -115q80 0 127 32.5t56 88.5q10 56 -25 87t-108 36q-82 -5 -132 -37.5t-59 -87.5q-10 -55 29.5 -87t111.5 -32z" />
    <glyph glyph-name="nine.subs" 
d="M268 -229l248 252l80 51q-58 -33 -125 -33q-109 0 -167.5 85t-39.5 196q20 109 108.5 178t207.5 69q141 0 212.5 -80.5t49.5 -205.5q-22 -126 -174 -285l-228 -227h-172zM535 174q67 0 110.5 35t54.5 94q11 60 -24 96.5t-105 36.5q-67 0 -110.5 -34.5t-52.5 -92.5
q-11 -61 23 -98t104 -37z" />
    <glyph glyph-name="zero.dnom" 
d="M436 -446q-154 0 -221.5 110t-32.5 307q32 188 131 291t244 103q155 0 222 -110t32 -308q-32 -188 -130 -290.5t-245 -102.5zM438 -315q87 0 150 75t88 211q22 127 -9.5 194.5t-111.5 67.5q-87 0 -150 -75t-88 -211q-22 -127 9.5 -194.5t111.5 -67.5z" />
    <glyph glyph-name="one.dnom" 
d="M174 -434l23 131h200l90 485q-79 -60 -204 -94l22 137q98 26 236 131l116 -4l-114 -655h174l-23 -131h-520z" />
    <glyph glyph-name="two.dnom" 
d="M162 -434l12 92q39 32 106.5 81.5t119 88.5t105.5 86t87.5 96.5t42.5 98.5q10 61 -23 90.5t-92 29.5q-50 0 -117 -22t-133 -64l29 158q41 26 107 45t129 19q121 0 192 -72.5t49 -198.5q-8 -49 -30 -93.5t-47 -76.5t-65 -67.5t-69.5 -56.5t-77 -54t-71.5 -51l309 4
l-23 -133h-540z" />
    <glyph glyph-name="three.dnom" 
d="M422 -446q-141 0 -256 59l24 143q110 -69 240 -69q74 0 119.5 28.5t54.5 81.5q11 55 -29 89t-122 34h-88l22 131h78q69 0 120.5 22.5t59.5 71.5q6 38 -23 62t-87 24q-54 0 -124.5 -19t-129.5 -48l24 145q122 56 232 56q134 0 201.5 -57t49.5 -161q-26 -149 -198 -159
q88 -7 127 -67t24 -150q-19 -104 -101.5 -160.5t-217.5 -56.5z" />
    <glyph glyph-name="four.dnom" 
d="M465 -434l29 170h-371l14 90l449 526h155l-86 -489h131l-22 -127h-127l-29 -170h-143zM309 -137h211l55 315z" />
    <glyph glyph-name="five.dnom" 
d="M412 -446q-135 0 -244 53l25 135q46 -30 94.5 -43.5t126.5 -13.5q164 0 192 147q16 111 -94 111q-59 0 -129 -47l-133 61l67 395h486l-23 -131h-346l-39 -196q23 18 38.5 27t46 16.5t73.5 7.5q105 0 160 -73t32 -196q-23 -130 -105 -191.5t-228 -61.5z" />
    <glyph glyph-name="six.dnom" 
d="M561 82q107 0 165.5 -85t39.5 -196q-20 -109 -108.5 -178t-206.5 -69q-141 0 -213 80.5t-50 205.5q22 126 174 285l228 227h172l-248 -252l-74 -49q50 31 121 31zM623 -186q11 61 -23 98t-104 37q-67 0 -111 -34.5t-55 -92.5q-11 -62 24 -98.5t105 -36.5q67 0 111 34.5
t53 92.5z" />
    <glyph glyph-name="seven.dnom" 
d="M215 -434l442 653h-389l23 133h553l-15 -94l-450 -692h-164z" />
    <glyph glyph-name="eight.dnom" 
d="M440 -446q-144 0 -219.5 68.5t-56.5 174.5q12 73 66.5 126t142.5 71q-65 12 -97 60.5t-20 113.5q15 87 97.5 142t199.5 55q127 0 198 -63t54 -159q-11 -59 -55 -100t-117 -53q76 -19 113 -78t22 -139q-15 -97 -104.5 -158t-223.5 -61zM506 45q68 4 108 31t48 69
q7 45 -23.5 69t-91.5 24q-134 0 -150 -97q-7 -43 21 -67t88 -29zM449 -319q80 0 126.5 32t55.5 88q10 56 -25 87t-108 36q-82 -5 -132 -37.5t-59 -87.5q-10 -54 30 -86t112 -32z" />
    <glyph glyph-name="nine.dnom" 
d="M231 -434l248 252l80 51q-58 -33 -125 -33q-109 0 -167.5 85t-39.5 196q20 109 109 178.5t207 69.5q141 0 212.5 -81t49.5 -206q-22 -126 -174 -285l-228 -227h-172zM498 -31q67 0 111 35t55 94q11 60 -24 96.5t-105 36.5q-67 0 -111 -34.5t-53 -92.5q-11 -61 23 -98
t104 -37z" />
    <glyph glyph-name="zero.numr" 
d="M678 930q-154 0 -221.5 110.5t-32.5 307.5q32 188 130.5 290.5t244.5 102.5q155 0 222 -110t32 -308q-32 -188 -130 -290.5t-245 -102.5zM680 1061q87 0 150 75.5t88 211.5q22 127 -9.5 194.5t-111.5 67.5q-87 0 -150 -75.5t-88 -211.5q-22 -127 9.5 -194.5t111.5 -67.5z
" />
    <glyph glyph-name="one.numr" 
d="M416 942l22 131h201l90 486q-81 -61 -205 -95l23 138q97 26 235 131l117 -4l-115 -656h174l-22 -131h-520z" />
    <glyph glyph-name="two.numr" 
d="M403 942l13 92q39 32 106.5 81.5t119 88.5t105.5 86t87.5 96.5t42.5 98.5q10 61 -23 91t-92 30q-50 0 -117 -22t-133 -64l29 157q41 26 106.5 45t128.5 19q121 0 192.5 -72.5t49.5 -198.5q-8 -49 -30 -93.5t-47 -76.5t-65.5 -67.5t-70 -56.5t-77 -54t-71.5 -51l310 4
l-23 -133h-541z" />
    <glyph glyph-name="three.numr" 
d="M664 930q-141 0 -256 59l24 144q112 -70 240 -70q74 0 119.5 28.5t54.5 82.5q11 55 -29.5 88.5t-122.5 33.5h-88l23 131h78q69 0 120.5 23t59.5 72q6 38 -23.5 62t-87.5 24q-53 0 -123.5 -19.5t-130.5 -48.5l25 146q120 55 231 55q134 0 202 -56.5t50 -160.5
q-26 -150 -199 -160q88 -7 127.5 -67t24.5 -150q-19 -104 -101.5 -160.5t-217.5 -56.5z" />
    <glyph glyph-name="four.numr" 
d="M707 942l28 170h-370l14 90l448 527h156l-86 -490h131l-22 -127h-127l-29 -170h-143zM551 1239h211l55 315z" />
    <glyph glyph-name="five.numr" 
d="M653 930q-134 0 -243 53l24 135q46 -30 94.5 -43.5t126.5 -13.5q165 0 193 147q16 111 -94 111q-59 0 -129 -47l-133 61l67 396h485l-22 -132h-346l-39 -196q23 18 38.5 27t46 16.5t73.5 7.5q105 0 160 -72.5t32 -195.5q-23 -130 -105.5 -192t-228.5 -62z" />
    <glyph glyph-name="six.numr" 
d="M803 1458q107 0 165.5 -84.5t39.5 -195.5q-20 -109 -109 -178.5t-207 -69.5q-141 0 -212.5 81t-49.5 206t174 284l227 228h173l-248 -252l-74 -50q50 31 121 31zM864 1190q11 61 -23 98t-104 37q-67 0 -111 -34.5t-55 -92.5q-11 -62 24 -98.5t105 -36.5q67 0 111 34.5
t53 92.5z" />
    <glyph glyph-name="seven.numr" 
d="M457 942l442 653h-389l22 134h553l-14 -95l-450 -692h-164z" />
    <glyph glyph-name="eight.numr" 
d="M682 930q-144 0 -219.5 69t-56.5 175q12 73 66 125.5t142 70.5q-65 12 -96.5 60.5t-19.5 113.5q15 87 97.5 142t199.5 55q127 0 198 -62.5t54 -158.5q-11 -59 -55.5 -100.5t-117.5 -53.5q77 -19 114 -78.5t22 -138.5q-15 -97 -104.5 -158t-223.5 -61zM748 1421
q67 4 107 31.5t48 69.5q7 45 -23.5 68.5t-91.5 23.5q-133 0 -149 -96q-7 -43 21 -67.5t88 -29.5zM690 1057q79 0 126 32.5t56 88.5q10 56 -25 86.5t-108 35.5q-82 -5 -131.5 -37t-58.5 -87q-10 -55 29.5 -87t111.5 -32z" />
    <glyph glyph-name="nine.numr" 
d="M473 942l248 252l80 51q-58 -33 -125 -33q-109 0 -167.5 85t-39.5 196q20 109 108.5 178.5t206.5 69.5q141 0 213 -81t50 -206t-175 -285l-227 -227h-172zM739 1346q67 0 111 35t55 94q11 60 -24 96.5t-105 36.5q-67 0 -111 -34.5t-53 -92.5q-11 -61 23 -98t104 -37z" />
    <glyph glyph-name="fraction.ss01" 
d="M119 586l22 123h975l-22 -123h-975z" />
    <glyph glyph-name="colon.case" 
d="M668 877q-71 0 -113.5 52t-30.5 124q12 63 65 107t116 44q72 0 114.5 -52t28.5 -124q-10 -63 -62.5 -107t-117.5 -44zM537 135q-71 0 -113.5 52t-30.5 124q12 63 64.5 107.5t115.5 44.5q72 0 114.5 -52t29.5 -124q-11 -63 -63.5 -107.5t-116.5 -44.5z" />
    <glyph glyph-name="braceleft.case" 
d="M678 -256q-177 0 -262 105t-54 278l46 258q22 123 -20 181.5t-159 58.5h-65l22 135h58q229 0 274 254l33 182q31 174 145 272.5t291 98.5h162l-25 -135h-127q-110 0 -187 -69t-99 -187l-31 -181q-24 -136 -88.5 -211t-188.5 -92q216 -32 168 -311l-45 -258
q-22 -118 27 -181t160 -63h123l-25 -135h-133z" />
    <glyph glyph-name="braceright.case" 
d="M106 -256l25 135h111q110 0 187 69t99 187l45 258q23 133 87.5 208.5t189.5 94.5q-113 13 -152.5 95t-15.5 217l31 180q22 118 -27 181t-160 63h-139l25 135h149q177 0 262 -105t54 -278l-33 -183q-22 -125 19.5 -183t158.5 -58h65l-22 -135h-57q-230 0 -275 -252
l-45 -258q-31 -174 -145 -272.5t-291 -98.5h-146z" />
    <glyph glyph-name="bracketleft.case" 
d="M193 -256l321 1823h635l-25 -135h-471l-272 -1553h448l-24 -135h-612z" />
    <glyph glyph-name="bracketright.case" 
d="M113 -256l24 135h449l272 1553h-471l25 135h635l-322 -1823h-612z" />
    <glyph glyph-name="parenleft.case" 
d="M770 -260l-213 8q-152 157 -211 399.5t-12 520.5q50 273 196.5 512.5t360.5 390.5l209 -8q-235 -156 -396 -399t-210 -521q-46 -272 25.5 -510.5t250.5 -392.5z" />
    <glyph glyph-name="parenright.case" 
d="M369 -260l-230 8q236 156 396.5 399.5t207.5 520.5q48 271 -23.5 510t-250.5 393l193 -8q162 -153 227 -397t14 -523q-46 -269 -187 -508t-347 -395z" />
    <glyph glyph-name="guillemotleft.case" 
d="M418 248l-271 411v21l416 412h193l-432 -426l278 -418h-184zM827 248l-270 411v21l416 412h192l-432 -426l279 -418h-185z" />
    <glyph glyph-name="guillemotright.case" 
d="M78 248l434 426l-281 418h185l270 -412v-21l-416 -411h-192zM487 248l435 426l-281 418h184l271 -412v-21l-416 -411h-193z" />
    <glyph glyph-name="guilsinglleft.case" 
d="M606 248l-270 411v21l416 412h192l-432 -426l279 -418h-185z" />
    <glyph glyph-name="guilsinglright.case" 
d="M299 248l434 426l-280 418h184l270 -412v-21l-415 -411h-193z" />
  </font>
</defs>
</svg>
