<?xml version="1.0" standalone="no"?>
<!DOCTYPE svg PUBLIC "-//W3C//DTD SVG 1.1//EN" "http://www.w3.org/Graphics/SVG/1.1/DTD/svg11.dtd" >
<svg xmlns="http://www.w3.org/2000/svg" xmlns:xlink="http://www.w3.org/1999/xlink" version="1.1">
<metadata>
Created by FontForge 20170731 at Thu Jul 30 23:51:46 2020
 By Aleksey,,,
Copyright (c) 2016 by Mattox Shuler. All rights reserved.
</metadata>
<defs>
<font id="Native-Regular" horiz-adv-x="1187" >
  <font-face 
    font-family="Native"
    font-weight="400"
    font-stretch="normal"
    units-per-em="2048"
    panose-1="0 0 5 0 0 0 0 0 0 0"
    ascent="1536"
    descent="-512"
    x-height="1024"
    cap-height="1311"
    bbox="-784 -649 1372 1966"
    underline-thickness="102"
    underline-position="-307"
    unicode-range="U+0020-25CA"
  />
<missing-glyph 
d="M307 -266v1802h574v-1802h-574zM442 1229h299v59h-118v68h118v59h-297v-59h117v-68h-119v-59zM442 995h299v62h-118v98q0 29 -29 29h-123q-29 0 -29 -29v-160zM502 1057v65h59v-65h-59zM442 762h152q29 0 29 29v96h59v-53h59v84q0 28 -28 28h-271v-59h119v-66h-119v-59z
M442 657h299v127h-59v-65h-240v-62zM471 416h242q28 0 28 28v146q0 28 -28 28h-123q-29 0 -29 -28v-72h62v41h59v-84h-180v143h-60v-174q0 -28 29 -28zM471 102h242q28 0 28 29v148q0 28 -28 28h-242q-29 0 -29 -28v-148q0 -29 29 -29zM502 162v86h180v-86h-180zM442 -141
h299v59h-184l184 92v51h-299v-59h166l-166 -84v-59z" />
    <glyph glyph-name=".notdef" 
d="M307 -266v1802h574v-1802h-574zM442 1229h299v59h-118v68h118v59h-297v-59h117v-68h-119v-59zM442 995h299v62h-118v98q0 29 -29 29h-123q-29 0 -29 -29v-160zM502 1057v65h59v-65h-59zM442 762h152q29 0 29 29v96h59v-53h59v84q0 28 -28 28h-271v-59h119v-66h-119v-59z
M442 657h299v127h-59v-65h-240v-62zM471 416h242q28 0 28 28v146q0 28 -28 28h-123q-29 0 -29 -28v-72h62v41h59v-84h-180v143h-60v-174q0 -28 29 -28zM471 102h242q28 0 28 29v148q0 28 -28 28h-242q-29 0 -29 -28v-148q0 -29 29 -29zM502 162v86h180v-86h-180zM442 -141
h299v59h-184l184 92v51h-299v-59h166l-166 -84v-59z" />
    <glyph glyph-name=".null" horiz-adv-x="0" 
 />
    <glyph glyph-name="nonmarkingreturn" horiz-adv-x="682" 
 />
    <glyph glyph-name="space" unicode=" " 
 />
    <glyph glyph-name="exclam" unicode="!" 
d="M518 389l-29 989h209l-28 -989h-152zM594 -20q-56 0 -94.5 39t-38.5 94t38.5 94t94.5 39t94.5 -39t38.5 -94t-38.5 -94t-94.5 -39z" />
    <glyph glyph-name="quotedbl" unicode="&#x22;" 
d="M319 860l-32 553h213l-33 -553h-148zM721 860l-33 553h213l-33 -553h-147z" />
    <glyph glyph-name="numbersign" unicode="#" 
d="M1126 852h-213l-39 -354h203v-131h-217l-41 -367h-143l41 367h-307l-41 -367h-144l41 367h-205v131h220l38 354h-208v131h223l35 328h143l-35 -328h307l35 328h144l-35 -328h198v-131zM731 498l39 354h-307l-39 -354h307z" />
    <glyph glyph-name="dollar" unicode="$" 
d="M1008 412q0 -127 -93 -217t-256 -111v-186h-122v180q-213 6 -349 76v168q66 -47 166.5 -74t212.5 -27q127 0 203 51.5t76 130.5q0 70 -68.5 113.5t-199.5 75.5q-377 92 -377 330q0 114 88 198t248 107v186h122v-180q180 -4 281 -45v-162q-50 29 -135.5 46.5t-169.5 17.5
q-129 0 -199.5 -45t-70.5 -119q0 -63 59 -105.5t201 -79.5q187 -49 285 -127t98 -202z" />
    <glyph glyph-name="percent" unicode="%" 
d="M283 700q-114 0 -178 83t-64 231t64 230.5t178 82.5t177.5 -82.5t63.5 -230.5t-63.5 -231t-177.5 -83zM61 0l914 1311h151l-913 -1311h-152zM283 827q51 0 78.5 49.5t27.5 137.5t-27.5 137t-78.5 49t-79 -49t-28 -137t28 -137.5t79 -49.5zM905 -16q-114 0 -177.5 82.5
t-63.5 230.5t63.5 230.5t177.5 82.5t178 -82.5t64 -230.5t-64 -230.5t-178 -82.5zM905 111q51 0 79 49t28 137t-28 137t-79 49t-78.5 -49t-27.5 -137t27.5 -137t78.5 -49z" />
    <glyph glyph-name="ampersand" unicode="&#x26;" 
d="M1186 0h-209l-119 123q-134 -143 -366 -143q-204 0 -338 113.5t-134 303.5q0 135 66.5 236t175.5 137q-55 102 -55 193q0 175 100.5 271.5t280.5 96.5q159 0 299 -65v-168q-161 82 -299 82q-103 0 -160 -56.5t-57 -160.5q0 -60 46 -141.5t128 -166.5l280 -286
q57 121 93 329h163q-56 -304 -137 -452zM496 131q153 0 249 107l-366 376l-53 60q-57 -33 -95 -104t-38 -162q0 -129 81.5 -203t221.5 -74z" />
    <glyph glyph-name="quotesingle" unicode="'" 
d="M520 860l-33 553h213l-32 -553h-148z" />
    <glyph glyph-name="parenleft" unicode="(" 
d="M688 -369q-180 157 -280.5 397.5t-100.5 514.5q0 277 106.5 518t295.5 393h200q-207 -155 -322.5 -396t-115.5 -515t115.5 -515.5t322.5 -396.5h-221z" />
    <glyph glyph-name="parenright" unicode=")" 
d="M500 -369h-221q207 155 322.5 396.5t115.5 515.5t-115.5 515t-322.5 396h200q189 -152 295.5 -393t106.5 -518q0 -274 -100.5 -514.5t-280.5 -397.5z" />
    <glyph glyph-name="asterisk" unicode="*" 
d="M395 584l-112 82l231 286l-356 95l43 131l344 -131l-21 366h140l-21 -366l344 131l43 -131l-356 -95l231 -286l-112 -82l-199 311z" />
    <glyph glyph-name="plus" unicode="+" 
d="M1085 768v-143h-411v-420h-160v420h-412v143h412v420h160v-420h411z" />
    <glyph glyph-name="comma" unicode="," 
d="M307 -365v132q143 3 221 74.5t90 174.5q-48 -26 -91 -14.5t-73 53t-30 92.5q0 65 46.5 112.5t113.5 47.5q74 0 128 -59.5t54 -169.5q0 -57 -16 -116t-52 -118t-87.5 -104.5t-130.5 -74.5t-173 -30z" />
    <glyph glyph-name="hyphen" unicode="-" 
d="M184 625v143h820v-143h-820z" />
    <glyph glyph-name="period" unicode="." 
d="M594 -20q-68 0 -116 48t-48 115t48 115.5t116 48.5t116 -48.5t48 -115.5t-48 -115t-116 -48z" />
    <glyph glyph-name="slash" unicode="/" 
d="M143 -205l746 1618h155l-745 -1618h-156z" />
    <glyph glyph-name="zero" unicode="0" 
d="M594 1331q242 0 377 -177t135 -499q0 -321 -135 -498t-377 -177t-377 177t-135 498q0 322 135 499t377 177zM594 1176q-159 0 -247.5 -136.5t-88.5 -384.5q0 -93 12 -170l609 480q-41 103 -114 157t-171 54zM594 135q159 0 247.5 136t88.5 384q0 93 -12 170l-609 -479
q41 -103 114 -157t171 -54z" />
    <glyph glyph-name="one" unicode="1" 
d="M184 0v147h353v955q-55 -52 -141 -94.5t-183 -65.5v156q173 46 360 217h132v-1168h311v-147h-832z" />
    <glyph glyph-name="two" unicode="2" 
d="M168 0v125q42 41 123.5 115t146 132.5t141 138t127.5 146.5t86 143.5t35 141.5q0 113 -74.5 173.5t-205.5 60.5q-87 0 -173 -32t-194 -112v185q158 114 375 114q200 0 324.5 -105t124.5 -284q0 -65 -21 -131t-62 -129.5t-85 -119t-108 -117.5t-111.5 -104.5t-114.5 -101
t-99 -87.5h629v-152h-864z" />
    <glyph glyph-name="three" unicode="3" 
d="M563 -20q-115 0 -229 33t-170 69v176q210 -125 399 -125q139 0 223 63.5t84 176.5q0 117 -90 182.5t-254 65.5h-153v151h153q308 0 308 207q0 96 -74 147.5t-197 51.5q-91 0 -172 -27.5t-196 -97.5v161q56 44 153 80.5t215 36.5q196 0 320.5 -96t124.5 -256
q0 -90 -65 -166t-171 -113q124 -41 198 -130t74 -197q0 -179 -134 -286t-347 -107z" />
    <glyph glyph-name="four" unicode="4" 
d="M715 0v301h-641v121l620 889h189v-862h223v-148h-223v-301h-168zM258 449h457v653z" />
    <glyph glyph-name="five" unicode="5" 
d="M561 -20q-114 0 -224 22t-165 47v178q60 -39 178 -67.5t211 -28.5q138 0 220.5 67t82.5 189q0 123 -72 197.5t-184 74.5q-139 0 -233 -67l-172 61v658h772v-148h-600v-436q27 34 95.5 57t137.5 23q199 0 315.5 -114.5t116.5 -305.5q0 -189 -130 -298t-349 -109z" />
    <glyph glyph-name="six" unicode="6" 
d="M618 -20q-209 0 -346 126t-137 324q0 235 213 496l316 385h213l-363 -434l-149 -162q47 50 120 81t164 31q179 0 301.5 -112.5t122.5 -294.5q0 -197 -128.5 -318.5t-326.5 -121.5zM610 131q126 0 206.5 75.5t80.5 203.5q0 125 -82 197.5t-211 72.5t-211 -70.5t-82 -191.5
q0 -131 84.5 -209t214.5 -78z" />
    <glyph glyph-name="seven" unicode="7" 
d="M307 0l545 1159h-696v152h884v-121l-548 -1190h-185z" />
    <glyph glyph-name="eight" unicode="8" 
d="M594 -20q-228 0 -360 102.5t-132 275.5q0 127 73.5 217t203.5 134q-109 33 -168 105t-59 177q0 155 120 247.5t322 92.5t322 -92.5t120 -247.5q0 -105 -59 -177t-168 -105q130 -44 203 -134t73 -217q0 -173 -132 -275.5t-359 -102.5zM594 760q130 15 201 71t71 146
q0 94 -74.5 150.5t-197.5 56.5t-197.5 -56.5t-74.5 -150.5q0 -90 71 -146t201 -71zM594 127q149 0 235 67t86 181q0 110 -83 177.5t-238 82.5q-155 -15 -238.5 -82.5t-83.5 -177.5q0 -114 86.5 -181t235.5 -67z" />
    <glyph glyph-name="nine" unicode="9" 
d="M569 1331q209 0 346.5 -126t137.5 -324q0 -235 -213 -496l-316 -385h-213l363 434l149 162q-47 -51 -120.5 -82t-163.5 -31q-179 0 -301.5 113t-122.5 295q0 197 128 318.5t326 121.5zM578 1180q-126 0 -206.5 -75.5t-80.5 -203.5q0 -125 82 -197.5t211 -72.5t211 70.5
t82 191.5q0 131 -84.5 209t-214.5 78z" />
    <glyph glyph-name="colon" unicode=":" 
d="M594 721q-68 0 -116 48.5t-48 115.5t48 115.5t116 48.5t116 -48.5t48 -115.5t-48 -115.5t-116 -48.5zM594 -20q-68 0 -116 48t-48 115t48 115.5t116 48.5t116 -48.5t48 -115.5t-48 -115t-116 -48z" />
    <glyph glyph-name="semicolon" unicode=";" 
d="M594 717q-68 0 -116 48.5t-48 115.5t48 115t116 48t116 -48t48 -115t-48 -115.5t-116 -48.5zM307 -365v132q143 3 221 74.5t90 174.5q-48 -26 -91 -14.5t-73 53t-30 92.5q0 65 46.5 112.5t113.5 47.5q74 0 128 -59.5t54 -169.5q0 -57 -16 -116t-52 -118t-87.5 -104.5
t-130.5 -74.5t-173 -30z" />
    <glyph glyph-name="less" unicode="&#x3c;" 
d="M987 -12l-762 534v103l762 534v-180l-590 -406l590 -405v-180z" />
    <glyph glyph-name="equal" unicode="=" 
d="M102 829v144h983v-144h-983zM102 420v143h983v-143h-983z" />
    <glyph glyph-name="greater" unicode="&#x3e;" 
d="M201 -12v180l590 405l-590 406v180l762 -534v-103z" />
    <glyph glyph-name="question" unicode="?" 
d="M469 389l-10 367q360 0 360 252q0 116 -72 175.5t-196 59.5q-92 0 -180 -28t-199 -93v170q173 107 379 107q193 0 318.5 -108.5t125.5 -274.5q0 -154 -109.5 -259.5t-256.5 -113.5l-8 -254h-152zM545 -20q-55 0 -94 39t-39 94t39 94t94 39t94 -39t39 -94t-39 -94t-94 -39
z" />
    <glyph glyph-name="at" unicode="@" 
d="M666 1434q202 0 319 -126t117 -337v-807h-111l-24 131q-26 -57 -72.5 -94.5t-94 -51.5t-98.5 -14q-135 0 -220 103.5t-85 253.5q0 79 24.5 147t66 115.5t97.5 78.5t117 40t127 -4t125 -50v119q0 160 -78 258t-210 98q-204 0 -318.5 -207t-114.5 -563q0 -482 208.5 -655
t582.5 2v-160q-171 -65 -318.5 -69.5t-262.5 51.5t-197 166t-125 279t-43 386q0 279 69 483.5t202 315.5t317 111zM752 264q53 0 93 23.5t63.5 64.5t34.5 90.5t11 106.5v156q-62 38 -132.5 46t-130 -14.5t-99 -84.5t-39.5 -154q0 -99 52.5 -166.5t146.5 -67.5z" />
    <glyph glyph-name="A" unicode="A" 
d="M967 0l-107 307h-536l-107 -307h-176l471 1311h164l471 -1311h-180zM373 455h438l-219 635z" />
    <glyph glyph-name="B" unicode="B" 
d="M156 0v1311h516q172 0 272 -90t100 -267q0 -105 -66 -180.5t-194 -85.5q145 -7 223 -96t78 -217q0 -191 -126.5 -283t-348.5 -92h-454zM328 750h311q110 0 169.5 43.5t59.5 160.5t-59.5 161t-169.5 44h-311v-409zM328 152h262q62 0 107.5 5t87.5 19.5t68 39t41 64.5
t15 95t-15 95t-41 64.5t-68 39t-87.5 19.5t-107.5 5h-262v-446z" />
    <glyph glyph-name="C" unicode="C" 
d="M676 -20q-263 0 -410 177.5t-147 497.5t147 498t410 178q190 0 350 -80v-190q-72 54 -163 84.5t-179 30.5q-186 0 -287.5 -136.5t-101.5 -384.5t101.5 -384t285.5 -136q88 0 180 30.5t164 84.5v-191q-158 -79 -350 -79z" />
    <glyph glyph-name="D" unicode="D" 
d="M143 0v1311h365q280 0 437 -173.5t157 -482.5t-157 -482t-437 -173h-365zM315 152h193q197 0 307.5 133t110.5 370q0 238 -110.5 371t-307.5 133h-193v-1007z" />
    <glyph glyph-name="E" unicode="E" 
d="M377 152h700v-152h-872v1311h864v-152h-692v-414h577v-151h-577v-442z" />
    <glyph glyph-name="F" unicode="F" 
d="M1090 1159h-701v-430h586v-151h-586v-578h-172v1311h873v-152z" />
    <glyph glyph-name="G" unicode="G" 
d="M655 -20q-265 0 -413 177t-148 498q0 322 153 499t429 177q210 0 362 -84v-188q-161 117 -352 117q-194 0 -305 -137t-111 -384q0 -248 104 -384t292 -136q118 0 215 43v412h-267v151h439v-643q-63 -56 -168.5 -87t-229.5 -31z" />
    <glyph glyph-name="H" unicode="H" 
d="M143 0v1311h172v-566h557v566h172v-1311h-172v594h-557v-594h-172z" />
    <glyph glyph-name="I" unicode="I" 
d="M205 0v152h303v1007h-303v152h778v-152h-303v-1007h303v-152h-778z" />
    <glyph glyph-name="J" unicode="J" 
d="M489 -20q-94 0 -177 24.5t-132 67.5v178q51 -54 134 -84.5t169 -30.5q155 0 235.5 106t80.5 304v614h-439v152h611v-774q0 -266 -126 -411.5t-356 -145.5z" />
    <glyph glyph-name="K" unicode="K" 
d="M952 0l-387 653l-209 -256l2 -397h-174v1311h172v-695l545 695h201l-428 -527l473 -784h-195z" />
    <glyph glyph-name="L" unicode="L" 
d="M225 0v1311h172v-1159h668v-152h-840z" />
    <glyph glyph-name="M" unicode="M" 
d="M82 0v1311h147l365 -774l364 774h148v-1311h-168v950l-334 -708h-24l-334 708v-950h-164z" />
    <glyph glyph-name="N" unicode="N" 
d="M143 0v1311h168l574 -1004v1004h159v-1311h-147l-594 1044v-1044h-160z" />
    <glyph glyph-name="O" unicode="O" 
d="M594 -20q-243 0 -377.5 176t-134.5 499t135 499.5t377 176.5t377 -176.5t135 -499.5t-134.5 -499t-377.5 -176zM594 135q159 0 247.5 135.5t88.5 384.5t-88.5 385t-247.5 136t-247.5 -136t-88.5 -385t88.5 -384.5t247.5 -135.5z" />
    <glyph glyph-name="P" unicode="P" 
d="M164 0v1311h471q191 0 310.5 -107.5t119.5 -312.5t-119.5 -312.5t-310.5 -107.5h-299v-471h-172zM336 623h266q123 0 205 67.5t82 200.5t-82 200.5t-205 67.5h-266v-536z" />
    <glyph glyph-name="Q" unicode="Q" 
d="M913 -203q107 0 195 51v-147q-85 -51 -217 -51q-163 0 -263 88t-120 248q-203 31 -314.5 204t-111.5 465q0 323 135 499.5t377 176.5t377 -176.5t135 -499.5q0 -303 -119 -477t-336 -196q25 -88 92.5 -136.5t169.5 -48.5zM258 655q0 -249 88.5 -384.5t247.5 -135.5
t247.5 135.5t88.5 384.5t-88.5 385t-247.5 136t-247.5 -136t-88.5 -385z" />
    <glyph glyph-name="R" unicode="R" 
d="M1098 0h-197l-317 500h-244v-500h-172v1311h483q192 0 309 -101t117 -305q0 -172 -84 -270.5t-229 -124.5zM340 1159v-508h278q125 0 204 61t79 193t-79 193t-204 61h-278z" />
    <glyph glyph-name="S" unicode="S" 
d="M553 -20q-119 0 -231 25t-191 69v184q83 -58 194.5 -90.5t227.5 -32.5q149 0 233 55t84 150q0 177 -307 254q-411 100 -411 385q0 160 124.5 256t341.5 96q189 0 347 -63v-183q-147 91 -344 91q-138 0 -215.5 -49.5t-77.5 -137.5q0 -171 299 -239q197 -44 308.5 -147
t111.5 -257q0 -167 -132 -266.5t-362 -99.5z" />
    <glyph glyph-name="T" unicode="T" 
d="M508 0v1159h-406v152h983v-152h-405v-1159h-172z" />
    <glyph glyph-name="U" unicode="U" 
d="M594 -20q-223 0 -347 126t-124 353v852h172v-844q0 -158 79 -245t220 -87t220 87t79 245v844h172v-852q0 -227 -124 -353t-347 -126z" />
    <glyph glyph-name="V" unicode="V" 
d="M512 0l-471 1311h180l375 -1090l375 1090h176l-471 -1311h-164z" />
    <glyph glyph-name="W" unicode="W" 
d="M217 0l-217 1311h172l129 -1004l254 885h82l254 -885l129 1004h168l-217 -1311h-127l-250 877l-250 -877h-127z" />
    <glyph glyph-name="X" unicode="X" 
d="M49 0l455 668l-455 643h189l360 -512l360 512h181l-455 -643l455 -668h-193l-358 537l-359 -537h-180z" />
    <glyph glyph-name="Y" unicode="Y" 
d="M1151 1311l-471 -801v-510h-172v510l-471 801h180l379 -660l379 660h176z" />
    <glyph glyph-name="Z" unicode="Z" 
d="M102 0v49l732 1110h-678v152h929v-41l-733 -1118h725v-152h-975z" />
    <glyph glyph-name="bracketleft" unicode="[" 
d="M328 -369v1823h635v-135h-471v-1552h448v-136h-612z" />
    <glyph glyph-name="backslash" unicode="\" 
d="M1044 -205h-155l-746 1618h156z" />
    <glyph glyph-name="bracketright" unicode="]" 
d="M860 -369h-612v136h448v1552h-471v135h635v-1823z" />
    <glyph glyph-name="asciicircum" unicode="^" 
d="M152 631l370 680h144l370 -680h-172l-270 528l-270 -528h-172z" />
    <glyph glyph-name="underscore" unicode="_" 
d="M82 -289v144h1024v-144h-1024z" />
    <glyph glyph-name="grave" unicode="`" 
d="M729 1163h-158l-264 291h205z" />
    <glyph glyph-name="a" unicode="a" 
d="M967 223q0 -71 39 -101t100 -1v-107q-28 -23 -72.5 -30t-90 3t-85 47.5t-55.5 96.5q-88 -151 -309 -151q-173 0 -270 91.5t-97 233.5q0 98 47.5 171.5t123 109t164.5 46t178.5 -10t158.5 -66.5v72q0 266 -283 266q-135 0 -301 -88l2 162q155 77 320 77q195 0 312.5 -99
t117.5 -283v-439zM520 121q132 0 205.5 74.5t73.5 189.5v51q-61 41 -147 58.5t-165.5 8t-135.5 -59.5t-56 -134q0 -86 59 -137t166 -51z" />
    <glyph glyph-name="b" unicode="b" 
d="M629 -20q-173 0 -297 143l-17 -123h-143v1413h168v-536q45 83 125.5 125t183.5 42q185 0 298.5 -141.5t113.5 -378.5q0 -246 -121 -395t-311 -149zM610 133q132 0 205.5 106t73.5 285q0 171 -68 269t-196 98q-81 0 -159.5 -41t-125.5 -127v-459q57 -66 129 -98.5
t141 -32.5z" />
    <glyph glyph-name="c" unicode="c" 
d="M688 -20q-236 0 -370 139.5t-134 392.5t134 392.5t370 139.5q157 0 287 -61v-174q-53 36 -129 60t-158 24q-156 0 -244 -99.5t-88 -281.5t88 -281.5t244 -99.5q82 0 158 24t129 60v-174q-130 -61 -287 -61z" />
    <glyph glyph-name="d" unicode="d" 
d="M539 -20q-185 0 -298.5 141.5t-113.5 378.5q0 246 121 395t311 149q171 0 289 -139v508h168v-1413h-144l-16 147q-44 -82 -128.5 -124.5t-188.5 -42.5zM563 133q81 0 159.5 41t125.5 127v459q-57 66 -129 98.5t-141 32.5q-132 0 -205.5 -106t-73.5 -285q0 -171 68 -269
t196 -98z" />
    <glyph glyph-name="e" unicode="e" 
d="M315 446q15 -156 109.5 -239.5t259.5 -83.5q185 0 317 94v-170q-151 -67 -344 -67q-246 0 -382 138.5t-136 393.5q0 254 122.5 393t336.5 139t332.5 -138.5t118.5 -393.5q0 -16 -5 -66h-729zM598 901q-118 0 -194 -83t-89 -234h557q-13 152 -85 234.5t-189 82.5z" />
    <glyph glyph-name="f" unicode="f" 
d="M1061 1024v-147h-465v-877h-168v877h-309v147h309v33q0 178 95.5 277.5t283.5 99.5q129 0 250 -39v-158q-118 45 -250 45q-211 0 -211 -225v-33h465z" />
    <glyph glyph-name="g" unicode="g" 
d="M1077 1044v-139q-79 0 -162 -6q60 -85 60 -209q0 -168 -106 -261t-296 -93q-90 0 -157 20q-45 -22 -45 -80q0 -43 39 -67.5t101 -33t137.5 -13.5t151 -17t137.5 -35t101 -75t39 -131q0 -141 -130 -217t-361 -76t-353 73.5t-122 200.5q0 79 46 138.5t128 82.5
q-75 48 -72 130q2 54 31 98t80 61q-74 43 -114 119t-40 176q0 168 106 261t297 93q143 0 238 -53q120 53 266 53zM573 475q113 0 175.5 56.5t62.5 158.5t-62.5 158.5t-175.5 56.5q-114 0 -176.5 -56t-62.5 -159t62.5 -159t176.5 -56zM909 -106q0 43 -32 70t-90.5 40
t-119.5 20t-140.5 16.5t-131.5 22.5q-54 -23 -85 -62t-31 -85q0 -71 79.5 -112.5t239.5 -41.5q141 0 226 34t85 98z" />
    <glyph glyph-name="h" unicode="h" 
d="M180 0v1413h168v-543q57 83 141.5 128.5t184.5 45.5q155 0 244.5 -102t89.5 -280v-662h-168v631q0 128 -45.5 196t-149.5 68q-82 0 -161 -45t-136 -129v-721h-168z" />
    <glyph glyph-name="i" unicode="i" 
d="M590 1178q-56 0 -94.5 39t-38.5 94t38.5 94t94.5 39t94.5 -39t38.5 -94t-38.5 -94t-94.5 -39zM184 0v147h348v730h-319v147h487v-877h324v-147h-840z" />
    <glyph glyph-name="j" unicode="j" 
d="M768 1178q-56 0 -94.5 39t-38.5 94t38.5 94t94.5 39t94.5 -39t38.5 -94t-38.5 -94t-94.5 -39zM428 -389q-159 0 -283 55v160q135 -64 283 -64q130 0 201 78.5t71 225.5v811h-514v147h682v-958q0 -217 -116 -336t-324 -119z" />
    <glyph glyph-name="k" unicode="k" 
d="M1094 0h-193l-334 492l-182 -201v-291h-168v1413h168v-919l473 530h195l-377 -416z" />
    <glyph glyph-name="l" unicode="l" 
d="M184 0v147h348v1119h-319v147h487v-1266h324v-147h-840z" />
    <glyph glyph-name="m" unicode="m" 
d="M877 1044q95 0 154 -78t59 -214v-752h-156v721q0 85 -29 127.5t-78 42.5q-88 0 -155 -131v-760h-156v721q0 85 -28 127.5t-76 42.5q-89 0 -158 -131v-760h-156v1024h135l17 -143q75 163 209 163q66 0 116 -39t76 -112q41 70 99.5 110.5t126.5 40.5z" />
    <glyph glyph-name="n" unicode="n" 
d="M180 0v1024h148l16 -156q58 85 144 130.5t186 45.5q155 0 244.5 -102t89.5 -280v-662h-168v631q0 128 -45.5 196t-149.5 68q-82 0 -161 -45t-136 -129v-721h-168z" />
    <glyph glyph-name="o" unicode="o" 
d="M594 -20q-221 0 -344 139t-123 393t123 393t344 139t344 -139t123 -393t-123 -393t-344 -139zM594 131q140 0 217.5 99.5t77.5 281.5t-77.5 281.5t-217.5 99.5t-217.5 -99.5t-77.5 -281.5t77.5 -281.5t217.5 -99.5z" />
    <glyph glyph-name="p" unicode="p" 
d="M172 -369v1393h143l17 -147q46 78 131.5 122.5t187.5 44.5q183 0 296.5 -141.5t113.5 -378.5q0 -246 -121 -395t-311 -149q-171 0 -289 139v-488h-168zM610 133q132 0 205.5 106t73.5 285q0 171 -68 269t-196 98q-81 0 -159.5 -41t-125.5 -127v-459q57 -66 129 -98.5
t141 -32.5z" />
    <glyph glyph-name="q" unicode="q" 
d="M848 -369v516q-45 -83 -125.5 -125t-183.5 -42q-185 0 -298.5 141.5t-113.5 378.5q0 246 121 395t311 149q173 0 297 -143l16 123h144v-1393h-168zM563 133q81 0 159.5 41t125.5 127v459q-57 66 -129 98.5t-141 32.5q-132 0 -205.5 -106t-73.5 -285q0 -171 68 -269
t196 -98z" />
    <glyph glyph-name="r" unicode="r" 
d="M197 0v147h200v730h-221v147h356l29 -225q29 84 83 140t119.5 80.5t143.5 24.5q107 0 199 -38v-164q-113 49 -207 49q-103 0 -183.5 -61.5t-150.5 -202.5v-480h328v-147h-696z" />
    <glyph glyph-name="s" unicode="s" 
d="M569 -20q-220 0 -364 75v168q69 -47 165.5 -73.5t196.5 -26.5q126 0 196.5 43.5t70.5 116.5q0 66 -63 104.5t-191 67.5q-180 38 -271.5 109t-91.5 188q0 134 113.5 213t316.5 79q176 0 285 -45v-155q-114 57 -287 57q-127 0 -195.5 -38t-68.5 -107q0 -56 51 -90t184 -66
q187 -45 283 -118.5t96 -194.5q0 -141 -113.5 -224t-312.5 -83z" />
    <glyph glyph-name="t" unicode="t" 
d="M795 -20q-210 0 -312 102t-102 307v488h-287v147h295l37 287h123v-287h467v-147h-467v-488q0 -135 59 -196.5t197 -61.5q109 0 207 49v-157q-101 -43 -217 -43z" />
    <glyph glyph-name="u" unicode="u" 
d="M1008 1024v-1024h-148l-16 156q-58 -85 -144 -130.5t-186 -45.5q-155 0 -244.5 102t-89.5 280v662h168v-631q0 -128 45.5 -196t149.5 -68q82 0 161 45t136 129v721h168z" />
    <glyph glyph-name="v" unicode="v" 
d="M522 0l-428 1024h180l322 -831l322 831h176l-428 -1024h-144z" />
    <glyph glyph-name="w" unicode="w" 
d="M229 0l-225 1024h164l149 -803l226 803h106l225 -803l150 803h160l-226 -1024h-147l-217 756l-217 -756h-148z" />
    <glyph glyph-name="x" unicode="x" 
d="M94 0l393 512l-393 512h197l305 -397l305 397h193l-394 -512l394 -512h-197l-305 397l-305 -397h-193z" />
    <glyph glyph-name="y" unicode="y" 
d="M219 -389q-69 0 -119 20v152q42 -21 103 -21q98 0 158 45t112 154l35 74l-414 989h180l322 -836l322 836h176l-449 -1077q-23 -55 -45 -96.5t-59 -89t-79.5 -78.5t-105.5 -51.5t-137 -20.5z" />
    <glyph glyph-name="z" unicode="z" 
d="M156 0v49l624 828h-579v147h835v-41l-626 -836h618v-147h-872z" />
    <glyph glyph-name="braceleft" unicode="{" 
d="M807 -369q-177 0 -277 102t-100 275v258q0 124 -54 185t-171 61h-62v135h62q117 0 171 61.5t54 186.5v182q0 173 100 275t277 102h156v-135h-134q-111 0 -173 -66t-62 -184v-180q0 -280 -223 -307q223 -34 223 -308v-258q0 -118 62 -183.5t173 -65.5h117v-136h-139z" />
    <glyph glyph-name="bar" unicode="|" 
d="M514 -410v1823h160v-1823h-160z" />
    <glyph glyph-name="braceright" unicode="}" 
d="M381 -369h-139v136h116q111 0 173.5 65.5t62.5 183.5v258q0 274 223 308q-223 27 -223 307v180q0 118 -62.5 184t-173.5 66h-133v135h156q177 0 277 -102t100 -275v-182q0 -125 54 -186.5t171 -61.5h61v-135h-61q-117 0 -171 -61t-54 -185v-258q0 -173 -100 -275
t-277 -102z" />
    <glyph glyph-name="asciitilde" unicode="~" 
d="M795 510q-62 0 -112.5 23.5t-84 57t-64 67.5t-67 57.5t-78.5 23.5q-58 0 -97 -46.5t-63 -155.5h-147q74 344 311 344q53 0 98 -17t74.5 -42.5t59 -55.5t52.5 -55.5t55 -42.5t67 -17q57 0 96 47t63 156h148q-74 -344 -311 -344z" />
    <glyph glyph-name="uni00A0" unicode="&#xa0;" 
 />
    <glyph glyph-name="exclamdown" unicode="&#xa1;" 
d="M594 778q-56 0 -94.5 39t-38.5 94t38.5 94t94.5 39t94.5 -39t38.5 -94t-38.5 -94t-94.5 -39zM489 -369l29 990h152l28 -990h-209z" />
    <glyph glyph-name="cent" unicode="&#xa2;" 
d="M987 922q-88 59 -233 71v-676q143 12 233 72v-174q-88 -41 -233 -53v-223h-123v223q-191 17 -296.5 146t-105.5 347t105.5 347.5t296.5 146.5v223h123v-223q145 -12 233 -53v-174zM403 655q0 -144 60 -231.5t168 -106.5v676q-108 -19 -168 -106.5t-60 -231.5z" />
    <glyph glyph-name="sterling" unicode="&#xa3;" 
d="M719 1176q-122 0 -198.5 -66t-76.5 -186q0 -39 11.5 -85.5t20.5 -70t32 -80.5h489v-102h-450q18 -67 18 -113q0 -101 -54.5 -190t-125.5 -131h684v-152h-917v82q104 77 175.5 177.5t71.5 215.5q0 59 -18 111h-250v102h211q-25 60 -35 86t-22.5 79.5t-12.5 100.5
q0 173 125.5 275t321.5 102q95 0 188.5 -24t161.5 -60v-186q-64 48 -162.5 81.5t-187.5 33.5z" />
    <glyph glyph-name="currency" unicode="&#xa4;" 
d="M1147 1202v-184l-170 -141q35 -96 35 -222q0 -129 -37 -227l172 -141v-185l-244 201q-112 -131 -309 -131q-196 0 -311 131l-242 -201v185l172 141q-37 98 -37 227q0 126 35 222l-170 141v184l240 -198q110 135 313 135t313 -135zM594 319q118 0 184 89t66 247t-66 247
t-184 89t-184 -89t-66 -247t66 -247t184 -89z" />
    <glyph glyph-name="yen" unicode="&#xa5;" 
d="M1151 1311l-391 -666h289v-102h-351l-18 -33v-90h369v-103h-369v-317h-172v317h-369v103h369v90l-19 33h-350v102h289l-391 666h180l379 -660l379 660h176z" />
    <glyph glyph-name="brokenbar" unicode="&#xa6;" 
d="M514 676v737h160v-737h-160zM514 -410v754h160v-754h-160z" />
    <glyph glyph-name="section" unicode="&#xa7;" 
d="M987 582l-448 182q-151 59 -228.5 140.5t-77.5 197.5q0 139 110.5 218t311.5 79q174 0 289 -41v-156q-128 53 -293 53q-123 0 -188.5 -41t-65.5 -116q0 -65 52.5 -110.5t160.5 -88.5l377 -154v-163zM565 -127q-209 0 -364 68v159q168 -84 354 -84q127 0 198.5 44
t71.5 122q0 68 -53.5 114t-165.5 91l-399 162v164l471 -191q153 -63 231 -145.5t78 -200.5q0 -142 -111.5 -222.5t-310.5 -80.5z" />
    <glyph glyph-name="dieresis" unicode="&#xa8;" 
d="M371 1190q-48 0 -82.5 35t-34.5 84t34.5 83.5t82.5 34.5q49 0 83.5 -34.5t34.5 -83.5q0 -50 -34.5 -84.5t-83.5 -34.5zM817 1190q-49 0 -84 35t-35 84t34.5 83.5t84.5 34.5q49 0 83 -34t34 -84t-34 -84.5t-83 -34.5z" />
    <glyph glyph-name="copyright" unicode="&#xa9;" 
d="M594 -20q-261 0 -407 178.5t-146 496.5t146 497t407 179t407 -179t146 -497t-146 -496.5t-407 -178.5zM594 102q198 0 310 146t112 407t-112 407t-310 146t-310 -146t-112 -407t112 -407t310 -146zM629 315q-149 0 -232.5 90t-83.5 250t83.5 250t232.5 90q99 0 180 -34
v-136q-77 52 -180 52q-80 0 -125 -59t-45 -163t45 -162.5t125 -58.5q101 0 180 58v-136q-73 -41 -180 -41z" />
    <glyph glyph-name="ordfeminine" unicode="&#xaa;" 
d="M846 805q0 -51 29.5 -72t66.5 2v-94q-26 -22 -72 -25.5t-92 22.5t-61 81q-65 -109 -209 -109q-115 0 -182.5 65.5t-67.5 168.5q0 86 48.5 142t118.5 72.5t148.5 2t137.5 -59.5v50q0 76 -48.5 113.5t-134.5 37.5q-108 0 -211 -57v133q109 53 226 53q128 0 215.5 -68.5
t87.5 -189.5v-268zM532 725q83 0 131 45t48 119v6q-50 48 -125 64.5t-133 -12.5t-58 -101q0 -54 33.5 -87.5t103.5 -33.5zM268 365v131h674v-131h-674z" />
    <glyph glyph-name="guillemotleft" unicode="&#xab;" 
d="M463 131l-344 412v20l344 412h188l-356 -422l356 -422h-188zM872 131l-344 412v20l344 412h189l-356 -422l356 -422h-189z" />
    <glyph glyph-name="logicalnot" unicode="&#xac;" 
d="M1077 768v-500h-147v357h-836v143h983z" />
    <glyph glyph-name="registered" unicode="&#xae;" 
d="M594 1391q226 0 352.5 -126t126.5 -350t-126.5 -349.5t-352.5 -125.5t-352.5 125.5t-126.5 349.5t126.5 350t352.5 126zM594 547q172 0 268 97.5t96 270.5t-96 271t-268 98t-268.5 -98t-96.5 -271t96.5 -270.5t268.5 -97.5zM788 1006q0 -55 -25.5 -93t-70.5 -53l101 -190
h-109l-88 180h-72v-180h-94v491h195q76 0 119.5 -41t43.5 -114zM524 1079v-147h90q37 0 57.5 19.5t20.5 54.5t-20.5 54t-57.5 19h-90z" />
    <glyph glyph-name="macron" unicode="&#xaf;" 
d="M266 1231v139h656v-139h-656z" />
    <glyph glyph-name="degree" unicode="&#xb0;" 
d="M594 674q-158 0 -261.5 98.5t-103.5 253.5t103.5 253.5t261.5 98.5t261 -98t103 -254t-103 -254t-261 -98zM594 805q95 0 156 60.5t61 160.5t-61 160.5t-156 60.5t-156 -60.5t-61 -160.5t61 -160.5t156 -60.5z" />
    <glyph glyph-name="plusminus" unicode="&#xb1;" 
d="M1085 682h-411v-381h411v-143h-983v143h412v381h-412v143h412v412h160v-412h411v-143z" />
    <glyph glyph-name="uni00B2" unicode="&#xb2;" 
d="M328 627v88q32 32 91 82t103 89.5t89 88t69.5 99t24.5 100.5q0 58 -40 87t-100 29q-125 0 -229 -82v150q36 26 102.5 46.5t128.5 20.5q116 0 199.5 -68.5t83.5 -189.5q0 -50 -14 -95t-35 -77.5t-54 -67t-61 -57.5t-67.5 -55.5t-63.5 -54.5h313v-133h-540z" />
    <glyph glyph-name="uni00B3" unicode="&#xb3;" 
d="M573 614q-127 0 -249 58v147q58 -32 128.5 -51.5t122.5 -19.5q76 0 115 28.5t39 79.5q0 58 -47.5 91.5t-130.5 33.5h-82v131h82q64 0 110 27.5t46 72.5q0 37 -35.5 58.5t-98.5 21.5q-108 0 -231 -65v141q114 57 231 57q130 0 204.5 -52.5t74.5 -151.5q0 -72 -39.5 -119
t-130.5 -53q190 -13 190 -213q0 -106 -74.5 -164t-224.5 -58z" />
    <glyph glyph-name="acute" unicode="&#xb4;" 
d="M459 1163l217 291h205l-265 -291h-157z" />
    <glyph glyph-name="uni00B5" unicode="&#xb5;" 
d="M156 -369v1393h168v-631q0 -129 47.5 -194.5t154.5 -65.5q177 0 289 166v725h168v-801q0 -71 39 -101t100 -1v-107q-28 -23 -75 -30t-94.5 4.5t-85 53t-44.5 105.5q-37 -72 -122.5 -119.5t-180.5 -47.5q-61 0 -117 21.5t-84 59.5v-430h-163z" />
    <glyph glyph-name="paragraph" unicode="&#xb6;" 
d="M586 1311h463v-1516h-156v1381h-143v-1379h-156v510h-8q-235 0 -367.5 133t-132.5 369t132.5 369t367.5 133zM602 442v734q-167 0 -261.5 -97t-94.5 -270t94.5 -270t261.5 -97z" />
    <glyph glyph-name="periodcentered" unicode="&#xb7;" 
d="M594 506q-68 0 -116 48t-48 116t48 116t116 48t116 -48t48 -116t-48 -116t-116 -48z" />
    <glyph glyph-name="cedilla" unicode="&#xb8;" 
d="M557 -393q-65 0 -127 20v119q62 -10 82 -10q79 0 104 53t-10.5 117.5t-109.5 93.5h151q47 -30 75.5 -72t36 -85t-2.5 -85.5t-35.5 -76t-68.5 -54t-95 -20.5z" />
    <glyph glyph-name="uni00B9" unicode="&#xb9;" 
d="M340 627v131h201v489q-70 -63 -185 -96v133q102 28 215 129h115v-655h174v-131h-520z" />
    <glyph glyph-name="ordmasculine" unicode="&#xba;" 
d="M594 610q-152 0 -238 95.5t-86 265.5t86 265t238 95t238 -95t86 -265t-86 -265.5t-238 -95.5zM594 735q87 0 135.5 62.5t48.5 173.5t-48.5 173t-135.5 62t-135.5 -62t-48.5 -173t48.5 -173.5t135.5 -62.5zM287 365v131h614v-131h-614z" />
    <glyph glyph-name="guillemotright" unicode="&#xbb;" 
d="M315 131h-188l356 422l-356 422h188l344 -412v-20zM725 131h-188l356 422l-356 422h188l344 -412v-20z" />
    <glyph glyph-name="onequarter" unicode="&#xbc;" 
d="M340 942v131h201v490q-71 -64 -185 -97v133q101 27 215 130h115v-656h174v-131h-520zM106 586v123h975v-123h-975zM631 -434v170h-371v90l356 526h158v-489h127v-127h-127v-170h-143zM422 -137h209v311z" />
    <glyph glyph-name="onehalf" unicode="&#xbd;" 
d="M340 942v131h201v490q-71 -64 -185 -97v133q101 27 215 130h115v-656h174v-131h-520zM106 586v123h975v-123h-975zM328 -434v88q32 32 91 82t103 89.5t89 88t69.5 99t24.5 100.5q0 58 -40 87t-100 29q-125 0 -229 -82v150q36 26 103 47t128 21q116 0 199.5 -69t83.5 -190
q0 -50 -14 -95t-35 -77.5t-54 -67t-61 -57.5t-67.5 -55.5t-63.5 -54.5h313v-133h-540z" />
    <glyph glyph-name="threequarters" unicode="&#xbe;" 
d="M573 930q-129 0 -249 57v148q58 -33 129 -52.5t122 -19.5q76 0 115 28.5t39 79.5q0 58 -47.5 91.5t-130.5 33.5h-82v131h82q64 0 110 27.5t46 73.5q0 37 -35.5 58.5t-98.5 21.5q-106 0 -231 -66v141q116 58 231 58q130 0 204.5 -53t74.5 -152q0 -72 -39.5 -119
t-130.5 -53q190 -13 190 -213q0 -106 -74.5 -163.5t-224.5 -57.5zM106 586v123h975v-123h-975zM631 -434v170h-371v90l356 526h158v-489h127v-127h-127v-170h-143zM422 -137h209v311z" />
    <glyph glyph-name="questiondown" unicode="&#xbf;" 
d="M643 778q-55 0 -94 39t-39 94t39 94t94 39t94 -39t39 -94t-39 -94t-94 -39zM637 -389q-193 0 -318.5 108.5t-125.5 274.5q0 154 109.5 259.5t256.5 113.5l8 254h152l10 -367q-360 0 -360 -252q0 -116 72 -175.5t196 -59.5q92 0 180 27.5t199 92.5v-170
q-171 -106 -379 -106z" />
    <glyph glyph-name="Agrave" unicode="&#xc0;" 
d="M729 1450h-158l-264 291h205zM967 0l-107 307h-536l-107 -307h-176l471 1311h164l471 -1311h-180zM373 455h438l-219 635z" />
    <glyph glyph-name="Aacute" unicode="&#xc1;" 
d="M881 1741l-265 -291h-157l217 291h205zM967 0l-107 307h-536l-107 -307h-176l471 1311h164l471 -1311h-180zM373 455h438l-219 635z" />
    <glyph glyph-name="Acircumflex" unicode="&#xc2;" 
d="M594 1630l-180 -180h-189l297 291h144l297 -291h-189zM967 0l-107 307h-536l-107 -307h-176l471 1311h164l471 -1311h-180zM373 455h438l-219 635z" />
    <glyph glyph-name="Atilde" unicode="&#xc3;" 
d="M440 1628q-81 0 -108 -178h-127q21 150 85.5 226.5t155.5 76.5q45 0 84 -19.5t66 -47.5t51 -56t49.5 -47.5t51.5 -19.5q81 0 108 178h127q-21 -150 -86 -226.5t-156 -76.5q-45 0 -83.5 19.5t-65.5 47.5t-50.5 56t-49.5 47.5t-52 19.5zM967 0l-107 307h-536l-107 -307
h-176l471 1311h164l471 -1311h-180zM373 455h438l-219 635z" />
    <glyph glyph-name="Adieresis" unicode="&#xc4;" 
d="M371 1477q-48 0 -82.5 34.5t-34.5 83.5t34.5 84t82.5 35q49 0 83.5 -34.5t34.5 -84.5q0 -49 -34.5 -83.5t-83.5 -34.5zM817 1477q-50 0 -84.5 34.5t-34.5 83.5t35 84t84 35t83 -34.5t34 -84.5t-34 -84t-83 -34zM967 0l-107 307h-536l-107 -307h-176l471 1311h164
l471 -1311h-180zM373 455h438l-219 635z" />
    <glyph glyph-name="Aring" unicode="&#xc5;" 
d="M967 0l-107 307h-536l-107 -307h-176l442 1229q-48 25 -76 72.5t-28 109.5q0 94 60.5 151.5t154.5 57.5t154.5 -57.5t60.5 -151.5q0 -62 -28 -109.5t-76 -72.5l442 -1229h-180zM594 1511q-44 0 -72 -26t-28 -74t28 -74t72 -26t72 26t28 74t-28 74t-72 26zM373 455h438
l-219 635z" />
    <glyph glyph-name="AE" unicode="&#xc6;" 
d="M725 147h422v-147h-590v342h-287l-102 -342h-164l406 1311h729v-148h-414v-420h340v-147h-340v-449zM313 485h244v678h-43z" />
    <glyph glyph-name="Ccedilla" unicode="&#xc7;" 
d="M684 1176q-186 0 -287.5 -136.5t-101.5 -384.5t101.5 -384t285.5 -136q88 0 180 30.5t164 84.5v-191q-128 -64 -291 -77q59 -47 78.5 -113t2 -123.5t-70 -98t-127.5 -40.5q-64 0 -126 20v119q62 -10 81 -10q73 0 99.5 47t1.5 107t-86 96q-224 29 -346.5 203t-122.5 466
q0 320 147 498t410 178q190 0 350 -80v-190q-72 54 -163 84.5t-179 30.5z" />
    <glyph glyph-name="Egrave" unicode="&#xc8;" 
d="M774 1450h-158l-264 291h205zM377 152h700v-152h-872v1311h864v-152h-692v-414h577v-151h-577v-442z" />
    <glyph glyph-name="Eacute" unicode="&#xc9;" 
d="M926 1741l-264 -291h-158l217 291h205zM377 152h700v-152h-872v1311h864v-152h-692v-414h577v-151h-577v-442z" />
    <glyph glyph-name="Ecircumflex" unicode="&#xca;" 
d="M639 1630l-180 -180h-189l297 291h144l297 -291h-189zM377 152h700v-152h-872v1311h864v-152h-692v-414h577v-151h-577v-442z" />
    <glyph glyph-name="Edieresis" unicode="&#xcb;" 
d="M416 1477q-48 0 -82.5 34.5t-34.5 83.5t34.5 84t82.5 35q50 0 84.5 -35t34.5 -84t-34.5 -83.5t-84.5 -34.5zM862 1477q-50 0 -84.5 34.5t-34.5 83.5t34.5 84t84.5 35q49 0 83 -34.5t34 -84.5t-34 -84t-83 -34zM377 152h700v-152h-872v1311h864v-152h-692v-414h577v-151
h-577v-442z" />
    <glyph glyph-name="Igrave" unicode="&#xcc;" 
d="M729 1450h-158l-264 291h205zM205 0v152h303v1007h-303v152h778v-152h-303v-1007h303v-152h-778z" />
    <glyph glyph-name="Iacute" unicode="&#xcd;" 
d="M459 1450l217 291h205l-265 -291h-157zM205 0v152h303v1007h-303v152h778v-152h-303v-1007h303v-152h-778z" />
    <glyph glyph-name="Icircumflex" unicode="&#xce;" 
d="M522 1741h144l297 -291h-189l-180 180l-180 -180h-189zM205 0v152h303v1007h-303v152h778v-152h-303v-1007h303v-152h-778z" />
    <glyph glyph-name="Idieresis" unicode="&#xcf;" 
d="M371 1477q-48 0 -82.5 34.5t-34.5 83.5t34.5 84t82.5 35q49 0 83.5 -34.5t34.5 -84.5q0 -49 -34.5 -83.5t-83.5 -34.5zM817 1477q-50 0 -84.5 34.5t-34.5 83.5t35 84t84 35t83 -34.5t34 -84.5t-34 -84t-83 -34zM205 0v152h303v1007h-303v152h778v-152h-303v-1007h303
v-152h-778z" />
    <glyph glyph-name="Eth" unicode="&#xd0;" 
d="M520 1311q280 0 437 -173.5t157 -482.5t-157 -482t-437 -173h-364v600h-136v139h136v572h364zM520 152q197 0 307.5 133t110.5 370q0 238 -110.5 371t-307.5 133h-192v-420h268v-139h-268v-448h192z" />
    <glyph glyph-name="Ntilde" unicode="&#xd1;" 
d="M741 1438q-45 0 -83.5 19.5t-65.5 47.5t-50.5 56t-49.5 47.5t-52 19.5q-81 0 -108 -178h-127q21 150 85.5 226.5t155.5 76.5q45 0 84 -19.5t66 -47.5t51 -56t49.5 -47.5t51.5 -19.5q81 0 108 178h127q-21 -150 -86 -226.5t-156 -76.5zM143 0v1311h168l574 -1004v1004h159
v-1311h-147l-594 1044v-1044h-160z" />
    <glyph glyph-name="Ograve" unicode="&#xd2;" 
d="M729 1450h-158l-264 291h205zM594 -20q-243 0 -377.5 176t-134.5 499t135 499.5t377 176.5t377 -176.5t135 -499.5t-134.5 -499t-377.5 -176zM594 135q159 0 247.5 135.5t88.5 384.5t-88.5 385t-247.5 136t-247.5 -136t-88.5 -385t88.5 -384.5t247.5 -135.5z" />
    <glyph glyph-name="Oacute" unicode="&#xd3;" 
d="M459 1450l217 291h205l-265 -291h-157zM594 -20q-243 0 -377.5 176t-134.5 499t135 499.5t377 176.5t377 -176.5t135 -499.5t-134.5 -499t-377.5 -176zM594 135q159 0 247.5 135.5t88.5 384.5t-88.5 385t-247.5 136t-247.5 -136t-88.5 -385t88.5 -384.5t247.5 -135.5z
" />
    <glyph glyph-name="Ocircumflex" unicode="&#xd4;" 
d="M522 1741h144l297 -291h-189l-180 180l-180 -180h-189zM594 -20q-243 0 -377.5 176t-134.5 499t135 499.5t377 176.5t377 -176.5t135 -499.5t-134.5 -499t-377.5 -176zM594 135q159 0 247.5 135.5t88.5 384.5t-88.5 385t-247.5 136t-247.5 -136t-88.5 -385t88.5 -384.5
t247.5 -135.5z" />
    <glyph glyph-name="Otilde" unicode="&#xd5;" 
d="M741 1438q-45 0 -83.5 19.5t-65.5 47.5t-50.5 56t-49.5 47.5t-52 19.5q-81 0 -108 -178h-127q21 150 85.5 226.5t155.5 76.5q45 0 84 -19.5t66 -47.5t51 -56t49.5 -47.5t51.5 -19.5q81 0 108 178h127q-21 -150 -86 -226.5t-156 -76.5zM594 -20q-243 0 -377.5 176
t-134.5 499t135 499.5t377 176.5t377 -176.5t135 -499.5t-134.5 -499t-377.5 -176zM594 135q159 0 247.5 135.5t88.5 384.5t-88.5 385t-247.5 136t-247.5 -136t-88.5 -385t88.5 -384.5t247.5 -135.5z" />
    <glyph glyph-name="Odieresis" unicode="&#xd6;" 
d="M371 1477q-48 0 -82.5 34.5t-34.5 83.5t34.5 84t82.5 35q49 0 83.5 -34.5t34.5 -84.5q0 -49 -34.5 -83.5t-83.5 -34.5zM817 1477q-50 0 -84.5 34.5t-34.5 83.5t35 84t84 35t83 -34.5t34 -84.5t-34 -84t-83 -34zM594 -20q-243 0 -377.5 176t-134.5 499t135 499.5
t377 176.5t377 -176.5t135 -499.5t-134.5 -499t-377.5 -176zM594 135q159 0 247.5 135.5t88.5 384.5t-88.5 385t-247.5 136t-247.5 -136t-88.5 -385t88.5 -384.5t247.5 -135.5z" />
    <glyph glyph-name="multiply" unicode="&#xd7;" 
d="M1024 1020l-324 -324l324 -323l-106 -107l-324 324l-324 -324l-106 107l323 323l-323 324l106 106l324 -323l324 323z" />
    <glyph glyph-name="Oslash" unicode="&#xd8;" 
d="M936 1194q170 -173 170 -539q0 -323 -134.5 -499t-377.5 -176q-132 0 -232 53l-88 -176h-151l129 260q-170 173 -170 538q0 323 135 499.5t377 176.5q131 0 231 -53l88 176h152zM258 655q0 -233 78 -368l418 843q-67 46 -160 46q-159 0 -247.5 -136t-88.5 -385zM594 135
q159 0 247.5 135.5t88.5 384.5q0 234 -78 369l-418 -844q65 -45 160 -45z" />
    <glyph glyph-name="Ugrave" unicode="&#xd9;" 
d="M729 1450h-158l-264 291h205zM594 -20q-223 0 -347 126t-124 353v852h172v-844q0 -158 79 -245t220 -87t220 87t79 245v844h172v-852q0 -227 -124 -353t-347 -126z" />
    <glyph glyph-name="Uacute" unicode="&#xda;" 
d="M459 1450l217 291h205l-265 -291h-157zM594 -20q-223 0 -347 126t-124 353v852h172v-844q0 -158 79 -245t220 -87t220 87t79 245v844h172v-852q0 -227 -124 -353t-347 -126z" />
    <glyph glyph-name="Ucircumflex" unicode="&#xdb;" 
d="M522 1741h144l297 -291h-189l-180 180l-180 -180h-189zM594 -20q-223 0 -347 126t-124 353v852h172v-844q0 -158 79 -245t220 -87t220 87t79 245v844h172v-852q0 -227 -124 -353t-347 -126z" />
    <glyph glyph-name="Udieresis" unicode="&#xdc;" 
d="M371 1477q-48 0 -82.5 34.5t-34.5 83.5t34.5 84t82.5 35q49 0 83.5 -34.5t34.5 -84.5q0 -49 -34.5 -83.5t-83.5 -34.5zM817 1477q-50 0 -84.5 34.5t-34.5 83.5t35 84t84 35t83 -34.5t34 -84.5t-34 -84t-83 -34zM594 -20q-223 0 -347 126t-124 353v852h172v-844
q0 -158 79 -245t220 -87t220 87t79 245v844h172v-852q0 -227 -124 -353t-347 -126z" />
    <glyph glyph-name="Yacute" unicode="&#xdd;" 
d="M881 1741l-265 -291h-157l217 291h205zM1151 1311l-471 -801v-510h-172v510l-471 801h180l379 -660l379 660h176z" />
    <glyph glyph-name="Thorn" unicode="&#xde;" 
d="M164 0v1311h172v-221h299q191 0 310.5 -107.5t119.5 -312.5t-119.5 -312.5t-310.5 -107.5h-299v-250h-172zM336 401h266q123 0 205 68t82 201t-82 200.5t-205 67.5h-266v-537z" />
    <glyph glyph-name="germandbls" unicode="&#xdf;" 
d="M645 -20q-55 0 -143 10v147q82 -14 145 -14q117 0 183.5 45t68.5 125q0 45 -22.5 84t-56.5 65.5t-74 55.5t-74 54.5t-57 63t-23 80.5q0 39 18.5 77t45.5 71.5t54 68.5t45.5 81t18.5 96q0 90 -52 141t-142 51q-112 0 -172 -86t-60 -246v-950h-168v958q0 227 104.5 351.5
t295.5 124.5q167 0 264.5 -87t97.5 -235q0 -62 -19 -117t-46 -92.5t-54 -70t-46 -63t-19 -56.5q0 -34 32 -65t77 -59.5t90.5 -64t77.5 -95t32 -136.5q0 -148 -112 -230.5t-310 -82.5z" />
    <glyph glyph-name="agrave" unicode="&#xe0;" 
d="M721 1163h-158l-264 291h205zM967 223q0 -71 39 -101t100 -1v-107q-28 -23 -72.5 -30t-90 3t-85 47.5t-55.5 96.5q-88 -151 -309 -151q-173 0 -270 91.5t-97 233.5q0 98 47.5 171.5t123 109t164.5 46t178.5 -10t158.5 -66.5v72q0 266 -283 266q-135 0 -301 -88l2 162
q155 77 320 77q195 0 312.5 -99t117.5 -283v-439zM520 121q132 0 205.5 74.5t73.5 189.5v51q-61 41 -147 58.5t-165.5 8t-135.5 -59.5t-56 -134q0 -86 59 -137t166 -51z" />
    <glyph glyph-name="aacute" unicode="&#xe1;" 
d="M872 1454l-264 -291h-157l217 291h204zM967 223q0 -71 39 -101t100 -1v-107q-28 -23 -72.5 -30t-90 3t-85 47.5t-55.5 96.5q-88 -151 -309 -151q-173 0 -270 91.5t-97 233.5q0 98 47.5 171.5t123 109t164.5 46t178.5 -10t158.5 -66.5v72q0 266 -283 266q-135 0 -301 -88
l2 162q155 77 320 77q195 0 312.5 -99t117.5 -283v-439zM520 121q132 0 205.5 74.5t73.5 189.5v51q-61 41 -147 58.5t-165.5 8t-135.5 -59.5t-56 -134q0 -86 59 -137t166 -51z" />
    <glyph glyph-name="acircumflex" unicode="&#xe2;" 
d="M586 1343l-180 -180h-189l297 291h143l297 -291h-188zM967 223q0 -71 39 -101t100 -1v-107q-28 -23 -72.5 -30t-90 3t-85 47.5t-55.5 96.5q-88 -151 -309 -151q-173 0 -270 91.5t-97 233.5q0 98 47.5 171.5t123 109t164.5 46t178.5 -10t158.5 -66.5v72q0 266 -283 266
q-135 0 -301 -88l2 162q155 77 320 77q195 0 312.5 -99t117.5 -283v-439zM520 121q132 0 205.5 74.5t73.5 189.5v51q-61 41 -147 58.5t-165.5 8t-135.5 -59.5t-56 -134q0 -86 59 -137t166 -51z" />
    <glyph glyph-name="atilde" unicode="&#xe3;" 
d="M432 1341q-81 0 -108 -178h-127q21 150 85.5 226.5t155.5 76.5q45 0 84 -19.5t66 -47.5t50.5 -56t49 -47.5t51.5 -19.5q82 0 109 178h127q-21 -150 -86 -226.5t-156 -76.5q-45 0 -83.5 19.5t-65.5 47.5t-50.5 56t-49.5 47.5t-52 19.5zM967 223q0 -71 39 -101t100 -1v-107
q-28 -23 -72.5 -30t-90 3t-85 47.5t-55.5 96.5q-88 -151 -309 -151q-173 0 -270 91.5t-97 233.5q0 98 47.5 171.5t123 109t164.5 46t178.5 -10t158.5 -66.5v72q0 266 -283 266q-135 0 -301 -88l2 162q155 77 320 77q195 0 312.5 -99t117.5 -283v-439zM520 121
q132 0 205.5 74.5t73.5 189.5v51q-61 41 -147 58.5t-165.5 8t-135.5 -59.5t-56 -134q0 -86 59 -137t166 -51z" />
    <glyph glyph-name="adieresis" unicode="&#xe4;" 
d="M362 1190q-47 0 -81.5 35t-34.5 84t34 83.5t82 34.5q50 0 84.5 -34.5t34.5 -83.5t-34.5 -84t-84.5 -35zM809 1190q-49 0 -84 35t-35 84t34.5 83.5t84.5 34.5q49 0 83 -34t34 -84t-34 -84.5t-83 -34.5zM967 223q0 -71 39 -101t100 -1v-107q-28 -23 -72.5 -30t-90 3
t-85 47.5t-55.5 96.5q-88 -151 -309 -151q-173 0 -270 91.5t-97 233.5q0 98 47.5 171.5t123 109t164.5 46t178.5 -10t158.5 -66.5v72q0 266 -283 266q-135 0 -301 -88l2 162q155 77 320 77q195 0 312.5 -99t117.5 -283v-439zM520 121q132 0 205.5 74.5t73.5 189.5v51
q-61 41 -147 58.5t-165.5 8t-135.5 -59.5t-56 -134q0 -86 59 -137t166 -51z" />
    <glyph glyph-name="aring" unicode="&#xe5;" 
d="M586 1100q-94 0 -154.5 57.5t-60.5 151.5t60.5 151.5t154.5 57.5t154.5 -57.5t60.5 -151.5t-60.5 -151.5t-154.5 -57.5zM586 1409q-45 0 -73 -26t-28 -74t28.5 -74.5t72.5 -26.5t72 26.5t28 74.5t-28 74t-72 26zM967 223q0 -71 39 -101t100 -1v-107q-28 -23 -72.5 -30
t-90 3t-85 47.5t-55.5 96.5q-88 -151 -309 -151q-173 0 -270 91.5t-97 233.5q0 98 47.5 171.5t123 109t164.5 46t178.5 -10t158.5 -66.5v72q0 266 -283 266q-135 0 -301 -88l2 162q155 77 320 77q195 0 312.5 -99t117.5 -283v-439zM520 121q132 0 205.5 74.5t73.5 189.5v51
q-61 41 -147 58.5t-165.5 8t-135.5 -59.5t-56 -134q0 -86 59 -137t166 -51z" />
    <glyph glyph-name="ae" unicode="&#xe6;" 
d="M319 -20q-136 0 -213 96.5t-77 234.5q0 73 23 137t61 108t88 71t102 32.5t106 -13t97 -60.5v41q0 135 -56.5 202.5t-148.5 67.5q-104 0 -205 -66l2 154q102 59 219 59q59 0 112.5 -15t98.5 -50.5t66 -87.5q59 153 237 153q320 0 320 -532q0 -12 -4 -66h-475
q22 -327 246 -327q79 0 186 65v-155q-114 -49 -209 -49q-115 0 -201 53t-119 139q-24 -94 -91 -143t-165 -49zM672 582h317q-12 323 -158 323q-147 0 -159 -323zM340 117q82 0 124 75t42 193v78q-37 45 -92.5 57t-105 -7t-85 -73t-35.5 -129q0 -79 40.5 -136.5t111.5 -57.5z
" />
    <glyph glyph-name="ccedilla" unicode="&#xe7;" 
d="M688 893q-156 0 -244 -99.5t-88 -281.5t88 -281.5t244 -99.5q82 0 158 24t129 60v-174q-97 -46 -221 -57q79 -62 89.5 -152.5t-47 -157.5t-157.5 -67q-65 0 -127 20v119q62 -10 82 -10q73 0 100 46.5t2 106t-86 95.5q-202 23 -314 160t-112 368q0 253 134 392.5
t370 139.5q157 0 287 -61v-174q-53 36 -129 60t-158 24z" />
    <glyph glyph-name="egrave" unicode="&#xe8;" 
d="M729 1163h-158l-264 291h205zM315 446q15 -156 109.5 -239.5t259.5 -83.5q185 0 317 94v-170q-151 -67 -344 -67q-246 0 -382 138.5t-136 393.5q0 254 122.5 393t336.5 139t332.5 -138.5t118.5 -393.5q0 -16 -5 -66h-729zM598 901q-118 0 -194 -83t-89 -234h557
q-13 152 -85 234.5t-189 82.5z" />
    <glyph glyph-name="eacute" unicode="&#xe9;" 
d="M881 1454l-265 -291h-157l217 291h205zM315 446q15 -156 109.5 -239.5t259.5 -83.5q185 0 317 94v-170q-151 -67 -344 -67q-246 0 -382 138.5t-136 393.5q0 254 122.5 393t336.5 139t332.5 -138.5t118.5 -393.5q0 -16 -5 -66h-729zM598 901q-118 0 -194 -83t-89 -234h557
q-13 152 -85 234.5t-189 82.5z" />
    <glyph glyph-name="ecircumflex" unicode="&#xea;" 
d="M594 1343l-180 -180h-189l297 291h144l297 -291h-189zM315 446q15 -156 109.5 -239.5t259.5 -83.5q185 0 317 94v-170q-151 -67 -344 -67q-246 0 -382 138.5t-136 393.5q0 254 122.5 393t336.5 139t332.5 -138.5t118.5 -393.5q0 -16 -5 -66h-729zM598 901
q-118 0 -194 -83t-89 -234h557q-13 152 -85 234.5t-189 82.5z" />
    <glyph glyph-name="edieresis" unicode="&#xeb;" 
d="M371 1190q-48 0 -82.5 35t-34.5 84t34.5 83.5t82.5 34.5q49 0 83.5 -34.5t34.5 -83.5q0 -50 -34.5 -84.5t-83.5 -34.5zM817 1190q-49 0 -84 35t-35 84t34.5 83.5t84.5 34.5q49 0 83 -34t34 -84t-34 -84.5t-83 -34.5zM315 446q15 -156 109.5 -239.5t259.5 -83.5
q185 0 317 94v-170q-151 -67 -344 -67q-246 0 -382 138.5t-136 393.5q0 254 122.5 393t336.5 139t332.5 -138.5t118.5 -393.5q0 -16 -5 -66h-729zM598 901q-118 0 -194 -83t-89 -234h557q-13 152 -85 234.5t-189 82.5z" />
    <glyph glyph-name="igrave" unicode="&#xec;" 
d="M725 1163h-158l-264 291h205zM184 0v147h348v730h-319v147h487v-877h324v-147h-840z" />
    <glyph glyph-name="iacute" unicode="&#xed;" 
d="M455 1163l217 291h205l-265 -291h-157zM184 0v147h348v730h-319v147h487v-877h324v-147h-840z" />
    <glyph glyph-name="icircumflex" unicode="&#xee;" 
d="M518 1454h144l296 -291h-188l-180 180l-180 -180h-189zM184 0v147h348v730h-319v147h487v-877h324v-147h-840z" />
    <glyph glyph-name="idieresis" unicode="&#xef;" 
d="M367 1190q-48 0 -82.5 35t-34.5 84t34.5 83.5t82.5 34.5q49 0 83.5 -34.5t34.5 -83.5q0 -50 -34.5 -84.5t-83.5 -34.5zM813 1190q-49 0 -84 35t-35 84t34.5 83.5t84.5 34.5q49 0 83 -34t34 -84t-34 -84.5t-83 -34.5zM184 0v147h348v730h-319v147h487v-877h324v-147h-840z
" />
    <glyph glyph-name="eth" unicode="&#xf0;" 
d="M885 1085q90 -100 139 -241t49 -293q0 -273 -129 -422t-364 -149q-222 0 -343.5 143t-121.5 405q0 243 118.5 379.5t311.5 136.5q176 0 278 -102l-129 139l-67 72l-314 -51v135l203 33l-133 143h213l100 -113l287 48v-136l-184 -30zM588 131q148 0 228.5 102.5
t80.5 292.5q0 178 -79 274.5t-224 96.5t-224 -98t-79 -281q0 -185 78 -286t219 -101z" />
    <glyph glyph-name="ntilde" unicode="&#xf1;" 
d="M741 1151q-45 0 -83.5 19.5t-65.5 47.5t-50.5 56t-49.5 47.5t-52 19.5q-81 0 -108 -178h-127q21 150 85.5 226.5t155.5 76.5q45 0 84 -19.5t66 -47.5t51 -56t49.5 -47.5t51.5 -19.5q81 0 108 178h127q-21 -150 -86 -226.5t-156 -76.5zM180 0v1024h148l16 -156
q58 85 144 130.5t186 45.5q155 0 244.5 -102t89.5 -280v-662h-168v631q0 128 -45.5 196t-149.5 68q-82 0 -161 -45t-136 -129v-721h-168z" />
    <glyph glyph-name="ograve" unicode="&#xf2;" 
d="M729 1163h-158l-264 291h205zM594 -20q-221 0 -344 139t-123 393t123 393t344 139t344 -139t123 -393t-123 -393t-344 -139zM594 131q140 0 217.5 99.5t77.5 281.5t-77.5 281.5t-217.5 99.5t-217.5 -99.5t-77.5 -281.5t77.5 -281.5t217.5 -99.5z" />
    <glyph glyph-name="oacute" unicode="&#xf3;" 
d="M459 1163l217 291h205l-265 -291h-157zM594 -20q-221 0 -344 139t-123 393t123 393t344 139t344 -139t123 -393t-123 -393t-344 -139zM594 131q140 0 217.5 99.5t77.5 281.5t-77.5 281.5t-217.5 99.5t-217.5 -99.5t-77.5 -281.5t77.5 -281.5t217.5 -99.5z" />
    <glyph glyph-name="ocircumflex" unicode="&#xf4;" 
d="M522 1454h144l297 -291h-189l-180 180l-180 -180h-189zM594 -20q-221 0 -344 139t-123 393t123 393t344 139t344 -139t123 -393t-123 -393t-344 -139zM594 131q140 0 217.5 99.5t77.5 281.5t-77.5 281.5t-217.5 99.5t-217.5 -99.5t-77.5 -281.5t77.5 -281.5t217.5 -99.5z
" />
    <glyph glyph-name="otilde" unicode="&#xf5;" 
d="M741 1151q-45 0 -83.5 19.5t-65.5 47.5t-50.5 56t-49.5 47.5t-52 19.5q-81 0 -108 -178h-127q21 150 85.5 226.5t155.5 76.5q45 0 84 -19.5t66 -47.5t51 -56t49.5 -47.5t51.5 -19.5q81 0 108 178h127q-21 -150 -86 -226.5t-156 -76.5zM594 -20q-221 0 -344 139t-123 393
t123 393t344 139t344 -139t123 -393t-123 -393t-344 -139zM594 131q140 0 217.5 99.5t77.5 281.5t-77.5 281.5t-217.5 99.5t-217.5 -99.5t-77.5 -281.5t77.5 -281.5t217.5 -99.5z" />
    <glyph glyph-name="odieresis" unicode="&#xf6;" 
d="M371 1190q-48 0 -82.5 35t-34.5 84t34.5 83.5t82.5 34.5q49 0 83.5 -34.5t34.5 -83.5q0 -50 -34.5 -84.5t-83.5 -34.5zM817 1190q-49 0 -84 35t-35 84t34.5 83.5t84.5 34.5q49 0 83 -34t34 -84t-34 -84.5t-83 -34.5zM594 -20q-221 0 -344 139t-123 393t123 393t344 139
t344 -139t123 -393t-123 -393t-344 -139zM594 131q140 0 217.5 99.5t77.5 281.5t-77.5 281.5t-217.5 99.5t-217.5 -99.5t-77.5 -281.5t77.5 -281.5t217.5 -99.5z" />
    <glyph glyph-name="divide" unicode="&#xf7;" 
d="M594 952q-56 0 -94.5 39t-38.5 94q0 56 39 95t94 39t94 -39t39 -95q0 -55 -38.5 -94t-94.5 -39zM102 625v143h983v-143h-983zM594 174q-56 0 -94.5 39t-38.5 94t38.5 94t94.5 39t94.5 -39t38.5 -94t-38.5 -94t-94.5 -39z" />
    <glyph glyph-name="oslash" unicode="&#xf8;" 
d="M901 942q160 -141 160 -430q0 -254 -123 -393t-344 -139q-111 0 -195 34l-84 -157h-151l123 225q-160 141 -160 430q0 254 123 393t344 139q110 0 194 -34l84 157h152zM299 512q0 -173 72 -274l342 632q-57 23 -119 23q-140 0 -217.5 -99.5t-77.5 -281.5zM594 131
q140 0 217.5 99.5t77.5 281.5q0 173 -72 274l-342 -632q57 -23 119 -23z" />
    <glyph glyph-name="ugrave" unicode="&#xf9;" 
d="M729 1163h-158l-264 291h205zM1008 1024v-1024h-148l-16 156q-58 -85 -144 -130.5t-186 -45.5q-155 0 -244.5 102t-89.5 280v662h168v-631q0 -128 45.5 -196t149.5 -68q82 0 161 45t136 129v721h168z" />
    <glyph glyph-name="uacute" unicode="&#xfa;" 
d="M459 1163l217 291h205l-265 -291h-157zM1008 1024v-1024h-148l-16 156q-58 -85 -144 -130.5t-186 -45.5q-155 0 -244.5 102t-89.5 280v662h168v-631q0 -128 45.5 -196t149.5 -68q82 0 161 45t136 129v721h168z" />
    <glyph glyph-name="ucircumflex" unicode="&#xfb;" 
d="M522 1454h144l297 -291h-189l-180 180l-180 -180h-189zM1008 1024v-1024h-148l-16 156q-58 -85 -144 -130.5t-186 -45.5q-155 0 -244.5 102t-89.5 280v662h168v-631q0 -128 45.5 -196t149.5 -68q82 0 161 45t136 129v721h168z" />
    <glyph glyph-name="udieresis" unicode="&#xfc;" 
d="M371 1190q-48 0 -82.5 35t-34.5 84t34.5 83.5t82.5 34.5q49 0 83.5 -34.5t34.5 -83.5q0 -50 -34.5 -84.5t-83.5 -34.5zM817 1190q-49 0 -84 35t-35 84t34.5 83.5t84.5 34.5q49 0 83 -34t34 -84t-34 -84.5t-83 -34.5zM1008 1024v-1024h-148l-16 156q-58 -85 -144 -130.5
t-186 -45.5q-155 0 -244.5 102t-89.5 280v662h168v-631q0 -128 45.5 -196t149.5 -68q82 0 161 45t136 129v721h168z" />
    <glyph glyph-name="yacute" unicode="&#xfd;" 
d="M461 1163l217 291h205l-265 -291h-157zM219 -389q-69 0 -119 20v152q42 -21 103 -21q98 0 158 45t112 154l35 74l-414 989h180l322 -836l322 836h176l-449 -1077q-23 -55 -45 -96.5t-59 -89t-79.5 -78.5t-105.5 -51.5t-137 -20.5z" />
    <glyph glyph-name="thorn" unicode="&#xfe;" 
d="M651 1044q183 0 296.5 -141.5t113.5 -378.5q0 -246 -121 -395t-311 -149q-171 0 -289 139v-488h-168v1782h168v-524q47 73 130 114t181 41zM610 133q132 0 205.5 106t73.5 285q0 171 -68 269t-196 98q-81 0 -159.5 -41t-125.5 -127v-459q57 -66 129 -98.5t141 -32.5z" />
    <glyph glyph-name="ydieresis" unicode="&#xff;" 
d="M373 1190q-48 0 -82.5 35t-34.5 84t34.5 83.5t82.5 34.5q50 0 84.5 -34.5t34.5 -83.5t-35 -84t-84 -35zM819 1190q-49 0 -84 35t-35 84t34.5 83.5t84.5 34.5q49 0 83 -34t34 -84t-34 -84.5t-83 -34.5zM219 -389q-69 0 -119 20v152q42 -21 103 -21q98 0 158 45t112 154
l35 74l-414 989h180l322 -836l322 836h176l-449 -1077q-23 -55 -45 -96.5t-59 -89t-79.5 -78.5t-105.5 -51.5t-137 -20.5z" />
    <glyph glyph-name="Amacron" unicode="&#x100;" 
d="M922 1657v-139h-656v139h656zM967 0l-107 307h-536l-107 -307h-176l471 1311h164l471 -1311h-180zM373 455h438l-219 635z" />
    <glyph glyph-name="amacron" unicode="&#x101;" 
d="M913 1370v-139h-655v139h655zM967 223q0 -71 39 -101t100 -1v-107q-28 -23 -72.5 -30t-90 3t-85 47.5t-55.5 96.5q-88 -151 -309 -151q-173 0 -270 91.5t-97 233.5q0 98 47.5 171.5t123 109t164.5 46t178.5 -10t158.5 -66.5v72q0 266 -283 266q-135 0 -301 -88l2 162
q155 77 320 77q195 0 312.5 -99t117.5 -283v-439zM520 121q132 0 205.5 74.5t73.5 189.5v51q-61 41 -147 58.5t-165.5 8t-135.5 -59.5t-56 -134q0 -86 59 -137t166 -51z" />
    <glyph glyph-name="Abreve" unicode="&#x102;" 
d="M594 1438q-139 0 -217 80t-78 223h139q0 -82 41.5 -129t114.5 -47t114.5 47t41.5 129h139q0 -143 -78 -223t-217 -80zM967 0l-107 307h-536l-107 -307h-176l471 1311h164l471 -1311h-180zM373 455h438l-219 635z" />
    <glyph glyph-name="abreve" unicode="&#x103;" 
d="M586 1151q-139 0 -217 80t-78 223h139q0 -82 41.5 -129t114.5 -47t114 47t41 129h140q0 -143 -78 -223t-217 -80zM967 223q0 -71 39 -101t100 -1v-107q-28 -23 -72.5 -30t-90 3t-85 47.5t-55.5 96.5q-88 -151 -309 -151q-173 0 -270 91.5t-97 233.5q0 98 47.5 171.5
t123 109t164.5 46t178.5 -10t158.5 -66.5v72q0 266 -283 266q-135 0 -301 -88l2 162q155 77 320 77q195 0 312.5 -99t117.5 -283v-439zM520 121q132 0 205.5 74.5t73.5 189.5v51q-61 41 -147 58.5t-165.5 8t-135.5 -59.5t-56 -134q0 -86 59 -137t166 -51z" />
    <glyph glyph-name="Aogonek" unicode="&#x104;" 
d="M1098 -264q20 0 82 10v-119q-62 -20 -127 -20q-78 0 -132 44.5t-68 105.5t14.5 130t99.5 113l-107 307h-536l-107 -307h-176l471 1311h164l471 -1311h-33q-74 -29 -109.5 -93.5t-10.5 -117.5t104 -53zM373 455h438l-219 635z" />
    <glyph glyph-name="aogonek" unicode="&#x105;" 
d="M1040 -264q20 0 82 10v-119q-62 -20 -127 -20q-78 0 -132 44.5t-68 105.5t14.5 130t99.5 113q-82 40 -106 131q-88 -151 -309 -151q-173 0 -270 91.5t-97 233.5q0 98 47.5 171.5t123 109t164.5 46t178.5 -10t158.5 -66.5v72q0 266 -283 266q-135 0 -301 -88l2 162
q155 77 320 77q195 0 312.5 -99t117.5 -283v-439q0 -71 39 -101t100 -1v-107q-28 -25 -86 -32q-59 -37 -82.5 -96t3.5 -104.5t99 -45.5zM520 121q132 0 205.5 74.5t73.5 189.5v51q-61 41 -147 58.5t-165.5 8t-135.5 -59.5t-56 -134q0 -86 59 -137t166 -51z" />
    <glyph glyph-name="Cacute" unicode="&#x106;" 
d="M528 1450l217 291h205l-264 -291h-158zM676 -20q-263 0 -410 177.5t-147 497.5t147 498t410 178q190 0 350 -80v-190q-72 54 -163 84.5t-179 30.5q-186 0 -287.5 -136.5t-101.5 -384.5t101.5 -384t285.5 -136q88 0 180 30.5t164 84.5v-191q-158 -79 -350 -79z" />
    <glyph glyph-name="cacute" unicode="&#x107;" 
d="M528 1163l217 291h205l-264 -291h-158zM688 -20q-236 0 -370 139.5t-134 392.5t134 392.5t370 139.5q157 0 287 -61v-174q-53 36 -129 60t-158 24q-156 0 -244 -99.5t-88 -281.5t88 -281.5t244 -99.5q82 0 158 24t129 60v-174q-130 -61 -287 -61z" />
    <glyph glyph-name="Ccircumflex" unicode="&#x108;" 
d="M592 1741h143l297 -291h-188l-180 180l-181 -180h-188zM676 -20q-263 0 -410 177.5t-147 497.5t147 498t410 178q190 0 350 -80v-190q-72 54 -163 84.5t-179 30.5q-186 0 -287.5 -136.5t-101.5 -384.5t101.5 -384t285.5 -136q88 0 180 30.5t164 84.5v-191
q-158 -79 -350 -79z" />
    <glyph glyph-name="ccircumflex" unicode="&#x109;" 
d="M592 1454h143l297 -291h-188l-180 180l-181 -180h-188zM688 -20q-236 0 -370 139.5t-134 392.5t134 392.5t370 139.5q157 0 287 -61v-174q-53 36 -129 60t-158 24q-156 0 -244 -99.5t-88 -281.5t88 -281.5t244 -99.5q82 0 158 24t129 60v-174q-130 -61 -287 -61z" />
    <glyph glyph-name="Cdotaccent" unicode="&#x10a;" 
d="M664 1468q-54 0 -90.5 36.5t-36.5 90.5t36.5 91.5t90.5 37.5t91.5 -37.5t37.5 -91.5t-37.5 -90.5t-91.5 -36.5zM676 -20q-263 0 -410 177.5t-147 497.5t147 498t410 178q190 0 350 -80v-190q-72 54 -163 84.5t-179 30.5q-186 0 -287.5 -136.5t-101.5 -384.5t101.5 -384
t285.5 -136q88 0 180 30.5t164 84.5v-191q-158 -79 -350 -79z" />
    <glyph glyph-name="cdotaccent" unicode="&#x10b;" 
d="M664 1182q-54 0 -90.5 36.5t-36.5 90.5t36.5 91.5t90.5 37.5t91.5 -37.5t37.5 -91.5t-37.5 -90.5t-91.5 -36.5zM688 -20q-236 0 -370 139.5t-134 392.5t134 392.5t370 139.5q157 0 287 -61v-174q-53 36 -129 60t-158 24q-156 0 -244 -99.5t-88 -281.5t88 -281.5
t244 -99.5q82 0 158 24t129 60v-174q-130 -61 -287 -61z" />
    <glyph glyph-name="Ccaron" unicode="&#x10c;" 
d="M592 1450l-297 291h188l181 -180l180 180h188l-297 -291h-143zM676 -20q-263 0 -410 177.5t-147 497.5t147 498t410 178q190 0 350 -80v-190q-72 54 -163 84.5t-179 30.5q-186 0 -287.5 -136.5t-101.5 -384.5t101.5 -384t285.5 -136q88 0 180 30.5t164 84.5v-191
q-158 -79 -350 -79z" />
    <glyph glyph-name="ccaron" unicode="&#x10d;" 
d="M592 1163l-297 291h188l181 -180l180 180h188l-297 -291h-143zM688 -20q-236 0 -370 139.5t-134 392.5t134 392.5t370 139.5q157 0 287 -61v-174q-53 36 -129 60t-158 24q-156 0 -244 -99.5t-88 -281.5t88 -281.5t244 -99.5q82 0 158 24t129 60v-174q-130 -61 -287 -61z
" />
    <glyph glyph-name="Dcaron" unicode="&#x10e;" 
d="M502 1450l-297 291h188l180 -180l181 180h188l-297 -291h-143zM143 0v1311h365q280 0 437 -173.5t157 -482.5t-157 -482t-437 -173h-365zM315 152h193q197 0 307.5 133t110.5 370q0 238 -110.5 371t-307.5 133h-193v-1007z" />
    <glyph glyph-name="dcaron" unicode="&#x10f;" 
d="M1057 932v100q96 6 146 58.5t57 121.5q-51 -31 -99.5 4t-48.5 95q0 48 35.5 85.5t85.5 37.5q55 0 97 -47t42 -130q0 -40 -10.5 -81t-34.5 -83.5t-59 -76t-90 -56.5t-121 -28zM457 -20q-185 0 -298.5 141.5t-113.5 378.5q0 246 121 395t311 149q171 0 289 -139v508h168
v-1413h-143l-17 147q-44 -82 -128.5 -124.5t-188.5 -42.5zM481 133q81 0 159.5 41t125.5 127v459q-57 66 -129 98.5t-141 32.5q-132 0 -205.5 -106t-73.5 -285q0 -171 68 -269t196 -98z" />
    <glyph glyph-name="Dcroat" unicode="&#x110;" 
d="M520 1311q280 0 437 -173.5t157 -482.5t-157 -482t-437 -173h-364v600h-136v139h136v572h364zM520 152q197 0 307.5 133t110.5 370q0 238 -110.5 371t-307.5 133h-192v-420h268v-139h-268v-448h192z" />
    <glyph glyph-name="dcroat" unicode="&#x111;" 
d="M1151 1280v-139h-135v-1141h-144l-16 147q-44 -82 -128.5 -124.5t-188.5 -42.5q-185 0 -298.5 141.5t-113.5 378.5q0 246 121 395t311 149q171 0 289 -139v236h-332v139h332v133h168v-133h135zM848 301v459q-57 66 -129 98.5t-141 32.5q-132 0 -205.5 -106t-73.5 -285
q0 -171 68 -269t196 -98q81 0 159.5 41t125.5 127z" />
    <glyph glyph-name="Emacron" unicode="&#x112;" 
d="M967 1657v-139h-656v139h656zM377 152h700v-152h-872v1311h864v-152h-692v-414h577v-151h-577v-442z" />
    <glyph glyph-name="emacron" unicode="&#x113;" 
d="M922 1370v-139h-656v139h656zM315 446q15 -156 109.5 -239.5t259.5 -83.5q185 0 317 94v-170q-151 -67 -344 -67q-246 0 -382 138.5t-136 393.5q0 254 122.5 393t336.5 139t332.5 -138.5t118.5 -393.5q0 -16 -5 -66h-729zM598 901q-118 0 -194 -83t-89 -234h557
q-13 152 -85 234.5t-189 82.5z" />
    <glyph glyph-name="Ebreve" unicode="&#x114;" 
d="M639 1438q-139 0 -217 80t-78 223h139q0 -82 41.5 -129t114.5 -47t114.5 47t41.5 129h139q0 -143 -78 -223t-217 -80zM377 152h700v-152h-872v1311h864v-152h-692v-414h577v-151h-577v-442z" />
    <glyph glyph-name="ebreve" unicode="&#x115;" 
d="M594 1151q-139 0 -217 80t-78 223h139q0 -82 41.5 -129t114.5 -47t114.5 47t41.5 129h139q0 -143 -78 -223t-217 -80zM315 446q15 -156 109.5 -239.5t259.5 -83.5q185 0 317 94v-170q-151 -67 -344 -67q-246 0 -382 138.5t-136 393.5q0 254 122.5 393t336.5 139
t332.5 -138.5t118.5 -393.5q0 -16 -5 -66h-729zM598 901q-118 0 -194 -83t-89 -234h557q-13 152 -85 234.5t-189 82.5z" />
    <glyph glyph-name="Edotaccent" unicode="&#x116;" 
d="M639 1468q-54 0 -90.5 36.5t-36.5 90.5t36.5 91.5t90.5 37.5t91.5 -37.5t37.5 -91.5t-37.5 -90.5t-91.5 -36.5zM377 152h700v-152h-872v1311h864v-152h-692v-414h577v-151h-577v-442z" />
    <glyph glyph-name="edotaccent" unicode="&#x117;" 
d="M594 1182q-54 0 -90.5 36.5t-36.5 90.5t36.5 91.5t90.5 37.5t91.5 -37.5t37.5 -91.5t-37.5 -90.5t-91.5 -36.5zM315 446q15 -156 109.5 -239.5t259.5 -83.5q185 0 317 94v-170q-151 -67 -344 -67q-246 0 -382 138.5t-136 393.5q0 254 122.5 393t336.5 139t332.5 -138.5
t118.5 -393.5q0 -16 -5 -66h-729zM598 901q-118 0 -194 -83t-89 -234h557q-13 152 -85 234.5t-189 82.5z" />
    <glyph glyph-name="Eogonek" unicode="&#x118;" 
d="M1061 -264q20 0 82 10v-119q-62 -20 -127 -20q-78 0 -132 44.5t-68 105.5t14.5 130t99.5 113h-725v1311h864v-152h-692v-414h577v-151h-577v-442h700v-152q-74 -29 -109.5 -93.5t-10.5 -117.5t104 -53z" />
    <glyph glyph-name="eogonek" unicode="&#x119;" 
d="M315 446q15 -156 109.5 -239.5t259.5 -83.5q185 0 317 94v-170q-88 -35 -155 -47q-73 -30 -108 -94.5t-10.5 -117t103.5 -52.5q20 0 82 10v-119q-62 -20 -127 -20q-74 0 -126.5 40.5t-69 97.5t3 122.5t78.5 112.5h-15q-246 0 -382 138.5t-136 393.5q0 254 122.5 393
t336.5 139t332.5 -138.5t118.5 -393.5q0 -16 -5 -66h-729zM598 901q-118 0 -194 -83t-89 -234h557q-13 152 -85 234.5t-189 82.5z" />
    <glyph glyph-name="Ecaron" unicode="&#x11a;" 
d="M711 1450h-144l-297 291h189l180 -180l180 180h189zM377 152h700v-152h-872v1311h864v-152h-692v-414h577v-151h-577v-442z" />
    <glyph glyph-name="ecaron" unicode="&#x11b;" 
d="M666 1163h-144l-297 291h189l180 -180l180 180h189zM315 446q15 -156 109.5 -239.5t259.5 -83.5q185 0 317 94v-170q-151 -67 -344 -67q-246 0 -382 138.5t-136 393.5q0 254 122.5 393t336.5 139t332.5 -138.5t118.5 -393.5q0 -16 -5 -66h-729zM598 901q-118 0 -194 -83
t-89 -234h557q-13 152 -85 234.5t-189 82.5z" />
    <glyph glyph-name="Gcircumflex" unicode="&#x11c;" 
d="M592 1741h143l297 -291h-188l-180 180l-181 -180h-188zM655 -20q-265 0 -413 177t-148 498q0 322 153 499t429 177q210 0 362 -84v-188q-161 117 -352 117q-194 0 -305 -137t-111 -384q0 -248 104 -384t292 -136q118 0 215 43v412h-267v151h439v-643q-63 -56 -168.5 -87
t-229.5 -31z" />
    <glyph glyph-name="gcircumflex" unicode="&#x11d;" 
d="M594 1343l-180 -180h-189l297 291h144l297 -291h-189zM1077 1044v-139q-79 0 -162 -6q60 -85 60 -209q0 -168 -106 -261t-296 -93q-90 0 -157 20q-45 -22 -45 -80q0 -43 39 -67.5t101 -33t137.5 -13.5t151 -17t137.5 -35t101 -75t39 -131q0 -141 -130 -217t-361 -76
t-353 73.5t-122 200.5q0 79 46 138.5t128 82.5q-75 48 -72 130q2 54 31 98t80 61q-74 43 -114 119t-40 176q0 168 106 261t297 93q143 0 238 -53q120 53 266 53zM573 475q113 0 175.5 56.5t62.5 158.5t-62.5 158.5t-175.5 56.5q-114 0 -176.5 -56t-62.5 -159t62.5 -159
t176.5 -56zM909 -106q0 43 -32 70t-90.5 40t-119.5 20t-140.5 16.5t-131.5 22.5q-54 -23 -85 -62t-31 -85q0 -71 79.5 -112.5t239.5 -41.5q141 0 226 34t85 98z" />
    <glyph glyph-name="Gbreve" unicode="&#x11e;" 
d="M664 1438q-139 0 -217 80t-78 223h139q0 -82 41.5 -129t114.5 -47t114 47t41 129h139q0 -143 -77.5 -223t-216.5 -80zM655 -20q-265 0 -413 177t-148 498q0 322 153 499t429 177q210 0 362 -84v-188q-161 117 -352 117q-194 0 -305 -137t-111 -384q0 -248 104 -384
t292 -136q118 0 215 43v412h-267v151h439v-643q-63 -56 -168.5 -87t-229.5 -31z" />
    <glyph glyph-name="gbreve" unicode="&#x11f;" 
d="M594 1151q-139 0 -217 80t-78 223h139q0 -82 41.5 -129t114.5 -47t114.5 47t41.5 129h139q0 -143 -78 -223t-217 -80zM1077 1044v-139q-79 0 -162 -6q60 -85 60 -209q0 -168 -106 -261t-296 -93q-90 0 -157 20q-45 -22 -45 -80q0 -43 39 -67.5t101 -33t137.5 -13.5
t151 -17t137.5 -35t101 -75t39 -131q0 -141 -130 -217t-361 -76t-353 73.5t-122 200.5q0 79 46 138.5t128 82.5q-75 48 -72 130q2 54 31 98t80 61q-74 43 -114 119t-40 176q0 168 106 261t297 93q143 0 238 -53q120 53 266 53zM573 475q113 0 175.5 56.5t62.5 158.5
t-62.5 158.5t-175.5 56.5q-114 0 -176.5 -56t-62.5 -159t62.5 -159t176.5 -56zM909 -106q0 43 -32 70t-90.5 40t-119.5 20t-140.5 16.5t-131.5 22.5q-54 -23 -85 -62t-31 -85q0 -71 79.5 -112.5t239.5 -41.5q141 0 226 34t85 98z" />
    <glyph glyph-name="Gdotaccent" unicode="&#x120;" 
d="M664 1468q-54 0 -90.5 36.5t-36.5 90.5t36.5 91.5t90.5 37.5t91.5 -37.5t37.5 -91.5t-37.5 -90.5t-91.5 -36.5zM655 -20q-265 0 -413 177t-148 498q0 322 153 499t429 177q210 0 362 -84v-188q-161 117 -352 117q-194 0 -305 -137t-111 -384q0 -248 104 -384t292 -136
q118 0 215 43v412h-267v151h439v-643q-63 -56 -168.5 -87t-229.5 -31z" />
    <glyph glyph-name="gdotaccent" unicode="&#x121;" 
d="M594 1182q-54 0 -90.5 36.5t-36.5 90.5t36.5 91.5t90.5 37.5t91.5 -37.5t37.5 -91.5t-37.5 -90.5t-91.5 -36.5zM1077 1044v-139q-79 0 -162 -6q60 -85 60 -209q0 -168 -106 -261t-296 -93q-90 0 -157 20q-45 -22 -45 -80q0 -43 39 -67.5t101 -33t137.5 -13.5t151 -17
t137.5 -35t101 -75t39 -131q0 -141 -130 -217t-361 -76t-353 73.5t-122 200.5q0 79 46 138.5t128 82.5q-75 48 -72 130q2 54 31 98t80 61q-74 43 -114 119t-40 176q0 168 106 261t297 93q143 0 238 -53q120 53 266 53zM573 475q113 0 175.5 56.5t62.5 158.5t-62.5 158.5
t-175.5 56.5q-114 0 -176.5 -56t-62.5 -159t62.5 -159t176.5 -56zM909 -106q0 43 -32 70t-90.5 40t-119.5 20t-140.5 16.5t-131.5 22.5q-54 -23 -85 -62t-31 -85q0 -71 79.5 -112.5t239.5 -41.5q141 0 226 34t85 98z" />
    <glyph glyph-name="Gcommaaccent" unicode="&#x122;" 
d="M655 -20q-265 0 -413 177t-148 498q0 322 153 499t429 177q210 0 362 -84v-188q-161 117 -352 117q-194 0 -305 -137t-111 -384q0 -248 104 -384t292 -136q118 0 215 43v412h-267v151h439v-643q-63 -56 -168.5 -87t-229.5 -31zM465 -649v100q96 6 146 58.5t57 121.5
q-51 -31 -99.5 4t-48.5 95q0 48 35.5 85.5t85.5 37.5q55 0 97 -47t42 -130q0 -40 -10.5 -81t-34.5 -83.5t-59 -76t-90 -56.5t-121 -28z" />
    <glyph glyph-name="gcommaaccent" unicode="&#x123;" 
d="M608 1151q-56 0 -97.5 46.5t-41.5 129.5q0 51 17.5 103t52.5 101t99 82.5t146 39.5v-101q-96 -6 -145.5 -58.5t-56.5 -121.5q51 31 99 -3.5t48 -94.5q0 -48 -35.5 -85.5t-85.5 -37.5zM1077 1044v-139q-79 0 -162 -6q60 -85 60 -209q0 -168 -106 -261t-296 -93
q-90 0 -157 20q-45 -22 -45 -80q0 -43 39 -67.5t101 -33t137.5 -13.5t151 -17t137.5 -35t101 -75t39 -131q0 -141 -130 -217t-361 -76t-353 73.5t-122 200.5q0 79 46 138.5t128 82.5q-75 48 -72 130q2 54 31 98t80 61q-74 43 -114 119t-40 176q0 168 106 261t297 93
q143 0 238 -53q120 53 266 53zM573 475q113 0 175.5 56.5t62.5 158.5t-62.5 158.5t-175.5 56.5q-114 0 -176.5 -56t-62.5 -159t62.5 -159t176.5 -56zM909 -106q0 43 -32 70t-90.5 40t-119.5 20t-140.5 16.5t-131.5 22.5q-54 -23 -85 -62t-31 -85q0 -71 79.5 -112.5
t239.5 -41.5q141 0 226 34t85 98z" />
    <glyph glyph-name="Hcircumflex" unicode="&#x124;" 
d="M522 1741h144l297 -291h-189l-180 180l-180 -180h-189zM143 0v1311h172v-566h557v566h172v-1311h-172v594h-557v-594h-172z" />
    <glyph glyph-name="hcircumflex" unicode="&#x125;" 
d="M193 1843h143l297 -291h-189l-180 181l-180 -181h-188zM180 0v1413h168v-543q57 83 141.5 128.5t184.5 45.5q155 0 244.5 -102t89.5 -280v-662h-168v631q0 128 -45.5 196t-149.5 68q-82 0 -161 -45t-136 -129v-721h-168z" />
    <glyph glyph-name="Hbar" unicode="&#x126;" 
d="M1147 1085v-139h-135v-946h-172v573h-492v-573h-172v946h-135v139h135v226h172v-226h492v226h172v-226h135zM840 725v221h-492v-221h492z" />
    <glyph glyph-name="hbar" unicode="&#x127;" 
d="M674 1044q155 0 244.5 -102t89.5 -280v-662h-168v631q0 128 -45.5 196t-149.5 68q-82 0 -161 -45t-136 -129v-721h-168v1141h-143v139h143v133h168v-133h324v-139h-324v-271q57 83 141.5 128.5t184.5 45.5z" />
    <glyph glyph-name="Itilde" unicode="&#x128;" 
d="M741 1438q-45 0 -83.5 19.5t-65.5 47.5t-50.5 56t-49.5 47.5t-52 19.5q-81 0 -108 -178h-127q21 150 85.5 226.5t155.5 76.5q45 0 84 -19.5t66 -47.5t51 -56t49.5 -47.5t51.5 -19.5q81 0 108 178h127q-21 -150 -86 -226.5t-156 -76.5zM205 0v152h303v1007h-303v152h778
v-152h-303v-1007h303v-152h-778z" />
    <glyph glyph-name="itilde" unicode="&#x129;" 
d="M737 1151q-45 0 -83.5 19.5t-65.5 47.5t-50.5 56t-49.5 47.5t-52 19.5q-81 0 -108 -178h-127q21 150 85.5 226.5t155.5 76.5q45 0 84 -19.5t66 -47.5t50.5 -56t49 -47.5t51.5 -19.5q82 0 109 178h127q-21 -150 -86 -226.5t-156 -76.5zM184 0v147h348v730h-319v147h487
v-877h324v-147h-840z" />
    <glyph glyph-name="Imacron" unicode="&#x12a;" 
d="M266 1518v139h656v-139h-656zM205 0v152h303v1007h-303v152h778v-152h-303v-1007h303v-152h-778z" />
    <glyph glyph-name="imacron" unicode="&#x12b;" 
d="M262 1231v139h656v-139h-656zM184 0v147h348v730h-319v147h487v-877h324v-147h-840z" />
    <glyph glyph-name="Ibreve" unicode="&#x12c;" 
d="M594 1438q-139 0 -217 80t-78 223h139q0 -82 41.5 -129t114.5 -47t114.5 47t41.5 129h139q0 -143 -78 -223t-217 -80zM205 0v152h303v1007h-303v152h778v-152h-303v-1007h303v-152h-778z" />
    <glyph glyph-name="ibreve" unicode="&#x12d;" 
d="M590 1151q-139 0 -217 80t-78 223h139q0 -82 41.5 -129t114.5 -47t114 47t41 129h140q0 -143 -78 -223t-217 -80zM184 0v147h348v730h-319v147h487v-877h324v-147h-840z" />
    <glyph glyph-name="Iogonek" unicode="&#x12e;" 
d="M983 1159h-303v-1007h303v-152h-291q-74 -29 -109.5 -93.5t-10.5 -117.5t104 -53q20 0 82 10v-119q-62 -20 -127 -20q-78 0 -132 44.5t-68 105.5t14.5 130t99.5 113h-340v152h303v1007h-303v152h778v-152z" />
    <glyph glyph-name="iogonek" unicode="&#x12f;" 
d="M590 1178q-56 0 -94.5 39t-38.5 94t38.5 94t94.5 39t94.5 -39t38.5 -94t-38.5 -94t-94.5 -39zM702 0q-74 -29 -109.5 -93.5t-10.5 -117.5t104 -53q20 0 82 10v-119q-62 -20 -127 -20q-78 0 -132 44.5t-68 105.5t14.5 130t99.5 113h-371v147h348v730h-319v147h487v-877
h324v-147h-322z" />
    <glyph glyph-name="Idotaccent" unicode="&#x130;" 
d="M594 1468q-54 0 -90.5 36.5t-36.5 90.5t36.5 91.5t90.5 37.5t91.5 -37.5t37.5 -91.5t-37.5 -90.5t-91.5 -36.5zM205 0v152h303v1007h-303v152h778v-152h-303v-1007h303v-152h-778z" />
    <glyph glyph-name="dotlessi" unicode="&#x131;" 
d="M184 0v147h348v730h-319v147h487v-877h324v-147h-840z" />
    <glyph glyph-name="IJ" unicode="&#x132;" 
d="M143 0v1311h172v-1311h-172zM655 -20q-112 0 -192 36v172q80 -53 188 -53q246 0 246 344v832h172v-840q0 -237 -108.5 -364t-305.5 -127z" />
    <glyph glyph-name="ij" unicode="&#x133;" 
d="M317 1178q-55 0 -94 39t-39 94t39 94t94 39q56 0 95 -39t39 -94t-39 -94t-95 -39zM870 1178q-56 0 -94.5 39t-38.5 94t38.5 94t94.5 39t95 -39t39 -94t-39 -94t-95 -39zM506 -389q-149 0 -273 55v160q135 -64 269 -64q138 0 211 78t73 226v958h168v-958
q0 -218 -117 -336.5t-331 -118.5zM233 0v1024h168v-1024h-168z" />
    <glyph glyph-name="Jcircumflex" unicode="&#x134;" 
d="M594 1741h143l297 -291h-188l-180 180l-181 -180h-188zM489 -20q-94 0 -177 24.5t-132 67.5v178q51 -54 134 -84.5t169 -30.5q155 0 235.5 106t80.5 304v614h-439v152h611v-774q0 -266 -126 -411.5t-356 -145.5z" />
    <glyph glyph-name="jcircumflex" unicode="&#x135;" 
d="M492 1454h143l297 -291h-189l-180 180l-180 -180h-188zM428 -397q-159 0 -283 55v160q135 -64 283 -64q129 0 200.5 82t71.5 230v811h-514v147h682v-958q0 -218 -116.5 -340.5t-323.5 -122.5z" />
    <glyph glyph-name="Kcommaaccent" unicode="&#x136;" 
d="M674 784l473 -784h-195l-387 653l-209 -256l2 -397h-174v1311h172v-695l545 695h201zM606 -147q55 0 97 -47t42 -130q0 -40 -10.5 -81t-34.5 -83.5t-59 -76t-90 -56.5t-121 -28v100q96 6 146 58.5t57 121.5q-51 -31 -99.5 4t-48.5 95q0 48 35.5 85.5t85.5 37.5z" />
    <glyph glyph-name="kcommaaccent" unicode="&#x137;" 
d="M676 608l418 -608h-193l-334 492l-182 -201v-291h-168v1413h168v-919l473 530h195zM616 -147q56 0 98 -47t42 -130q0 -40 -10.5 -81t-34.5 -83.5t-59.5 -76t-90.5 -56.5t-121 -28v100q96 6 146 58.5t57 121.5q-51 -31 -99 4t-48 95q0 48 35 85.5t85 37.5z" />
    <glyph glyph-name="Lacute" unicode="&#x139;" 
d="M176 1450l217 291h205l-264 -291h-158zM225 0v1311h172v-1159h668v-152h-840z" />
    <glyph glyph-name="lacute" unicode="&#x13a;" 
d="M432 1552l217 291h205l-264 -291h-158zM184 0v147h348v1119h-319v147h487v-1266h324v-147h-840z" />
    <glyph glyph-name="Lcommaaccent" unicode="&#x13b;" 
d="M225 0v1311h172v-1159h668v-152h-840zM455 -649v100q96 6 145.5 58.5t56.5 121.5q-51 -31 -99 4t-48 95q0 48 35.5 85.5t85.5 37.5q55 0 97 -47t42 -130q0 -40 -10.5 -81t-34.5 -83.5t-59 -76t-90 -56.5t-121 -28z" />
    <glyph glyph-name="lcommaaccent" unicode="&#x13c;" 
d="M184 0v147h348v1119h-319v147h487v-1266h324v-147h-840zM414 -649v100q96 6 145.5 58.5t56.5 121.5q-51 -31 -99 4t-48 95q0 48 35.5 85.5t85.5 37.5q55 0 97 -47t42 -130q0 -40 -10.5 -81t-34.5 -83.5t-59 -76t-90 -56.5t-121 -28z" />
    <glyph glyph-name="Lcaron" unicode="&#x13d;" 
d="M623 932v100q96 6 145.5 58.5t56.5 121.5q-51 -31 -99 4t-48 95q0 48 35.5 85.5t85.5 37.5q55 0 97 -47t42 -130q0 -40 -10.5 -81t-34.5 -83.5t-59 -76t-90 -56.5t-121 -28zM225 0v1311h172v-1159h668v-152h-840z" />
    <glyph glyph-name="lcaron" unicode="&#x13e;" 
d="M823 932v100q96 6 146 58.5t57 121.5q-51 -31 -99 4t-48 95q0 48 35 85.5t85 37.5q56 0 98 -47t42 -130q0 -40 -10.5 -81t-34.5 -83.5t-59.5 -76t-90.5 -56.5t-121 -28zM184 0v147h348v1119h-319v147h487v-1266h324v-147h-840z" />
    <glyph glyph-name="Ldot" unicode="&#x13f;" 
d="M225 0v1311h172v-1159h668v-152h-840zM881 563q-54 0 -90.5 36.5t-36.5 90.5t36.5 91.5t90.5 37.5t91.5 -37.5t37.5 -91.5t-37.5 -90.5t-91.5 -36.5z" />
    <glyph glyph-name="ldot" unicode="&#x140;" 
d="M184 0v147h348v1119h-319v147h487v-1266h324v-147h-840zM1024 563q-54 0 -90.5 36.5t-36.5 90.5t36.5 91.5t90.5 37.5t91.5 -37.5t37.5 -91.5t-37.5 -90.5t-91.5 -36.5z" />
    <glyph glyph-name="Lslash" unicode="&#x141;" 
d="M418 152h647v-152h-819v590l-197 -60v148l197 59v574h172v-523l444 136v-148l-444 -135v-489z" />
    <glyph glyph-name="lslash" unicode="&#x142;" 
d="M1024 825l-324 -98v-580h324v-147h-840v147h348v529l-348 -105v148l348 104v443h-319v147h487v-539l324 99v-148z" />
    <glyph glyph-name="Nacute" unicode="&#x143;" 
d="M459 1450l217 291h205l-265 -291h-157zM143 0v1311h168l574 -1004v1004h159v-1311h-147l-594 1044v-1044h-160z" />
    <glyph glyph-name="nacute" unicode="&#x144;" 
d="M459 1163l217 291h205l-265 -291h-157zM180 0v1024h148l16 -156q58 85 144 130.5t186 45.5q155 0 244.5 -102t89.5 -280v-662h-168v631q0 128 -45.5 196t-149.5 68q-82 0 -161 -45t-136 -129v-721h-168z" />
    <glyph glyph-name="Ncommaaccent" unicode="&#x145;" 
d="M143 0v1311h168l574 -1004v1004h159v-1311h-147l-594 1044v-1044h-160zM403 -649v100q96 6 146 58.5t57 121.5q-51 -31 -99 4t-48 95q0 48 35.5 85.5t85.5 37.5q55 0 97 -47t42 -130q0 -40 -10.5 -81t-34.5 -83.5t-59.5 -76t-90.5 -56.5t-121 -28z" />
    <glyph glyph-name="ncommaaccent" unicode="&#x146;" 
d="M180 0v1024h148l16 -156q58 85 144 130.5t186 45.5q155 0 244.5 -102t89.5 -280v-662h-168v631q0 128 -45.5 196t-149.5 68q-82 0 -161 -45t-136 -129v-721h-168zM403 -649v100q96 6 146 58.5t57 121.5q-51 -31 -99 4t-48 95q0 48 35.5 85.5t85.5 37.5q55 0 97 -47
t42 -130q0 -40 -10.5 -81t-34.5 -83.5t-59.5 -76t-90.5 -56.5t-121 -28z" />
    <glyph glyph-name="Ncaron" unicode="&#x147;" 
d="M522 1450l-297 291h189l180 -180l180 180h189l-297 -291h-144zM143 0v1311h168l574 -1004v1004h159v-1311h-147l-594 1044v-1044h-160z" />
    <glyph glyph-name="ncaron" unicode="&#x148;" 
d="M522 1163l-297 291h189l180 -180l180 180h189l-297 -291h-144zM180 0v1024h148l16 -156q58 85 144 130.5t186 45.5q155 0 244.5 -102t89.5 -280v-662h-168v631q0 128 -45.5 196t-149.5 68q-82 0 -161 -45t-136 -129v-721h-168z" />
    <glyph glyph-name="napostrophe" unicode="&#x149;" 
d="M8 1024v100q96 6 146 59t57 122q-51 -31 -99.5 3.5t-48.5 94.5q0 48 35.5 85.5t85.5 37.5q56 0 98 -46.5t42 -129.5q0 -51 -17.5 -103t-53 -101t-99.5 -82.5t-146 -39.5zM201 0v1024h147l17 -156q58 85 143.5 130.5t185.5 45.5q155 0 244.5 -102t89.5 -280v-662h-168v631
q0 129 -45 196.5t-149 67.5q-82 0 -161 -45t-136 -129v-721h-168z" />
    <glyph glyph-name="Eng" unicode="&#x14a;" 
d="M885 1311h159v-1266q0 -208 -107.5 -321t-299.5 -113q-114 0 -199 37v159q84 -49 189 -49q116 0 183.5 69t74.5 196l-582 1021v-1044h-160v1311h168l574 -1004v1004z" />
    <glyph glyph-name="eng" unicode="&#x14b;" 
d="M674 1044q155 0 244.5 -102t89.5 -280v-658q0 -189 -88.5 -291t-251.5 -102q-96 0 -185 29v161q71 -39 162 -39q195 0 195 250v619q0 128 -45.5 196t-149.5 68q-82 0 -161 -45t-136 -129v-721h-168v1024h148l16 -156q58 85 144 130.5t186 45.5z" />
    <glyph glyph-name="Omacron" unicode="&#x14c;" 
d="M266 1518v139h656v-139h-656zM594 -20q-243 0 -377.5 176t-134.5 499t135 499.5t377 176.5t377 -176.5t135 -499.5t-134.5 -499t-377.5 -176zM594 135q159 0 247.5 135.5t88.5 384.5t-88.5 385t-247.5 136t-247.5 -136t-88.5 -385t88.5 -384.5t247.5 -135.5z" />
    <glyph glyph-name="omacron" unicode="&#x14d;" 
d="M266 1231v139h656v-139h-656zM594 -20q-221 0 -344 139t-123 393t123 393t344 139t344 -139t123 -393t-123 -393t-344 -139zM594 131q140 0 217.5 99.5t77.5 281.5t-77.5 281.5t-217.5 99.5t-217.5 -99.5t-77.5 -281.5t77.5 -281.5t217.5 -99.5z" />
    <glyph glyph-name="Obreve" unicode="&#x14e;" 
d="M594 1438q-139 0 -217 80t-78 223h139q0 -82 41.5 -129t114.5 -47t114.5 47t41.5 129h139q0 -143 -78 -223t-217 -80zM594 -20q-243 0 -377.5 176t-134.5 499t135 499.5t377 176.5t377 -176.5t135 -499.5t-134.5 -499t-377.5 -176zM594 135q159 0 247.5 135.5t88.5 384.5
t-88.5 385t-247.5 136t-247.5 -136t-88.5 -385t88.5 -384.5t247.5 -135.5z" />
    <glyph glyph-name="obreve" unicode="&#x14f;" 
d="M594 1151q-139 0 -217 80t-78 223h139q0 -82 41.5 -129t114.5 -47t114.5 47t41.5 129h139q0 -143 -78 -223t-217 -80zM594 -20q-221 0 -344 139t-123 393t123 393t344 139t344 -139t123 -393t-123 -393t-344 -139zM594 131q140 0 217.5 99.5t77.5 281.5t-77.5 281.5
t-217.5 99.5t-217.5 -99.5t-77.5 -281.5t77.5 -281.5t217.5 -99.5z" />
    <glyph glyph-name="Ohungarumlaut" unicode="&#x150;" 
d="M287 1450l237 291h181l-238 -291h-180zM631 1450l237 291h181l-238 -291h-180zM594 -20q-243 0 -377.5 176t-134.5 499t135 499.5t377 176.5t377 -176.5t135 -499.5t-134.5 -499t-377.5 -176zM594 135q159 0 247.5 135.5t88.5 384.5t-88.5 385t-247.5 136t-247.5 -136
t-88.5 -385t88.5 -384.5t247.5 -135.5z" />
    <glyph glyph-name="ohungarumlaut" unicode="&#x151;" 
d="M287 1163l237 291h181l-238 -291h-180zM631 1163l237 291h181l-238 -291h-180zM594 -20q-221 0 -344 139t-123 393t123 393t344 139t344 -139t123 -393t-123 -393t-344 -139zM594 131q140 0 217.5 99.5t77.5 281.5t-77.5 281.5t-217.5 99.5t-217.5 -99.5t-77.5 -281.5
t77.5 -281.5t217.5 -99.5z" />
    <glyph glyph-name="OE" unicode="&#x152;" 
d="M610 0q-261 0 -407 173t-146 482t146 482.5t407 173.5h516v-152h-385v-414h312v-151h-312v-442h394v-152h-525zM569 152v1007q-158 0 -247 -133t-89 -371t89 -370.5t247 -132.5z" />
    <glyph glyph-name="oe" unicode="&#x153;" 
d="M356 -20q-161 0 -250.5 139t-89.5 393t89.5 393t250.5 139q87 0 149 -40.5t103 -137.5q39 96 100 137t144 41q151 0 235 -139t84 -393l-4 -66h-475v-4q10 -154 75.5 -238.5t170.5 -84.5q78 0 186 65v-155q-114 -49 -209 -49q-104 0 -177 44t-122 148q-42 -104 -106 -148
t-154 -44zM692 580h318q-12 325 -158 325q-148 0 -160 -325zM356 127q80 0 125 101.5t45 283.5t-45 283.5t-125 101.5t-126 -101.5t-46 -283.5t46 -283.5t126 -101.5z" />
    <glyph glyph-name="Racute" unicode="&#x154;" 
d="M881 1741l-265 -291h-157l217 291h205zM1098 0h-197l-317 500h-244v-500h-172v1311h483q192 0 309 -101t117 -305q0 -172 -84 -270.5t-229 -124.5zM340 1159v-508h278q125 0 204 61t79 193t-79 193t-204 61h-278z" />
    <glyph glyph-name="racute" unicode="&#x155;" 
d="M489 1163l218 291h204l-264 -291h-158zM197 0v147h200v730h-221v147h356l29 -225q29 84 83 140t119.5 80.5t143.5 24.5q107 0 199 -38v-164q-113 49 -207 49q-103 0 -183.5 -61.5t-150.5 -202.5v-480h328v-147h-696z" />
    <glyph glyph-name="Rcommaaccent" unicode="&#x156;" 
d="M764 510l334 -510h-197l-317 500h-244v-500h-172v1311h483q192 0 309 -101t117 -305q0 -172 -84 -270.5t-229 -124.5zM340 1159v-508h278q125 0 204 61t79 193t-79 193t-204 61h-278zM586 -147q55 0 97 -47t42 -130q0 -40 -10.5 -81t-34.5 -83.5t-59 -76t-90 -56.5
t-121 -28v100q96 6 145.5 58.5t56.5 121.5q-51 -31 -99 4t-48 95q0 48 35.5 85.5t85.5 37.5z" />
    <glyph glyph-name="rcommaaccent" unicode="&#x157;" 
d="M197 0v147h200v730h-221v147h356l29 -225q29 84 83 140t119.5 80.5t143.5 24.5q107 0 199 -38v-164q-113 49 -207 49q-103 0 -183.5 -61.5t-150.5 -202.5v-480h328v-147h-696zM354 -649v100q96 6 146 58.5t57 121.5q-51 -31 -99 4t-48 95q0 48 35 85.5t85 37.5
q56 0 98 -47t42 -130q0 -40 -10.5 -81t-34.5 -83.5t-59.5 -76t-90.5 -56.5t-121 -28z" />
    <glyph glyph-name="Rcaron" unicode="&#x158;" 
d="M666 1450h-144l-297 291h189l180 -180l180 180h189zM1098 0h-197l-317 500h-244v-500h-172v1311h483q192 0 309 -101t117 -305q0 -172 -84 -270.5t-229 -124.5zM340 1159v-508h278q125 0 204 61t79 193t-79 193t-204 61h-278z" />
    <glyph glyph-name="rcaron" unicode="&#x159;" 
d="M553 1163l-297 291h188l181 -180l180 180h188l-297 -291h-143zM197 0v147h200v730h-221v147h356l29 -225q29 84 83 140t119.5 80.5t143.5 24.5q107 0 199 -38v-164q-113 49 -207 49q-103 0 -183.5 -61.5t-150.5 -202.5v-480h328v-147h-696z" />
    <glyph glyph-name="Sacute" unicode="&#x15a;" 
d="M471 1450l217 291h205l-264 -291h-158zM553 -20q-119 0 -231 25t-191 69v184q83 -58 194.5 -90.5t227.5 -32.5q149 0 233 55t84 150q0 177 -307 254q-411 100 -411 385q0 160 124.5 256t341.5 96q189 0 347 -63v-183q-147 91 -344 91q-138 0 -215.5 -49.5t-77.5 -137.5
q0 -171 299 -239q197 -44 308.5 -147t111.5 -257q0 -167 -132 -266.5t-362 -99.5z" />
    <glyph glyph-name="sacute" unicode="&#x15b;" 
d="M475 1163l217 291h205l-264 -291h-158zM569 -20q-220 0 -364 75v168q69 -47 165.5 -73.5t196.5 -26.5q126 0 196.5 43.5t70.5 116.5q0 66 -63 104.5t-191 67.5q-180 38 -271.5 109t-91.5 188q0 134 113.5 213t316.5 79q176 0 285 -45v-155q-114 57 -287 57
q-127 0 -195.5 -38t-68.5 -107q0 -56 51 -90t184 -66q187 -45 283 -118.5t96 -194.5q0 -141 -113.5 -224t-312.5 -83z" />
    <glyph glyph-name="Scircumflex" unicode="&#x15c;" 
d="M535 1741h143l297 -291h-189l-180 180l-180 -180h-188zM553 -20q-119 0 -231 25t-191 69v184q83 -58 194.5 -90.5t227.5 -32.5q149 0 233 55t84 150q0 177 -307 254q-411 100 -411 385q0 160 124.5 256t341.5 96q189 0 347 -63v-183q-147 91 -344 91q-138 0 -215.5 -49.5
t-77.5 -137.5q0 -171 299 -239q197 -44 308.5 -147t111.5 -257q0 -167 -132 -266.5t-362 -99.5z" />
    <glyph glyph-name="scircumflex" unicode="&#x15d;" 
d="M539 1454h143l297 -291h-188l-181 180l-180 -180h-188zM569 -20q-220 0 -364 75v168q69 -47 165.5 -73.5t196.5 -26.5q126 0 196.5 43.5t70.5 116.5q0 66 -63 104.5t-191 67.5q-180 38 -271.5 109t-91.5 188q0 134 113.5 213t316.5 79q176 0 285 -45v-155
q-114 57 -287 57q-127 0 -195.5 -38t-68.5 -107q0 -56 51 -90t184 -66q187 -45 283 -118.5t96 -194.5q0 -141 -113.5 -224t-312.5 -83z" />
    <glyph glyph-name="Scedilla" unicode="&#x15e;" 
d="M1047 346q0 -147 -103.5 -242.5t-288.5 -117.5q49 -37 73.5 -88.5t20.5 -101t-26.5 -93t-70 -70t-107.5 -26.5q-65 0 -127 20v119q62 -10 82 -10q72 0 99 45t4 103.5t-81 95.5q-110 3 -213 28t-178 66v184q83 -58 194.5 -90.5t227.5 -32.5q149 0 233 55t84 150
q0 177 -307 254q-411 100 -411 385q0 160 124.5 256t341.5 96q189 0 347 -63v-183q-147 91 -344 91q-138 0 -215.5 -49.5t-77.5 -137.5q0 -171 299 -239q197 -44 308.5 -147t111.5 -257z" />
    <glyph glyph-name="scedilla" unicode="&#x15f;" 
d="M995 287q0 -123 -87.5 -203t-245.5 -100q48 -37 72 -87.5t20 -100t-27 -93t-70.5 -70t-107.5 -26.5q-65 0 -127 20v119q62 -10 82 -10q72 0 99 45t4 103.5t-81 95.5q-200 10 -321 75v168q69 -47 165.5 -73.5t196.5 -26.5q126 0 196.5 43.5t70.5 116.5q0 66 -63 104.5
t-191 67.5q-180 38 -271.5 109t-91.5 188q0 134 113.5 213t316.5 79q176 0 285 -45v-155q-114 57 -287 57q-127 0 -195.5 -38t-68.5 -107q0 -56 51 -90t184 -66q187 -45 283 -118.5t96 -194.5z" />
    <glyph glyph-name="Scaron" unicode="&#x160;" 
d="M535 1450l-297 291h188l180 -180l180 180h189l-297 -291h-143zM553 -20q-119 0 -231 25t-191 69v184q83 -58 194.5 -90.5t227.5 -32.5q149 0 233 55t84 150q0 177 -307 254q-411 100 -411 385q0 160 124.5 256t341.5 96q189 0 347 -63v-183q-147 91 -344 91
q-138 0 -215.5 -49.5t-77.5 -137.5q0 -171 299 -239q197 -44 308.5 -147t111.5 -257q0 -167 -132 -266.5t-362 -99.5z" />
    <glyph glyph-name="scaron" unicode="&#x161;" 
d="M539 1163l-297 291h188l180 -180l181 180h188l-297 -291h-143zM569 -20q-220 0 -364 75v168q69 -47 165.5 -73.5t196.5 -26.5q126 0 196.5 43.5t70.5 116.5q0 66 -63 104.5t-191 67.5q-180 38 -271.5 109t-91.5 188q0 134 113.5 213t316.5 79q176 0 285 -45v-155
q-114 57 -287 57q-127 0 -195.5 -38t-68.5 -107q0 -56 51 -90t184 -66q187 -45 283 -118.5t96 -194.5q0 -141 -113.5 -224t-312.5 -83z" />
    <glyph glyph-name="Tcaron" unicode="&#x164;" 
d="M522 1450l-297 291h189l180 -180l180 180h189l-297 -291h-144zM508 0v1159h-406v152h983v-152h-405v-1159h-172z" />
    <glyph glyph-name="tcaron" unicode="&#x165;" 
d="M801 1069q73 48 84 143q-51 -31 -99.5 4t-48.5 95q0 48 35.5 85.5t85.5 37.5q55 0 97 -47t42 -130q0 -103 -59 -188h-137zM795 -20q-210 0 -312 102t-102 307v488h-287v147h295l37 287h123v-287h467v-147h-467v-488q0 -135 59 -196.5t197 -61.5q109 0 207 49v-157
q-101 -43 -217 -43z" />
    <glyph glyph-name="Tbar" unicode="&#x166;" 
d="M1085 1159h-405v-381h303v-139h-303v-639h-172v639h-303v139h303v381h-406v152h983v-152z" />
    <glyph glyph-name="tbar" unicode="&#x167;" 
d="M1016 877h-467v-242h395v-139h-395v-107q0 -135 59 -196.5t197 -61.5q109 0 207 49v-157q-101 -43 -217 -43q-210 0 -312 102t-102 307v107h-215v139h215v242h-287v147h295l37 287h123v-287h467v-147z" />
    <glyph glyph-name="Utilde" unicode="&#x168;" 
d="M741 1438q-45 0 -83.5 19.5t-65.5 47.5t-50.5 56t-49.5 47.5t-52 19.5q-81 0 -108 -178h-127q21 150 85.5 226.5t155.5 76.5q45 0 84 -19.5t66 -47.5t51 -56t49.5 -47.5t51.5 -19.5q81 0 108 178h127q-21 -150 -86 -226.5t-156 -76.5zM594 -20q-223 0 -347 126t-124 353
v852h172v-844q0 -158 79 -245t220 -87t220 87t79 245v844h172v-852q0 -227 -124 -353t-347 -126z" />
    <glyph glyph-name="utilde" unicode="&#x169;" 
d="M741 1151q-45 0 -83.5 19.5t-65.5 47.5t-50.5 56t-49.5 47.5t-52 19.5q-81 0 -108 -178h-127q21 150 85.5 226.5t155.5 76.5q45 0 84 -19.5t66 -47.5t51 -56t49.5 -47.5t51.5 -19.5q81 0 108 178h127q-21 -150 -86 -226.5t-156 -76.5zM1008 1024v-1024h-148l-16 156
q-58 -85 -144 -130.5t-186 -45.5q-155 0 -244.5 102t-89.5 280v662h168v-631q0 -128 45.5 -196t149.5 -68q82 0 161 45t136 129v721h168z" />
    <glyph glyph-name="Umacron" unicode="&#x16a;" 
d="M266 1518v139h656v-139h-656zM594 -20q-223 0 -347 126t-124 353v852h172v-844q0 -158 79 -245t220 -87t220 87t79 245v844h172v-852q0 -227 -124 -353t-347 -126z" />
    <glyph glyph-name="umacron" unicode="&#x16b;" 
d="M266 1231v139h656v-139h-656zM1008 1024v-1024h-148l-16 156q-58 -85 -144 -130.5t-186 -45.5q-155 0 -244.5 102t-89.5 280v662h168v-631q0 -128 45.5 -196t149.5 -68q82 0 161 45t136 129v721h168z" />
    <glyph glyph-name="Ubreve" unicode="&#x16c;" 
d="M594 1438q-139 0 -217 80t-78 223h139q0 -82 41.5 -129t114.5 -47t114.5 47t41.5 129h139q0 -143 -78 -223t-217 -80zM594 -20q-223 0 -347 126t-124 353v852h172v-844q0 -158 79 -245t220 -87t220 87t79 245v844h172v-852q0 -227 -124 -353t-347 -126z" />
    <glyph glyph-name="ubreve" unicode="&#x16d;" 
d="M594 1151q-139 0 -217 80t-78 223h139q0 -82 41.5 -129t114.5 -47t114.5 47t41.5 129h139q0 -143 -78 -223t-217 -80zM1008 1024v-1024h-148l-16 156q-58 -85 -144 -130.5t-186 -45.5q-155 0 -244.5 102t-89.5 280v662h168v-631q0 -128 45.5 -196t149.5 -68q82 0 161 45
t136 129v721h168z" />
    <glyph glyph-name="Uring" unicode="&#x16e;" 
d="M594 1386q-94 0 -154.5 57.5t-60.5 151.5t60.5 151.5t154.5 57.5t154.5 -57.5t60.5 -151.5t-60.5 -151.5t-154.5 -57.5zM594 1495q44 0 72 26t28 74t-28 74.5t-72 26.5t-72 -26.5t-28 -74.5t28 -74t72 -26zM594 -20q-223 0 -347 126t-124 353v852h172v-844
q0 -158 79 -245t220 -87t220 87t79 245v844h172v-852q0 -227 -124 -353t-347 -126z" />
    <glyph glyph-name="uring" unicode="&#x16f;" 
d="M594 1100q-94 0 -154.5 57.5t-60.5 151.5t60.5 151.5t154.5 57.5t154.5 -57.5t60.5 -151.5t-60.5 -151.5t-154.5 -57.5zM594 1208q44 0 72 26.5t28 74.5t-28 74t-72 26t-72 -26t-28 -74t28 -74.5t72 -26.5zM1008 1024v-1024h-148l-16 156q-58 -85 -144 -130.5t-186 -45.5
q-155 0 -244.5 102t-89.5 280v662h168v-631q0 -128 45.5 -196t149.5 -68q82 0 161 45t136 129v721h168z" />
    <glyph glyph-name="Uhungarumlaut" unicode="&#x170;" 
d="M287 1450l237 291h181l-238 -291h-180zM631 1450l237 291h181l-238 -291h-180zM594 -20q-223 0 -347 126t-124 353v852h172v-844q0 -158 79 -245t220 -87t220 87t79 245v844h172v-852q0 -227 -124 -353t-347 -126z" />
    <glyph glyph-name="uhungarumlaut" unicode="&#x171;" 
d="M287 1163l237 291h181l-238 -291h-180zM631 1163l237 291h181l-238 -291h-180zM1008 1024v-1024h-148l-16 156q-58 -85 -144 -130.5t-186 -45.5q-155 0 -244.5 102t-89.5 280v662h168v-631q0 -128 45.5 -196t149.5 -68q82 0 161 45t136 129v721h168z" />
    <glyph glyph-name="Uogonek" unicode="&#x172;" 
d="M893 1311h172v-852q0 -182 -80.5 -300.5t-228.5 -158.5q-74 -29 -109.5 -93.5t-11 -117.5t103.5 -53q20 0 82 10v-119q-62 -20 -127 -20q-74 0 -126.5 40.5t-69 97.5t3 122.5t78.5 112.5q-217 5 -337 130t-120 349v852h172v-844q0 -158 79 -245t220 -87t220 87t79 245
v844z" />
    <glyph glyph-name="uogonek" unicode="&#x173;" 
d="M991 -264q20 0 82 10v-119q-62 -20 -127 -20q-78 0 -132 44.5t-68 105.5t14.5 130t99.5 113l-16 156q-58 -85 -144 -130.5t-186 -45.5q-155 0 -244.5 102t-89.5 280v662h168v-631q0 -128 45.5 -196t149.5 -68q82 0 161 45t136 129v721h168v-1024q-74 -29 -109.5 -93.5
t-11 -117.5t103.5 -53z" />
    <glyph glyph-name="Wcircumflex" unicode="&#x174;" 
d="M522 1741h144l297 -291h-189l-180 180l-180 -180h-189zM217 0l-217 1311h172l129 -1004l254 885h82l254 -885l129 1004h168l-217 -1311h-127l-250 877l-250 -877h-127z" />
    <glyph glyph-name="wcircumflex" unicode="&#x175;" 
d="M522 1454h144l297 -291h-189l-180 180l-180 -180h-189zM229 0l-225 1024h164l149 -803l226 803h106l225 -803l150 803h160l-226 -1024h-147l-217 756l-217 -756h-148z" />
    <glyph glyph-name="Ycircumflex" unicode="&#x176;" 
d="M594 1630l-180 -180h-189l297 291h144l297 -291h-189zM1151 1311l-471 -801v-510h-172v510l-471 801h180l379 -660l379 660h176z" />
    <glyph glyph-name="ycircumflex" unicode="&#x177;" 
d="M524 1454h144l297 -291h-189l-180 180l-180 -180h-189zM219 -389q-69 0 -119 20v152q42 -21 103 -21q98 0 158 45t112 154l35 74l-414 989h180l322 -836l322 836h176l-449 -1077q-23 -55 -45 -96.5t-59 -89t-79.5 -78.5t-105.5 -51.5t-137 -20.5z" />
    <glyph glyph-name="Ydieresis" unicode="&#x178;" 
d="M371 1477q-48 0 -82.5 34.5t-34.5 83.5t34.5 84t82.5 35q49 0 83.5 -34.5t34.5 -84.5q0 -49 -34.5 -83.5t-83.5 -34.5zM817 1477q-50 0 -84.5 34.5t-34.5 83.5t35 84t84 35t83 -34.5t34 -84.5t-34 -84t-83 -34zM1151 1311l-471 -801v-510h-172v510l-471 801h180l379 -660
l379 660h176z" />
    <glyph glyph-name="Zacute" unicode="&#x179;" 
d="M473 1450l217 291h205l-264 -291h-158zM102 0v49l732 1110h-678v152h929v-41l-733 -1118h725v-152h-975z" />
    <glyph glyph-name="zacute" unicode="&#x17a;" 
d="M479 1163l217 291h205l-264 -291h-158zM156 0v49l624 828h-579v147h835v-41l-626 -836h618v-147h-872z" />
    <glyph glyph-name="Zdotaccent" unicode="&#x17b;" 
d="M608 1468q-54 0 -90.5 36.5t-36.5 90.5t36.5 91.5t90.5 37.5t91.5 -37.5t37.5 -91.5t-37.5 -90.5t-91.5 -36.5zM102 0v49l732 1110h-678v152h929v-41l-733 -1118h725v-152h-975z" />
    <glyph glyph-name="zdotaccent" unicode="&#x17c;" 
d="M614 1182q-54 0 -90.5 36.5t-36.5 90.5t36.5 91.5t90.5 37.5t91.5 -37.5t37.5 -91.5t-37.5 -90.5t-91.5 -36.5zM156 0v49l624 828h-579v147h835v-41l-626 -836h618v-147h-872z" />
    <glyph glyph-name="Zcaron" unicode="&#x17d;" 
d="M537 1450l-297 291h188l180 -180l180 180h189l-297 -291h-143zM102 0v49l732 1110h-678v152h929v-41l-733 -1118h725v-152h-975z" />
    <glyph glyph-name="zcaron" unicode="&#x17e;" 
d="M543 1163l-297 291h188l180 -180l181 180h188l-297 -291h-143zM156 0v49l624 828h-579v147h835v-41l-626 -836h618v-147h-872z" />
    <glyph glyph-name="longs" unicode="&#x17f;" 
d="M305 0v971q0 220 121.5 341.5t351.5 121.5q153 0 279 -48v-153q-55 22 -133.5 35.5t-145.5 13.5q-152 0 -228.5 -80.5t-76.5 -230.5v-971h-168z" />
    <glyph glyph-name="florin" unicode="&#x192;" 
d="M940 1282q-186 0 -207 -180l-43 -377h348v-111h-362l-49 -426q-17 -149 -114 -230t-257 -81q-134 0 -227 57v164q100 -69 221 -69q186 0 207 180l47 405h-346v111h358l47 397q17 149 113 230.5t256 81.5q133 0 227 -58v-164q-102 70 -219 70z" />
    <glyph glyph-name="Aringacute" unicode="&#x1fa;" 
d="M881 1966l-265 -291h-157l217 291h205zM967 0l-107 307h-536l-107 -307h-176l442 1229q-48 25 -76 72.5t-28 109.5q0 94 60.5 151.5t154.5 57.5t154.5 -57.5t60.5 -151.5q0 -62 -28 -109.5t-76 -72.5l442 -1229h-180zM594 1511q-44 0 -72 -26t-28 -74t28 -74t72 -26
t72 26t28 74t-28 74t-72 26zM373 455h438l-219 635z" />
    <glyph glyph-name="aringacute" unicode="&#x1fb;" 
d="M881 1864l-265 -291h-157l217 291h205zM586 1100q-94 0 -154.5 57.5t-60.5 151.5t60.5 151.5t154.5 57.5t154.5 -57.5t60.5 -151.5t-60.5 -151.5t-154.5 -57.5zM586 1409q-45 0 -73 -26t-28 -74t28.5 -74.5t72.5 -26.5t72 26.5t28 74.5t-28 74t-72 26zM967 223
q0 -71 39 -101t100 -1v-107q-28 -23 -72.5 -30t-90 3t-85 47.5t-55.5 96.5q-88 -151 -309 -151q-173 0 -270 91.5t-97 233.5q0 98 47.5 171.5t123 109t164.5 46t178.5 -10t158.5 -66.5v72q0 266 -283 266q-135 0 -301 -88l2 162q155 77 320 77q195 0 312.5 -99t117.5 -283
v-439zM520 121q132 0 205.5 74.5t73.5 189.5v51q-61 41 -147 58.5t-165.5 8t-135.5 -59.5t-56 -134q0 -86 59 -137t166 -51z" />
    <glyph glyph-name="AEacute" unicode="&#x1fc;" 
d="M963 1741l-265 -291h-157l217 291h205zM725 147h422v-147h-590v342h-287l-102 -342h-164l406 1311h729v-148h-414v-420h340v-147h-340v-449zM313 485h244v678h-43z" />
    <glyph glyph-name="aeacute" unicode="&#x1fd;" 
d="M455 1163l217 291h205l-265 -291h-157zM319 -20q-136 0 -213 96.5t-77 234.5q0 73 23 137t61 108t88 71t102 32.5t106 -13t97 -60.5v41q0 135 -56.5 202.5t-148.5 67.5q-104 0 -205 -66l2 154q102 59 219 59q59 0 112.5 -15t98.5 -50.5t66 -87.5q59 153 237 153
q320 0 320 -532q0 -12 -4 -66h-475q22 -327 246 -327q79 0 186 65v-155q-114 -49 -209 -49q-115 0 -201 53t-119 139q-24 -94 -91 -143t-165 -49zM672 582h317q-12 323 -158 323q-147 0 -159 -323zM340 117q82 0 124 75t42 193v78q-37 45 -92.5 57t-105 -7t-85 -73
t-35.5 -129q0 -79 40.5 -136.5t111.5 -57.5z" />
    <glyph glyph-name="Oslashacute" unicode="&#x1fe;" 
d="M881 1741l-265 -291h-157l217 291h205zM936 1194q170 -173 170 -539q0 -323 -134.5 -499t-377.5 -176q-132 0 -232 53l-88 -176h-151l129 260q-170 173 -170 538q0 323 135 499.5t377 176.5q131 0 231 -53l88 176h152zM258 655q0 -233 78 -368l418 843q-67 46 -160 46
q-159 0 -247.5 -136t-88.5 -385zM594 135q159 0 247.5 135.5t88.5 384.5q0 234 -78 369l-418 -844q65 -45 160 -45z" />
    <glyph glyph-name="oslashacute" unicode="&#x1ff;" 
d="M881 1454l-265 -291h-157l217 291h205zM901 942q160 -141 160 -430q0 -254 -123 -393t-344 -139q-111 0 -195 34l-84 -157h-151l123 225q-160 141 -160 430q0 254 123 393t344 139q110 0 194 -34l84 157h152zM299 512q0 -173 72 -274l342 632q-57 23 -119 23
q-140 0 -217.5 -99.5t-77.5 -281.5zM594 131q140 0 217.5 99.5t77.5 281.5q0 173 -72 274l-342 -632q57 -23 119 -23z" />
    <glyph glyph-name="Scommaaccent" unicode="&#x218;" 
d="M553 -20q-119 0 -231 25t-191 69v184q83 -58 194.5 -90.5t227.5 -32.5q149 0 233 55t84 150q0 177 -307 254q-411 100 -411 385q0 160 124.5 256t341.5 96q189 0 347 -63v-183q-147 91 -344 91q-138 0 -215.5 -49.5t-77.5 -137.5q0 -171 299 -239q197 -44 308.5 -147
t111.5 -257q0 -167 -132 -266.5t-362 -99.5zM391 -649v100q96 6 146 58.5t57 121.5q-51 -31 -99.5 4t-48.5 95q0 48 35.5 85.5t85.5 37.5q56 0 98 -47t42 -130q0 -40 -10.5 -81t-34.5 -83.5t-59.5 -76t-90.5 -56.5t-121 -28z" />
    <glyph glyph-name="scommaaccent" unicode="&#x219;" 
d="M569 -20q-220 0 -364 75v168q69 -47 165.5 -73.5t196.5 -26.5q126 0 196.5 43.5t70.5 116.5q0 66 -63 104.5t-191 67.5q-180 38 -271.5 109t-91.5 188q0 134 113.5 213t316.5 79q176 0 285 -45v-155q-114 57 -287 57q-127 0 -195.5 -38t-68.5 -107q0 -56 51 -90t184 -66
q187 -45 283 -118.5t96 -194.5q0 -141 -113.5 -224t-312.5 -83zM395 -649v100q96 6 146 58.5t57 121.5q-51 -31 -99 4t-48 95q0 48 35 85.5t85 37.5q56 0 98 -47t42 -130q0 -40 -10.5 -81t-34.5 -83.5t-59.5 -76t-90.5 -56.5t-121 -28z" />
    <glyph glyph-name="uni021A" unicode="&#x21a;" 
d="M508 0v1159h-406v152h983v-152h-405v-1159h-172zM403 -649v100q96 6 146 58.5t57 121.5q-51 -31 -99 4t-48 95q0 48 35.5 85.5t85.5 37.5q55 0 97 -47t42 -130q0 -40 -10.5 -81t-34.5 -83.5t-59.5 -76t-90.5 -56.5t-121 -28z" />
    <glyph glyph-name="uni021B" unicode="&#x21b;" 
d="M795 -20q-210 0 -312 102t-102 307v488h-287v147h295l37 287h123v-287h467v-147h-467v-488q0 -135 59 -196.5t197 -61.5q109 0 207 49v-157q-101 -43 -217 -43zM516 -649v100q96 6 146 58.5t57 121.5q-51 -31 -99.5 4t-48.5 95q0 48 35.5 85.5t85.5 37.5q55 0 97 -47
t42 -130q0 -40 -10.5 -81t-34.5 -83.5t-59 -76t-90 -56.5t-121 -28z" />
    <glyph glyph-name="uni0259" unicode="&#x259;" 
d="M530 1044q246 0 382.5 -138.5t136.5 -393.5q0 -254 -122.5 -393t-336.5 -139t-332.5 138.5t-118.5 393.5q0 26 4 66h729q-15 156 -109 239.5t-259 83.5q-186 0 -318 -94v170q151 67 344 67zM590 123q118 0 193.5 83t88.5 234h-557q13 -152 85.5 -234.5t189.5 -82.5z" />
    <glyph glyph-name="circumflex" unicode="&#x2c6;" 
d="M522 1454h144l297 -291h-189l-180 180l-180 -180h-189z" />
    <glyph glyph-name="caron" unicode="&#x2c7;" 
d="M522 1163l-297 291h189l180 -180l180 180h189l-297 -291h-144z" />
    <glyph glyph-name="breve" unicode="&#x2d8;" 
d="M594 1151q-139 0 -217 80t-78 223h139q0 -82 41.5 -129t114.5 -47t114.5 47t41.5 129h139q0 -143 -78 -223t-217 -80z" />
    <glyph glyph-name="dotaccent" unicode="&#x2d9;" 
d="M594 1182q-54 0 -90.5 36.5t-36.5 90.5t36.5 91.5t90.5 37.5t91.5 -37.5t37.5 -91.5t-37.5 -90.5t-91.5 -36.5z" />
    <glyph glyph-name="ring" unicode="&#x2da;" 
d="M594 1100q-94 0 -154.5 57.5t-60.5 151.5t60.5 151.5t154.5 57.5t154.5 -57.5t60.5 -151.5t-60.5 -151.5t-154.5 -57.5zM594 1208q44 0 72 26.5t28 74.5t-28 74t-72 26t-72 -26t-28 -74t28 -74.5t72 -26.5z" />
    <glyph glyph-name="ogonek" unicode="&#x2db;" 
d="M631 -393q-78 0 -132 44.5t-68 105.5t14.5 130t99.5 113h147q-74 -29 -109.5 -93.5t-10.5 -117.5t104 -53q20 0 82 10v-119q-62 -20 -127 -20z" />
    <glyph glyph-name="tilde" unicode="&#x2dc;" 
d="M741 1151q-45 0 -83.5 19.5t-65.5 47.5t-50.5 56t-49.5 47.5t-52 19.5q-81 0 -108 -178h-127q21 150 85.5 226.5t155.5 76.5q45 0 84 -19.5t66 -47.5t51 -56t49.5 -47.5t51.5 -19.5q81 0 108 178h127q-21 -150 -86 -226.5t-156 -76.5z" />
    <glyph glyph-name="hungarumlaut" unicode="&#x2dd;" 
d="M287 1163l237 291h181l-238 -291h-180zM631 1163l237 291h181l-238 -291h-180z" />
    <glyph glyph-name="uni0326" unicode="&#x326;" horiz-adv-x="0" 
d="M-784 -649v100q96 6 145.5 58.5t56.5 121.5q-51 -31 -99 4t-48 95q0 48 35.5 85.5t85.5 37.5q55 0 97 -47t42 -130q0 -40 -10.5 -81t-34.5 -83.5t-59 -76t-90 -56.5t-121 -28z" />
    <glyph glyph-name="uni0394" unicode="&#x394;" 
d="M594 1333l586 -1333h-1172zM248 147h692l-346 818z" />
    <glyph glyph-name="uni03A9" unicode="&#x3a9;" 
d="M78 0v143h219q-97 76 -156 214t-59 319q0 309 135 482t377 173t377 -173t135 -482q0 -181 -59 -319t-156 -214h219v-143h-426v86q246 157 246 578q0 248 -88 380t-248 132t-248 -132t-88 -380q0 -421 246 -578v-86h-426z" />
    <glyph glyph-name="uni03BC" unicode="&#x3bc;" 
d="M156 -369v1393h168v-631q0 -129 47.5 -194.5t154.5 -65.5q177 0 289 166v725h168v-801q0 -71 39 -101t100 -1v-107q-28 -23 -75 -30t-94.5 4.5t-85 53t-44.5 105.5q-37 -72 -122.5 -119.5t-180.5 -47.5q-61 0 -117 21.5t-84 59.5v-430h-163z" />
    <glyph glyph-name="pi" unicode="&#x3c0;" 
d="M1155 877h-223v-582q0 -170 110 -170q66 0 113 31v-144q-52 -32 -147 -32q-117 0 -180.5 77t-63.5 213v607h-352v-877h-168v877h-224v147h1135v-147z" />
    <glyph glyph-name="Wgrave" unicode="&#x1e80;" 
d="M729 1450h-158l-264 291h205zM217 0l-217 1311h172l129 -1004l254 885h82l254 -885l129 1004h168l-217 -1311h-127l-250 877l-250 -877h-127z" />
    <glyph glyph-name="wgrave" unicode="&#x1e81;" 
d="M729 1163h-158l-264 291h205zM229 0l-225 1024h164l149 -803l226 803h106l225 -803l150 803h160l-226 -1024h-147l-217 756l-217 -756h-148z" />
    <glyph glyph-name="Wacute" unicode="&#x1e82;" 
d="M459 1450l217 291h205l-265 -291h-157zM217 0l-217 1311h172l129 -1004l254 885h82l254 -885l129 1004h168l-217 -1311h-127l-250 877l-250 -877h-127z" />
    <glyph glyph-name="wacute" unicode="&#x1e83;" 
d="M459 1163l217 291h205l-265 -291h-157zM229 0l-225 1024h164l149 -803l226 803h106l225 -803l150 803h160l-226 -1024h-147l-217 756l-217 -756h-148z" />
    <glyph glyph-name="Wdieresis" unicode="&#x1e84;" 
d="M371 1477q-48 0 -82.5 34.5t-34.5 83.5t34.5 84t82.5 35q49 0 83.5 -34.5t34.5 -84.5q0 -49 -34.5 -83.5t-83.5 -34.5zM817 1477q-50 0 -84.5 34.5t-34.5 83.5t35 84t84 35t83 -34.5t34 -84.5t-34 -84t-83 -34zM217 0l-217 1311h172l129 -1004l254 885h82l254 -885
l129 1004h168l-217 -1311h-127l-250 877l-250 -877h-127z" />
    <glyph glyph-name="wdieresis" unicode="&#x1e85;" 
d="M371 1190q-48 0 -82.5 35t-34.5 84t34.5 83.5t82.5 34.5q49 0 83.5 -34.5t34.5 -83.5q0 -50 -34.5 -84.5t-83.5 -34.5zM817 1190q-49 0 -84 35t-35 84t34.5 83.5t84.5 34.5q49 0 83 -34t34 -84t-34 -84.5t-83 -34.5zM229 0l-225 1024h164l149 -803l226 803h106l225 -803
l150 803h160l-226 -1024h-147l-217 756l-217 -756h-148z" />
    <glyph glyph-name="Ygrave" unicode="&#x1ef2;" 
d="M729 1450h-158l-264 291h205zM1151 1311l-471 -801v-510h-172v510l-471 801h180l379 -660l379 660h176z" />
    <glyph glyph-name="ygrave" unicode="&#x1ef3;" 
d="M731 1163h-158l-264 291h205zM219 -389q-69 0 -119 20v152q42 -21 103 -21q98 0 158 45t112 154l35 74l-414 989h180l322 -836l322 836h176l-449 -1077q-23 -55 -45 -96.5t-59 -89t-79.5 -78.5t-105.5 -51.5t-137 -20.5z" />
    <glyph glyph-name="endash" unicode="&#x2013;" 
d="M102 625v143h983v-143h-983z" />
    <glyph glyph-name="emdash" unicode="&#x2014;" 
d="M20 625v143h1147v-143h-1147z" />
    <glyph glyph-name="quoteleft" unicode="&#x2018;" 
d="M881 1434v-131q-143 -3 -221.5 -75t-90.5 -175q48 26 91.5 14.5t73.5 -53t30 -92.5q0 -65 -46.5 -112.5t-113.5 -47.5q-74 0 -128 59.5t-54 169.5q0 57 16 116t52 118t87.5 104.5t130.5 74.5t173 30z" />
    <glyph glyph-name="quoteright" unicode="&#x2019;" 
d="M307 762v131q143 3 221 75t90 175q-48 -26 -91 -14.5t-73 53t-30 92.5q0 65 46.5 112.5t113.5 47.5q74 0 128 -60t54 -170q0 -57 -16 -116t-52 -117.5t-87.5 -104t-130.5 -74.5t-173 -30z" />
    <glyph glyph-name="quotesinglbase" unicode="&#x201a;" 
d="M307 -365v132q143 3 221 74.5t90 174.5q-48 -26 -91 -14.5t-73 53t-30 92.5q0 65 46.5 112.5t113.5 47.5q74 0 128 -59.5t54 -169.5q0 -57 -16 -116t-52 -118t-87.5 -104.5t-130.5 -74.5t-173 -30z" />
    <glyph glyph-name="quotedblleft" unicode="&#x201c;" 
d="M526 1434l-2 -121q-66 -2 -116.5 -22.5t-79.5 -53.5t-44.5 -68.5t-19.5 -74.5q61 37 119.5 -4.5t58.5 -114.5q0 -59 -43 -104.5t-104 -45.5q-67 0 -117.5 56.5t-50.5 156.5q0 49 12.5 99t43 102t74.5 93t114 69t155 33zM1049 1434l-2 -121q-66 -2 -116.5 -22.5t-80 -53.5
t-45 -68.5t-19.5 -74.5q61 37 120 -4.5t59 -114.5q0 -59 -43.5 -104.5t-104.5 -45.5q-67 0 -117.5 56.5t-50.5 156.5q0 49 12.5 99t43 102t75 93t114.5 69t155 33z" />
    <glyph glyph-name="quotedblright" unicode="&#x201d;" 
d="M127 825l2 121q66 2 116.5 22.5t79.5 53.5t44.5 68.5t19.5 74.5q-61 -37 -119.5 4.5t-58.5 114.5q0 59 43 104.5t104 45.5q67 0 117.5 -56.5t50.5 -156.5q0 -49 -12.5 -99t-43 -102t-74.5 -93t-114 -69t-155 -33zM649 825l2 121q66 2 116.5 22.5t79.5 53.5t44.5 68.5
t19.5 74.5q-61 -37 -119.5 4.5t-58.5 114.5q0 59 43.5 104.5t104.5 45.5q67 0 117.5 -56.5t50.5 -156.5q0 -49 -12.5 -99t-43 -102t-75 -93t-114.5 -69t-155 -33z" />
    <glyph glyph-name="quotedblbase" unicode="&#x201e;" 
d="M119 -328l2 121q66 2 116.5 22.5t79.5 53.5t44.5 68.5t19.5 74.5q-61 -37 -119.5 4.5t-58.5 114.5q0 59 43 104.5t104 45.5q67 0 117.5 -56.5t50.5 -156.5q0 -49 -12.5 -99t-43 -102t-74.5 -93t-114 -69t-155 -33zM641 -328l2 121q66 2 116.5 22.5t79.5 53.5t44.5 68.5
t19.5 74.5q-61 -37 -119.5 4.5t-58.5 114.5q0 59 43 104.5t104 45.5q67 0 117.5 -56.5t50.5 -156.5q0 -49 -12.5 -99t-43 -102t-74.5 -93t-114 -69t-155 -33z" />
    <glyph glyph-name="dagger" unicode="&#x2020;" 
d="M1004 1081v-143h-330v-666h-160v666h-330v143h330v297h160v-297h330z" />
    <glyph glyph-name="daggerdbl" unicode="&#x2021;" 
d="M1004 938h-330v-498h330v-143h-330v-297h-160v297h-330v143h330v498h-330v143h330v297h160v-297h330v-143z" />
    <glyph glyph-name="bullet" unicode="&#x2022;" 
d="M594 240q-122 0 -208.5 87t-86.5 208t86.5 207.5t208.5 86.5t208.5 -86.5t86.5 -207.5t-86.5 -208t-208.5 -87z" />
    <glyph glyph-name="ellipsis" unicode="&#x2026;" 
d="M238 -20q-50 0 -84.5 34.5t-34.5 83.5q0 50 34.5 84.5t84.5 34.5q49 0 83.5 -34.5t34.5 -84.5t-34 -84t-84 -34zM594 -20q-50 0 -84.5 34.5t-34.5 83.5q0 50 34.5 84.5t84.5 34.5t84.5 -34.5t34.5 -84.5q0 -49 -34.5 -83.5t-84.5 -34.5zM950 -20q-50 0 -84.5 34.5
t-34.5 83.5q0 50 34.5 84.5t84.5 34.5t84.5 -34.5t34.5 -84.5q0 -49 -34.5 -83.5t-84.5 -34.5z" />
    <glyph glyph-name="perthousand" unicode="&#x2030;" 
d="M291 786q-103 0 -161 72t-58 199t58 198.5t161 71.5t161 -71.5t58 -198.5t-58 -199t-161 -72zM291 899q44 0 69 42t25 116q0 75 -25 117.5t-69 42.5t-69 -42.5t-25 -117.5q0 -74 25 -116t69 -42zM41 502v119l1106 383v-119zM362 -16q-103 0 -161 71.5t-58 198.5t58 198.5
t161 71.5t161.5 -71.5t58.5 -198.5t-58.5 -198.5t-161.5 -71.5zM870 -16q-103 0 -161 71.5t-58 198.5t58 198.5t161 71.5t161.5 -71.5t58.5 -198.5t-58.5 -198.5t-161.5 -71.5zM362 96q44 0 69.5 42t25.5 116q0 75 -25.5 117.5t-69.5 42.5t-69 -42.5t-25 -117.5
q0 -74 25 -116t69 -42zM870 96q44 0 69.5 42t25.5 116q0 75 -25.5 117.5t-69.5 42.5t-69 -42.5t-25 -117.5q0 -74 25 -116t69 -42z" />
    <glyph glyph-name="guilsinglleft" unicode="&#x2039;" 
d="M651 131l-344 412v20l344 412h189l-357 -422l357 -422h-189z" />
    <glyph glyph-name="guilsinglright" unicode="&#x203a;" 
d="M537 131h-189l357 422l-357 422h189l344 -412v-20z" />
    <glyph glyph-name="uni203D" unicode="&#x203d;" 
d="M469 389l-20 744h192l-10 -367q188 61 188 242q0 116 -72 175.5t-196 59.5q-93 0 -181 -29.5t-198 -99.5v178q173 107 379 107q193 0 318.5 -108.5t125.5 -274.5q0 -102 -52 -186.5t-135.5 -132.5t-180.5 -54l-6 -254h-152zM545 -35q-55 0 -94 38.5t-39 94.5t39 94.5
t94 38.5t94 -38.5t39 -94.5t-39 -94.5t-94 -38.5z" />
    <glyph glyph-name="fraction" unicode="&#x2044;" 
d="M41 -266l946 1782h160l-946 -1782h-160z" />
    <glyph glyph-name="uni2070" unicode="&#x2070;" 
d="M594 614q-150 0 -234 106.5t-84 299.5t84 299t234 106q151 0 234 -106t83 -299t-83 -299.5t-234 -106.5zM594 745q84 0 130 71.5t46 203.5q0 131 -46 202.5t-130 71.5t-130 -71.5t-46 -202.5q0 -132 46 -203.5t130 -71.5z" />
    <glyph glyph-name="uni2074" unicode="&#x2074;" 
d="M631 627v170h-371v90l356 526h158v-489h127v-127h-127v-170h-143zM422 924h209v311z" />
    <glyph glyph-name="uni2075" unicode="&#x2075;" 
d="M569 614q-123 0 -241 48v147q53 -33 107 -48.5t134 -15.5q156 0 156 136q0 58 -30.5 90.5t-92.5 32.5q-58 0 -117 -43l-139 57v395h485v-131h-346v-201q20 19 33.5 28.5t45.5 18.5t77 9q101 0 165 -68.5t64 -187.5q0 -267 -301 -267z" />
    <glyph glyph-name="uni2076" unicode="&#x2076;" 
d="M641 1143q113 0 181.5 -80t68.5 -189q0 -114 -80 -187t-203 -73q-136 0 -218.5 77.5t-82.5 197.5q0 76 33.5 146t95.5 147l185 231h167l-204 -252l-49 -47q33 29 106 29zM602 748q67 0 105 34t38 92q0 61 -38.5 98.5t-106.5 37.5t-107.5 -35t-39.5 -94q0 -61 39.5 -97
t109.5 -36z" />
    <glyph glyph-name="uni2077" unicode="&#x2077;" 
d="M383 627l328 653h-392v133h553v-94l-329 -692h-160z" />
    <glyph glyph-name="uni2078" unicode="&#x2078;" 
d="M594 614q-139 0 -222 65t-83 167q0 76 46 132.5t128 74.5q-70 12 -108 55.5t-38 112.5q0 84 79 144t198 60q120 0 198 -60t78 -144q0 -69 -37.5 -112.5t-107.5 -55.5q82 -18 128 -74.5t46 -132.5q0 -102 -83 -167t-222 -65zM594 1106q133 9 133 104q0 40 -35 64t-98 24
t-97 -23.5t-34 -64.5q0 -95 131 -104zM594 741q75 0 118.5 31.5t43.5 81.5q0 121 -162 131q-77 -5 -119.5 -38t-42.5 -93q0 -50 44 -81.5t118 -31.5z" />
    <glyph glyph-name="uni2079" unicode="&#x2079;" 
d="M580 1425q136 0 218.5 -77t82.5 -197q0 -76 -33.5 -146t-95.5 -147l-185 -231h-168l205 252l49 47q-33 -29 -106 -29q-113 0 -181.5 79.5t-68.5 188.5q0 114 80 187t203 73zM588 1030q68 0 107.5 35t39.5 94q0 61 -39.5 97t-109.5 36q-67 0 -105.5 -34.5t-38.5 -92.5
q0 -61 39 -98t107 -37z" />
    <glyph glyph-name="colonmonetary" unicode="&#x20a1;" 
d="M1106 1413l-375 -1204q155 21 277 102v-170q-146 -78 -324 -84l-49 -159h-123l51 165q-73 8 -151 41l-64 -206h-123l82 266q-201 156 -201 491q0 279 142.5 436t398.5 162l49 160h123l-51 -168q60 -7 152 -37l63 205h123zM459 256q67 -40 149 -49l266 860q-64 27 -151 37
zM270 655q0 -194 92 -313l238 760q-153 -20 -241.5 -139t-88.5 -308z" />
    <glyph glyph-name="uni20A6" unicode="&#x20a6;" 
d="M184 0v467h-143v102h143v213h-143v103h143v426h148l221 -426h311v426h140v-426h143v-103h-143v-213h143v-102h-143v-467h-127l-242 467h-311v-467h-140zM324 885h94l-94 180v-180zM324 569h258l-111 213h-147v-213zM717 569h147v213h-258zM864 287v180h-94z" />
    <glyph glyph-name="Euro" unicode="&#x20ac;" 
d="M778 1176q-147 0 -241.5 -85.5t-128.5 -246.5h544v-103h-559q-4 -54 -4 -86q0 -39 2 -57h459v-102h-449q31 -174 127 -267.5t248 -93.5q88 0 180 30.5t164 84.5v-191q-158 -79 -350 -79q-227 0 -369.5 134t-177.5 382h-137v102h129q-2 18 -2 57q0 57 2 86h-129v103h141
q41 234 181.5 360.5t361.5 126.5q190 0 350 -80v-190q-72 54 -163 84.5t-179 30.5z" />
    <glyph glyph-name="uni20B1" unicode="&#x20b1;" 
d="M1171 1061v-103h-145q2 -16 2 -53q0 -39 -2 -57h145v-103h-167q-43 -118 -149 -181.5t-265 -63.5h-217v-500h-156v745h-151v103h151v110h-151v103h151v250h373q161 0 267.5 -65t146.5 -185h167zM578 1176h-205v-121h465q-73 121 -260 121zM373 965v-123h497q7 31 7 61
q0 31 -7 62h-497zM578 631q187 0 260 121h-465v-121h205z" />
    <glyph glyph-name="uni20B9" unicode="&#x20b9;" 
d="M1069 1311v-103h-326q148 -76 172 -247h154v-103h-149q-9 -148 -92.5 -236t-221.5 -112l334 -510h-197l-317 500h-254v151h289q112 0 189 50t91 157h-569v103h567q-18 103 -93 150.5t-185 47.5h-289v152h897z" />
    <glyph glyph-name="uni20BD" unicode="&#x20bd;" 
d="M672 561h-266v-139h552v-103h-552v-319h-156v319h-184v103h184v143h-184v103h184v643h422q207 0 322.5 -99t115.5 -276t-115.5 -276t-322.5 -99zM406 1176v-504h253q145 0 222 64.5t77 187.5t-77 187.5t-222 64.5h-253z" />
    <glyph glyph-name="uni2113" unicode="&#x2113;" 
d="M502 365q0 -120 50.5 -175t162.5 -55q69 0 141 25t127 69v-172q-49 -36 -122 -56.5t-152 -20.5q-180 0 -277.5 97.5t-97.5 276.5v21q-136 -42 -264 -66v148q149 31 264 67v531q0 167 99.5 273t275.5 106q165 0 260.5 -98t95.5 -265q0 -201 -145.5 -364t-417.5 -273v-69z
M502 1044v-458q197 85 296 201.5t99 275.5q0 215 -188 215q-105 0 -156 -62.5t-51 -171.5z" />
    <glyph glyph-name="uni2116" unicode="&#x2116;" 
d="M49 0v1311h144l331 -910v910h140v-1311h-123l-353 971v-971h-139zM954 578q-110 0 -171.5 82.5t-61.5 230.5t61.5 230.5t171.5 82.5t172 -82.5t62 -230.5t-62 -230.5t-172 -82.5zM954 696q51 0 79 51.5t28 143.5t-28 143t-79 51t-78.5 -50.5t-27.5 -143.5t27.5 -144
t78.5 -51zM750 385v115h409v-115h-409z" />
    <glyph glyph-name="uni2117" unicode="&#x2117;" 
d="M594 -20q-261 0 -407 178.5t-146 496.5t146 497t407 179t407 -179t146 -497t-146 -496.5t-407 -178.5zM594 102q198 0 310 146t112 407t-112 407t-310 146t-310 -146t-112 -407t112 -407t310 -146zM373 324v663h252q118 0 183.5 -60.5t65.5 -168.5t-65.5 -169t-183.5 -61
h-111v-204h-141zM514 643h94q58 0 90.5 30.5t32.5 84.5t-32.5 84t-90.5 30h-94v-229z" />
    <glyph glyph-name="uni2120" unicode="&#x2120;" 
d="M283 717q-116 0 -197 43v114q72 -52 199 -55q133 -4 133 74q0 35 -37 57.5t-94 28.5q-84 10 -144.5 52.5t-60.5 111.5q0 88 63 134t177 46q99 0 165 -25v-112q-25 15 -73.5 26t-91.5 11q-59 0 -92 -16.5t-33 -47.5q0 -33 28.5 -48t100.5 -26q84 -12 144 -59t60 -131
q0 -89 -71 -133.5t-176 -44.5zM592 729v582h123l125 -303l127 303h123v-582h-113v379l-133 -293h-10l-132 293v-379h-110z" />
    <glyph glyph-name="trademark" unicode="&#x2122;" 
d="M246 729v479h-172v103h454v-103h-172v-479h-110zM592 729v582h123l125 -303l127 303h123v-582h-113v379l-133 -293h-10l-132 293v-379h-110z" />
    <glyph glyph-name="estimated" unicode="&#x212e;" 
d="M291 483v-323q120 -94 323 -94q141 0 269 46.5t204 127.5v-111q-77 -70 -204.5 -109.5t-268.5 -39.5q-273 0 -420 139t-147 393q0 253 144 392.5t403 139.5q263 0 402.5 -146.5t144.5 -414.5h-850zM889 868q-113 90 -295 90q-184 0 -303 -92v-299h598v301z" />
    <glyph glyph-name="uni2150" unicode="&#x2150;" 
d="M340 942v131h201v490q-71 -64 -185 -97v133q101 27 215 130h115v-656h174v-131h-520zM106 586v123h975v-123h-975zM383 -434l328 653h-392v133h553v-94l-329 -692h-160z" />
    <glyph glyph-name="uni2151" unicode="&#x2151;" 
d="M860 1073v-131h-520v131h201v490q-71 -64 -185 -97v133q101 27 215 130h115v-656h174zM106 709h975v-123h-975v123zM580 365q136 0 218.5 -77.5t82.5 -197.5q0 -76 -33.5 -146t-95.5 -147l-185 -231h-168l205 252l49 47q-33 -29 -106 -29q-113 0 -181.5 79.5t-68.5 188.5
q0 114 80 187.5t203 73.5zM588 -31q68 0 107.5 35t39.5 94q0 61 -39.5 97t-109.5 36q-67 0 -105.5 -34.5t-38.5 -92.5q0 -61 39 -98t107 -37z" />
    <glyph glyph-name="uni2153" unicode="&#x2153;" 
d="M340 942v131h201v490q-71 -64 -185 -97v133q101 27 215 130h115v-656h174v-131h-520zM106 586v123h975v-123h-975zM573 -446q-129 0 -249 57v147q58 -32 128.5 -51.5t122.5 -19.5q76 0 115 28.5t39 79.5q0 58 -47.5 91.5t-130.5 33.5h-82v131h82q64 0 110 27.5t46 73.5
q0 37 -35.5 58t-98.5 21q-108 0 -231 -65v141q116 58 231 58q130 0 204.5 -53t74.5 -152q0 -72 -39.5 -119t-130.5 -53q190 -13 190 -213q0 -106 -74.5 -163.5t-224.5 -57.5z" />
    <glyph glyph-name="uni2154" unicode="&#x2154;" 
d="M328 942v88q32 32 91 82t103 89.5t89 88t69.5 99t24.5 100.5q0 58 -40 87.5t-100 29.5q-125 0 -229 -82v149q36 26 103 47t128 21q116 0 199.5 -68.5t83.5 -189.5q0 -60 -17.5 -110.5t-53 -92.5t-67 -71t-82 -69.5t-75.5 -64.5h313v-133h-540zM106 586v123h975v-123h-975
zM573 -446q-129 0 -249 57v147q58 -32 128.5 -51.5t122.5 -19.5q76 0 115 28.5t39 79.5q0 58 -47.5 91.5t-130.5 33.5h-82v131h82q64 0 110 27.5t46 73.5q0 37 -35.5 58t-98.5 21q-108 0 -231 -65v141q116 58 231 58q130 0 204.5 -53t74.5 -152q0 -72 -39.5 -119t-130.5 -53
q190 -13 190 -213q0 -106 -74.5 -163.5t-224.5 -57.5z" />
    <glyph glyph-name="uni2155" unicode="&#x2155;" 
d="M340 942v131h201v490q-71 -64 -185 -97v133q101 27 215 130h115v-656h174v-131h-520zM106 586v123h975v-123h-975zM569 -446q-126 0 -241 47v147q53 -33 106.5 -48t134.5 -15q156 0 156 135q0 58 -30.5 90.5t-92.5 32.5q-58 0 -117 -43l-139 57v395h485v-131h-346v-201
q20 19 33.5 28.5t45.5 18.5t77 9q101 0 165 -68.5t64 -187.5q0 -266 -301 -266z" />
    <glyph glyph-name="uni2156" unicode="&#x2156;" 
d="M328 942v88q32 32 91 82t103 89.5t89 88t69.5 99t24.5 100.5q0 58 -40 87.5t-100 29.5q-125 0 -229 -82v149q36 26 103 47t128 21q116 0 199.5 -68.5t83.5 -189.5q0 -60 -17.5 -110.5t-53 -92.5t-67 -71t-82 -69.5t-75.5 -64.5h313v-133h-540zM106 586v123h975v-123h-975
zM569 -446q-126 0 -241 47v147q53 -33 106.5 -48t134.5 -15q156 0 156 135q0 58 -30.5 90.5t-92.5 32.5q-58 0 -117 -43l-139 57v395h485v-131h-346v-201q20 19 33.5 28.5t45.5 18.5t77 9q101 0 165 -68.5t64 -187.5q0 -266 -301 -266z" />
    <glyph glyph-name="uni2157" unicode="&#x2157;" 
d="M573 930q-129 0 -249 57v148q58 -33 129 -52.5t122 -19.5q76 0 115 28.5t39 79.5q0 58 -47.5 91.5t-130.5 33.5h-82v131h82q64 0 110 27.5t46 73.5q0 37 -35.5 58.5t-98.5 21.5q-106 0 -231 -66v141q116 58 231 58q130 0 204.5 -53t74.5 -152q0 -72 -39.5 -119
t-130.5 -53q190 -13 190 -213q0 -106 -74.5 -163.5t-224.5 -57.5zM106 586v123h975v-123h-975zM569 -446q-126 0 -241 47v147q53 -33 106.5 -48t134.5 -15q156 0 156 135q0 58 -30.5 90.5t-92.5 32.5q-58 0 -117 -43l-139 57v395h485v-131h-346v-201q20 19 33.5 28.5
t45.5 18.5t77 9q101 0 165 -68.5t64 -187.5q0 -266 -301 -266z" />
    <glyph glyph-name="uni2158" unicode="&#x2158;" 
d="M631 942v170h-371v90l356 527h158v-490h127v-127h-127v-170h-143zM422 1239h209v311zM106 586v123h975v-123h-975zM569 -446q-126 0 -241 47v147q53 -33 106.5 -48t134.5 -15q156 0 156 135q0 58 -30.5 90.5t-92.5 32.5q-58 0 -117 -43l-139 57v395h485v-131h-346v-201
q20 19 33.5 28.5t45.5 18.5t77 9q101 0 165 -68.5t64 -187.5q0 -266 -301 -266z" />
    <glyph glyph-name="uni2159" unicode="&#x2159;" 
d="M860 1073v-131h-520v131h201v490q-71 -64 -185 -97v133q101 27 215 130h115v-656h174zM106 709h975v-123h-975v123zM641 82q113 0 181.5 -79.5t68.5 -188.5q0 -114 -80 -187t-203 -73q-136 0 -218.5 77t-82.5 197q0 76 33.5 146t95.5 147l185 231h167l-204 -252l-49 -47
q33 29 106 29zM602 -313q67 0 105 34.5t38 92.5q0 61 -38.5 98t-106.5 37t-107.5 -35t-39.5 -94q0 -61 39.5 -97t109.5 -36z" />
    <glyph glyph-name="uni215A" unicode="&#x215a;" 
d="M870 1196q0 -266 -301 -266q-126 0 -241 47v147q53 -33 106.5 -48t134.5 -15q156 0 156 135q0 58 -30.5 90.5t-92.5 32.5q-58 0 -117 -43l-139 57v396h485v-132h-346v-200q20 19 33.5 28t45.5 18t77 9q101 0 165 -68.5t64 -187.5zM106 709h975v-123h-975v123zM641 82
q113 0 181.5 -79.5t68.5 -188.5q0 -114 -80 -187t-203 -73q-136 0 -218.5 77t-82.5 197q0 76 33.5 146t95.5 147l185 231h167l-204 -252l-49 -47q33 29 106 29zM602 -313q67 0 105 34.5t38 92.5q0 61 -38.5 98t-106.5 37t-107.5 -35t-39.5 -94q0 -61 39.5 -97t109.5 -36z
" />
    <glyph glyph-name="oneeighth" unicode="&#x215b;" 
d="M340 942v131h201v490q-71 -64 -185 -97v133q101 27 215 130h115v-656h174v-131h-520zM106 586v123h975v-123h-975zM594 -446q-139 0 -222 65t-83 166q0 76 46 132.5t128 74.5q-70 12 -108 55.5t-38 112.5q0 84 79 144.5t198 60.5q120 0 198 -60.5t78 -144.5
q0 -69 -37.5 -112.5t-107.5 -55.5q82 -18 128 -74.5t46 -132.5q0 -101 -83 -166t-222 -65zM594 45q133 9 133 105q0 40 -35 64t-98 24t-97 -23.5t-34 -64.5q0 -96 131 -105zM594 -319q75 0 118.5 31t43.5 81q0 121 -162 131q-77 -5 -119.5 -38t-42.5 -93q0 -50 44 -81
t118 -31z" />
    <glyph glyph-name="threeeighths" unicode="&#x215c;" 
d="M573 930q-129 0 -249 57v148q58 -33 129 -52.5t122 -19.5q76 0 115 28.5t39 79.5q0 58 -47.5 91.5t-130.5 33.5h-82v131h82q64 0 110 27.5t46 73.5q0 37 -35.5 58.5t-98.5 21.5q-106 0 -231 -66v141q116 58 231 58q130 0 204.5 -53t74.5 -152q0 -72 -39.5 -119
t-130.5 -53q190 -13 190 -213q0 -106 -74.5 -163.5t-224.5 -57.5zM106 586v123h975v-123h-975zM594 -446q-139 0 -222 65t-83 166q0 76 46 132.5t128 74.5q-70 12 -108 55.5t-38 112.5q0 84 79 144.5t198 60.5q120 0 198 -60.5t78 -144.5q0 -69 -37.5 -112.5t-107.5 -55.5
q82 -18 128 -74.5t46 -132.5q0 -101 -83 -166t-222 -65zM594 45q133 9 133 105q0 40 -35 64t-98 24t-97 -23.5t-34 -64.5q0 -96 131 -105zM594 -319q75 0 118.5 31t43.5 81q0 121 -162 131q-77 -5 -119.5 -38t-42.5 -93q0 -50 44 -81t118 -31z" />
    <glyph glyph-name="fiveeighths" unicode="&#x215d;" 
d="M569 930q-126 0 -241 47v147q53 -33 106.5 -48t134.5 -15q156 0 156 135q0 58 -30.5 90.5t-92.5 32.5q-58 0 -117 -43l-139 57v396h485v-132h-346v-200q20 19 33.5 28t45.5 18t77 9q101 0 165 -68.5t64 -187.5q0 -266 -301 -266zM106 586v123h975v-123h-975zM594 -446
q-139 0 -222 65t-83 166q0 76 46 132.5t128 74.5q-70 12 -108 55.5t-38 112.5q0 84 79 144.5t198 60.5q120 0 198 -60.5t78 -144.5q0 -69 -37.5 -112.5t-107.5 -55.5q82 -18 128 -74.5t46 -132.5q0 -101 -83 -166t-222 -65zM594 45q133 9 133 105q0 40 -35 64t-98 24
t-97 -23.5t-34 -64.5q0 -96 131 -105zM594 -319q75 0 118.5 31t43.5 81q0 121 -162 131q-77 -5 -119.5 -38t-42.5 -93q0 -50 44 -81t118 -31z" />
    <glyph glyph-name="seveneighths" unicode="&#x215e;" 
d="M383 942l328 653h-392v134h553v-95l-329 -692h-160zM106 586v123h975v-123h-975zM594 -446q-139 0 -222 65t-83 166q0 76 46 132.5t128 74.5q-70 12 -108 55.5t-38 112.5q0 84 79 144.5t198 60.5q120 0 198 -60.5t78 -144.5q0 -69 -37.5 -112.5t-107.5 -55.5
q82 -18 128 -74.5t46 -132.5q0 -101 -83 -166t-222 -65zM594 45q133 9 133 105q0 40 -35 64t-98 24t-97 -23.5t-34 -64.5q0 -96 131 -105zM594 -319q75 0 118.5 31t43.5 81q0 121 -162 131q-77 -5 -119.5 -38t-42.5 -93q0 -50 44 -81t118 -31z" />
    <glyph glyph-name="uni2189" unicode="&#x2189;" 
d="M594 930q-150 0 -234 106t-84 299t84 299.5t234 106.5q151 0 234 -106.5t83 -299.5t-83 -299t-234 -106zM594 1061q84 0 130 71.5t46 202.5q0 132 -46 203.5t-130 71.5t-130 -71.5t-46 -203.5q0 -131 46 -202.5t130 -71.5zM106 586v123h975v-123h-975zM573 -446
q-129 0 -249 57v147q58 -32 128.5 -51.5t122.5 -19.5q76 0 115 28.5t39 79.5q0 58 -47.5 91.5t-130.5 33.5h-82v131h82q64 0 110 27.5t46 73.5q0 37 -35.5 58t-98.5 21q-108 0 -231 -65v141q116 58 231 58q130 0 204.5 -53t74.5 -152q0 -72 -39.5 -119t-130.5 -53
q190 -13 190 -213q0 -106 -74.5 -163.5t-224.5 -57.5z" />
    <glyph glyph-name="arrowleft" unicode="&#x2190;" 
d="M1147 741v-143h-838l367 -367l-98 -98l-537 537l537 536l98 -98l-369 -367h840z" />
    <glyph glyph-name="arrowup" unicode="&#x2191;" 
d="M1126 811l-98 -98l-358 358v-1071h-152v1071l-358 -358l-99 98l533 532z" />
    <glyph glyph-name="arrowright" unicode="&#x2192;" 
d="M1147 670l-537 -537l-98 98l367 367h-838v143h840l-369 367l98 98z" />
    <glyph glyph-name="arrowdown" unicode="&#x2193;" 
d="M1028 598l98 -98l-532 -533l-533 533l99 98l358 -358v1071h152v-1071z" />
    <glyph glyph-name="arrowboth" unicode="&#x2194;" 
d="M1184 670l-414 -414l-94 94l248 248h-660l248 -248l-94 -94l-414 414l414 413l94 -94l-250 -248h664l-250 248l94 94z" />
    <glyph glyph-name="arrowupdn" unicode="&#x2195;" 
d="M668 233l286 287l95 -94l-455 -455l-455 455l94 94l287 -287v844l-287 -286l-94 94l455 454l455 -454l-95 -94l-286 286v-844z" />
    <glyph glyph-name="uni2196" unicode="&#x2196;" 
d="M1126 373l-102 -103l-803 803v-504h-135v742h741v-135h-503z" />
    <glyph glyph-name="uni2197" unicode="&#x2197;" 
d="M1102 1311v-742h-135v504l-803 -803l-103 103l803 803h-504v135h742z" />
    <glyph glyph-name="uni2198" unicode="&#x2198;" 
d="M967 741h135v-741h-742v135h504l-803 803l103 102l803 -802v503z" />
    <glyph glyph-name="uni2199" unicode="&#x2199;" 
d="M1126 938l-802 -803h503v-135h-741v741h135v-503l803 802z" />
    <glyph glyph-name="partialdiff" unicode="&#x2202;" 
d="M569 -20q-204 0 -329 135t-125 346q0 122 50.5 223.5t146.5 163t220 61.5q86 0 162.5 -28t128.5 -84l-137 161l-379 455h213l320 -405q106 -134 159.5 -258.5t53.5 -266.5q0 -222 -130 -362.5t-354 -140.5zM578 131q133 0 216 95.5t83 232.5q0 132 -83.5 217.5
t-209.5 85.5q-130 0 -211.5 -88.5t-81.5 -222.5q0 -139 80 -229.5t207 -90.5z" />
    <glyph glyph-name="emptyset" unicode="&#x2205;" 
d="M911 1057q89 -68 138 -170.5t49 -231.5q0 -225 -142 -362t-362 -137q-113 0 -203 37l-117 -193h-151l153 254q-88 68 -137 170t-49 231q0 226 142 363t362 137q113 0 203 -37l116 193h152zM266 655q0 -165 96 -258l353 584q-56 18 -121 18q-146 0 -237 -91.5t-91 -252.5z
M594 311q146 0 237 91.5t91 252.5q0 164 -97 258l-352 -583q59 -19 121 -19z" />
    <glyph glyph-name="product" unicode="&#x220f;" 
d="M246 -225v1489h-213v149h1122v-149h-213v-1489h-172v1489h-352v-1489h-172z" />
    <glyph glyph-name="summation" unicode="&#x2211;" 
d="M78 -225v45l610 792l-604 756v45h1012v-151h-729l501 -625v-49l-510 -662h754v-151h-1034z" />
    <glyph glyph-name="minus" unicode="&#x2212;" 
d="M102 625v143h983v-143h-983z" />
    <glyph glyph-name="radical" unicode="&#x221a;" 
d="M416 -225l-408 999h180l297 -774l519 1413h176l-623 -1638h-141z" />
    <glyph glyph-name="infinity" unicode="&#x221e;" 
d="M322 330q-129 0 -205 97t-76 269t76.5 269.5t206.5 97.5q103 0 172.5 -64.5t97.5 -181.5q28 117 98 181.5t174 64.5q129 0 205 -97.5t76 -269.5t-76 -269t-205 -97q-104 0 -174 64t-98 181q-28 -117 -98 -181t-174 -64zM340 471q70 0 121.5 59t79.5 166
q-28 107 -80 166.5t-121 59.5q-71 0 -112.5 -60.5t-41.5 -165.5t41.5 -165t112.5 -60zM848 471q71 0 112 60t41 165t-41 165.5t-112 60.5q-69 0 -121 -59.5t-80 -166.5q28 -107 79.5 -166t121.5 -59z" />
    <glyph glyph-name="integral" unicode="&#x222b;" 
d="M285 -389q-86 0 -150 22v140q72 -17 123 -17q83 0 132.5 51t58.5 142l120 1167q15 151 101.5 234.5t232.5 83.5q83 0 150 -23v-139q-62 16 -119 16q-85 0 -134.5 -50t-58.5 -142l-120 -1168q-15 -150 -102 -233.5t-234 -83.5z" />
    <glyph glyph-name="approxequal" unicode="&#x2248;" 
d="M795 715q-62 0 -112.5 23.5t-84 57.5t-64 67.5t-67 57t-78.5 23.5q-58 0 -97 -47t-63 -156h-147q74 344 311 344q63 0 114 -23.5t84.5 -57.5t63.5 -67.5t66.5 -57t77.5 -23.5q57 0 96 47t63 156h148q-74 -344 -311 -344zM795 305q-62 0 -112.5 23.5t-84 57.5t-64 68
t-67 57.5t-78.5 23.5q-58 0 -97 -47t-63 -156h-147q74 344 311 344q53 0 98 -17t74.5 -42.5t59 -55.5t52.5 -55.5t55 -42.5t67 -17q57 0 96 47t63 156h148q-74 -344 -311 -344z" />
    <glyph glyph-name="notequal" unicode="&#x2260;" 
d="M1085 829h-362l-113 -266h475v-143h-534l-111 -266h-145l111 266h-304v143h363l113 266h-476v144h535l111 266h145l-111 -266h303v-144z" />
    <glyph glyph-name="lessequal" unicode="&#x2264;" 
d="M979 356l-762 396v94l762 395v-164l-584 -278l584 -279v-164zM217 102v140h762v-140h-762z" />
    <glyph glyph-name="greaterequal" unicode="&#x2265;" 
d="M217 356v164l584 279l-584 278v164l762 -395v-94zM979 102h-762v140h762v-140z" />
    <glyph glyph-name="lozenge" unicode="&#x25ca;" 
d="M686 1311l455 -643l-455 -668h-184l-455 668l455 643h184zM594 135l362 533l-362 512l-363 -512z" />
    <glyph glyph-name="i.loclTRK" 
d="M590 1182q-54 0 -90.5 36.5t-36.5 90.5t36.5 91.5t90.5 37.5t91.5 -37.5t37.5 -91.5t-37.5 -90.5t-91.5 -36.5zM184 0v147h348v730h-319v147h487v-877h324v-147h-840z" />
    <glyph glyph-name="zero.subs" 
d="M594 -242q-150 0 -234 106.5t-84 299.5t84 299t234 106q151 0 234 -106t83 -299t-83 -299.5t-234 -106.5zM594 -111q84 0 130 71.5t46 203.5q0 131 -46 202.5t-130 71.5t-130 -71.5t-46 -202.5q0 -132 46 -203.5t130 -71.5z" />
    <glyph glyph-name="one.subs" 
d="M340 -229v131h201v489q-70 -63 -185 -96v133q102 28 215 129h115v-655h174v-131h-520z" />
    <glyph glyph-name="two.subs" 
d="M328 -229v88q32 32 91 82t103 89.5t89 87.5t69.5 98.5t24.5 100.5q0 58 -40 87.5t-100 29.5q-125 0 -229 -82v150q36 26 102.5 46.5t128.5 20.5q116 0 199.5 -68.5t83.5 -189.5q0 -50 -14 -95t-35 -77.5t-54 -67t-61 -57.5t-67.5 -55.5t-63.5 -54.5h313v-133h-540z" />
    <glyph glyph-name="three.subs" 
d="M573 -242q-127 0 -249 58v147q58 -33 129 -52.5t122 -19.5q76 0 115 29t39 80q0 58 -47.5 91.5t-130.5 33.5h-82v131h82q64 0 110 27.5t46 72.5q0 37 -35.5 58.5t-98.5 21.5q-108 0 -231 -65v141q114 57 231 57q130 0 204.5 -52.5t74.5 -151.5q0 -72 -39.5 -119
t-130.5 -53q190 -13 190 -213q0 -106 -74.5 -164t-224.5 -58z" />
    <glyph glyph-name="four.subs" 
d="M631 -229v170h-371v90l356 526h158v-489h127v-127h-127v-170h-143zM422 68h209v311z" />
    <glyph glyph-name="five.subs" 
d="M569 -242q-126 0 -241 47v148q53 -33 107 -48.5t134 -15.5q156 0 156 136q0 122 -123 122q-58 0 -117 -43l-139 58v395h485v-131h-346v-201q20 19 33.5 28.5t45.5 18.5t77 9q101 0 165 -68.5t64 -187.5q0 -267 -301 -267z" />
    <glyph glyph-name="six.subs" 
d="M641 287q113 0 181.5 -80t68.5 -189q0 -114 -80 -187t-203 -73q-136 0 -218.5 77.5t-82.5 197.5q0 76 33.5 146t95.5 147l185 231h167l-204 -252l-49 -47q33 29 106 29zM602 -109q67 0 105 34.5t38 92.5q0 61 -38.5 98.5t-106.5 37.5t-107.5 -35t-39.5 -94
q0 -61 39.5 -97.5t109.5 -36.5z" />
    <glyph glyph-name="seven.subs" 
d="M383 -229l328 653h-392v133h553v-94l-329 -692h-160z" />
    <glyph glyph-name="eight.subs" 
d="M594 -242q-139 0 -222 65t-83 167q0 76 46 132.5t128 74.5q-70 12 -108 55.5t-38 112.5q0 84 79 144t198 60q120 0 198 -60t78 -144q0 -69 -37.5 -112.5t-107.5 -55.5q82 -18 128 -74.5t46 -132.5q0 -102 -83 -167t-222 -65zM594 250q133 9 133 104q0 40 -35 64t-98 24
t-97 -23.5t-34 -64.5q0 -95 131 -104zM594 -115q75 0 118.5 31.5t43.5 81.5q0 121 -162 131q-77 -5 -119.5 -38t-42.5 -93q0 -50 44 -81.5t118 -31.5z" />
    <glyph glyph-name="nine.subs" 
d="M580 569q136 0 218.5 -77t82.5 -197q0 -76 -33.5 -146t-95.5 -147l-185 -231h-168l205 252l49 47q-33 -29 -106 -29q-113 0 -181.5 79.5t-68.5 188.5q0 114 80 187t203 73zM588 174q68 0 107.5 35t39.5 94q0 61 -39.5 97t-109.5 36q-67 0 -105.5 -34.5t-38.5 -92.5
q0 -61 39 -98t107 -37z" />
    <glyph glyph-name="zero.dnom" 
d="M594 -446q-150 0 -234 106t-84 299t84 299.5t234 106.5q151 0 234 -106.5t83 -299.5t-83 -299t-234 -106zM594 -315q84 0 130 71.5t46 202.5t-46 202.5t-130 71.5t-130 -71.5t-46 -202.5t46 -202.5t130 -71.5z" />
    <glyph glyph-name="one.dnom" 
d="M340 -434v131h201v489q-70 -63 -185 -96v133q102 28 215 129h115v-655h174v-131h-520z" />
    <glyph glyph-name="two.dnom" 
d="M328 -434v88q32 32 91 82t103 89.5t89 88t69.5 99t24.5 100.5q0 58 -40 87t-100 29q-125 0 -229 -82v150q36 26 103 47t128 21q116 0 199.5 -69t83.5 -190q0 -50 -14 -95t-35 -77.5t-54 -67t-61 -57.5t-67.5 -55.5t-63.5 -54.5h313v-133h-540z" />
    <glyph glyph-name="three.dnom" 
d="M573 -446q-129 0 -249 57v147q58 -32 128.5 -51.5t122.5 -19.5q76 0 115 28.5t39 79.5q0 58 -47.5 91.5t-130.5 33.5h-82v131h82q64 0 110 27.5t46 73.5q0 37 -35.5 58t-98.5 21q-108 0 -231 -65v141q116 58 231 58q130 0 204.5 -53t74.5 -152q0 -72 -39.5 -119
t-130.5 -53q190 -13 190 -213q0 -106 -74.5 -163.5t-224.5 -57.5z" />
    <glyph glyph-name="four.dnom" 
d="M631 -434v170h-371v90l356 526h158v-489h127v-127h-127v-170h-143zM422 -137h209v311z" />
    <glyph glyph-name="five.dnom" 
d="M569 -446q-126 0 -241 47v147q53 -33 106.5 -48t134.5 -15q156 0 156 135q0 58 -30.5 90.5t-92.5 32.5q-58 0 -117 -43l-139 57v395h485v-131h-346v-201q20 19 33.5 28.5t45.5 18.5t77 9q101 0 165 -68.5t64 -187.5q0 -266 -301 -266z" />
    <glyph glyph-name="six.dnom" 
d="M641 82q113 0 181.5 -79.5t68.5 -188.5q0 -114 -80 -187t-203 -73q-136 0 -218.5 77t-82.5 197q0 76 33.5 146t95.5 147l185 231h167l-204 -252l-49 -47q33 29 106 29zM602 -313q67 0 105 34.5t38 92.5q0 61 -38.5 98t-106.5 37t-107.5 -35t-39.5 -94q0 -61 39.5 -97
t109.5 -36z" />
    <glyph glyph-name="seven.dnom" 
d="M383 -434l328 653h-392v133h553v-94l-329 -692h-160z" />
    <glyph glyph-name="eight.dnom" 
d="M594 -446q-139 0 -222 65t-83 166q0 76 46 132.5t128 74.5q-70 12 -108 55.5t-38 112.5q0 84 79 144.5t198 60.5q120 0 198 -60.5t78 -144.5q0 -69 -37.5 -112.5t-107.5 -55.5q82 -18 128 -74.5t46 -132.5q0 -101 -83 -166t-222 -65zM594 45q133 9 133 105q0 40 -35 64
t-98 24t-97 -23.5t-34 -64.5q0 -96 131 -105zM594 -319q75 0 118.5 31t43.5 81q0 121 -162 131q-77 -5 -119.5 -38t-42.5 -93q0 -50 44 -81t118 -31z" />
    <glyph glyph-name="nine.dnom" 
d="M580 365q136 0 218.5 -77.5t82.5 -197.5q0 -76 -33.5 -146t-95.5 -147l-185 -231h-168l205 252l49 47q-33 -29 -106 -29q-113 0 -181.5 79.5t-68.5 188.5q0 114 80 187.5t203 73.5zM588 -31q68 0 107.5 35t39.5 94q0 61 -39.5 97t-109.5 36q-67 0 -105.5 -34.5
t-38.5 -92.5q0 -61 39 -98t107 -37z" />
    <glyph glyph-name="zero.numr" 
d="M594 930q-150 0 -234 106t-84 299t84 299.5t234 106.5q151 0 234 -106.5t83 -299.5t-83 -299t-234 -106zM594 1061q84 0 130 71.5t46 202.5q0 132 -46 203.5t-130 71.5t-130 -71.5t-46 -203.5q0 -131 46 -202.5t130 -71.5z" />
    <glyph glyph-name="one.numr" 
d="M340 942v131h201v490q-71 -64 -185 -97v133q101 27 215 130h115v-656h174v-131h-520z" />
    <glyph glyph-name="two.numr" 
d="M328 942v88q32 32 91 82t103 89.5t89 88t69.5 99t24.5 100.5q0 58 -40 87.5t-100 29.5q-125 0 -229 -82v149q36 26 103 47t128 21q116 0 199.5 -68.5t83.5 -189.5q0 -60 -17.5 -110.5t-53 -92.5t-67 -71t-82 -69.5t-75.5 -64.5h313v-133h-540z" />
    <glyph glyph-name="three.numr" 
d="M573 930q-129 0 -249 57v148q58 -33 129 -52.5t122 -19.5q76 0 115 28.5t39 79.5q0 58 -47.5 91.5t-130.5 33.5h-82v131h82q64 0 110 27.5t46 73.5q0 37 -35.5 58.5t-98.5 21.5q-106 0 -231 -66v141q116 58 231 58q130 0 204.5 -53t74.5 -152q0 -72 -39.5 -119
t-130.5 -53q190 -13 190 -213q0 -106 -74.5 -163.5t-224.5 -57.5z" />
    <glyph glyph-name="four.numr" 
d="M631 942v170h-371v90l356 527h158v-490h127v-127h-127v-170h-143zM422 1239h209v311z" />
    <glyph glyph-name="five.numr" 
d="M569 930q-126 0 -241 47v147q53 -33 106.5 -48t134.5 -15q156 0 156 135q0 58 -30.5 90.5t-92.5 32.5q-58 0 -117 -43l-139 57v396h485v-132h-346v-200q20 19 33.5 28t45.5 18t77 9q101 0 165 -68.5t64 -187.5q0 -266 -301 -266z" />
    <glyph glyph-name="six.numr" 
d="M641 1458q113 0 181.5 -79.5t68.5 -188.5q0 -114 -80 -187t-203 -73q-136 0 -218.5 77t-82.5 197q0 76 33.5 146t95.5 147l185 232h167l-204 -252l-49 -47q32 28 106 28zM602 1063q67 0 105 34.5t38 92.5q0 61 -38.5 98t-106.5 37t-107.5 -35t-39.5 -94q0 -61 39.5 -97
t109.5 -36z" />
    <glyph glyph-name="seven.numr" 
d="M383 942l328 653h-392v134h553v-95l-329 -692h-160z" />
    <glyph glyph-name="eight.numr" 
d="M594 930q-139 0 -222 65t-83 166q0 76 46 132.5t128 74.5q-70 12 -108 55.5t-38 112.5q0 84 79 144.5t198 60.5q120 0 198 -60.5t78 -144.5q0 -69 -37.5 -112.5t-107.5 -55.5q82 -18 128 -74.5t46 -132.5q0 -101 -83 -166t-222 -65zM594 1421q133 9 133 105q0 40 -35 64
t-98 24t-97 -23.5t-34 -64.5q0 -96 131 -105zM594 1057q75 0 118.5 31t43.5 81q0 121 -162 131q-77 -5 -119.5 -38t-42.5 -93q0 -50 44 -81t118 -31z" />
    <glyph glyph-name="nine.numr" 
d="M580 1741q136 0 218.5 -77.5t82.5 -197.5q0 -76 -33 -145t-96 -147l-185 -232h-168l205 252l49 47q-33 -29 -106 -29q-113 0 -181.5 80t-68.5 189q0 114 80 187t203 73zM588 1346q68 0 107.5 35t39.5 94q0 61 -39.5 97t-109.5 36q-67 0 -105.5 -34.5t-38.5 -92.5
q0 -61 39 -98t107 -37z" />
    <glyph glyph-name="fraction.ss01" 
d="M106 586v123h975v-123h-975z" />
    <glyph glyph-name="colon.case" 
d="M594 877q-68 0 -116 48t-48 115q0 68 48 116t116 48t116 -48t48 -116q0 -67 -48 -115t-116 -48zM594 135q-68 0 -116 48.5t-48 115.5t48 115.5t116 48.5t116 -48.5t48 -115.5t-48 -115.5t-116 -48.5z" />
    <glyph glyph-name="braceleft.case" 
d="M807 -256q-177 0 -277 102t-100 275v258q0 124 -54 185t-171 61h-62v135h62q117 0 171 61.5t54 186.5v182q0 173 100 275t277 102h156v-135h-134q-111 0 -173 -66t-62 -184v-181q0 -280 -223 -307q118 -18 170.5 -96.5t52.5 -210.5v-258q0 -118 62 -184t173 -66h117v-135
h-139z" />
    <glyph glyph-name="braceright.case" 
d="M381 -256h-139v135h116q111 0 173.5 66t62.5 184v258q0 132 52.5 210.5t170.5 96.5q-223 27 -223 307v181q0 118 -62.5 184t-173.5 66h-133v135h156q177 0 277 -102t100 -275v-182q0 -125 54 -186.5t171 -61.5h61v-135h-61q-117 0 -171 -61t-54 -185v-258
q0 -173 -100 -275t-277 -102z" />
    <glyph glyph-name="bracketleft.case" 
d="M328 -256v1823h635v-135h-471v-1553h448v-135h-612z" />
    <glyph glyph-name="bracketright.case" 
d="M860 -256h-612v135h448v1553h-471v135h635v-1823z" />
    <glyph glyph-name="parenleft.case" 
d="M688 -256q-180 157 -280.5 397t-100.5 514q0 277 106.5 518.5t295.5 393.5h200q-207 -155 -322.5 -396.5t-115.5 -515.5t115.5 -515t322.5 -396h-221z" />
    <glyph glyph-name="parenright.case" 
d="M500 -256h-221q207 155 322.5 396t115.5 515t-115.5 515.5t-322.5 396.5h200q189 -152 295.5 -393.5t106.5 -518.5q0 -274 -100.5 -514t-280.5 -397z" />
    <glyph glyph-name="guillemotleft.case" 
d="M463 248l-344 411v21l344 412h188l-356 -422l356 -422h-188zM872 248l-344 411v21l344 412h189l-356 -422l356 -422h-189z" />
    <glyph glyph-name="guillemotright.case" 
d="M315 248h-188l356 422l-356 422h188l344 -412v-21zM725 248h-188l356 422l-356 422h188l344 -412v-21z" />
    <glyph glyph-name="guilsinglleft.case" 
d="M651 248l-344 411v21l344 412h189l-357 -422l357 -422h-189z" />
    <glyph glyph-name="guilsinglright.case" 
d="M537 248h-189l357 422l-357 422h189l344 -412v-21z" />
  </font>
</defs>
</svg>
