<svg class="w-full fill-current" viewBox="0 0 494 61">
    <g id="Logo" transform="translate(-87.000000, -121.000000)" fill-rule="nonzero">
        <path d="M87.96,180 L87.96,124 L103.48,124 L103.48,166.4 L130.6,166.4 L130.6,180 L87.96,180 Z M145.506667,180.96 C137.266667,180.96 131.026667,176.16 131.026667,167.6 L131.026667,167.44 C131.026667,158.4 137.826667,153.84 147.986667,153.84 C151.986667,153.84 155.906667,154.56 158.386667,155.52 L158.386667,154.8 C158.386667,150.24 155.586667,147.68 149.746667,147.68 C145.186667,147.68 141.666667,148.64 137.746667,150.08 L134.626667,139.44 C139.506667,137.44 144.706667,136.08 152.146667,136.08 C159.906667,136.08 165.186667,137.92 168.626667,141.36 C171.906667,144.56 173.266667,149.04 173.266667,155.12 L173.266667,180 L158.306667,180 L158.306667,175.44 C155.266667,178.72 151.186667,180.96 145.506667,180.96 Z M150.946667,171.44 C155.426667,171.44 158.546667,168.64 158.546667,164.32 L158.546667,162.32 C156.946667,161.68 154.786667,161.2 152.546667,161.2 C148.146667,161.2 145.586667,163.28 145.586667,166.56 L145.586667,166.72 C145.586667,169.68 147.826667,171.44 150.946667,171.44 Z M192.173333,180.96 C182.973333,180.96 177.373333,174.8 177.373333,164.96 L177.373333,136.72 L192.573333,136.72 L192.573333,160.16 C192.573333,164.88 195.053333,167.44 198.733333,167.44 C202.413333,167.44 205.133333,164.88 205.133333,160.16 L205.133333,136.72 L220.253333,136.72 L220.253333,180 L205.133333,180 L205.133333,174 C202.333333,177.6 198.333333,180.96 192.173333,180.96 Z M225.08,180 L225.08,136.72 L240.28,136.72 L240.28,142.8 C243.08,139.2 247.08,135.76 253.24,135.76 C262.44,135.76 267.96,141.84 267.96,151.68 L267.96,180 L252.84,180 L252.84,156.56 C252.84,151.76 250.36,149.2 246.68,149.2 C243,149.2 240.28,151.76 240.28,156.56 L240.28,180 L225.08,180 Z M293.426667,181.04 C280.306667,181.04 270.786667,170.8 270.786667,158.56 L270.786667,158.4 C270.786667,146.16 280.226667,135.84 293.906667,135.84 C302.786667,135.84 308.706667,139.68 312.386667,145.44 L302.146667,153.12 C299.986667,150.32 297.666667,148.56 294.066667,148.56 C289.106667,148.56 285.506667,152.96 285.506667,158.24 L285.506667,158.4 C285.506667,164 289.026667,168.24 294.146667,168.24 C297.826667,168.24 300.146667,166.56 302.466667,163.76 L312.626667,171.12 C308.626667,177.04 302.866667,181.04 293.426667,181.04 Z M314.653333,180 L314.653333,121.6 L329.853333,121.6 L329.853333,142.64 C332.653333,139.04 336.653333,135.76 342.813333,135.76 C352.013333,135.76 357.533333,141.84 357.533333,151.68 L357.533333,180 L342.413333,180 L342.413333,156.56 C342.413333,151.76 339.933333,149.2 336.253333,149.2 C332.573333,149.2 329.853333,151.76 329.853333,156.56 L329.853333,180 L314.653333,180 Z M364.76,180 L364.76,148.88 L359.72,148.88 L359.72,136.88 L364.76,136.88 L364.76,136 C364.76,131.04 365.88,127.36 368.44,124.8 C371.08,122.16 374.6,121.04 379.8,121.04 C384.36,121.04 387.32,121.52 389.64,122.24 L389.64,132.96 C387.88,132.4 386.2,132.08 383.96,132.08 C381.16,132.08 379.64,133.36 379.64,136.16 L379.64,137.2 L389.64,137.2 L389.64,148.88 L379.96,148.88 L379.96,180 L364.76,180 Z M391.026667,180 L391.026667,136.72 L406.226667,136.72 L406.226667,145.44 C408.706667,139.52 412.706667,135.68 419.906667,136 L419.906667,152 L418.626667,152 C410.706667,152 406.226667,156.56 406.226667,166.48 L406.226667,180 L391.026667,180 Z M432.333333,180.96 C424.093333,180.96 417.853333,176.16 417.853333,167.6 L417.853333,167.44 C417.853333,158.4 424.653333,153.84 434.813333,153.84 C438.813333,153.84 442.733333,154.56 445.213333,155.52 L445.213333,154.8 C445.213333,150.24 442.413333,147.68 436.573333,147.68 C432.013333,147.68 428.493333,148.64 424.573333,150.08 L421.453333,139.44 C426.333333,137.44 431.533333,136.08 438.973333,136.08 C446.733333,136.08 452.013333,137.92 455.453333,141.36 C458.733333,144.56 460.093333,149.04 460.093333,155.12 L460.093333,180 L445.133333,180 L445.133333,175.44 C442.093333,178.72 438.013333,180.96 432.333333,180.96 Z M437.773333,171.44 C442.253333,171.44 445.373333,168.64 445.373333,164.32 L445.373333,162.32 C443.773333,161.68 441.613333,161.2 439.373333,161.2 C434.973333,161.2 432.413333,163.28 432.413333,166.56 L432.413333,166.72 C432.413333,169.68 434.653333,171.44 437.773333,171.44 Z M464.52,180 L464.52,136.72 L479.72,136.72 L479.72,142.64 C482.52,139.04 486.52,135.76 492.6,135.76 C498.36,135.76 502.76,138.32 505.08,142.8 C508.84,138.48 513.24,135.76 519.56,135.76 C528.76,135.76 534.36,141.52 534.36,151.6 L534.36,180 L519.16,180 L519.16,156.48 C519.16,151.76 516.84,149.2 513.24,149.2 C509.64,149.2 507,151.76 507,156.48 L507,180 L491.88,180 L491.88,156.48 C491.88,151.76 489.48,149.2 485.88,149.2 C482.28,149.2 479.72,151.76 479.72,156.48 L479.72,180 L464.52,180 Z M560.386667,181.04 C546.786667,181.04 537.186667,171.92 537.186667,158.56 L537.186667,158.4 C537.186667,145.76 546.226667,135.76 559.026667,135.76 C573.906667,135.76 580.786667,146.72 580.786667,159.44 C580.786667,160.4 580.786667,161.52 580.706667,162.56 L551.746667,162.56 C552.946667,167.28 556.386667,169.68 561.106667,169.68 C564.786667,169.68 567.586667,168.32 570.706667,165.28 L579.106667,172.24 C574.946667,177.52 568.946667,181.04 560.386667,181.04 Z M551.506667,154.8 L566.626667,154.8 C566.066667,150 563.186667,146.96 559.026667,146.96 C555.026667,146.96 552.306667,150 551.506667,154.8 Z" id="Launchframe"></path>
    </g>
</svg>
